%TF.GenerationSoftware,KiCad,Pcbnew,8.0.2*%
%TF.CreationDate,2024-05-19T20:09:33-03:00*%
%TF.ProjectId,Diseno1,44697365-6e6f-4312-9e6b-696361645f70,01*%
%TF.SameCoordinates,Original*%
%TF.FileFunction,Legend,Bot*%
%TF.FilePolarity,Positive*%
%FSLAX46Y46*%
G04 Gerber Fmt 4.6, Leading zero omitted, Abs format (unit mm)*
G04 Created by KiCad (PCBNEW 8.0.2) date 2024-05-19 20:09:33*
%MOMM*%
%LPD*%
G01*
G04 APERTURE LIST*
%ADD10C,0.250000*%
%ADD11C,0.150000*%
%ADD12C,0.120000*%
%ADD13C,0.000000*%
G04 APERTURE END LIST*
D10*
X50865660Y-98140563D02*
X50818041Y-98092944D01*
X50818041Y-98092944D02*
X50675184Y-98045324D01*
X50675184Y-98045324D02*
X50579946Y-98045324D01*
X50579946Y-98045324D02*
X50437089Y-98092944D01*
X50437089Y-98092944D02*
X50341851Y-98188182D01*
X50341851Y-98188182D02*
X50294232Y-98283420D01*
X50294232Y-98283420D02*
X50246613Y-98473896D01*
X50246613Y-98473896D02*
X50246613Y-98616753D01*
X50246613Y-98616753D02*
X50294232Y-98807229D01*
X50294232Y-98807229D02*
X50341851Y-98902467D01*
X50341851Y-98902467D02*
X50437089Y-98997705D01*
X50437089Y-98997705D02*
X50579946Y-99045324D01*
X50579946Y-99045324D02*
X50675184Y-99045324D01*
X50675184Y-99045324D02*
X50818041Y-98997705D01*
X50818041Y-98997705D02*
X50865660Y-98950086D01*
X51294232Y-98045324D02*
X51294232Y-99045324D01*
X51865660Y-98045324D02*
X51437089Y-98616753D01*
X51865660Y-99045324D02*
X51294232Y-98473896D01*
X52770422Y-98045324D02*
X52294232Y-98045324D01*
X52294232Y-98045324D02*
X52294232Y-99045324D01*
X53865661Y-98426277D02*
X54627566Y-98426277D01*
X56437089Y-98045324D02*
X56103756Y-98521515D01*
X55865661Y-98045324D02*
X55865661Y-99045324D01*
X55865661Y-99045324D02*
X56246613Y-99045324D01*
X56246613Y-99045324D02*
X56341851Y-98997705D01*
X56341851Y-98997705D02*
X56389470Y-98950086D01*
X56389470Y-98950086D02*
X56437089Y-98854848D01*
X56437089Y-98854848D02*
X56437089Y-98711991D01*
X56437089Y-98711991D02*
X56389470Y-98616753D01*
X56389470Y-98616753D02*
X56341851Y-98569134D01*
X56341851Y-98569134D02*
X56246613Y-98521515D01*
X56246613Y-98521515D02*
X55865661Y-98521515D01*
X56865661Y-98045324D02*
X56865661Y-99045324D01*
X56865661Y-99045324D02*
X57103756Y-99045324D01*
X57103756Y-99045324D02*
X57246613Y-98997705D01*
X57246613Y-98997705D02*
X57341851Y-98902467D01*
X57341851Y-98902467D02*
X57389470Y-98807229D01*
X57389470Y-98807229D02*
X57437089Y-98616753D01*
X57437089Y-98616753D02*
X57437089Y-98473896D01*
X57437089Y-98473896D02*
X57389470Y-98283420D01*
X57389470Y-98283420D02*
X57341851Y-98188182D01*
X57341851Y-98188182D02*
X57246613Y-98092944D01*
X57246613Y-98092944D02*
X57103756Y-98045324D01*
X57103756Y-98045324D02*
X56865661Y-98045324D01*
X57722804Y-99045324D02*
X58294232Y-99045324D01*
X58008518Y-98045324D02*
X58008518Y-99045324D01*
X34389471Y-97435380D02*
X34960899Y-97435380D01*
X34675185Y-96435380D02*
X34675185Y-97435380D01*
X35675185Y-96483000D02*
X35579947Y-96435380D01*
X35579947Y-96435380D02*
X35389471Y-96435380D01*
X35389471Y-96435380D02*
X35294233Y-96483000D01*
X35294233Y-96483000D02*
X35246614Y-96578238D01*
X35246614Y-96578238D02*
X35246614Y-96959190D01*
X35246614Y-96959190D02*
X35294233Y-97054428D01*
X35294233Y-97054428D02*
X35389471Y-97102047D01*
X35389471Y-97102047D02*
X35579947Y-97102047D01*
X35579947Y-97102047D02*
X35675185Y-97054428D01*
X35675185Y-97054428D02*
X35722804Y-96959190D01*
X35722804Y-96959190D02*
X35722804Y-96863952D01*
X35722804Y-96863952D02*
X35246614Y-96768714D01*
X36151376Y-96435380D02*
X36151376Y-97102047D01*
X36151376Y-96911571D02*
X36198995Y-97006809D01*
X36198995Y-97006809D02*
X36246614Y-97054428D01*
X36246614Y-97054428D02*
X36341852Y-97102047D01*
X36341852Y-97102047D02*
X36437090Y-97102047D01*
X36770424Y-96435380D02*
X36770424Y-97102047D01*
X36770424Y-97006809D02*
X36818043Y-97054428D01*
X36818043Y-97054428D02*
X36913281Y-97102047D01*
X36913281Y-97102047D02*
X37056138Y-97102047D01*
X37056138Y-97102047D02*
X37151376Y-97054428D01*
X37151376Y-97054428D02*
X37198995Y-96959190D01*
X37198995Y-96959190D02*
X37198995Y-96435380D01*
X37198995Y-96959190D02*
X37246614Y-97054428D01*
X37246614Y-97054428D02*
X37341852Y-97102047D01*
X37341852Y-97102047D02*
X37484709Y-97102047D01*
X37484709Y-97102047D02*
X37579948Y-97054428D01*
X37579948Y-97054428D02*
X37627567Y-96959190D01*
X37627567Y-96959190D02*
X37627567Y-96435380D01*
X38246614Y-96435380D02*
X38151376Y-96483000D01*
X38151376Y-96483000D02*
X38103757Y-96530619D01*
X38103757Y-96530619D02*
X38056138Y-96625857D01*
X38056138Y-96625857D02*
X38056138Y-96911571D01*
X38056138Y-96911571D02*
X38103757Y-97006809D01*
X38103757Y-97006809D02*
X38151376Y-97054428D01*
X38151376Y-97054428D02*
X38246614Y-97102047D01*
X38246614Y-97102047D02*
X38389471Y-97102047D01*
X38389471Y-97102047D02*
X38484709Y-97054428D01*
X38484709Y-97054428D02*
X38532328Y-97006809D01*
X38532328Y-97006809D02*
X38579947Y-96911571D01*
X38579947Y-96911571D02*
X38579947Y-96625857D01*
X38579947Y-96625857D02*
X38532328Y-96530619D01*
X38532328Y-96530619D02*
X38484709Y-96483000D01*
X38484709Y-96483000D02*
X38389471Y-96435380D01*
X38389471Y-96435380D02*
X38246614Y-96435380D01*
X39008519Y-96435380D02*
X39008519Y-97102047D01*
X39008519Y-97006809D02*
X39056138Y-97054428D01*
X39056138Y-97054428D02*
X39151376Y-97102047D01*
X39151376Y-97102047D02*
X39294233Y-97102047D01*
X39294233Y-97102047D02*
X39389471Y-97054428D01*
X39389471Y-97054428D02*
X39437090Y-96959190D01*
X39437090Y-96959190D02*
X39437090Y-96435380D01*
X39437090Y-96959190D02*
X39484709Y-97054428D01*
X39484709Y-97054428D02*
X39579947Y-97102047D01*
X39579947Y-97102047D02*
X39722804Y-97102047D01*
X39722804Y-97102047D02*
X39818043Y-97054428D01*
X39818043Y-97054428D02*
X39865662Y-96959190D01*
X39865662Y-96959190D02*
X39865662Y-96435380D01*
X40722804Y-96483000D02*
X40627566Y-96435380D01*
X40627566Y-96435380D02*
X40437090Y-96435380D01*
X40437090Y-96435380D02*
X40341852Y-96483000D01*
X40341852Y-96483000D02*
X40294233Y-96578238D01*
X40294233Y-96578238D02*
X40294233Y-96959190D01*
X40294233Y-96959190D02*
X40341852Y-97054428D01*
X40341852Y-97054428D02*
X40437090Y-97102047D01*
X40437090Y-97102047D02*
X40627566Y-97102047D01*
X40627566Y-97102047D02*
X40722804Y-97054428D01*
X40722804Y-97054428D02*
X40770423Y-96959190D01*
X40770423Y-96959190D02*
X40770423Y-96863952D01*
X40770423Y-96863952D02*
X40294233Y-96768714D01*
X41056138Y-97102047D02*
X41437090Y-97102047D01*
X41198995Y-97435380D02*
X41198995Y-96578238D01*
X41198995Y-96578238D02*
X41246614Y-96483000D01*
X41246614Y-96483000D02*
X41341852Y-96435380D01*
X41341852Y-96435380D02*
X41437090Y-96435380D01*
X41770424Y-96435380D02*
X41770424Y-97102047D01*
X41770424Y-96911571D02*
X41818043Y-97006809D01*
X41818043Y-97006809D02*
X41865662Y-97054428D01*
X41865662Y-97054428D02*
X41960900Y-97102047D01*
X41960900Y-97102047D02*
X42056138Y-97102047D01*
X42532329Y-96435380D02*
X42437091Y-96483000D01*
X42437091Y-96483000D02*
X42389472Y-96530619D01*
X42389472Y-96530619D02*
X42341853Y-96625857D01*
X42341853Y-96625857D02*
X42341853Y-96911571D01*
X42341853Y-96911571D02*
X42389472Y-97006809D01*
X42389472Y-97006809D02*
X42437091Y-97054428D01*
X42437091Y-97054428D02*
X42532329Y-97102047D01*
X42532329Y-97102047D02*
X42675186Y-97102047D01*
X42675186Y-97102047D02*
X42770424Y-97054428D01*
X42770424Y-97054428D02*
X42818043Y-97006809D01*
X42818043Y-97006809D02*
X42865662Y-96911571D01*
X42865662Y-96911571D02*
X42865662Y-96625857D01*
X42865662Y-96625857D02*
X42818043Y-96530619D01*
X42818043Y-96530619D02*
X42770424Y-96483000D01*
X42770424Y-96483000D02*
X42675186Y-96435380D01*
X42675186Y-96435380D02*
X42532329Y-96435380D01*
X44056139Y-96435380D02*
X44056139Y-97435380D01*
X44056139Y-97435380D02*
X44294234Y-97435380D01*
X44294234Y-97435380D02*
X44437091Y-97387761D01*
X44437091Y-97387761D02*
X44532329Y-97292523D01*
X44532329Y-97292523D02*
X44579948Y-97197285D01*
X44579948Y-97197285D02*
X44627567Y-97006809D01*
X44627567Y-97006809D02*
X44627567Y-96863952D01*
X44627567Y-96863952D02*
X44579948Y-96673476D01*
X44579948Y-96673476D02*
X44532329Y-96578238D01*
X44532329Y-96578238D02*
X44437091Y-96483000D01*
X44437091Y-96483000D02*
X44294234Y-96435380D01*
X44294234Y-96435380D02*
X44056139Y-96435380D01*
X45056139Y-96435380D02*
X45056139Y-97102047D01*
X45056139Y-97435380D02*
X45008520Y-97387761D01*
X45008520Y-97387761D02*
X45056139Y-97340142D01*
X45056139Y-97340142D02*
X45103758Y-97387761D01*
X45103758Y-97387761D02*
X45056139Y-97435380D01*
X45056139Y-97435380D02*
X45056139Y-97340142D01*
X45960900Y-97102047D02*
X45960900Y-96292523D01*
X45960900Y-96292523D02*
X45913281Y-96197285D01*
X45913281Y-96197285D02*
X45865662Y-96149666D01*
X45865662Y-96149666D02*
X45770424Y-96102047D01*
X45770424Y-96102047D02*
X45627567Y-96102047D01*
X45627567Y-96102047D02*
X45532329Y-96149666D01*
X45960900Y-96483000D02*
X45865662Y-96435380D01*
X45865662Y-96435380D02*
X45675186Y-96435380D01*
X45675186Y-96435380D02*
X45579948Y-96483000D01*
X45579948Y-96483000D02*
X45532329Y-96530619D01*
X45532329Y-96530619D02*
X45484710Y-96625857D01*
X45484710Y-96625857D02*
X45484710Y-96911571D01*
X45484710Y-96911571D02*
X45532329Y-97006809D01*
X45532329Y-97006809D02*
X45579948Y-97054428D01*
X45579948Y-97054428D02*
X45675186Y-97102047D01*
X45675186Y-97102047D02*
X45865662Y-97102047D01*
X45865662Y-97102047D02*
X45960900Y-97054428D01*
X46437091Y-96435380D02*
X46437091Y-97102047D01*
X46437091Y-97435380D02*
X46389472Y-97387761D01*
X46389472Y-97387761D02*
X46437091Y-97340142D01*
X46437091Y-97340142D02*
X46484710Y-97387761D01*
X46484710Y-97387761D02*
X46437091Y-97435380D01*
X46437091Y-97435380D02*
X46437091Y-97340142D01*
X46770424Y-97102047D02*
X47151376Y-97102047D01*
X46913281Y-97435380D02*
X46913281Y-96578238D01*
X46913281Y-96578238D02*
X46960900Y-96483000D01*
X46960900Y-96483000D02*
X47056138Y-96435380D01*
X47056138Y-96435380D02*
X47151376Y-96435380D01*
X47913281Y-96435380D02*
X47913281Y-96959190D01*
X47913281Y-96959190D02*
X47865662Y-97054428D01*
X47865662Y-97054428D02*
X47770424Y-97102047D01*
X47770424Y-97102047D02*
X47579948Y-97102047D01*
X47579948Y-97102047D02*
X47484710Y-97054428D01*
X47913281Y-96483000D02*
X47818043Y-96435380D01*
X47818043Y-96435380D02*
X47579948Y-96435380D01*
X47579948Y-96435380D02*
X47484710Y-96483000D01*
X47484710Y-96483000D02*
X47437091Y-96578238D01*
X47437091Y-96578238D02*
X47437091Y-96673476D01*
X47437091Y-96673476D02*
X47484710Y-96768714D01*
X47484710Y-96768714D02*
X47579948Y-96816333D01*
X47579948Y-96816333D02*
X47818043Y-96816333D01*
X47818043Y-96816333D02*
X47913281Y-96863952D01*
X48532329Y-96435380D02*
X48437091Y-96483000D01*
X48437091Y-96483000D02*
X48389472Y-96578238D01*
X48389472Y-96578238D02*
X48389472Y-97435380D01*
X49675187Y-96816333D02*
X50437092Y-96816333D01*
X51675187Y-96435380D02*
X51675187Y-97102047D01*
X51675187Y-96911571D02*
X51722806Y-97006809D01*
X51722806Y-97006809D02*
X51770425Y-97054428D01*
X51770425Y-97054428D02*
X51865663Y-97102047D01*
X51865663Y-97102047D02*
X51960901Y-97102047D01*
X52675187Y-96483000D02*
X52579949Y-96435380D01*
X52579949Y-96435380D02*
X52389473Y-96435380D01*
X52389473Y-96435380D02*
X52294235Y-96483000D01*
X52294235Y-96483000D02*
X52246616Y-96578238D01*
X52246616Y-96578238D02*
X52246616Y-96959190D01*
X52246616Y-96959190D02*
X52294235Y-97054428D01*
X52294235Y-97054428D02*
X52389473Y-97102047D01*
X52389473Y-97102047D02*
X52579949Y-97102047D01*
X52579949Y-97102047D02*
X52675187Y-97054428D01*
X52675187Y-97054428D02*
X52722806Y-96959190D01*
X52722806Y-96959190D02*
X52722806Y-96863952D01*
X52722806Y-96863952D02*
X52246616Y-96768714D01*
X53056140Y-97102047D02*
X53294235Y-96435380D01*
X53294235Y-96435380D02*
X53532330Y-97102047D01*
X54865664Y-97435380D02*
X54960902Y-97435380D01*
X54960902Y-97435380D02*
X55056140Y-97387761D01*
X55056140Y-97387761D02*
X55103759Y-97340142D01*
X55103759Y-97340142D02*
X55151378Y-97244904D01*
X55151378Y-97244904D02*
X55198997Y-97054428D01*
X55198997Y-97054428D02*
X55198997Y-96816333D01*
X55198997Y-96816333D02*
X55151378Y-96625857D01*
X55151378Y-96625857D02*
X55103759Y-96530619D01*
X55103759Y-96530619D02*
X55056140Y-96483000D01*
X55056140Y-96483000D02*
X54960902Y-96435380D01*
X54960902Y-96435380D02*
X54865664Y-96435380D01*
X54865664Y-96435380D02*
X54770426Y-96483000D01*
X54770426Y-96483000D02*
X54722807Y-96530619D01*
X54722807Y-96530619D02*
X54675188Y-96625857D01*
X54675188Y-96625857D02*
X54627569Y-96816333D01*
X54627569Y-96816333D02*
X54627569Y-97054428D01*
X54627569Y-97054428D02*
X54675188Y-97244904D01*
X54675188Y-97244904D02*
X54722807Y-97340142D01*
X54722807Y-97340142D02*
X54770426Y-97387761D01*
X54770426Y-97387761D02*
X54865664Y-97435380D01*
X55579950Y-97340142D02*
X55627569Y-97387761D01*
X55627569Y-97387761D02*
X55722807Y-97435380D01*
X55722807Y-97435380D02*
X55960902Y-97435380D01*
X55960902Y-97435380D02*
X56056140Y-97387761D01*
X56056140Y-97387761D02*
X56103759Y-97340142D01*
X56103759Y-97340142D02*
X56151378Y-97244904D01*
X56151378Y-97244904D02*
X56151378Y-97149666D01*
X56151378Y-97149666D02*
X56103759Y-97006809D01*
X56103759Y-97006809D02*
X55532331Y-96435380D01*
X55532331Y-96435380D02*
X56151378Y-96435380D01*
X57341855Y-96816333D02*
X58103760Y-96816333D01*
X59865664Y-96435380D02*
X59294236Y-96435380D01*
X59579950Y-96435380D02*
X59579950Y-97435380D01*
X59579950Y-97435380D02*
X59484712Y-97292523D01*
X59484712Y-97292523D02*
X59389474Y-97197285D01*
X59389474Y-97197285D02*
X59294236Y-97149666D01*
X60341855Y-96435380D02*
X60532331Y-96435380D01*
X60532331Y-96435380D02*
X60627569Y-96483000D01*
X60627569Y-96483000D02*
X60675188Y-96530619D01*
X60675188Y-96530619D02*
X60770426Y-96673476D01*
X60770426Y-96673476D02*
X60818045Y-96863952D01*
X60818045Y-96863952D02*
X60818045Y-97244904D01*
X60818045Y-97244904D02*
X60770426Y-97340142D01*
X60770426Y-97340142D02*
X60722807Y-97387761D01*
X60722807Y-97387761D02*
X60627569Y-97435380D01*
X60627569Y-97435380D02*
X60437093Y-97435380D01*
X60437093Y-97435380D02*
X60341855Y-97387761D01*
X60341855Y-97387761D02*
X60294236Y-97340142D01*
X60294236Y-97340142D02*
X60246617Y-97244904D01*
X60246617Y-97244904D02*
X60246617Y-97006809D01*
X60246617Y-97006809D02*
X60294236Y-96911571D01*
X60294236Y-96911571D02*
X60341855Y-96863952D01*
X60341855Y-96863952D02*
X60437093Y-96816333D01*
X60437093Y-96816333D02*
X60627569Y-96816333D01*
X60627569Y-96816333D02*
X60722807Y-96863952D01*
X60722807Y-96863952D02*
X60770426Y-96911571D01*
X60770426Y-96911571D02*
X60818045Y-97006809D01*
X61960902Y-97483000D02*
X61103760Y-96197285D01*
X62484712Y-97435380D02*
X62579950Y-97435380D01*
X62579950Y-97435380D02*
X62675188Y-97387761D01*
X62675188Y-97387761D02*
X62722807Y-97340142D01*
X62722807Y-97340142D02*
X62770426Y-97244904D01*
X62770426Y-97244904D02*
X62818045Y-97054428D01*
X62818045Y-97054428D02*
X62818045Y-96816333D01*
X62818045Y-96816333D02*
X62770426Y-96625857D01*
X62770426Y-96625857D02*
X62722807Y-96530619D01*
X62722807Y-96530619D02*
X62675188Y-96483000D01*
X62675188Y-96483000D02*
X62579950Y-96435380D01*
X62579950Y-96435380D02*
X62484712Y-96435380D01*
X62484712Y-96435380D02*
X62389474Y-96483000D01*
X62389474Y-96483000D02*
X62341855Y-96530619D01*
X62341855Y-96530619D02*
X62294236Y-96625857D01*
X62294236Y-96625857D02*
X62246617Y-96816333D01*
X62246617Y-96816333D02*
X62246617Y-97054428D01*
X62246617Y-97054428D02*
X62294236Y-97244904D01*
X62294236Y-97244904D02*
X62341855Y-97340142D01*
X62341855Y-97340142D02*
X62389474Y-97387761D01*
X62389474Y-97387761D02*
X62484712Y-97435380D01*
X63722807Y-97435380D02*
X63246617Y-97435380D01*
X63246617Y-97435380D02*
X63198998Y-96959190D01*
X63198998Y-96959190D02*
X63246617Y-97006809D01*
X63246617Y-97006809D02*
X63341855Y-97054428D01*
X63341855Y-97054428D02*
X63579950Y-97054428D01*
X63579950Y-97054428D02*
X63675188Y-97006809D01*
X63675188Y-97006809D02*
X63722807Y-96959190D01*
X63722807Y-96959190D02*
X63770426Y-96863952D01*
X63770426Y-96863952D02*
X63770426Y-96625857D01*
X63770426Y-96625857D02*
X63722807Y-96530619D01*
X63722807Y-96530619D02*
X63675188Y-96483000D01*
X63675188Y-96483000D02*
X63579950Y-96435380D01*
X63579950Y-96435380D02*
X63341855Y-96435380D01*
X63341855Y-96435380D02*
X63246617Y-96483000D01*
X63246617Y-96483000D02*
X63198998Y-96530619D01*
X64913283Y-97483000D02*
X64056141Y-96197285D01*
X65198998Y-97340142D02*
X65246617Y-97387761D01*
X65246617Y-97387761D02*
X65341855Y-97435380D01*
X65341855Y-97435380D02*
X65579950Y-97435380D01*
X65579950Y-97435380D02*
X65675188Y-97387761D01*
X65675188Y-97387761D02*
X65722807Y-97340142D01*
X65722807Y-97340142D02*
X65770426Y-97244904D01*
X65770426Y-97244904D02*
X65770426Y-97149666D01*
X65770426Y-97149666D02*
X65722807Y-97006809D01*
X65722807Y-97006809D02*
X65151379Y-96435380D01*
X65151379Y-96435380D02*
X65770426Y-96435380D01*
X66627569Y-97102047D02*
X66627569Y-96435380D01*
X66389474Y-97483000D02*
X66151379Y-96768714D01*
X66151379Y-96768714D02*
X66770426Y-96768714D01*
X67913284Y-96816333D02*
X68675189Y-96816333D01*
X69913284Y-96435380D02*
X69913284Y-97435380D01*
X69913284Y-97435380D02*
X70151379Y-97435380D01*
X70151379Y-97435380D02*
X70294236Y-97387761D01*
X70294236Y-97387761D02*
X70389474Y-97292523D01*
X70389474Y-97292523D02*
X70437093Y-97197285D01*
X70437093Y-97197285D02*
X70484712Y-97006809D01*
X70484712Y-97006809D02*
X70484712Y-96863952D01*
X70484712Y-96863952D02*
X70437093Y-96673476D01*
X70437093Y-96673476D02*
X70389474Y-96578238D01*
X70389474Y-96578238D02*
X70294236Y-96483000D01*
X70294236Y-96483000D02*
X70151379Y-96435380D01*
X70151379Y-96435380D02*
X69913284Y-96435380D01*
X70913284Y-96435380D02*
X70913284Y-97435380D01*
X70913284Y-97435380D02*
X71151379Y-97435380D01*
X71151379Y-97435380D02*
X71294236Y-97387761D01*
X71294236Y-97387761D02*
X71389474Y-97292523D01*
X71389474Y-97292523D02*
X71437093Y-97197285D01*
X71437093Y-97197285D02*
X71484712Y-97006809D01*
X71484712Y-97006809D02*
X71484712Y-96863952D01*
X71484712Y-96863952D02*
X71437093Y-96673476D01*
X71437093Y-96673476D02*
X71389474Y-96578238D01*
X71389474Y-96578238D02*
X71294236Y-96483000D01*
X71294236Y-96483000D02*
X71151379Y-96435380D01*
X71151379Y-96435380D02*
X70913284Y-96435380D01*
X71913284Y-96435380D02*
X71913284Y-97435380D01*
X71913284Y-97435380D02*
X72294236Y-97435380D01*
X72294236Y-97435380D02*
X72389474Y-97387761D01*
X72389474Y-97387761D02*
X72437093Y-97340142D01*
X72437093Y-97340142D02*
X72484712Y-97244904D01*
X72484712Y-97244904D02*
X72484712Y-97102047D01*
X72484712Y-97102047D02*
X72437093Y-97006809D01*
X72437093Y-97006809D02*
X72389474Y-96959190D01*
X72389474Y-96959190D02*
X72294236Y-96911571D01*
X72294236Y-96911571D02*
X71913284Y-96911571D01*
X72865665Y-97340142D02*
X72913284Y-97387761D01*
X72913284Y-97387761D02*
X73008522Y-97435380D01*
X73008522Y-97435380D02*
X73246617Y-97435380D01*
X73246617Y-97435380D02*
X73341855Y-97387761D01*
X73341855Y-97387761D02*
X73389474Y-97340142D01*
X73389474Y-97340142D02*
X73437093Y-97244904D01*
X73437093Y-97244904D02*
X73437093Y-97149666D01*
X73437093Y-97149666D02*
X73389474Y-97006809D01*
X73389474Y-97006809D02*
X72818046Y-96435380D01*
X72818046Y-96435380D02*
X73437093Y-96435380D01*
X74056141Y-97435380D02*
X74151379Y-97435380D01*
X74151379Y-97435380D02*
X74246617Y-97387761D01*
X74246617Y-97387761D02*
X74294236Y-97340142D01*
X74294236Y-97340142D02*
X74341855Y-97244904D01*
X74341855Y-97244904D02*
X74389474Y-97054428D01*
X74389474Y-97054428D02*
X74389474Y-96816333D01*
X74389474Y-96816333D02*
X74341855Y-96625857D01*
X74341855Y-96625857D02*
X74294236Y-96530619D01*
X74294236Y-96530619D02*
X74246617Y-96483000D01*
X74246617Y-96483000D02*
X74151379Y-96435380D01*
X74151379Y-96435380D02*
X74056141Y-96435380D01*
X74056141Y-96435380D02*
X73960903Y-96483000D01*
X73960903Y-96483000D02*
X73913284Y-96530619D01*
X73913284Y-96530619D02*
X73865665Y-96625857D01*
X73865665Y-96625857D02*
X73818046Y-96816333D01*
X73818046Y-96816333D02*
X73818046Y-97054428D01*
X73818046Y-97054428D02*
X73865665Y-97244904D01*
X73865665Y-97244904D02*
X73913284Y-97340142D01*
X73913284Y-97340142D02*
X73960903Y-97387761D01*
X73960903Y-97387761D02*
X74056141Y-97435380D01*
X74770427Y-97340142D02*
X74818046Y-97387761D01*
X74818046Y-97387761D02*
X74913284Y-97435380D01*
X74913284Y-97435380D02*
X75151379Y-97435380D01*
X75151379Y-97435380D02*
X75246617Y-97387761D01*
X75246617Y-97387761D02*
X75294236Y-97340142D01*
X75294236Y-97340142D02*
X75341855Y-97244904D01*
X75341855Y-97244904D02*
X75341855Y-97149666D01*
X75341855Y-97149666D02*
X75294236Y-97006809D01*
X75294236Y-97006809D02*
X74722808Y-96435380D01*
X74722808Y-96435380D02*
X75341855Y-96435380D01*
X76198998Y-97102047D02*
X76198998Y-96435380D01*
X75960903Y-97483000D02*
X75722808Y-96768714D01*
X75722808Y-96768714D02*
X76341855Y-96768714D01*
D11*
X112921009Y-99219047D02*
X112968628Y-99361904D01*
X112968628Y-99361904D02*
X113016247Y-99409523D01*
X113016247Y-99409523D02*
X113111485Y-99457142D01*
X113111485Y-99457142D02*
X113254342Y-99457142D01*
X113254342Y-99457142D02*
X113349580Y-99409523D01*
X113349580Y-99409523D02*
X113397200Y-99361904D01*
X113397200Y-99361904D02*
X113444819Y-99266666D01*
X113444819Y-99266666D02*
X113444819Y-98885714D01*
X113444819Y-98885714D02*
X112444819Y-98885714D01*
X112444819Y-98885714D02*
X112444819Y-99219047D01*
X112444819Y-99219047D02*
X112492438Y-99314285D01*
X112492438Y-99314285D02*
X112540057Y-99361904D01*
X112540057Y-99361904D02*
X112635295Y-99409523D01*
X112635295Y-99409523D02*
X112730533Y-99409523D01*
X112730533Y-99409523D02*
X112825771Y-99361904D01*
X112825771Y-99361904D02*
X112873390Y-99314285D01*
X112873390Y-99314285D02*
X112921009Y-99219047D01*
X112921009Y-99219047D02*
X112921009Y-98885714D01*
X112444819Y-99790476D02*
X112444819Y-100457142D01*
X112444819Y-100457142D02*
X113444819Y-99790476D01*
X113444819Y-99790476D02*
X113444819Y-100457142D01*
X113444819Y-101361904D02*
X113444819Y-100790476D01*
X113444819Y-101076190D02*
X112444819Y-101076190D01*
X112444819Y-101076190D02*
X112587676Y-100980952D01*
X112587676Y-100980952D02*
X112682914Y-100885714D01*
X112682914Y-100885714D02*
X112730533Y-100790476D01*
X108553866Y-103229048D02*
X108553866Y-103990953D01*
X108934819Y-103610000D02*
X108172914Y-103610000D01*
D12*
%TO.C,BZ1*%
X112040000Y-99800000D02*
G75*
G02*
X99840000Y-99800000I-6100000J0D01*
G01*
X99840000Y-99800000D02*
G75*
G02*
X112040000Y-99800000I6100000J0D01*
G01*
D13*
%TO.C,G\u002A\u002A\u002A*%
G36*
X54229407Y-101459971D02*
G01*
X55783518Y-101459980D01*
X55130852Y-101851940D01*
X55012098Y-101923078D01*
X54784028Y-102058701D01*
X54584668Y-102175979D01*
X54432156Y-102264279D01*
X54344630Y-102312964D01*
X54334835Y-102317962D01*
X54285207Y-102337969D01*
X54231629Y-102341956D01*
X54160920Y-102324191D01*
X54059901Y-102278943D01*
X53915392Y-102200482D01*
X53714213Y-102083076D01*
X53443185Y-101920995D01*
X52675296Y-101459962D01*
X54229407Y-101459971D01*
G37*
G36*
X54490747Y-100088158D02*
G01*
X54823381Y-100165433D01*
X55102593Y-100295741D01*
X55249292Y-100389770D01*
X54241548Y-100390589D01*
X54150568Y-100390568D01*
X53858596Y-100389142D01*
X53606660Y-100385865D01*
X53409034Y-100381056D01*
X53279991Y-100375031D01*
X53233804Y-100368111D01*
X53234562Y-100364255D01*
X53286098Y-100320250D01*
X53399101Y-100259879D01*
X53546209Y-100195287D01*
X53700060Y-100138620D01*
X53833290Y-100102022D01*
X54135522Y-100068624D01*
X54490747Y-100088158D01*
G37*
G36*
X55657352Y-100932880D02*
G01*
X55661439Y-100944653D01*
X55696341Y-101050172D01*
X55710669Y-101102860D01*
X55702374Y-101104663D01*
X55618764Y-101108753D01*
X55454702Y-101112404D01*
X55221962Y-101115479D01*
X54932317Y-101117843D01*
X54597541Y-101119360D01*
X54229407Y-101119896D01*
X54072675Y-101119801D01*
X53717013Y-101118839D01*
X53399616Y-101116952D01*
X53132257Y-101114276D01*
X52926710Y-101110945D01*
X52794748Y-101107094D01*
X52748145Y-101102860D01*
X52748301Y-101101106D01*
X52765190Y-101041508D01*
X52801462Y-100932880D01*
X52854779Y-100779935D01*
X54229407Y-100779935D01*
X55604035Y-100779935D01*
X55657352Y-100932880D01*
G37*
G36*
X54243667Y-102930817D02*
G01*
X54312725Y-102980989D01*
X54341757Y-103098959D01*
X54355465Y-103185948D01*
X54399432Y-103244083D01*
X54499597Y-103256799D01*
X54558000Y-103259354D01*
X54626071Y-103290783D01*
X54642217Y-103378214D01*
X54638738Y-103431012D01*
X54600646Y-103486561D01*
X54496520Y-103499629D01*
X54419621Y-103504092D01*
X54362856Y-103542129D01*
X54350822Y-103645326D01*
X54347922Y-103708685D01*
X54316179Y-103775343D01*
X54229407Y-103791024D01*
X54176608Y-103787545D01*
X54121059Y-103749453D01*
X54107992Y-103645326D01*
X54103528Y-103568428D01*
X54065492Y-103511663D01*
X53962294Y-103499629D01*
X53898936Y-103496729D01*
X53832277Y-103464986D01*
X53816596Y-103378214D01*
X53820075Y-103325415D01*
X53858168Y-103269866D01*
X53962294Y-103256799D01*
X53964810Y-103256797D01*
X54060730Y-103247164D01*
X54100270Y-103199120D01*
X54107992Y-103083440D01*
X54113610Y-102979049D01*
X54144173Y-102927634D01*
X54217265Y-102925601D01*
X54243667Y-102930817D01*
G37*
G36*
X54498322Y-99343151D02*
G01*
X54802811Y-99395400D01*
X54831510Y-99403050D01*
X55266687Y-99567411D01*
X55642472Y-99805010D01*
X55953170Y-100111397D01*
X56193089Y-100482121D01*
X56198013Y-100491901D01*
X56302722Y-100717973D01*
X56379682Y-100933141D01*
X56432777Y-101158943D01*
X56465893Y-101416912D01*
X56482914Y-101728586D01*
X56487724Y-102115499D01*
X56484429Y-102409633D01*
X56463582Y-102807640D01*
X56419359Y-103136758D01*
X56346954Y-103413533D01*
X56241558Y-103654513D01*
X56098365Y-103876246D01*
X55912568Y-104095280D01*
X55859420Y-104150782D01*
X55489083Y-104468659D01*
X55091701Y-104693802D01*
X54664604Y-104827425D01*
X54205124Y-104870740D01*
X54004350Y-104861507D01*
X53556421Y-104775103D01*
X53144546Y-104602837D01*
X52778492Y-104350812D01*
X52468023Y-104025130D01*
X52222906Y-103631896D01*
X52193199Y-103570498D01*
X52111828Y-103383146D01*
X52052884Y-103202305D01*
X52012911Y-103007274D01*
X51988456Y-102777353D01*
X51976062Y-102491839D01*
X51972277Y-102130031D01*
X51978046Y-101790391D01*
X52392415Y-101790391D01*
X52394097Y-102078106D01*
X52403810Y-102382611D01*
X52411853Y-102555721D01*
X52425265Y-102798270D01*
X52440798Y-102975538D01*
X52462220Y-103107850D01*
X52493298Y-103215530D01*
X52537799Y-103318902D01*
X52599490Y-103438290D01*
X52632156Y-103496891D01*
X52873098Y-103827396D01*
X53175381Y-104108405D01*
X53514610Y-104316505D01*
X53654189Y-104376414D01*
X53804974Y-104420123D01*
X53975841Y-104440853D01*
X54205124Y-104445781D01*
X54224167Y-104445721D01*
X54442816Y-104439554D01*
X54608246Y-104417553D01*
X54761178Y-104371229D01*
X54942336Y-104292093D01*
X55313086Y-104073458D01*
X55621100Y-103789407D01*
X55861687Y-103439023D01*
X56026347Y-103135384D01*
X56026347Y-102115499D01*
X56026347Y-101095613D01*
X55886761Y-100793418D01*
X55751565Y-100559935D01*
X55529067Y-100290036D01*
X55268066Y-100059965D01*
X54996300Y-99897627D01*
X54968577Y-99886044D01*
X54744533Y-99824006D01*
X54467992Y-99785235D01*
X54175094Y-99771655D01*
X53901980Y-99785192D01*
X53684790Y-99827771D01*
X53312160Y-99993458D01*
X52982004Y-100238276D01*
X52718354Y-100549041D01*
X52527503Y-100918261D01*
X52415746Y-101338443D01*
X52412004Y-101365154D01*
X52398480Y-101544422D01*
X52392415Y-101790391D01*
X51978046Y-101790391D01*
X51979998Y-101675490D01*
X52008712Y-101291371D01*
X52063575Y-100970966D01*
X52149729Y-100698076D01*
X52272311Y-100456502D01*
X52436463Y-100230045D01*
X52647325Y-100002505D01*
X52955613Y-99735014D01*
X53296815Y-99527388D01*
X53670898Y-99389007D01*
X53842718Y-99353985D01*
X54163079Y-99329261D01*
X54498322Y-99343151D01*
G37*
%TD*%
M02*
