%TF.GenerationSoftware,KiCad,Pcbnew,8.0.2*%
%TF.CreationDate,2024-05-19T20:09:33-03:00*%
%TF.ProjectId,Diseno1,44697365-6e6f-4312-9e6b-696361645f70,01*%
%TF.SameCoordinates,Original*%
%TF.FileFunction,Profile,NP*%
%FSLAX46Y46*%
G04 Gerber Fmt 4.6, Leading zero omitted, Abs format (unit mm)*
G04 Created by KiCad (PCBNEW 8.0.2) date 2024-05-19 20:09:33*
%MOMM*%
%LPD*%
G01*
G04 APERTURE LIST*
%TA.AperFunction,Profile*%
%ADD10C,0.200000*%
%TD*%
G04 APERTURE END LIST*
D10*
X68045100Y-105744710D02*
X68628900Y-105975860D01*
X73820900Y-86278400D02*
X73312900Y-86647400D01*
X71539400Y-111126700D02*
X71657100Y-111743400D01*
X71851100Y-112340600D02*
X72118500Y-112908800D01*
X71460600Y-91126680D02*
X71342900Y-91743450D01*
X34361230Y-95889190D02*
X34107233Y-96073730D01*
X35700800Y-105500000D02*
X66500000Y-105500000D01*
X33678248Y-96530550D02*
X33510019Y-96795620D01*
X66500000Y-95500000D02*
X35700800Y-95500000D01*
X131024100Y-86530500D02*
X130824000Y-86288600D01*
X75563100Y-85588600D02*
X74954900Y-85744700D01*
X33878367Y-104711360D02*
X34107233Y-104926270D01*
X35700800Y-105495060D02*
X35700800Y-105500000D01*
X69179100Y-94721650D02*
X68628900Y-95024140D01*
X66813900Y-95490140D02*
X66500000Y-95490140D01*
X130066000Y-115262100D02*
X130341200Y-115110800D01*
X130595100Y-86073700D02*
X130341200Y-85889200D01*
X129000000Y-115500000D02*
X129000000Y-115495100D01*
X66500000Y-105509860D02*
X66813900Y-105509860D01*
X131192400Y-86795600D02*
X131024100Y-86530500D01*
X76500000Y-85509900D02*
X76186000Y-85509900D01*
X72855100Y-87077300D02*
X72454900Y-87561100D01*
X33200800Y-103000000D02*
X33220499Y-103313320D01*
X76500000Y-85500000D02*
X76500000Y-85509900D01*
X74954900Y-85744700D02*
X74371100Y-85975900D01*
X33376352Y-97079700D02*
X33279337Y-97378280D01*
X74371100Y-85975900D02*
X73820900Y-86278400D01*
X70144800Y-107077260D02*
X70545100Y-107561070D01*
X33678248Y-104469450D02*
X33878367Y-104711360D01*
X68045100Y-95255290D02*
X67436900Y-95411440D01*
X130824000Y-114711400D02*
X131024100Y-114469500D01*
X131423000Y-87378300D02*
X131326000Y-87079700D01*
X34107233Y-104926270D02*
X34361230Y-105110810D01*
X71851100Y-88659400D02*
X71657100Y-89256600D01*
X72855100Y-113922700D02*
X73312900Y-114352600D01*
X34636350Y-105262050D02*
X34928250Y-105377640D01*
X68628900Y-105975860D02*
X69179100Y-106278350D01*
X71657100Y-89256600D02*
X71539400Y-89873300D01*
X131326000Y-87079700D02*
X131192400Y-86795600D01*
X131423000Y-113621700D02*
X131481900Y-113313300D01*
X130341200Y-85889200D02*
X130066000Y-85737900D01*
X33279337Y-97378280D02*
X33220499Y-97686680D01*
X68628900Y-95024140D02*
X68045100Y-95255290D01*
X70881500Y-92908780D02*
X70545100Y-93438930D01*
X34636350Y-95737950D02*
X34361230Y-95889190D01*
X33220499Y-103313320D02*
X33279337Y-103621720D01*
X129158600Y-115495100D02*
X129470000Y-115455700D01*
X73312900Y-114352600D02*
X73820900Y-114721600D01*
X70144800Y-93922740D02*
X69687100Y-94352570D01*
X76186000Y-85509900D02*
X75563100Y-85588600D01*
X33878367Y-96288640D02*
X33678248Y-96530550D01*
X74954900Y-115255300D02*
X75563100Y-115411400D01*
X66500000Y-95490140D02*
X66500000Y-95500000D01*
X72118500Y-112908800D02*
X72454900Y-113438900D01*
X67436900Y-105588560D02*
X68045100Y-105744710D01*
X129470000Y-115455700D02*
X129774100Y-115377600D01*
X130824000Y-86288600D02*
X130595100Y-86073700D01*
X131326000Y-113920300D02*
X131423000Y-113621700D01*
X71460600Y-109873320D02*
X71539400Y-111126700D01*
X130595100Y-114926300D02*
X130824000Y-114711400D01*
X35232340Y-105455700D02*
X35543820Y-105495060D01*
X131481900Y-113313300D02*
X131501600Y-113000000D01*
X131024100Y-114469500D02*
X131192400Y-114204400D01*
X35700800Y-95500000D02*
X35700800Y-95504940D01*
X129774100Y-85622400D02*
X129470000Y-85544300D01*
X33510019Y-96795620D02*
X33376352Y-97079700D01*
X33200800Y-98000000D02*
X33200800Y-103000000D01*
X34928250Y-105377640D02*
X35232340Y-105455700D01*
X129000000Y-115495100D02*
X129158600Y-115495100D01*
X131501600Y-88000000D02*
X131481900Y-87686700D01*
X130341200Y-115110800D02*
X130595100Y-114926300D01*
X76500000Y-115500000D02*
X129000000Y-115500000D01*
X71148900Y-92340640D02*
X70881500Y-92908780D01*
X35700800Y-95504940D02*
X35543820Y-95504940D01*
X75563100Y-115411400D02*
X76186000Y-115490100D01*
X76186000Y-115490100D02*
X76500000Y-115490100D01*
X66500000Y-105500000D02*
X66500000Y-105509860D01*
X71342900Y-91743450D02*
X71148900Y-92340640D01*
X70545100Y-93438930D02*
X70144800Y-93922740D01*
X69687100Y-94352570D02*
X69179100Y-94721650D01*
X70881500Y-108091220D02*
X71148900Y-108659360D01*
X33376352Y-103920300D02*
X33510019Y-104204380D01*
X69687100Y-106647430D02*
X70144800Y-107077260D01*
X129000000Y-85500000D02*
X76500000Y-85500000D01*
X33279337Y-103621720D02*
X33376352Y-103920300D01*
X73312900Y-86647400D02*
X72855100Y-87077300D01*
X70545100Y-107561070D02*
X70881500Y-108091220D01*
X72454900Y-87561100D02*
X72118500Y-88091200D01*
X66813900Y-105509860D02*
X67436900Y-105588560D01*
X74371100Y-115024100D02*
X74954900Y-115255300D01*
X129470000Y-85544300D02*
X129158600Y-85504900D01*
X69179100Y-106278350D02*
X69687100Y-106647430D01*
X76500000Y-115490100D02*
X76500000Y-115500000D01*
X71148900Y-108659360D02*
X71342900Y-109256550D01*
X71342900Y-109256550D02*
X71460600Y-109873320D01*
X34928250Y-95622360D02*
X34636350Y-95737950D01*
X129000000Y-85504900D02*
X129000000Y-85500000D01*
X131481900Y-87686700D02*
X131423000Y-87378300D01*
X71657100Y-111743400D02*
X71851100Y-112340600D01*
X71539400Y-89873300D02*
X71460600Y-91126680D01*
X129774100Y-115377600D02*
X130066000Y-115262100D01*
X33220499Y-97686680D02*
X33200800Y-98000000D01*
X73820900Y-114721600D02*
X74371100Y-115024100D01*
X35543820Y-105495060D02*
X35700800Y-105495060D01*
X131192400Y-114204400D02*
X131326000Y-113920300D01*
X34361230Y-105110810D02*
X34636350Y-105262050D01*
X67436900Y-95411440D02*
X66813900Y-95490140D01*
X33510019Y-104204380D02*
X33678248Y-104469450D01*
X129158600Y-85504900D02*
X129000000Y-85504900D01*
X35232340Y-95544300D02*
X34928250Y-95622360D01*
X34107233Y-96073730D02*
X33878367Y-96288640D01*
X131501600Y-113000000D02*
X131501600Y-88000000D01*
X130066000Y-85737900D02*
X129774100Y-85622400D01*
X72118500Y-88091200D02*
X71851100Y-88659400D01*
X35543820Y-95504940D02*
X35232340Y-95544300D01*
X72454900Y-113438900D02*
X72855100Y-113922700D01*
M02*
