%TF.GenerationSoftware,KiCad,Pcbnew,8.0.2*%
%TF.CreationDate,2024-05-19T20:09:33-03:00*%
%TF.ProjectId,Diseno1,44697365-6e6f-4312-9e6b-696361645f70,01*%
%TF.SameCoordinates,Original*%
%TF.FileFunction,Soldermask,Top*%
%TF.FilePolarity,Negative*%
%FSLAX46Y46*%
G04 Gerber Fmt 4.6, Leading zero omitted, Abs format (unit mm)*
G04 Created by KiCad (PCBNEW 8.0.2) date 2024-05-19 20:09:33*
%MOMM*%
%LPD*%
G01*
G04 APERTURE LIST*
G04 Aperture macros list*
%AMRoundRect*
0 Rectangle with rounded corners*
0 $1 Rounding radius*
0 $2 $3 $4 $5 $6 $7 $8 $9 X,Y pos of 4 corners*
0 Add a 4 corners polygon primitive as box body*
4,1,4,$2,$3,$4,$5,$6,$7,$8,$9,$2,$3,0*
0 Add four circle primitives for the rounded corners*
1,1,$1+$1,$2,$3*
1,1,$1+$1,$4,$5*
1,1,$1+$1,$6,$7*
1,1,$1+$1,$8,$9*
0 Add four rect primitives between the rounded corners*
20,1,$1+$1,$2,$3,$4,$5,0*
20,1,$1+$1,$4,$5,$6,$7,0*
20,1,$1+$1,$6,$7,$8,$9,0*
20,1,$1+$1,$8,$9,$2,$3,0*%
G04 Aperture macros list end*
%ADD10RoundRect,0.200000X-0.275000X0.200000X-0.275000X-0.200000X0.275000X-0.200000X0.275000X0.200000X0*%
%ADD11RoundRect,0.225000X-0.250000X0.225000X-0.250000X-0.225000X0.250000X-0.225000X0.250000X0.225000X0*%
%ADD12RoundRect,0.150000X-0.150000X0.875000X-0.150000X-0.875000X0.150000X-0.875000X0.150000X0.875000X0*%
%ADD13RoundRect,0.200000X0.275000X-0.200000X0.275000X0.200000X-0.275000X0.200000X-0.275000X-0.200000X0*%
%ADD14RoundRect,0.225000X0.250000X-0.225000X0.250000X0.225000X-0.250000X0.225000X-0.250000X-0.225000X0*%
%ADD15RoundRect,0.200000X-0.200000X-0.275000X0.200000X-0.275000X0.200000X0.275000X-0.200000X0.275000X0*%
%ADD16RoundRect,0.250000X-0.475000X0.250000X-0.475000X-0.250000X0.475000X-0.250000X0.475000X0.250000X0*%
%ADD17RoundRect,0.200000X0.200000X0.275000X-0.200000X0.275000X-0.200000X-0.275000X0.200000X-0.275000X0*%
%ADD18R,1.700000X1.700000*%
%ADD19RoundRect,0.150000X-0.587500X-0.150000X0.587500X-0.150000X0.587500X0.150000X-0.587500X0.150000X0*%
%ADD20RoundRect,0.375000X-0.625000X-0.375000X0.625000X-0.375000X0.625000X0.375000X-0.625000X0.375000X0*%
%ADD21RoundRect,0.500000X-0.500000X-1.400000X0.500000X-1.400000X0.500000X1.400000X-0.500000X1.400000X0*%
%ADD22R,1.500000X1.500000*%
%ADD23C,1.500000*%
%ADD24RoundRect,0.150000X-0.825000X-0.150000X0.825000X-0.150000X0.825000X0.150000X-0.825000X0.150000X0*%
%ADD25O,1.700000X1.700000*%
%ADD26RoundRect,0.150000X0.587500X0.150000X-0.587500X0.150000X-0.587500X-0.150000X0.587500X-0.150000X0*%
%ADD27C,3.500000*%
%ADD28R,1.550000X1.300000*%
%ADD29R,1.500000X1.050000*%
%ADD30O,1.500000X1.050000*%
%ADD31RoundRect,0.250000X0.250000X0.475000X-0.250000X0.475000X-0.250000X-0.475000X0.250000X-0.475000X0*%
%ADD32R,1.500000X0.900000*%
%ADD33R,0.900000X1.500000*%
%ADD34C,0.600000*%
%ADD35R,3.800000X3.800000*%
%ADD36R,2.000000X2.000000*%
%ADD37C,2.000000*%
G04 APERTURE END LIST*
D10*
%TO.C,R10*%
X74710000Y-89450000D03*
X74710000Y-91100000D03*
%TD*%
D11*
%TO.C,C26*%
X124100000Y-97065000D03*
X124100000Y-98615000D03*
%TD*%
D12*
%TO.C,U8*%
X119750000Y-96850000D03*
X118480000Y-96850000D03*
X117210000Y-96850000D03*
X115940000Y-96850000D03*
X114670000Y-96850000D03*
X113400000Y-96850000D03*
X112130000Y-96850000D03*
X110860000Y-96850000D03*
X109590000Y-96850000D03*
X108320000Y-96850000D03*
X108320000Y-106150000D03*
X109590000Y-106150000D03*
X110860000Y-106150000D03*
X112130000Y-106150000D03*
X113400000Y-106150000D03*
X114670000Y-106150000D03*
X115940000Y-106150000D03*
X117210000Y-106150000D03*
X118480000Y-106150000D03*
X119750000Y-106150000D03*
%TD*%
D11*
%TO.C,C10*%
X76730000Y-107745000D03*
X76730000Y-109295000D03*
%TD*%
D13*
%TO.C,R5*%
X59930000Y-102405000D03*
X59930000Y-100755000D03*
%TD*%
D14*
%TO.C,C4*%
X60670000Y-99055000D03*
X60670000Y-97505000D03*
%TD*%
%TO.C,C5*%
X71040000Y-103165000D03*
X71040000Y-101615000D03*
%TD*%
D10*
%TO.C,R8*%
X110060000Y-91435000D03*
X110060000Y-93085000D03*
%TD*%
D15*
%TO.C,R1*%
X38505000Y-101300000D03*
X40155000Y-101300000D03*
%TD*%
D11*
%TO.C,C19*%
X76390000Y-89405000D03*
X76390000Y-90955000D03*
%TD*%
D14*
%TO.C,C3*%
X58960000Y-99045000D03*
X58960000Y-97495000D03*
%TD*%
D11*
%TO.C,C21*%
X80200000Y-89375000D03*
X80200000Y-90925000D03*
%TD*%
D13*
%TO.C,R11*%
X124325000Y-104400000D03*
X124325000Y-102750000D03*
%TD*%
D14*
%TO.C,C6*%
X69395000Y-103155000D03*
X69395000Y-101605000D03*
%TD*%
D16*
%TO.C,C13*%
X86550000Y-112112500D03*
X86550000Y-114012500D03*
%TD*%
D17*
%TO.C,R6*%
X108595000Y-91340000D03*
X106945000Y-91340000D03*
%TD*%
D18*
%TO.C,J2*%
X79590000Y-113170000D03*
%TD*%
D17*
%TO.C,R9*%
X109395000Y-87490000D03*
X107745000Y-87490000D03*
%TD*%
D11*
%TO.C,C20*%
X78220000Y-89415000D03*
X78220000Y-90965000D03*
%TD*%
D10*
%TO.C,R7*%
X111150000Y-87445000D03*
X111150000Y-89095000D03*
%TD*%
D19*
%TO.C,Q3*%
X100042500Y-106550000D03*
X100042500Y-108450000D03*
X101917500Y-107500000D03*
%TD*%
D20*
%TO.C,U3*%
X73050000Y-101100000D03*
X73050000Y-103400000D03*
X73050000Y-105700000D03*
D21*
X79350000Y-103400000D03*
%TD*%
D22*
%TO.C,U7*%
X129861014Y-94183463D03*
D23*
X127321014Y-94183463D03*
X124781014Y-94183463D03*
X122241014Y-94183463D03*
X119701014Y-94183463D03*
X119701014Y-109423000D03*
X122241014Y-109423000D03*
X124781014Y-109423000D03*
X127321014Y-109423000D03*
X129861014Y-109423000D03*
%TD*%
D24*
%TO.C,U2*%
X51615000Y-99625000D03*
X51615000Y-100895000D03*
X51615000Y-102165000D03*
X51615000Y-103435000D03*
X56565000Y-103435000D03*
X56565000Y-102165000D03*
X56565000Y-100895000D03*
X56565000Y-99625000D03*
%TD*%
D15*
%TO.C,R12*%
X121550000Y-107075000D03*
X123200000Y-107075000D03*
%TD*%
D11*
%TO.C,C24*%
X115570000Y-108235000D03*
X115570000Y-109785000D03*
%TD*%
D18*
%TO.C,J1*%
X114190000Y-88140000D03*
D25*
X116730000Y-88140000D03*
X119270000Y-88140000D03*
X121810000Y-88140000D03*
X124350000Y-88140000D03*
%TD*%
D14*
%TO.C,C7*%
X67750000Y-103125000D03*
X67750000Y-101575000D03*
%TD*%
%TO.C,C15*%
X101640000Y-112975000D03*
X101640000Y-111425000D03*
%TD*%
D26*
%TO.C,Q2*%
X105817500Y-89390000D03*
X105817500Y-87490000D03*
X103942500Y-88440000D03*
%TD*%
D27*
%TO.C,H2*%
X75140000Y-112400000D03*
%TD*%
D14*
%TO.C,C17*%
X116380000Y-113085000D03*
X116380000Y-111535000D03*
%TD*%
D11*
%TO.C,C12*%
X88550000Y-112287500D03*
X88550000Y-113837500D03*
%TD*%
D18*
%TO.C,J3*%
X83510000Y-113190000D03*
%TD*%
D11*
%TO.C,C25*%
X126580000Y-97065000D03*
X126580000Y-98615000D03*
%TD*%
D28*
%TO.C,SW1*%
X72050000Y-94110000D03*
X80010000Y-94110000D03*
X72050000Y-98610000D03*
X80010000Y-98610000D03*
%TD*%
D29*
%TO.C,U1*%
X34500000Y-99000000D03*
D30*
X34500000Y-100270000D03*
X34500000Y-101540000D03*
%TD*%
D27*
%TO.C,H1*%
X128810000Y-88000000D03*
%TD*%
D20*
%TO.C,U4*%
X90630000Y-107500000D03*
X90630000Y-109800000D03*
X90630000Y-112100000D03*
D21*
X96930000Y-109800000D03*
%TD*%
D26*
%TO.C,Q1*%
X104607500Y-93850000D03*
X104607500Y-91950000D03*
X102732500Y-92900000D03*
%TD*%
D14*
%TO.C,C14*%
X100090000Y-112975000D03*
X100090000Y-111425000D03*
%TD*%
D15*
%TO.C,R4*%
X52915000Y-98060000D03*
X54565000Y-98060000D03*
%TD*%
D20*
%TO.C,U6*%
X105380000Y-108757500D03*
X105380000Y-111057500D03*
X105380000Y-113357500D03*
D21*
X111680000Y-111057500D03*
%TD*%
D11*
%TO.C,C23*%
X117790000Y-108295000D03*
X117790000Y-109845000D03*
%TD*%
D14*
%TO.C,C9*%
X77420000Y-87915000D03*
X77420000Y-86365000D03*
%TD*%
D31*
%TO.C,C8*%
X75010000Y-108020000D03*
X73110000Y-108020000D03*
%TD*%
D14*
%TO.C,C16*%
X103320000Y-112975000D03*
X103320000Y-111425000D03*
%TD*%
D32*
%TO.C,U5*%
X82140000Y-86640000D03*
X82140000Y-87910000D03*
X82140000Y-89180000D03*
X82140000Y-90450000D03*
X82140000Y-91720000D03*
X82140000Y-92990000D03*
X82140000Y-94260000D03*
X82140000Y-95530000D03*
X82140000Y-96800000D03*
X82140000Y-98070000D03*
X82140000Y-99340000D03*
X82140000Y-100610000D03*
X82140000Y-101880000D03*
X82140000Y-103150000D03*
D33*
X85180000Y-104400000D03*
X86450000Y-104400000D03*
X87720000Y-104400000D03*
X88990000Y-104400000D03*
X90260000Y-104400000D03*
X91530000Y-104400000D03*
X92800000Y-104400000D03*
X94070000Y-104400000D03*
X95340000Y-104400000D03*
X96610000Y-104400000D03*
D32*
X99640000Y-103150000D03*
X99640000Y-101880000D03*
X99640000Y-100610000D03*
X99640000Y-99340000D03*
X99640000Y-98070000D03*
X99640000Y-96800000D03*
X99640000Y-95530000D03*
X99640000Y-94260000D03*
X99640000Y-92990000D03*
X99640000Y-91720000D03*
X99640000Y-90450000D03*
X99640000Y-89180000D03*
X99640000Y-87910000D03*
X99640000Y-86640000D03*
D34*
X87990000Y-93660000D03*
X87990000Y-95060000D03*
X88690000Y-92960000D03*
X88690000Y-94360000D03*
X88690000Y-95760000D03*
X89365000Y-93660000D03*
X89365000Y-95060000D03*
D35*
X89390000Y-94360000D03*
D34*
X90090000Y-92960000D03*
X90090000Y-94360000D03*
X90090000Y-95760000D03*
X90790000Y-93660000D03*
X90790000Y-95060000D03*
%TD*%
D16*
%TO.C,C1*%
X42030000Y-101450000D03*
X42030000Y-103350000D03*
%TD*%
D15*
%TO.C,R2*%
X45575000Y-101680000D03*
X47225000Y-101680000D03*
%TD*%
D14*
%TO.C,C22*%
X122200000Y-104375000D03*
X122200000Y-102825000D03*
%TD*%
%TO.C,C18*%
X114750000Y-113095000D03*
X114750000Y-111545000D03*
%TD*%
D10*
%TO.C,R13*%
X113740000Y-108195000D03*
X113740000Y-109845000D03*
%TD*%
D11*
%TO.C,C2*%
X48950000Y-99985000D03*
X48950000Y-101535000D03*
%TD*%
D14*
%TO.C,C11*%
X79420000Y-87915000D03*
X79420000Y-86365000D03*
%TD*%
D11*
%TO.C,C27*%
X121650000Y-97065000D03*
X121650000Y-98615000D03*
%TD*%
D13*
%TO.C,R3*%
X44070000Y-101685000D03*
X44070000Y-100035000D03*
%TD*%
D36*
%TO.C,BZ1*%
X105940000Y-103600000D03*
D37*
X105940000Y-96000000D03*
%TD*%
M02*
