%TF.GenerationSoftware,KiCad,Pcbnew,8.0.2*%
%TF.CreationDate,2024-05-19T20:09:33-03:00*%
%TF.ProjectId,Diseno1,44697365-6e6f-4312-9e6b-696361645f70,01*%
%TF.SameCoordinates,Original*%
%TF.FileFunction,Copper,L3,Inr*%
%TF.FilePolarity,Positive*%
%FSLAX46Y46*%
G04 Gerber Fmt 4.6, Leading zero omitted, Abs format (unit mm)*
G04 Created by KiCad (PCBNEW 8.0.2) date 2024-05-19 20:09:33*
%MOMM*%
%LPD*%
G01*
G04 APERTURE LIST*
%TA.AperFunction,ComponentPad*%
%ADD10R,1.700000X1.700000*%
%TD*%
%TA.AperFunction,ComponentPad*%
%ADD11R,1.500000X1.500000*%
%TD*%
%TA.AperFunction,ComponentPad*%
%ADD12C,1.500000*%
%TD*%
%TA.AperFunction,ComponentPad*%
%ADD13O,1.700000X1.700000*%
%TD*%
%TA.AperFunction,ComponentPad*%
%ADD14C,3.500000*%
%TD*%
%TA.AperFunction,ComponentPad*%
%ADD15R,1.500000X1.050000*%
%TD*%
%TA.AperFunction,ComponentPad*%
%ADD16O,1.500000X1.050000*%
%TD*%
%TA.AperFunction,HeatsinkPad*%
%ADD17C,0.600000*%
%TD*%
%TA.AperFunction,ComponentPad*%
%ADD18R,2.000000X2.000000*%
%TD*%
%TA.AperFunction,ComponentPad*%
%ADD19C,2.000000*%
%TD*%
%TA.AperFunction,ViaPad*%
%ADD20C,0.700000*%
%TD*%
G04 APERTURE END LIST*
D10*
%TO.N,Net-(J2-Pin_1)*%
%TO.C,J2*%
X79590000Y-113170000D03*
%TD*%
D11*
%TO.N,Net-(U7-D)*%
%TO.C,U7*%
X129861014Y-94183463D03*
D12*
%TO.N,Net-(U7-DP)*%
X127321014Y-94183463D03*
%TO.N,Net-(U7-E)*%
X124781014Y-94183463D03*
%TO.N,Net-(U7-C)*%
X122241014Y-94183463D03*
%TO.N,Net-(U7-DIG2)*%
X119701014Y-94183463D03*
%TO.N,Net-(U7-B)*%
X119701014Y-109423000D03*
%TO.N,Net-(U7-A)*%
X122241014Y-109423000D03*
%TO.N,Net-(U7-F)*%
X124781014Y-109423000D03*
%TO.N,Net-(U7-G)*%
X127321014Y-109423000D03*
%TO.N,Net-(U7-DIG1)*%
X129861014Y-109423000D03*
%TD*%
D10*
%TO.N,/ESPRX2FTDI*%
%TO.C,J1*%
X114190000Y-88140000D03*
D13*
%TO.N,/ESPTX2FTDI*%
X116730000Y-88140000D03*
%TO.N,GND*%
X119270000Y-88140000D03*
%TO.N,/U0RTS*%
X121810000Y-88140000D03*
%TO.N,/U0DTR*%
X124350000Y-88140000D03*
%TD*%
D14*
%TO.N,Net-(J2-Pin_1)*%
%TO.C,H2*%
X75140000Y-112400000D03*
%TD*%
D10*
%TO.N,GND*%
%TO.C,J3*%
X83510000Y-113190000D03*
%TD*%
D15*
%TO.N,+5V*%
%TO.C,U1*%
X34500000Y-99000000D03*
D16*
%TO.N,Net-(U1-V_{OUT})*%
X34500000Y-100270000D03*
%TO.N,GND*%
X34500000Y-101540000D03*
%TD*%
D14*
%TO.N,GND*%
%TO.C,H1*%
X128810000Y-88000000D03*
%TD*%
D17*
%TO.N,GND*%
%TO.C,U5*%
X87990000Y-93660000D03*
X87990000Y-95060000D03*
X88690000Y-92960000D03*
X88690000Y-94360000D03*
X88690000Y-95760000D03*
X89365000Y-93660000D03*
X89365000Y-95060000D03*
X90090000Y-92960000D03*
X90090000Y-94360000D03*
X90090000Y-95760000D03*
X90790000Y-93660000D03*
X90790000Y-95060000D03*
%TD*%
D18*
%TO.N,Net-(BZ1-+)*%
%TO.C,BZ1*%
X105940000Y-103600000D03*
D19*
%TO.N,GND*%
X105940000Y-96000000D03*
%TD*%
D20*
%TO.N,GND*%
X70990000Y-100340000D03*
X101070000Y-92660000D03*
X103970000Y-89550000D03*
X77750000Y-98750000D03*
%TO.N,+5V*%
X37180000Y-98180000D03*
X62010000Y-99030000D03*
X66110000Y-102830000D03*
X66480000Y-104120000D03*
%TO.N,VDD*%
X124500000Y-106850000D03*
X102490000Y-109600000D03*
X74973423Y-92201550D03*
X75570000Y-87915000D03*
X109050000Y-93730000D03*
X113320000Y-110820000D03*
X125450000Y-102800000D03*
X107210000Y-111010000D03*
X111080000Y-90040000D03*
X127600000Y-96350000D03*
X113400000Y-113820000D03*
%TO.N,/EN*%
X79290000Y-95860000D03*
X103800000Y-87240000D03*
%TO.N,/BOOT*%
X101250000Y-103010000D03*
X101670000Y-95550000D03*
%TO.N,/U0DTR*%
X107590000Y-93840000D03*
X109320000Y-90190000D03*
%TO.N,/U0RTS*%
X111860000Y-91400000D03*
%TO.N,/GATEQ3*%
X103350000Y-104400000D03*
X103460000Y-97160000D03*
%TO.N,/SENSOR_VN*%
X78130000Y-92540000D03*
X76870000Y-96020000D03*
%TO.N,/ESPTX2FTDI*%
X104230000Y-90450000D03*
%TO.N,/ESPRX2FTDI*%
X101270000Y-91700000D03*
X101970000Y-86780000D03*
%TO.N,Net-(U7-DIG1)*%
X118280000Y-111410000D03*
X114930000Y-104550000D03*
%TO.N,Net-(U7-F)*%
X114025000Y-98475000D03*
X117190000Y-100675000D03*
%TO.N,Net-(U7-DIG2)*%
X112580000Y-104510000D03*
%TO.N,Net-(U7-B)*%
X117230000Y-98220000D03*
%TO.N,Net-(U7-A)*%
X119100000Y-98530000D03*
%TO.N,Net-(U7-G)*%
X110870000Y-98470000D03*
X120770000Y-111870000D03*
%TD*%
%TA.AperFunction,Conductor*%
%TO.N,+5V*%
G36*
X73272962Y-87196568D02*
G01*
X73327553Y-87240176D01*
X73349901Y-87306375D01*
X73350000Y-87311331D01*
X73350000Y-110990516D01*
X73330315Y-111057555D01*
X73329102Y-111059407D01*
X73186828Y-111272334D01*
X73056349Y-111536919D01*
X72961521Y-111816269D01*
X72961518Y-111816283D01*
X72903968Y-112105609D01*
X72903964Y-112105636D01*
X72884671Y-112399992D01*
X72884671Y-112400007D01*
X72903964Y-112694363D01*
X72903965Y-112694373D01*
X72903966Y-112694380D01*
X72903968Y-112694390D01*
X72961518Y-112983716D01*
X72961521Y-112983730D01*
X73056350Y-113263082D01*
X73056351Y-113263085D01*
X73114505Y-113381011D01*
X73126501Y-113449843D01*
X73099380Y-113514234D01*
X73041751Y-113553739D01*
X72971912Y-113555817D01*
X72912037Y-113519808D01*
X72907746Y-113514891D01*
X72853938Y-113449843D01*
X72703464Y-113267935D01*
X72694321Y-113255349D01*
X72386522Y-112770321D01*
X72379034Y-112756701D01*
X72134372Y-112236817D01*
X72128637Y-112222328D01*
X71951135Y-111675918D01*
X71947277Y-111660892D01*
X71839581Y-111096614D01*
X71837630Y-111081168D01*
X71836262Y-111059407D01*
X71762321Y-109883304D01*
X71762409Y-109866468D01*
X71763189Y-109855852D01*
X71760785Y-109843253D01*
X71758831Y-109827790D01*
X71758026Y-109814981D01*
X71758025Y-109814978D01*
X71758025Y-109814976D01*
X71754630Y-109804888D01*
X71750351Y-109788581D01*
X71663112Y-109331433D01*
X71643501Y-109228668D01*
X71641475Y-109211920D01*
X71640921Y-109201334D01*
X71636939Y-109189076D01*
X71633069Y-109174003D01*
X71630657Y-109161360D01*
X71626042Y-109151816D01*
X71619749Y-109136164D01*
X71443626Y-108594001D01*
X71439525Y-108577677D01*
X71437638Y-108567188D01*
X71432175Y-108555581D01*
X71426438Y-108541090D01*
X71422475Y-108528891D01*
X71416672Y-108519954D01*
X71408477Y-108505231D01*
X71165727Y-107989463D01*
X71159594Y-107973732D01*
X71156427Y-107963624D01*
X71156426Y-107963623D01*
X71149522Y-107952742D01*
X71142027Y-107939109D01*
X71136542Y-107927455D01*
X71136541Y-107927453D01*
X71129704Y-107919364D01*
X71119710Y-107905759D01*
X70986293Y-107695501D01*
X70814315Y-107424473D01*
X70806278Y-107409669D01*
X70801846Y-107399989D01*
X70793670Y-107390108D01*
X70784512Y-107377505D01*
X70777634Y-107366664D01*
X70769792Y-107359452D01*
X70758191Y-107347227D01*
X70394785Y-106908007D01*
X70384938Y-106894305D01*
X70379351Y-106885293D01*
X70369966Y-106876480D01*
X70359310Y-106865132D01*
X70351108Y-106855218D01*
X70351107Y-106855217D01*
X70351106Y-106855216D01*
X70342455Y-106849069D01*
X70329398Y-106838382D01*
X70003755Y-106532568D01*
X69913899Y-106448183D01*
X69902423Y-106435834D01*
X69895734Y-106427573D01*
X69885334Y-106420017D01*
X69873338Y-106410092D01*
X69863971Y-106401295D01*
X69863970Y-106401294D01*
X69854602Y-106396271D01*
X69840319Y-106387312D01*
X69648978Y-106248296D01*
X69379143Y-106052251D01*
X69366209Y-106041436D01*
X69358542Y-106034084D01*
X69358539Y-106034081D01*
X69347264Y-106027882D01*
X69334131Y-106019548D01*
X69323722Y-106011986D01*
X69323717Y-106011984D01*
X69313815Y-106008183D01*
X69298512Y-106001080D01*
X68799026Y-105726471D01*
X68784836Y-105717361D01*
X68776309Y-105711028D01*
X68776306Y-105711026D01*
X68776305Y-105711026D01*
X68764346Y-105706290D01*
X68750264Y-105699663D01*
X68739010Y-105693476D01*
X68739008Y-105693475D01*
X68739004Y-105693473D01*
X68739000Y-105693472D01*
X68728685Y-105690938D01*
X68712621Y-105685811D01*
X68182618Y-105475961D01*
X68167402Y-105468703D01*
X68158146Y-105463488D01*
X68145696Y-105460291D01*
X68130898Y-105455483D01*
X68118941Y-105450749D01*
X68108371Y-105449525D01*
X68091801Y-105446453D01*
X67539654Y-105304695D01*
X67523638Y-105299398D01*
X67513813Y-105295388D01*
X67510140Y-105294924D01*
X67501051Y-105293776D01*
X67485764Y-105290860D01*
X67473310Y-105287662D01*
X67473303Y-105287661D01*
X67462684Y-105287773D01*
X67445847Y-105286802D01*
X66880272Y-105215355D01*
X66863725Y-105212109D01*
X66853468Y-105209361D01*
X66853464Y-105209360D01*
X66853462Y-105209360D01*
X66853459Y-105209360D01*
X66840606Y-105209360D01*
X66825064Y-105208382D01*
X66812311Y-105206770D01*
X66801784Y-105208213D01*
X66784955Y-105209360D01*
X66592685Y-105209360D01*
X66560592Y-105205135D01*
X66539562Y-105199500D01*
X35775123Y-105199500D01*
X35743030Y-105195275D01*
X35740362Y-105194560D01*
X35570536Y-105194560D01*
X35554990Y-105193582D01*
X35296489Y-105160916D01*
X35281204Y-105158000D01*
X35028859Y-105093223D01*
X35014036Y-105088407D01*
X34771800Y-104992483D01*
X34757719Y-104985856D01*
X34529393Y-104860340D01*
X34516242Y-104851995D01*
X34305467Y-104698857D01*
X34293471Y-104688933D01*
X34103540Y-104510584D01*
X34092877Y-104499229D01*
X33954537Y-104332000D01*
X33926806Y-104298478D01*
X33917657Y-104285885D01*
X33778050Y-104065911D01*
X33770545Y-104052259D01*
X33659625Y-103816524D01*
X33653894Y-103802049D01*
X33626226Y-103716897D01*
X33573380Y-103554252D01*
X33569508Y-103539172D01*
X33520682Y-103283252D01*
X33518729Y-103267794D01*
X33501544Y-102994447D01*
X33501300Y-102986667D01*
X33501300Y-102488376D01*
X33520985Y-102421337D01*
X33573789Y-102375582D01*
X33642947Y-102365638D01*
X33694191Y-102385274D01*
X33789237Y-102448782D01*
X33789241Y-102448784D01*
X33789244Y-102448786D01*
X33975873Y-102526091D01*
X34173992Y-102565499D01*
X34173996Y-102565500D01*
X34173997Y-102565500D01*
X34826004Y-102565500D01*
X34826005Y-102565499D01*
X35024127Y-102526091D01*
X35210756Y-102448786D01*
X35378718Y-102336558D01*
X35521558Y-102193718D01*
X35633786Y-102025756D01*
X35711091Y-101839127D01*
X35750500Y-101641003D01*
X35750500Y-101438997D01*
X35711091Y-101240873D01*
X35633786Y-101054244D01*
X35580094Y-100973889D01*
X35559217Y-100907214D01*
X35577701Y-100839834D01*
X35580078Y-100836134D01*
X35633786Y-100755756D01*
X35711091Y-100569127D01*
X35750500Y-100371003D01*
X35750500Y-100340000D01*
X70134815Y-100340000D01*
X70153503Y-100517805D01*
X70153504Y-100517807D01*
X70208747Y-100687829D01*
X70208750Y-100687835D01*
X70298141Y-100842665D01*
X70339812Y-100888946D01*
X70417764Y-100975521D01*
X70417767Y-100975523D01*
X70417770Y-100975526D01*
X70562407Y-101080612D01*
X70725733Y-101153329D01*
X70900609Y-101190500D01*
X70900610Y-101190500D01*
X71079389Y-101190500D01*
X71079391Y-101190500D01*
X71254267Y-101153329D01*
X71417593Y-101080612D01*
X71562230Y-100975526D01*
X71563703Y-100973891D01*
X71588148Y-100946741D01*
X71681859Y-100842665D01*
X71771250Y-100687835D01*
X71826497Y-100517803D01*
X71845185Y-100340000D01*
X71826497Y-100162197D01*
X71771250Y-99992165D01*
X71681859Y-99837335D01*
X71625862Y-99775144D01*
X71562235Y-99704478D01*
X71562232Y-99704476D01*
X71562231Y-99704475D01*
X71562230Y-99704474D01*
X71417593Y-99599388D01*
X71254267Y-99526671D01*
X71254265Y-99526670D01*
X71126594Y-99499533D01*
X71079391Y-99489500D01*
X70900609Y-99489500D01*
X70869954Y-99496015D01*
X70725733Y-99526670D01*
X70725728Y-99526672D01*
X70562408Y-99599387D01*
X70417768Y-99704475D01*
X70298140Y-99837336D01*
X70208750Y-99992164D01*
X70208747Y-99992170D01*
X70153504Y-100162192D01*
X70153503Y-100162194D01*
X70134815Y-100340000D01*
X35750500Y-100340000D01*
X35750500Y-100168997D01*
X35711091Y-99970873D01*
X35677451Y-99889661D01*
X35669983Y-99820194D01*
X35689592Y-99775144D01*
X35689101Y-99774876D01*
X35692102Y-99769379D01*
X35692748Y-99767896D01*
X35693352Y-99767089D01*
X35743597Y-99632376D01*
X35743598Y-99632372D01*
X35749999Y-99572844D01*
X35750000Y-99572827D01*
X35750000Y-99250000D01*
X34865866Y-99250000D01*
X34841674Y-99247617D01*
X34826004Y-99244500D01*
X34826003Y-99244500D01*
X34785830Y-99244500D01*
X34800075Y-99230255D01*
X34849444Y-99144745D01*
X34875000Y-99049370D01*
X34875000Y-98950630D01*
X34849444Y-98855255D01*
X34800075Y-98769745D01*
X34780330Y-98750000D01*
X35750000Y-98750000D01*
X35750000Y-98427172D01*
X35749999Y-98427155D01*
X35743598Y-98367627D01*
X35743596Y-98367620D01*
X35693354Y-98232913D01*
X35693350Y-98232906D01*
X35607190Y-98117812D01*
X35607187Y-98117809D01*
X35492093Y-98031649D01*
X35492086Y-98031645D01*
X35357379Y-97981403D01*
X35357372Y-97981401D01*
X35297844Y-97975000D01*
X34750000Y-97975000D01*
X34750000Y-98719670D01*
X34730255Y-98699925D01*
X34644745Y-98650556D01*
X34549370Y-98625000D01*
X34450630Y-98625000D01*
X34355255Y-98650556D01*
X34269745Y-98699925D01*
X34250000Y-98719670D01*
X34250000Y-97975000D01*
X33702169Y-97975000D01*
X33648351Y-97980786D01*
X33579592Y-97968380D01*
X33528455Y-97920769D01*
X33511176Y-97853070D01*
X33511341Y-97849715D01*
X33518729Y-97732203D01*
X33520680Y-97716753D01*
X33569508Y-97460822D01*
X33573380Y-97445746D01*
X33626226Y-97283103D01*
X33653896Y-97197943D01*
X33659625Y-97183474D01*
X33760605Y-96968865D01*
X33770549Y-96947730D01*
X33778045Y-96934095D01*
X33917663Y-96714104D01*
X33926800Y-96701528D01*
X34092883Y-96500762D01*
X34103533Y-96489421D01*
X34293481Y-96311056D01*
X34305457Y-96301148D01*
X34516254Y-96147995D01*
X34529393Y-96139658D01*
X34757719Y-96014142D01*
X34771785Y-96007521D01*
X35014051Y-95911585D01*
X35028843Y-95906780D01*
X35281217Y-95841995D01*
X35296478Y-95839084D01*
X35554989Y-95806417D01*
X35570534Y-95805440D01*
X35740361Y-95805440D01*
X35740362Y-95805440D01*
X35743030Y-95804724D01*
X35775123Y-95800500D01*
X66539561Y-95800500D01*
X66539562Y-95800500D01*
X66560592Y-95794865D01*
X66592685Y-95790640D01*
X66784955Y-95790640D01*
X66801784Y-95791787D01*
X66802811Y-95791927D01*
X66812311Y-95793229D01*
X66825064Y-95791618D01*
X66840606Y-95790640D01*
X66853460Y-95790640D01*
X66853462Y-95790640D01*
X66863728Y-95787889D01*
X66880265Y-95784644D01*
X67445845Y-95713196D01*
X67462691Y-95712226D01*
X67469905Y-95712302D01*
X67473302Y-95712338D01*
X67473302Y-95712337D01*
X67473308Y-95712338D01*
X67485766Y-95709138D01*
X67501051Y-95706223D01*
X67513811Y-95704612D01*
X67523638Y-95700601D01*
X67539651Y-95695304D01*
X68091803Y-95553544D01*
X68108375Y-95550473D01*
X68118941Y-95549251D01*
X68130898Y-95544516D01*
X68145715Y-95539703D01*
X68158146Y-95536512D01*
X68167400Y-95531297D01*
X68182608Y-95524041D01*
X68712617Y-95314188D01*
X68728690Y-95309060D01*
X68729105Y-95308957D01*
X68739004Y-95306527D01*
X68750266Y-95300334D01*
X68764355Y-95293704D01*
X68776309Y-95288972D01*
X68784837Y-95282637D01*
X68799019Y-95273531D01*
X69298523Y-94998912D01*
X69313816Y-94991816D01*
X69323722Y-94988014D01*
X69334136Y-94980447D01*
X69347260Y-94972118D01*
X69358541Y-94965917D01*
X69366203Y-94958567D01*
X69379149Y-94947743D01*
X69840315Y-94612690D01*
X69854604Y-94603726D01*
X69863973Y-94598703D01*
X69873349Y-94589897D01*
X69885341Y-94579977D01*
X69895734Y-94572427D01*
X69902427Y-94564160D01*
X69913892Y-94551822D01*
X70329401Y-94161614D01*
X70342458Y-94150927D01*
X70351106Y-94144784D01*
X70359312Y-94134864D01*
X70369976Y-94123510D01*
X70379351Y-94114707D01*
X70384936Y-94105697D01*
X70394783Y-94091994D01*
X70758197Y-93652764D01*
X70769786Y-93640552D01*
X70777634Y-93633336D01*
X70784507Y-93622502D01*
X70793664Y-93609898D01*
X70801846Y-93600011D01*
X70806276Y-93590333D01*
X70814315Y-93575525D01*
X71119718Y-93094226D01*
X71129699Y-93080639D01*
X71136543Y-93072543D01*
X71142029Y-93060884D01*
X71149519Y-93047261D01*
X71156427Y-93036376D01*
X71159595Y-93026262D01*
X71165728Y-93010533D01*
X71281890Y-92763725D01*
X71408483Y-92494753D01*
X71416670Y-92480047D01*
X71422475Y-92471109D01*
X71426438Y-92458910D01*
X71432178Y-92444412D01*
X71437638Y-92432812D01*
X71439523Y-92422337D01*
X71443630Y-92405985D01*
X71619748Y-91863839D01*
X71626044Y-91848178D01*
X71630657Y-91838640D01*
X71633071Y-91825987D01*
X71636943Y-91810909D01*
X71640921Y-91798666D01*
X71641475Y-91788076D01*
X71643501Y-91771331D01*
X71750354Y-91211402D01*
X71754628Y-91195114D01*
X71758026Y-91185019D01*
X71758831Y-91172207D01*
X71760783Y-91156752D01*
X71763189Y-91144148D01*
X71762409Y-91133531D01*
X71762321Y-91116694D01*
X71837630Y-89918823D01*
X71839581Y-89903386D01*
X71947277Y-89339102D01*
X71951134Y-89324084D01*
X72128639Y-88777664D01*
X72134373Y-88763180D01*
X72379038Y-88243290D01*
X72386518Y-88229684D01*
X72694326Y-87744641D01*
X72703458Y-87732070D01*
X73069624Y-87289413D01*
X73080276Y-87278070D01*
X73141117Y-87220937D01*
X73203462Y-87189396D01*
X73272962Y-87196568D01*
G37*
%TD.AperFunction*%
%TD*%
%TA.AperFunction,Conductor*%
%TO.N,VDD*%
G36*
X101562625Y-85820185D02*
G01*
X101608380Y-85872989D01*
X101618324Y-85942147D01*
X101589299Y-86005703D01*
X101546022Y-86037779D01*
X101542408Y-86039387D01*
X101397768Y-86144475D01*
X101278140Y-86277336D01*
X101188750Y-86432164D01*
X101188747Y-86432170D01*
X101133504Y-86602192D01*
X101133503Y-86602194D01*
X101114815Y-86780000D01*
X101133503Y-86957805D01*
X101133504Y-86957807D01*
X101188747Y-87127829D01*
X101188750Y-87127835D01*
X101278141Y-87282665D01*
X101319812Y-87328946D01*
X101397764Y-87415521D01*
X101397767Y-87415523D01*
X101397770Y-87415526D01*
X101542407Y-87520612D01*
X101705733Y-87593329D01*
X101880609Y-87630500D01*
X101880610Y-87630500D01*
X102059389Y-87630500D01*
X102059391Y-87630500D01*
X102234267Y-87593329D01*
X102397593Y-87520612D01*
X102542230Y-87415526D01*
X102661859Y-87282665D01*
X102714215Y-87191980D01*
X102764780Y-87143767D01*
X102833387Y-87130543D01*
X102898252Y-87156511D01*
X102938781Y-87213424D01*
X102944922Y-87241020D01*
X102963503Y-87417804D01*
X102963504Y-87417807D01*
X103018747Y-87587829D01*
X103018750Y-87587835D01*
X103108141Y-87742665D01*
X103149812Y-87788946D01*
X103227764Y-87875521D01*
X103227767Y-87875523D01*
X103227770Y-87875526D01*
X103372407Y-87980612D01*
X103535733Y-88053329D01*
X103710609Y-88090500D01*
X103710610Y-88090500D01*
X103889389Y-88090500D01*
X103889391Y-88090500D01*
X104064267Y-88053329D01*
X104227593Y-87980612D01*
X104372230Y-87875526D01*
X104491859Y-87742665D01*
X104581250Y-87587835D01*
X104636497Y-87417803D01*
X104654961Y-87242135D01*
X112839500Y-87242135D01*
X112839500Y-89037870D01*
X112839501Y-89037876D01*
X112845908Y-89097483D01*
X112896202Y-89232328D01*
X112896206Y-89232335D01*
X112982452Y-89347544D01*
X112982455Y-89347547D01*
X113097664Y-89433793D01*
X113097671Y-89433797D01*
X113232517Y-89484091D01*
X113232516Y-89484091D01*
X113239444Y-89484835D01*
X113292127Y-89490500D01*
X115087872Y-89490499D01*
X115147483Y-89484091D01*
X115282331Y-89433796D01*
X115397546Y-89347546D01*
X115483796Y-89232331D01*
X115532810Y-89100916D01*
X115574681Y-89044984D01*
X115640145Y-89020566D01*
X115708418Y-89035417D01*
X115736673Y-89056569D01*
X115858599Y-89178495D01*
X115955384Y-89246265D01*
X116052165Y-89314032D01*
X116052167Y-89314033D01*
X116052170Y-89314035D01*
X116266337Y-89413903D01*
X116494592Y-89475063D01*
X116671034Y-89490500D01*
X116729999Y-89495659D01*
X116730000Y-89495659D01*
X116730001Y-89495659D01*
X116788966Y-89490500D01*
X116965408Y-89475063D01*
X117193663Y-89413903D01*
X117407830Y-89314035D01*
X117601401Y-89178495D01*
X117768495Y-89011401D01*
X117898425Y-88825842D01*
X117953002Y-88782217D01*
X118022500Y-88775023D01*
X118084855Y-88806546D01*
X118101575Y-88825842D01*
X118231500Y-89011395D01*
X118231505Y-89011401D01*
X118398599Y-89178495D01*
X118495384Y-89246265D01*
X118592165Y-89314032D01*
X118592167Y-89314033D01*
X118592170Y-89314035D01*
X118806337Y-89413903D01*
X119034592Y-89475063D01*
X119211034Y-89490500D01*
X119269999Y-89495659D01*
X119270000Y-89495659D01*
X119270001Y-89495659D01*
X119328966Y-89490500D01*
X119505408Y-89475063D01*
X119733663Y-89413903D01*
X119947830Y-89314035D01*
X120141401Y-89178495D01*
X120308495Y-89011401D01*
X120438425Y-88825842D01*
X120493002Y-88782217D01*
X120562500Y-88775023D01*
X120624855Y-88806546D01*
X120641575Y-88825842D01*
X120771500Y-89011395D01*
X120771505Y-89011401D01*
X120938599Y-89178495D01*
X121035384Y-89246265D01*
X121132165Y-89314032D01*
X121132167Y-89314033D01*
X121132170Y-89314035D01*
X121346337Y-89413903D01*
X121574592Y-89475063D01*
X121751034Y-89490500D01*
X121809999Y-89495659D01*
X121810000Y-89495659D01*
X121810001Y-89495659D01*
X121868966Y-89490500D01*
X122045408Y-89475063D01*
X122273663Y-89413903D01*
X122487830Y-89314035D01*
X122681401Y-89178495D01*
X122848495Y-89011401D01*
X122978425Y-88825842D01*
X123033002Y-88782217D01*
X123102500Y-88775023D01*
X123164855Y-88806546D01*
X123181575Y-88825842D01*
X123311500Y-89011395D01*
X123311505Y-89011401D01*
X123478599Y-89178495D01*
X123575384Y-89246265D01*
X123672165Y-89314032D01*
X123672167Y-89314033D01*
X123672170Y-89314035D01*
X123886337Y-89413903D01*
X124114592Y-89475063D01*
X124291034Y-89490500D01*
X124349999Y-89495659D01*
X124350000Y-89495659D01*
X124350001Y-89495659D01*
X124408966Y-89490500D01*
X124585408Y-89475063D01*
X124813663Y-89413903D01*
X125027830Y-89314035D01*
X125221401Y-89178495D01*
X125388495Y-89011401D01*
X125524035Y-88817830D01*
X125623903Y-88603663D01*
X125685063Y-88375408D01*
X125705659Y-88140000D01*
X125685063Y-87904592D01*
X125623903Y-87676337D01*
X125524035Y-87462171D01*
X125518425Y-87454158D01*
X125388494Y-87268597D01*
X125221402Y-87101506D01*
X125221395Y-87101501D01*
X125027834Y-86965967D01*
X125027830Y-86965965D01*
X125010331Y-86957805D01*
X124813663Y-86866097D01*
X124813659Y-86866096D01*
X124813655Y-86866094D01*
X124585413Y-86804938D01*
X124585403Y-86804936D01*
X124350001Y-86784341D01*
X124349999Y-86784341D01*
X124114596Y-86804936D01*
X124114586Y-86804938D01*
X123886344Y-86866094D01*
X123886335Y-86866098D01*
X123672171Y-86965964D01*
X123672169Y-86965965D01*
X123478597Y-87101505D01*
X123311505Y-87268597D01*
X123181575Y-87454158D01*
X123126998Y-87497783D01*
X123057500Y-87504977D01*
X122995145Y-87473454D01*
X122978425Y-87454158D01*
X122848494Y-87268597D01*
X122681402Y-87101506D01*
X122681395Y-87101501D01*
X122487834Y-86965967D01*
X122487830Y-86965965D01*
X122470331Y-86957805D01*
X122273663Y-86866097D01*
X122273659Y-86866096D01*
X122273655Y-86866094D01*
X122045413Y-86804938D01*
X122045403Y-86804936D01*
X121810001Y-86784341D01*
X121809999Y-86784341D01*
X121574596Y-86804936D01*
X121574586Y-86804938D01*
X121346344Y-86866094D01*
X121346335Y-86866098D01*
X121132171Y-86965964D01*
X121132169Y-86965965D01*
X120938597Y-87101505D01*
X120771505Y-87268597D01*
X120641575Y-87454158D01*
X120586998Y-87497783D01*
X120517500Y-87504977D01*
X120455145Y-87473454D01*
X120438425Y-87454158D01*
X120308494Y-87268597D01*
X120141402Y-87101506D01*
X120141395Y-87101501D01*
X119947834Y-86965967D01*
X119947830Y-86965965D01*
X119930331Y-86957805D01*
X119733663Y-86866097D01*
X119733659Y-86866096D01*
X119733655Y-86866094D01*
X119505413Y-86804938D01*
X119505403Y-86804936D01*
X119270001Y-86784341D01*
X119269999Y-86784341D01*
X119034596Y-86804936D01*
X119034586Y-86804938D01*
X118806344Y-86866094D01*
X118806335Y-86866098D01*
X118592171Y-86965964D01*
X118592169Y-86965965D01*
X118398597Y-87101505D01*
X118231505Y-87268597D01*
X118101575Y-87454158D01*
X118046998Y-87497783D01*
X117977500Y-87504977D01*
X117915145Y-87473454D01*
X117898425Y-87454158D01*
X117768494Y-87268597D01*
X117601402Y-87101506D01*
X117601395Y-87101501D01*
X117407834Y-86965967D01*
X117407830Y-86965965D01*
X117390331Y-86957805D01*
X117193663Y-86866097D01*
X117193659Y-86866096D01*
X117193655Y-86866094D01*
X116965413Y-86804938D01*
X116965403Y-86804936D01*
X116730001Y-86784341D01*
X116729999Y-86784341D01*
X116494596Y-86804936D01*
X116494586Y-86804938D01*
X116266344Y-86866094D01*
X116266335Y-86866098D01*
X116052171Y-86965964D01*
X116052169Y-86965965D01*
X115858600Y-87101503D01*
X115736673Y-87223430D01*
X115675350Y-87256914D01*
X115605658Y-87251930D01*
X115549725Y-87210058D01*
X115532810Y-87179081D01*
X115483797Y-87047671D01*
X115483793Y-87047664D01*
X115397547Y-86932455D01*
X115397544Y-86932452D01*
X115282335Y-86846206D01*
X115282328Y-86846202D01*
X115147482Y-86795908D01*
X115147483Y-86795908D01*
X115087883Y-86789501D01*
X115087881Y-86789500D01*
X115087873Y-86789500D01*
X115087864Y-86789500D01*
X113292129Y-86789500D01*
X113292123Y-86789501D01*
X113232516Y-86795908D01*
X113097671Y-86846202D01*
X113097664Y-86846206D01*
X112982455Y-86932452D01*
X112982452Y-86932455D01*
X112896206Y-87047664D01*
X112896202Y-87047671D01*
X112845908Y-87182517D01*
X112839501Y-87242116D01*
X112839500Y-87242135D01*
X104654961Y-87242135D01*
X104655185Y-87240000D01*
X104636497Y-87062197D01*
X104608873Y-86977181D01*
X104581252Y-86892170D01*
X104581249Y-86892164D01*
X104579685Y-86889455D01*
X104491859Y-86737335D01*
X104429376Y-86667941D01*
X104372235Y-86604478D01*
X104372232Y-86604476D01*
X104372231Y-86604475D01*
X104372230Y-86604474D01*
X104227593Y-86499388D01*
X104064267Y-86426671D01*
X104064265Y-86426670D01*
X103936594Y-86399533D01*
X103889391Y-86389500D01*
X103710609Y-86389500D01*
X103679954Y-86396015D01*
X103535733Y-86426670D01*
X103535728Y-86426672D01*
X103372408Y-86499387D01*
X103227768Y-86604475D01*
X103108139Y-86737336D01*
X103055785Y-86828017D01*
X103005218Y-86876233D01*
X102936611Y-86889455D01*
X102871746Y-86863487D01*
X102831218Y-86806573D01*
X102825078Y-86778984D01*
X102806497Y-86602197D01*
X102751250Y-86432165D01*
X102661859Y-86277335D01*
X102601885Y-86210727D01*
X102542235Y-86144478D01*
X102542232Y-86144476D01*
X102542231Y-86144475D01*
X102542230Y-86144474D01*
X102397593Y-86039388D01*
X102397592Y-86039387D01*
X102393979Y-86037779D01*
X102392228Y-86036291D01*
X102391970Y-86036142D01*
X102391997Y-86036094D01*
X102340742Y-85992529D01*
X102320421Y-85925680D01*
X102339466Y-85858456D01*
X102391833Y-85812201D01*
X102444415Y-85800500D01*
X127650033Y-85800500D01*
X127717072Y-85820185D01*
X127762827Y-85872989D01*
X127772771Y-85942147D01*
X127743746Y-86005703D01*
X127704877Y-86035712D01*
X127682334Y-86046828D01*
X127437041Y-86210728D01*
X127215241Y-86405241D01*
X127020728Y-86627041D01*
X126856828Y-86872334D01*
X126726349Y-87136919D01*
X126631521Y-87416269D01*
X126631518Y-87416283D01*
X126573968Y-87705609D01*
X126573964Y-87705636D01*
X126554671Y-87999992D01*
X126554671Y-88000007D01*
X126573964Y-88294363D01*
X126573965Y-88294373D01*
X126573966Y-88294380D01*
X126573968Y-88294390D01*
X126631518Y-88583716D01*
X126631521Y-88583730D01*
X126726349Y-88863080D01*
X126856825Y-89127660D01*
X126856829Y-89127667D01*
X127020725Y-89372955D01*
X127215241Y-89594758D01*
X127374201Y-89734162D01*
X127437043Y-89789273D01*
X127682335Y-89953172D01*
X127946923Y-90083652D01*
X128226278Y-90178481D01*
X128515620Y-90236034D01*
X128543888Y-90237886D01*
X128809993Y-90255329D01*
X128810000Y-90255329D01*
X128810007Y-90255329D01*
X129045675Y-90239881D01*
X129104380Y-90236034D01*
X129393722Y-90178481D01*
X129673077Y-90083652D01*
X129937665Y-89953172D01*
X130182957Y-89789273D01*
X130404758Y-89594758D01*
X130599273Y-89372957D01*
X130763172Y-89127665D01*
X130893652Y-88863077D01*
X130959681Y-88668562D01*
X130999870Y-88611409D01*
X131064579Y-88585056D01*
X131133264Y-88597870D01*
X131184117Y-88645784D01*
X131201100Y-88708422D01*
X131201100Y-93013993D01*
X131181415Y-93081032D01*
X131128611Y-93126787D01*
X131059453Y-93136731D01*
X130995897Y-93107706D01*
X130977835Y-93088307D01*
X130968560Y-93075917D01*
X130924141Y-93042665D01*
X130853349Y-92989669D01*
X130853342Y-92989665D01*
X130718496Y-92939371D01*
X130718497Y-92939371D01*
X130658897Y-92932964D01*
X130658895Y-92932963D01*
X130658887Y-92932963D01*
X130658878Y-92932963D01*
X129063143Y-92932963D01*
X129063137Y-92932964D01*
X129003530Y-92939371D01*
X128868685Y-92989665D01*
X128868678Y-92989669D01*
X128753469Y-93075915D01*
X128753466Y-93075918D01*
X128667220Y-93191127D01*
X128667216Y-93191134D01*
X128616922Y-93325980D01*
X128610515Y-93385579D01*
X128610514Y-93385598D01*
X128610514Y-93451601D01*
X128590829Y-93518640D01*
X128538025Y-93564395D01*
X128468867Y-93574339D01*
X128405311Y-93545314D01*
X128384939Y-93522724D01*
X128282613Y-93376587D01*
X128216502Y-93310476D01*
X128127891Y-93221865D01*
X127989992Y-93125307D01*
X127948652Y-93096360D01*
X127849498Y-93050124D01*
X127750344Y-93003888D01*
X127750340Y-93003887D01*
X127750336Y-93003885D01*
X127538991Y-92947256D01*
X127321016Y-92928186D01*
X127321012Y-92928186D01*
X127193165Y-92939371D01*
X127103037Y-92947256D01*
X127103034Y-92947256D01*
X126891691Y-93003885D01*
X126891682Y-93003889D01*
X126693375Y-93096361D01*
X126693371Y-93096363D01*
X126514135Y-93221865D01*
X126359416Y-93376584D01*
X126233914Y-93555820D01*
X126233912Y-93555824D01*
X126163396Y-93707046D01*
X126117223Y-93759485D01*
X126050030Y-93778637D01*
X125983149Y-93758421D01*
X125938632Y-93707046D01*
X125872112Y-93564395D01*
X125868116Y-93555825D01*
X125868114Y-93555822D01*
X125868113Y-93555820D01*
X125742613Y-93376587D01*
X125676502Y-93310476D01*
X125587891Y-93221865D01*
X125449992Y-93125307D01*
X125408652Y-93096360D01*
X125309498Y-93050124D01*
X125210344Y-93003888D01*
X125210340Y-93003887D01*
X125210336Y-93003885D01*
X124998991Y-92947256D01*
X124781016Y-92928186D01*
X124781012Y-92928186D01*
X124653165Y-92939371D01*
X124563037Y-92947256D01*
X124563034Y-92947256D01*
X124351691Y-93003885D01*
X124351682Y-93003889D01*
X124153375Y-93096361D01*
X124153371Y-93096363D01*
X123974135Y-93221865D01*
X123819416Y-93376584D01*
X123693914Y-93555820D01*
X123693912Y-93555824D01*
X123623396Y-93707046D01*
X123577223Y-93759485D01*
X123510030Y-93778637D01*
X123443149Y-93758421D01*
X123398632Y-93707046D01*
X123332112Y-93564395D01*
X123328116Y-93555825D01*
X123328114Y-93555822D01*
X123328113Y-93555820D01*
X123202613Y-93376587D01*
X123136502Y-93310476D01*
X123047891Y-93221865D01*
X122909992Y-93125307D01*
X122868652Y-93096360D01*
X122769498Y-93050124D01*
X122670344Y-93003888D01*
X122670340Y-93003887D01*
X122670336Y-93003885D01*
X122458991Y-92947256D01*
X122241016Y-92928186D01*
X122241012Y-92928186D01*
X122113165Y-92939371D01*
X122023037Y-92947256D01*
X122023034Y-92947256D01*
X121811691Y-93003885D01*
X121811682Y-93003889D01*
X121613375Y-93096361D01*
X121613371Y-93096363D01*
X121434135Y-93221865D01*
X121279416Y-93376584D01*
X121153914Y-93555820D01*
X121153912Y-93555824D01*
X121083396Y-93707046D01*
X121037223Y-93759485D01*
X120970030Y-93778637D01*
X120903149Y-93758421D01*
X120858632Y-93707046D01*
X120792112Y-93564395D01*
X120788116Y-93555825D01*
X120788114Y-93555822D01*
X120788113Y-93555820D01*
X120662613Y-93376587D01*
X120596502Y-93310476D01*
X120507891Y-93221865D01*
X120369992Y-93125307D01*
X120328652Y-93096360D01*
X120229498Y-93050124D01*
X120130344Y-93003888D01*
X120130340Y-93003887D01*
X120130336Y-93003885D01*
X119918991Y-92947256D01*
X119701016Y-92928186D01*
X119701012Y-92928186D01*
X119573165Y-92939371D01*
X119483037Y-92947256D01*
X119483034Y-92947256D01*
X119271691Y-93003885D01*
X119271682Y-93003889D01*
X119073375Y-93096361D01*
X119073371Y-93096363D01*
X118894135Y-93221865D01*
X118739416Y-93376584D01*
X118613914Y-93555820D01*
X118613912Y-93555824D01*
X118521440Y-93754131D01*
X118521436Y-93754140D01*
X118464807Y-93965483D01*
X118464807Y-93965487D01*
X118445737Y-94183460D01*
X118445737Y-94183465D01*
X118464807Y-94401438D01*
X118464807Y-94401442D01*
X118521436Y-94612785D01*
X118521438Y-94612789D01*
X118521439Y-94612793D01*
X118543396Y-94659879D01*
X118613911Y-94811101D01*
X118639012Y-94846949D01*
X118739416Y-94990340D01*
X118894137Y-95145061D01*
X119073375Y-95270565D01*
X119271684Y-95363038D01*
X119483037Y-95419670D01*
X119665940Y-95435671D01*
X119701012Y-95438740D01*
X119701014Y-95438740D01*
X119701016Y-95438740D01*
X119729268Y-95436268D01*
X119918991Y-95419670D01*
X120130344Y-95363038D01*
X120328653Y-95270565D01*
X120507891Y-95145061D01*
X120662612Y-94990340D01*
X120788116Y-94811102D01*
X120858632Y-94659877D01*
X120904804Y-94607440D01*
X120971998Y-94588288D01*
X121038879Y-94608504D01*
X121083395Y-94659877D01*
X121153912Y-94811102D01*
X121279416Y-94990340D01*
X121434137Y-95145061D01*
X121613375Y-95270565D01*
X121811684Y-95363038D01*
X122023037Y-95419670D01*
X122205940Y-95435671D01*
X122241012Y-95438740D01*
X122241014Y-95438740D01*
X122241016Y-95438740D01*
X122269268Y-95436268D01*
X122458991Y-95419670D01*
X122670344Y-95363038D01*
X122868653Y-95270565D01*
X123047891Y-95145061D01*
X123202612Y-94990340D01*
X123328116Y-94811102D01*
X123398632Y-94659877D01*
X123444804Y-94607440D01*
X123511998Y-94588288D01*
X123578879Y-94608504D01*
X123623395Y-94659877D01*
X123693912Y-94811102D01*
X123819416Y-94990340D01*
X123974137Y-95145061D01*
X124153375Y-95270565D01*
X124351684Y-95363038D01*
X124563037Y-95419670D01*
X124745940Y-95435671D01*
X124781012Y-95438740D01*
X124781014Y-95438740D01*
X124781016Y-95438740D01*
X124809268Y-95436268D01*
X124998991Y-95419670D01*
X125210344Y-95363038D01*
X125408653Y-95270565D01*
X125587891Y-95145061D01*
X125742612Y-94990340D01*
X125868116Y-94811102D01*
X125938632Y-94659877D01*
X125984804Y-94607440D01*
X126051998Y-94588288D01*
X126118879Y-94608504D01*
X126163395Y-94659877D01*
X126233912Y-94811102D01*
X126359416Y-94990340D01*
X126514137Y-95145061D01*
X126693375Y-95270565D01*
X126891684Y-95363038D01*
X127103037Y-95419670D01*
X127285940Y-95435671D01*
X127321012Y-95438740D01*
X127321014Y-95438740D01*
X127321016Y-95438740D01*
X127349268Y-95436268D01*
X127538991Y-95419670D01*
X127750344Y-95363038D01*
X127948653Y-95270565D01*
X128127891Y-95145061D01*
X128282612Y-94990340D01*
X128384942Y-94844197D01*
X128439516Y-94800575D01*
X128509014Y-94793381D01*
X128571369Y-94824904D01*
X128606783Y-94885133D01*
X128610514Y-94915321D01*
X128610514Y-94981332D01*
X128610515Y-94981339D01*
X128616922Y-95040946D01*
X128667216Y-95175791D01*
X128667220Y-95175798D01*
X128753466Y-95291007D01*
X128753469Y-95291010D01*
X128868678Y-95377256D01*
X128868685Y-95377260D01*
X129003531Y-95427554D01*
X129003530Y-95427554D01*
X129010458Y-95428298D01*
X129063141Y-95433963D01*
X130658886Y-95433962D01*
X130718497Y-95427554D01*
X130853345Y-95377259D01*
X130968560Y-95291009D01*
X130977834Y-95278619D01*
X131033767Y-95236750D01*
X131103459Y-95231766D01*
X131164782Y-95265251D01*
X131198266Y-95326575D01*
X131201100Y-95352932D01*
X131201100Y-108778560D01*
X131181415Y-108845599D01*
X131128611Y-108891354D01*
X131059453Y-108901298D01*
X130995897Y-108872273D01*
X130964718Y-108830965D01*
X130948116Y-108795362D01*
X130948113Y-108795358D01*
X130948113Y-108795357D01*
X130822613Y-108616124D01*
X130822610Y-108616121D01*
X130667891Y-108461402D01*
X130488653Y-108335898D01*
X130488654Y-108335898D01*
X130488652Y-108335897D01*
X130389498Y-108289661D01*
X130290344Y-108243425D01*
X130290340Y-108243424D01*
X130290336Y-108243422D01*
X130078991Y-108186793D01*
X129861016Y-108167723D01*
X129861012Y-108167723D01*
X129715696Y-108180436D01*
X129643037Y-108186793D01*
X129643034Y-108186793D01*
X129431691Y-108243422D01*
X129431682Y-108243426D01*
X129233375Y-108335898D01*
X129233371Y-108335900D01*
X129054135Y-108461402D01*
X128899416Y-108616121D01*
X128773914Y-108795357D01*
X128773912Y-108795361D01*
X128703396Y-108946583D01*
X128657223Y-108999022D01*
X128590030Y-109018174D01*
X128523149Y-108997958D01*
X128478632Y-108946583D01*
X128424718Y-108830965D01*
X128408116Y-108795362D01*
X128408114Y-108795359D01*
X128408113Y-108795357D01*
X128282613Y-108616124D01*
X128282610Y-108616121D01*
X128127891Y-108461402D01*
X127948653Y-108335898D01*
X127948654Y-108335898D01*
X127948652Y-108335897D01*
X127849498Y-108289661D01*
X127750344Y-108243425D01*
X127750340Y-108243424D01*
X127750336Y-108243422D01*
X127538991Y-108186793D01*
X127321016Y-108167723D01*
X127321012Y-108167723D01*
X127175696Y-108180436D01*
X127103037Y-108186793D01*
X127103034Y-108186793D01*
X126891691Y-108243422D01*
X126891682Y-108243426D01*
X126693375Y-108335898D01*
X126693371Y-108335900D01*
X126514135Y-108461402D01*
X126359416Y-108616121D01*
X126233914Y-108795357D01*
X126233912Y-108795361D01*
X126163396Y-108946583D01*
X126117223Y-108999022D01*
X126050030Y-109018174D01*
X125983149Y-108997958D01*
X125938632Y-108946583D01*
X125884718Y-108830965D01*
X125868116Y-108795362D01*
X125868114Y-108795359D01*
X125868113Y-108795357D01*
X125742613Y-108616124D01*
X125742610Y-108616121D01*
X125587891Y-108461402D01*
X125408653Y-108335898D01*
X125408654Y-108335898D01*
X125408652Y-108335897D01*
X125309498Y-108289661D01*
X125210344Y-108243425D01*
X125210340Y-108243424D01*
X125210336Y-108243422D01*
X124998991Y-108186793D01*
X124781016Y-108167723D01*
X124781012Y-108167723D01*
X124635696Y-108180436D01*
X124563037Y-108186793D01*
X124563034Y-108186793D01*
X124351691Y-108243422D01*
X124351682Y-108243426D01*
X124153375Y-108335898D01*
X124153371Y-108335900D01*
X123974135Y-108461402D01*
X123819416Y-108616121D01*
X123693914Y-108795357D01*
X123693912Y-108795361D01*
X123623396Y-108946583D01*
X123577223Y-108999022D01*
X123510030Y-109018174D01*
X123443149Y-108997958D01*
X123398632Y-108946583D01*
X123344718Y-108830965D01*
X123328116Y-108795362D01*
X123328114Y-108795359D01*
X123328113Y-108795357D01*
X123202613Y-108616124D01*
X123202610Y-108616121D01*
X123047891Y-108461402D01*
X122868653Y-108335898D01*
X122868654Y-108335898D01*
X122868652Y-108335897D01*
X122769498Y-108289661D01*
X122670344Y-108243425D01*
X122670340Y-108243424D01*
X122670336Y-108243422D01*
X122458991Y-108186793D01*
X122241016Y-108167723D01*
X122241012Y-108167723D01*
X122095696Y-108180436D01*
X122023037Y-108186793D01*
X122023034Y-108186793D01*
X121811691Y-108243422D01*
X121811682Y-108243426D01*
X121613375Y-108335898D01*
X121613371Y-108335900D01*
X121434135Y-108461402D01*
X121279416Y-108616121D01*
X121153914Y-108795357D01*
X121153912Y-108795361D01*
X121083396Y-108946583D01*
X121037223Y-108999022D01*
X120970030Y-109018174D01*
X120903149Y-108997958D01*
X120858632Y-108946583D01*
X120804718Y-108830965D01*
X120788116Y-108795362D01*
X120788114Y-108795359D01*
X120788113Y-108795357D01*
X120662613Y-108616124D01*
X120662610Y-108616121D01*
X120507891Y-108461402D01*
X120328653Y-108335898D01*
X120328654Y-108335898D01*
X120328652Y-108335897D01*
X120229498Y-108289661D01*
X120130344Y-108243425D01*
X120130340Y-108243424D01*
X120130336Y-108243422D01*
X119918991Y-108186793D01*
X119701016Y-108167723D01*
X119701012Y-108167723D01*
X119555696Y-108180436D01*
X119483037Y-108186793D01*
X119483034Y-108186793D01*
X119271691Y-108243422D01*
X119271682Y-108243426D01*
X119073375Y-108335898D01*
X119073371Y-108335900D01*
X118894135Y-108461402D01*
X118739416Y-108616121D01*
X118613914Y-108795357D01*
X118613912Y-108795361D01*
X118521440Y-108993668D01*
X118521436Y-108993677D01*
X118464807Y-109205020D01*
X118464807Y-109205024D01*
X118445737Y-109422997D01*
X118445737Y-109423002D01*
X118464807Y-109640975D01*
X118464807Y-109640979D01*
X118521436Y-109852322D01*
X118521438Y-109852326D01*
X118521439Y-109852330D01*
X118543396Y-109899416D01*
X118613911Y-110050638D01*
X118613912Y-110050639D01*
X118739416Y-110229877D01*
X118894137Y-110384598D01*
X119073375Y-110510102D01*
X119271684Y-110602575D01*
X119483037Y-110659207D01*
X119665940Y-110675208D01*
X119701012Y-110678277D01*
X119701014Y-110678277D01*
X119701016Y-110678277D01*
X119729268Y-110675805D01*
X119918991Y-110659207D01*
X120130344Y-110602575D01*
X120328653Y-110510102D01*
X120507891Y-110384598D01*
X120662612Y-110229877D01*
X120788116Y-110050639D01*
X120858632Y-109899414D01*
X120904804Y-109846977D01*
X120971998Y-109827825D01*
X121038879Y-109848041D01*
X121083395Y-109899414D01*
X121153912Y-110050639D01*
X121279416Y-110229877D01*
X121434137Y-110384598D01*
X121613375Y-110510102D01*
X121811684Y-110602575D01*
X122023037Y-110659207D01*
X122205940Y-110675208D01*
X122241012Y-110678277D01*
X122241014Y-110678277D01*
X122241016Y-110678277D01*
X122269268Y-110675805D01*
X122458991Y-110659207D01*
X122670344Y-110602575D01*
X122868653Y-110510102D01*
X123047891Y-110384598D01*
X123202612Y-110229877D01*
X123328116Y-110050639D01*
X123398632Y-109899414D01*
X123444804Y-109846977D01*
X123511998Y-109827825D01*
X123578879Y-109848041D01*
X123623395Y-109899414D01*
X123693912Y-110050639D01*
X123819416Y-110229877D01*
X123974137Y-110384598D01*
X124153375Y-110510102D01*
X124351684Y-110602575D01*
X124563037Y-110659207D01*
X124745940Y-110675208D01*
X124781012Y-110678277D01*
X124781014Y-110678277D01*
X124781016Y-110678277D01*
X124809268Y-110675805D01*
X124998991Y-110659207D01*
X125210344Y-110602575D01*
X125408653Y-110510102D01*
X125587891Y-110384598D01*
X125742612Y-110229877D01*
X125868116Y-110050639D01*
X125938632Y-109899414D01*
X125984804Y-109846977D01*
X126051998Y-109827825D01*
X126118879Y-109848041D01*
X126163395Y-109899414D01*
X126233912Y-110050639D01*
X126359416Y-110229877D01*
X126514137Y-110384598D01*
X126693375Y-110510102D01*
X126891684Y-110602575D01*
X127103037Y-110659207D01*
X127285940Y-110675208D01*
X127321012Y-110678277D01*
X127321014Y-110678277D01*
X127321016Y-110678277D01*
X127349268Y-110675805D01*
X127538991Y-110659207D01*
X127750344Y-110602575D01*
X127948653Y-110510102D01*
X128127891Y-110384598D01*
X128282612Y-110229877D01*
X128408116Y-110050639D01*
X128478632Y-109899414D01*
X128524804Y-109846977D01*
X128591998Y-109827825D01*
X128658879Y-109848041D01*
X128703395Y-109899414D01*
X128773912Y-110050639D01*
X128899416Y-110229877D01*
X129054137Y-110384598D01*
X129233375Y-110510102D01*
X129431684Y-110602575D01*
X129643037Y-110659207D01*
X129825940Y-110675208D01*
X129861012Y-110678277D01*
X129861014Y-110678277D01*
X129861016Y-110678277D01*
X129889268Y-110675805D01*
X130078991Y-110659207D01*
X130290344Y-110602575D01*
X130488653Y-110510102D01*
X130667891Y-110384598D01*
X130822612Y-110229877D01*
X130948116Y-110050639D01*
X130964718Y-110015036D01*
X131010890Y-109962596D01*
X131078083Y-109943444D01*
X131144965Y-109963660D01*
X131190299Y-110016825D01*
X131201100Y-110067440D01*
X131201100Y-112986660D01*
X131200856Y-112994442D01*
X131183671Y-113267733D01*
X131181714Y-113283213D01*
X131132831Y-113539164D01*
X131128965Y-113554213D01*
X131048441Y-113802092D01*
X131042720Y-113816550D01*
X130931873Y-114052265D01*
X130924347Y-114065956D01*
X130784696Y-114285931D01*
X130775557Y-114298507D01*
X130609497Y-114499257D01*
X130598823Y-114510623D01*
X130408856Y-114688971D01*
X130396876Y-114698881D01*
X130186171Y-114851993D01*
X130173018Y-114860342D01*
X129944672Y-114985882D01*
X129930555Y-114992523D01*
X129688318Y-115088372D01*
X129673541Y-115093172D01*
X129421092Y-115158008D01*
X129405812Y-115160925D01*
X129243549Y-115181456D01*
X129147419Y-115193619D01*
X129131855Y-115194600D01*
X129039562Y-115194600D01*
X128960438Y-115194600D01*
X128957914Y-115195276D01*
X128925826Y-115199500D01*
X76592835Y-115199500D01*
X76560743Y-115195275D01*
X76539564Y-115189600D01*
X76539562Y-115189600D01*
X76212711Y-115189600D01*
X76197168Y-115188622D01*
X75957152Y-115158297D01*
X75627241Y-115116614D01*
X75611957Y-115113699D01*
X75055510Y-114970882D01*
X75040680Y-114966063D01*
X74814653Y-114876550D01*
X74759571Y-114833564D01*
X74736473Y-114767623D01*
X74752693Y-114699662D01*
X74803080Y-114651259D01*
X74868419Y-114637528D01*
X75005176Y-114646492D01*
X75139994Y-114655329D01*
X75140000Y-114655329D01*
X75140007Y-114655329D01*
X75375675Y-114639881D01*
X75434380Y-114636034D01*
X75723722Y-114578481D01*
X76003077Y-114483652D01*
X76267665Y-114353172D01*
X76512957Y-114189273D01*
X76734758Y-113994758D01*
X76929273Y-113772957D01*
X77093172Y-113527665D01*
X77223652Y-113263077D01*
X77318481Y-112983722D01*
X77376034Y-112694380D01*
X77381525Y-112610610D01*
X77395329Y-112400007D01*
X77395329Y-112399992D01*
X77386948Y-112272135D01*
X78239500Y-112272135D01*
X78239500Y-114067870D01*
X78239501Y-114067876D01*
X78245908Y-114127483D01*
X78296202Y-114262328D01*
X78296206Y-114262335D01*
X78382452Y-114377544D01*
X78382455Y-114377547D01*
X78497664Y-114463793D01*
X78497671Y-114463797D01*
X78632517Y-114514091D01*
X78632516Y-114514091D01*
X78639444Y-114514835D01*
X78692127Y-114520500D01*
X80487872Y-114520499D01*
X80547483Y-114514091D01*
X80682331Y-114463796D01*
X80797546Y-114377546D01*
X80883796Y-114262331D01*
X80934091Y-114127483D01*
X80940500Y-114067873D01*
X80940499Y-112292135D01*
X82159500Y-112292135D01*
X82159500Y-114087870D01*
X82159501Y-114087876D01*
X82165908Y-114147483D01*
X82216202Y-114282328D01*
X82216206Y-114282335D01*
X82302452Y-114397544D01*
X82302455Y-114397547D01*
X82417664Y-114483793D01*
X82417671Y-114483797D01*
X82552517Y-114534091D01*
X82552516Y-114534091D01*
X82559444Y-114534835D01*
X82612127Y-114540500D01*
X84407872Y-114540499D01*
X84467483Y-114534091D01*
X84602331Y-114483796D01*
X84717546Y-114397546D01*
X84803796Y-114282331D01*
X84854091Y-114147483D01*
X84860500Y-114087873D01*
X84860499Y-112292128D01*
X84854091Y-112232517D01*
X84846631Y-112212517D01*
X84803797Y-112097671D01*
X84803793Y-112097664D01*
X84717547Y-111982455D01*
X84717544Y-111982452D01*
X84602335Y-111896206D01*
X84602328Y-111896202D01*
X84467482Y-111845908D01*
X84467483Y-111845908D01*
X84407883Y-111839501D01*
X84407881Y-111839500D01*
X84407873Y-111839500D01*
X84407864Y-111839500D01*
X82612129Y-111839500D01*
X82612123Y-111839501D01*
X82552516Y-111845908D01*
X82417671Y-111896202D01*
X82417664Y-111896206D01*
X82302455Y-111982452D01*
X82302452Y-111982455D01*
X82216206Y-112097664D01*
X82216202Y-112097671D01*
X82165908Y-112232517D01*
X82161650Y-112272127D01*
X82159501Y-112292123D01*
X82159500Y-112292135D01*
X80940499Y-112292135D01*
X80940499Y-112272128D01*
X80934091Y-112212517D01*
X80911001Y-112150610D01*
X80883797Y-112077671D01*
X80883793Y-112077664D01*
X80797547Y-111962455D01*
X80797544Y-111962452D01*
X80682335Y-111876206D01*
X80682328Y-111876202D01*
X80547482Y-111825908D01*
X80547483Y-111825908D01*
X80487883Y-111819501D01*
X80487881Y-111819500D01*
X80487873Y-111819500D01*
X80487864Y-111819500D01*
X78692129Y-111819500D01*
X78692123Y-111819501D01*
X78632516Y-111825908D01*
X78497671Y-111876202D01*
X78497664Y-111876206D01*
X78382455Y-111962452D01*
X78382452Y-111962455D01*
X78296206Y-112077664D01*
X78296202Y-112077671D01*
X78245908Y-112212517D01*
X78240750Y-112260500D01*
X78239501Y-112272123D01*
X78239500Y-112272135D01*
X77386948Y-112272135D01*
X77376035Y-112105636D01*
X77376034Y-112105620D01*
X77318481Y-111816278D01*
X77223652Y-111536923D01*
X77161060Y-111410000D01*
X117424815Y-111410000D01*
X117443503Y-111587805D01*
X117443504Y-111587807D01*
X117498747Y-111757829D01*
X117498750Y-111757835D01*
X117588141Y-111912665D01*
X117629812Y-111958946D01*
X117707764Y-112045521D01*
X117707767Y-112045523D01*
X117707770Y-112045526D01*
X117852407Y-112150612D01*
X118015733Y-112223329D01*
X118190609Y-112260500D01*
X118190610Y-112260500D01*
X118369389Y-112260500D01*
X118369391Y-112260500D01*
X118544267Y-112223329D01*
X118707593Y-112150612D01*
X118852230Y-112045526D01*
X118971859Y-111912665D01*
X118996492Y-111870000D01*
X119914815Y-111870000D01*
X119933503Y-112047805D01*
X119933504Y-112047807D01*
X119988747Y-112217829D01*
X119988750Y-112217835D01*
X120078141Y-112372665D01*
X120102754Y-112400000D01*
X120197764Y-112505521D01*
X120197767Y-112505523D01*
X120197770Y-112505526D01*
X120342407Y-112610612D01*
X120505733Y-112683329D01*
X120680609Y-112720500D01*
X120680610Y-112720500D01*
X120859389Y-112720500D01*
X120859391Y-112720500D01*
X121034267Y-112683329D01*
X121197593Y-112610612D01*
X121342230Y-112505526D01*
X121461859Y-112372665D01*
X121551250Y-112217835D01*
X121606497Y-112047803D01*
X121625185Y-111870000D01*
X121606497Y-111692197D01*
X121578873Y-111607181D01*
X121551252Y-111522170D01*
X121551249Y-111522164D01*
X121461859Y-111367335D01*
X121415003Y-111315296D01*
X121342235Y-111234478D01*
X121342232Y-111234476D01*
X121342231Y-111234475D01*
X121342230Y-111234474D01*
X121197593Y-111129388D01*
X121034267Y-111056671D01*
X121034265Y-111056670D01*
X120894878Y-111027043D01*
X120859391Y-111019500D01*
X120680609Y-111019500D01*
X120649954Y-111026015D01*
X120505733Y-111056670D01*
X120505728Y-111056672D01*
X120342408Y-111129387D01*
X120197768Y-111234475D01*
X120078140Y-111367336D01*
X119988750Y-111522164D01*
X119988747Y-111522170D01*
X119933504Y-111692192D01*
X119933503Y-111692194D01*
X119914815Y-111870000D01*
X118996492Y-111870000D01*
X119061250Y-111757835D01*
X119116497Y-111587803D01*
X119135185Y-111410000D01*
X119116497Y-111232197D01*
X119061250Y-111062165D01*
X118971859Y-110907335D01*
X118925003Y-110855296D01*
X118852235Y-110774478D01*
X118852232Y-110774476D01*
X118852231Y-110774475D01*
X118852230Y-110774474D01*
X118707593Y-110669388D01*
X118544267Y-110596671D01*
X118544265Y-110596670D01*
X118416594Y-110569533D01*
X118369391Y-110559500D01*
X118190609Y-110559500D01*
X118159954Y-110566015D01*
X118015733Y-110596670D01*
X118015728Y-110596672D01*
X117852408Y-110669387D01*
X117707768Y-110774475D01*
X117588140Y-110907336D01*
X117498750Y-111062164D01*
X117498747Y-111062170D01*
X117443504Y-111232192D01*
X117443503Y-111232194D01*
X117424815Y-111410000D01*
X77161060Y-111410000D01*
X77093172Y-111272336D01*
X76929273Y-111027043D01*
X76886655Y-110978447D01*
X76734758Y-110805241D01*
X76512955Y-110610725D01*
X76267667Y-110446829D01*
X76267660Y-110446825D01*
X76003080Y-110316349D01*
X75723730Y-110221521D01*
X75723724Y-110221519D01*
X75723722Y-110221519D01*
X75434380Y-110163966D01*
X75434373Y-110163965D01*
X75434363Y-110163964D01*
X75140007Y-110144671D01*
X75139993Y-110144671D01*
X74845636Y-110163964D01*
X74845620Y-110163966D01*
X74598190Y-110213182D01*
X74528599Y-110206954D01*
X74473422Y-110164090D01*
X74450178Y-110098200D01*
X74450000Y-110091564D01*
X74450000Y-104400000D01*
X102494815Y-104400000D01*
X102513503Y-104577805D01*
X102513504Y-104577807D01*
X102568747Y-104747829D01*
X102568750Y-104747835D01*
X102658141Y-104902665D01*
X102699812Y-104948946D01*
X102777764Y-105035521D01*
X102777767Y-105035523D01*
X102777770Y-105035526D01*
X102922407Y-105140612D01*
X103085733Y-105213329D01*
X103260609Y-105250500D01*
X103260610Y-105250500D01*
X103439389Y-105250500D01*
X103439391Y-105250500D01*
X103614267Y-105213329D01*
X103777593Y-105140612D01*
X103922230Y-105035526D01*
X104041859Y-104902665D01*
X104131250Y-104747835D01*
X104186497Y-104577803D01*
X104192180Y-104523725D01*
X104218763Y-104459115D01*
X104276059Y-104419130D01*
X104345878Y-104416469D01*
X104406052Y-104451977D01*
X104437477Y-104514381D01*
X104439500Y-104536689D01*
X104439500Y-104647870D01*
X104439501Y-104647876D01*
X104445908Y-104707483D01*
X104496202Y-104842328D01*
X104496206Y-104842335D01*
X104582452Y-104957544D01*
X104582455Y-104957547D01*
X104697664Y-105043793D01*
X104697671Y-105043797D01*
X104832517Y-105094091D01*
X104832516Y-105094091D01*
X104839444Y-105094835D01*
X104892127Y-105100500D01*
X106987872Y-105100499D01*
X107047483Y-105094091D01*
X107182331Y-105043796D01*
X107297546Y-104957546D01*
X107383796Y-104842331D01*
X107434091Y-104707483D01*
X107440500Y-104647873D01*
X107440500Y-104510000D01*
X111724815Y-104510000D01*
X111743503Y-104687805D01*
X111743504Y-104687807D01*
X111798747Y-104857829D01*
X111798750Y-104857835D01*
X111888141Y-105012665D01*
X111924157Y-105052665D01*
X112007764Y-105145521D01*
X112007767Y-105145523D01*
X112007770Y-105145526D01*
X112152407Y-105250612D01*
X112315733Y-105323329D01*
X112490609Y-105360500D01*
X112490610Y-105360500D01*
X112669389Y-105360500D01*
X112669391Y-105360500D01*
X112844267Y-105323329D01*
X113007593Y-105250612D01*
X113152230Y-105145526D01*
X113156657Y-105140610D01*
X113178148Y-105116741D01*
X113271859Y-105012665D01*
X113361250Y-104857835D01*
X113416497Y-104687803D01*
X113430981Y-104550000D01*
X114074815Y-104550000D01*
X114093503Y-104727805D01*
X114093504Y-104727807D01*
X114148747Y-104897829D01*
X114148750Y-104897835D01*
X114238141Y-105052665D01*
X114275441Y-105094091D01*
X114357764Y-105185521D01*
X114357767Y-105185523D01*
X114357770Y-105185526D01*
X114502407Y-105290612D01*
X114665733Y-105363329D01*
X114840609Y-105400500D01*
X114840610Y-105400500D01*
X115019389Y-105400500D01*
X115019391Y-105400500D01*
X115194267Y-105363329D01*
X115357593Y-105290612D01*
X115502230Y-105185526D01*
X115621859Y-105052665D01*
X115711250Y-104897835D01*
X115766497Y-104727803D01*
X115785185Y-104550000D01*
X115766497Y-104372197D01*
X115717759Y-104222197D01*
X115711252Y-104202170D01*
X115711249Y-104202164D01*
X115621859Y-104047335D01*
X115575003Y-103995296D01*
X115502235Y-103914478D01*
X115502232Y-103914476D01*
X115502231Y-103914475D01*
X115502230Y-103914474D01*
X115357593Y-103809388D01*
X115194267Y-103736671D01*
X115194265Y-103736670D01*
X115066594Y-103709533D01*
X115019391Y-103699500D01*
X114840609Y-103699500D01*
X114809954Y-103706015D01*
X114665733Y-103736670D01*
X114665728Y-103736672D01*
X114502408Y-103809387D01*
X114357768Y-103914475D01*
X114238140Y-104047336D01*
X114148750Y-104202164D01*
X114148747Y-104202170D01*
X114093504Y-104372192D01*
X114093503Y-104372194D01*
X114074815Y-104550000D01*
X113430981Y-104550000D01*
X113435185Y-104510000D01*
X113416497Y-104332197D01*
X113380754Y-104222192D01*
X113361252Y-104162170D01*
X113361249Y-104162164D01*
X113297744Y-104052170D01*
X113271859Y-104007335D01*
X113225003Y-103955296D01*
X113152235Y-103874478D01*
X113152232Y-103874476D01*
X113152231Y-103874475D01*
X113152230Y-103874474D01*
X113007593Y-103769388D01*
X112844267Y-103696671D01*
X112844265Y-103696670D01*
X112716594Y-103669533D01*
X112669391Y-103659500D01*
X112490609Y-103659500D01*
X112459954Y-103666015D01*
X112315733Y-103696670D01*
X112315728Y-103696672D01*
X112152408Y-103769387D01*
X112007768Y-103874475D01*
X111888140Y-104007336D01*
X111798750Y-104162164D01*
X111798747Y-104162170D01*
X111743504Y-104332192D01*
X111743503Y-104332194D01*
X111724815Y-104510000D01*
X107440500Y-104510000D01*
X107440499Y-102552128D01*
X107434091Y-102492517D01*
X107390065Y-102374478D01*
X107383797Y-102357671D01*
X107383793Y-102357664D01*
X107297547Y-102242455D01*
X107297544Y-102242452D01*
X107182335Y-102156206D01*
X107182328Y-102156202D01*
X107047482Y-102105908D01*
X107047483Y-102105908D01*
X106987883Y-102099501D01*
X106987881Y-102099500D01*
X106987873Y-102099500D01*
X106987864Y-102099500D01*
X104892129Y-102099500D01*
X104892123Y-102099501D01*
X104832516Y-102105908D01*
X104697671Y-102156202D01*
X104697664Y-102156206D01*
X104582455Y-102242452D01*
X104582452Y-102242455D01*
X104496206Y-102357664D01*
X104496202Y-102357671D01*
X104445908Y-102492517D01*
X104439501Y-102552116D01*
X104439501Y-102552123D01*
X104439500Y-102552135D01*
X104439500Y-104263308D01*
X104419815Y-104330347D01*
X104367011Y-104376102D01*
X104297853Y-104386046D01*
X104234297Y-104357021D01*
X104196523Y-104298243D01*
X104192181Y-104276280D01*
X104186497Y-104222197D01*
X104131250Y-104052165D01*
X104041859Y-103897335D01*
X103995003Y-103845296D01*
X103922235Y-103764478D01*
X103922232Y-103764476D01*
X103922231Y-103764475D01*
X103922230Y-103764474D01*
X103777593Y-103659388D01*
X103614267Y-103586671D01*
X103614265Y-103586670D01*
X103486594Y-103559533D01*
X103439391Y-103549500D01*
X103260609Y-103549500D01*
X103229954Y-103556015D01*
X103085733Y-103586670D01*
X103085728Y-103586672D01*
X102922408Y-103659387D01*
X102777768Y-103764475D01*
X102658140Y-103897336D01*
X102568750Y-104052164D01*
X102568747Y-104052170D01*
X102513504Y-104222192D01*
X102513503Y-104222194D01*
X102494815Y-104400000D01*
X74450000Y-104400000D01*
X74450000Y-103010000D01*
X100394815Y-103010000D01*
X100413503Y-103187805D01*
X100413504Y-103187807D01*
X100468747Y-103357829D01*
X100468750Y-103357835D01*
X100558141Y-103512665D01*
X100599812Y-103558946D01*
X100677764Y-103645521D01*
X100677767Y-103645523D01*
X100677770Y-103645526D01*
X100822407Y-103750612D01*
X100985733Y-103823329D01*
X101160609Y-103860500D01*
X101160610Y-103860500D01*
X101339389Y-103860500D01*
X101339391Y-103860500D01*
X101514267Y-103823329D01*
X101677593Y-103750612D01*
X101822230Y-103645526D01*
X101941859Y-103512665D01*
X102031250Y-103357835D01*
X102086497Y-103187803D01*
X102105185Y-103010000D01*
X102086497Y-102832197D01*
X102031250Y-102662165D01*
X101941859Y-102507335D01*
X101895003Y-102455296D01*
X101822235Y-102374478D01*
X101822232Y-102374476D01*
X101822231Y-102374475D01*
X101822230Y-102374474D01*
X101677593Y-102269388D01*
X101514267Y-102196671D01*
X101514265Y-102196670D01*
X101386594Y-102169533D01*
X101339391Y-102159500D01*
X101160609Y-102159500D01*
X101129954Y-102166015D01*
X100985733Y-102196670D01*
X100985728Y-102196672D01*
X100822408Y-102269387D01*
X100677768Y-102374475D01*
X100558140Y-102507336D01*
X100468750Y-102662164D01*
X100468747Y-102662170D01*
X100413504Y-102832192D01*
X100413503Y-102832194D01*
X100394815Y-103010000D01*
X74450000Y-103010000D01*
X74450000Y-100675000D01*
X116334815Y-100675000D01*
X116353503Y-100852805D01*
X116353504Y-100852807D01*
X116408747Y-101022829D01*
X116408750Y-101022835D01*
X116498141Y-101177665D01*
X116539812Y-101223946D01*
X116617764Y-101310521D01*
X116617767Y-101310523D01*
X116617770Y-101310526D01*
X116762407Y-101415612D01*
X116925733Y-101488329D01*
X117100609Y-101525500D01*
X117100610Y-101525500D01*
X117279389Y-101525500D01*
X117279391Y-101525500D01*
X117454267Y-101488329D01*
X117617593Y-101415612D01*
X117762230Y-101310526D01*
X117881859Y-101177665D01*
X117971250Y-101022835D01*
X118026497Y-100852803D01*
X118045185Y-100675000D01*
X118026497Y-100497197D01*
X117971250Y-100327165D01*
X117881859Y-100172335D01*
X117835003Y-100120296D01*
X117762235Y-100039478D01*
X117762232Y-100039476D01*
X117762231Y-100039475D01*
X117762230Y-100039474D01*
X117617593Y-99934388D01*
X117454267Y-99861671D01*
X117454265Y-99861670D01*
X117326594Y-99834533D01*
X117279391Y-99824500D01*
X117100609Y-99824500D01*
X117069954Y-99831015D01*
X116925733Y-99861670D01*
X116925728Y-99861672D01*
X116762408Y-99934387D01*
X116617768Y-100039475D01*
X116498140Y-100172336D01*
X116408750Y-100327164D01*
X116408747Y-100327170D01*
X116353504Y-100497192D01*
X116353503Y-100497194D01*
X116334815Y-100675000D01*
X74450000Y-100675000D01*
X74450000Y-98750000D01*
X76894815Y-98750000D01*
X76913503Y-98927805D01*
X76913504Y-98927807D01*
X76968747Y-99097829D01*
X76968750Y-99097835D01*
X77058141Y-99252665D01*
X77074299Y-99270610D01*
X77177764Y-99385521D01*
X77177767Y-99385523D01*
X77177770Y-99385526D01*
X77322407Y-99490612D01*
X77485733Y-99563329D01*
X77660609Y-99600500D01*
X77660610Y-99600500D01*
X77839389Y-99600500D01*
X77839391Y-99600500D01*
X78014267Y-99563329D01*
X78177593Y-99490612D01*
X78322230Y-99385526D01*
X78326756Y-99380500D01*
X78360224Y-99343329D01*
X78441859Y-99252665D01*
X78531250Y-99097835D01*
X78586497Y-98927803D01*
X78605185Y-98750000D01*
X78586497Y-98572197D01*
X78553291Y-98470000D01*
X110014815Y-98470000D01*
X110033503Y-98647805D01*
X110033504Y-98647807D01*
X110088747Y-98817829D01*
X110088750Y-98817835D01*
X110178141Y-98972665D01*
X110219812Y-99018946D01*
X110297764Y-99105521D01*
X110297767Y-99105523D01*
X110297770Y-99105526D01*
X110442407Y-99210612D01*
X110605733Y-99283329D01*
X110780609Y-99320500D01*
X110780610Y-99320500D01*
X110959389Y-99320500D01*
X110959391Y-99320500D01*
X111134267Y-99283329D01*
X111297593Y-99210612D01*
X111442230Y-99105526D01*
X111449161Y-99097829D01*
X111473768Y-99070500D01*
X111561859Y-98972665D01*
X111651250Y-98817835D01*
X111706497Y-98647803D01*
X111724659Y-98475000D01*
X113169815Y-98475000D01*
X113188503Y-98652805D01*
X113188504Y-98652807D01*
X113243747Y-98822829D01*
X113243750Y-98822835D01*
X113333141Y-98977665D01*
X113374812Y-99023946D01*
X113452764Y-99110521D01*
X113452767Y-99110523D01*
X113452770Y-99110526D01*
X113597407Y-99215612D01*
X113760733Y-99288329D01*
X113935609Y-99325500D01*
X113935610Y-99325500D01*
X114114389Y-99325500D01*
X114114391Y-99325500D01*
X114289267Y-99288329D01*
X114452593Y-99215612D01*
X114597230Y-99110526D01*
X114608663Y-99097829D01*
X114633270Y-99070500D01*
X114716859Y-98977665D01*
X114806250Y-98822835D01*
X114861497Y-98652803D01*
X114880185Y-98475000D01*
X114861497Y-98297197D01*
X114836414Y-98220000D01*
X116374815Y-98220000D01*
X116393503Y-98397805D01*
X116393504Y-98397807D01*
X116448747Y-98567829D01*
X116448750Y-98567835D01*
X116538141Y-98722665D01*
X116562754Y-98750000D01*
X116657764Y-98855521D01*
X116657767Y-98855523D01*
X116657770Y-98855526D01*
X116802407Y-98960612D01*
X116965733Y-99033329D01*
X117140609Y-99070500D01*
X117140610Y-99070500D01*
X117319389Y-99070500D01*
X117319391Y-99070500D01*
X117494267Y-99033329D01*
X117657593Y-98960612D01*
X117802230Y-98855526D01*
X117921859Y-98722665D01*
X118011250Y-98567835D01*
X118011252Y-98567826D01*
X118013896Y-98561892D01*
X118015655Y-98562675D01*
X118049880Y-98512604D01*
X118114233Y-98485394D01*
X118183082Y-98497295D01*
X118234566Y-98544530D01*
X118251712Y-98595621D01*
X118263503Y-98707804D01*
X118263504Y-98707807D01*
X118318747Y-98877829D01*
X118318750Y-98877835D01*
X118408141Y-99032665D01*
X118442208Y-99070500D01*
X118527764Y-99165521D01*
X118527767Y-99165523D01*
X118527770Y-99165526D01*
X118672407Y-99270612D01*
X118835733Y-99343329D01*
X119010609Y-99380500D01*
X119010610Y-99380500D01*
X119189389Y-99380500D01*
X119189391Y-99380500D01*
X119364267Y-99343329D01*
X119527593Y-99270612D01*
X119672230Y-99165526D01*
X119791859Y-99032665D01*
X119881250Y-98877835D01*
X119936497Y-98707803D01*
X119955185Y-98530000D01*
X119936497Y-98352197D01*
X119904164Y-98252686D01*
X119881252Y-98182170D01*
X119881249Y-98182164D01*
X119865207Y-98154378D01*
X119791859Y-98027335D01*
X119742337Y-97972335D01*
X119672235Y-97894478D01*
X119672232Y-97894476D01*
X119672231Y-97894475D01*
X119672230Y-97894474D01*
X119527593Y-97789388D01*
X119364267Y-97716671D01*
X119364265Y-97716670D01*
X119236594Y-97689533D01*
X119189391Y-97679500D01*
X119010609Y-97679500D01*
X118979954Y-97686015D01*
X118835733Y-97716670D01*
X118835728Y-97716672D01*
X118672408Y-97789387D01*
X118527768Y-97894475D01*
X118408140Y-98027336D01*
X118318750Y-98182164D01*
X118316104Y-98188108D01*
X118314351Y-98187327D01*
X118280089Y-98237420D01*
X118215727Y-98264610D01*
X118146882Y-98252686D01*
X118095412Y-98205435D01*
X118078288Y-98154381D01*
X118066497Y-98042197D01*
X118020493Y-97900612D01*
X118011252Y-97872170D01*
X118011249Y-97872164D01*
X117992376Y-97839475D01*
X117921859Y-97717335D01*
X117833768Y-97619500D01*
X117802235Y-97584478D01*
X117802232Y-97584476D01*
X117802231Y-97584475D01*
X117802230Y-97584474D01*
X117657593Y-97479388D01*
X117494267Y-97406671D01*
X117494265Y-97406670D01*
X117363271Y-97378827D01*
X117319391Y-97369500D01*
X117140609Y-97369500D01*
X117109954Y-97376015D01*
X116965733Y-97406670D01*
X116965728Y-97406672D01*
X116802408Y-97479387D01*
X116657768Y-97584475D01*
X116538140Y-97717336D01*
X116448750Y-97872164D01*
X116448747Y-97872170D01*
X116393504Y-98042192D01*
X116393503Y-98042194D01*
X116374815Y-98220000D01*
X114836414Y-98220000D01*
X114806250Y-98127165D01*
X114716859Y-97972335D01*
X114652279Y-97900612D01*
X114597235Y-97839478D01*
X114597232Y-97839476D01*
X114597231Y-97839475D01*
X114597230Y-97839474D01*
X114452593Y-97734388D01*
X114289267Y-97661671D01*
X114289265Y-97661670D01*
X114161594Y-97634533D01*
X114114391Y-97624500D01*
X113935609Y-97624500D01*
X113904954Y-97631015D01*
X113760733Y-97661670D01*
X113760728Y-97661672D01*
X113597408Y-97734387D01*
X113452768Y-97839475D01*
X113333140Y-97972336D01*
X113243750Y-98127164D01*
X113243747Y-98127170D01*
X113188504Y-98297192D01*
X113188503Y-98297194D01*
X113169815Y-98475000D01*
X111724659Y-98475000D01*
X111725185Y-98470000D01*
X111706497Y-98292197D01*
X111661717Y-98154378D01*
X111651252Y-98122170D01*
X111651249Y-98122164D01*
X111561859Y-97967335D01*
X111501781Y-97900612D01*
X111442235Y-97834478D01*
X111442232Y-97834476D01*
X111442231Y-97834475D01*
X111442230Y-97834474D01*
X111297593Y-97729388D01*
X111134267Y-97656671D01*
X111134265Y-97656670D01*
X110982914Y-97624500D01*
X110959391Y-97619500D01*
X110780609Y-97619500D01*
X110757086Y-97624500D01*
X110605733Y-97656670D01*
X110605728Y-97656672D01*
X110442408Y-97729387D01*
X110297768Y-97834475D01*
X110178140Y-97967336D01*
X110088750Y-98122164D01*
X110088747Y-98122170D01*
X110033504Y-98292192D01*
X110033503Y-98292194D01*
X110014815Y-98470000D01*
X78553291Y-98470000D01*
X78531250Y-98402165D01*
X78441859Y-98247335D01*
X78388531Y-98188108D01*
X78322235Y-98114478D01*
X78322232Y-98114476D01*
X78322231Y-98114475D01*
X78322230Y-98114474D01*
X78177593Y-98009388D01*
X78014267Y-97936671D01*
X78014265Y-97936670D01*
X77886594Y-97909533D01*
X77839391Y-97899500D01*
X77660609Y-97899500D01*
X77629954Y-97906015D01*
X77485733Y-97936670D01*
X77485728Y-97936672D01*
X77322408Y-98009387D01*
X77177768Y-98114475D01*
X77058140Y-98247336D01*
X76968750Y-98402164D01*
X76968747Y-98402170D01*
X76913504Y-98572192D01*
X76913503Y-98572194D01*
X76894815Y-98750000D01*
X74450000Y-98750000D01*
X74450000Y-97160000D01*
X102604815Y-97160000D01*
X102623503Y-97337805D01*
X102623504Y-97337807D01*
X102678747Y-97507829D01*
X102678750Y-97507835D01*
X102768141Y-97662665D01*
X102809812Y-97708946D01*
X102887764Y-97795521D01*
X102887767Y-97795523D01*
X102887770Y-97795526D01*
X103032407Y-97900612D01*
X103195733Y-97973329D01*
X103370609Y-98010500D01*
X103370610Y-98010500D01*
X103549389Y-98010500D01*
X103549391Y-98010500D01*
X103724267Y-97973329D01*
X103887593Y-97900612D01*
X104032230Y-97795526D01*
X104151859Y-97662665D01*
X104241250Y-97507835D01*
X104296497Y-97337803D01*
X104315185Y-97160000D01*
X104296497Y-96982197D01*
X104241250Y-96812165D01*
X104151859Y-96657335D01*
X104069229Y-96565565D01*
X104032235Y-96524478D01*
X104032232Y-96524476D01*
X104032231Y-96524475D01*
X104032230Y-96524474D01*
X103887593Y-96419388D01*
X103724267Y-96346671D01*
X103724265Y-96346670D01*
X103596594Y-96319533D01*
X103549391Y-96309500D01*
X103370609Y-96309500D01*
X103339954Y-96316015D01*
X103195733Y-96346670D01*
X103195728Y-96346672D01*
X103032408Y-96419387D01*
X102887768Y-96524475D01*
X102768140Y-96657336D01*
X102678750Y-96812164D01*
X102678747Y-96812170D01*
X102623504Y-96982192D01*
X102623503Y-96982194D01*
X102604815Y-97160000D01*
X74450000Y-97160000D01*
X74450000Y-96020000D01*
X76014815Y-96020000D01*
X76033503Y-96197805D01*
X76033504Y-96197807D01*
X76088747Y-96367829D01*
X76088750Y-96367835D01*
X76178141Y-96522665D01*
X76219812Y-96568946D01*
X76297764Y-96655521D01*
X76297767Y-96655523D01*
X76297770Y-96655526D01*
X76442407Y-96760612D01*
X76605733Y-96833329D01*
X76780609Y-96870500D01*
X76780610Y-96870500D01*
X76959389Y-96870500D01*
X76959391Y-96870500D01*
X77134267Y-96833329D01*
X77297593Y-96760612D01*
X77442230Y-96655526D01*
X77561859Y-96522665D01*
X77651250Y-96367835D01*
X77652931Y-96362663D01*
X77676342Y-96290610D01*
X77706497Y-96197803D01*
X77725185Y-96020000D01*
X77708368Y-95860000D01*
X78434815Y-95860000D01*
X78453503Y-96037805D01*
X78453504Y-96037807D01*
X78508747Y-96207829D01*
X78508750Y-96207835D01*
X78598141Y-96362665D01*
X78622587Y-96389815D01*
X78717764Y-96495521D01*
X78717767Y-96495523D01*
X78717770Y-96495526D01*
X78862407Y-96600612D01*
X79025733Y-96673329D01*
X79200609Y-96710500D01*
X79200610Y-96710500D01*
X79379389Y-96710500D01*
X79379391Y-96710500D01*
X79554267Y-96673329D01*
X79717593Y-96600612D01*
X79862230Y-96495526D01*
X79868214Y-96488881D01*
X79888148Y-96466741D01*
X79981859Y-96362665D01*
X80071250Y-96207835D01*
X80126497Y-96037803D01*
X80145185Y-95860000D01*
X80126497Y-95682197D01*
X80087528Y-95562262D01*
X80071252Y-95512170D01*
X80071249Y-95512164D01*
X80070646Y-95511119D01*
X79981859Y-95357335D01*
X79935003Y-95305296D01*
X79862235Y-95224478D01*
X79862232Y-95224476D01*
X79862231Y-95224475D01*
X79862230Y-95224474D01*
X79717593Y-95119388D01*
X79554267Y-95046671D01*
X79554265Y-95046670D01*
X79426594Y-95019533D01*
X79379391Y-95009500D01*
X79200609Y-95009500D01*
X79169954Y-95016015D01*
X79025733Y-95046670D01*
X79025728Y-95046672D01*
X78862408Y-95119387D01*
X78717768Y-95224475D01*
X78598140Y-95357336D01*
X78508750Y-95512164D01*
X78508747Y-95512170D01*
X78453504Y-95682192D01*
X78453503Y-95682194D01*
X78434815Y-95860000D01*
X77708368Y-95860000D01*
X77706497Y-95842197D01*
X77651250Y-95672165D01*
X77561859Y-95517335D01*
X77515003Y-95465296D01*
X77442235Y-95384478D01*
X77442232Y-95384476D01*
X77442231Y-95384475D01*
X77442230Y-95384474D01*
X77297593Y-95279388D01*
X77134267Y-95206671D01*
X77134265Y-95206670D01*
X77006594Y-95179533D01*
X76959391Y-95169500D01*
X76780609Y-95169500D01*
X76751012Y-95175791D01*
X76605733Y-95206670D01*
X76605728Y-95206672D01*
X76442408Y-95279387D01*
X76297768Y-95384475D01*
X76178140Y-95517336D01*
X76088750Y-95672164D01*
X76088747Y-95672170D01*
X76033504Y-95842192D01*
X76033503Y-95842194D01*
X76014815Y-96020000D01*
X74450000Y-96020000D01*
X74450000Y-93659996D01*
X87184435Y-93659996D01*
X87184435Y-93660003D01*
X87204630Y-93839249D01*
X87204631Y-93839254D01*
X87264211Y-94009523D01*
X87360184Y-94162262D01*
X87470241Y-94272319D01*
X87503726Y-94333642D01*
X87498742Y-94403334D01*
X87470241Y-94447681D01*
X87360184Y-94557737D01*
X87264211Y-94710476D01*
X87204631Y-94880745D01*
X87204630Y-94880750D01*
X87184435Y-95059996D01*
X87184435Y-95060003D01*
X87204630Y-95239249D01*
X87204631Y-95239254D01*
X87264211Y-95409523D01*
X87328705Y-95512164D01*
X87360184Y-95562262D01*
X87487738Y-95689816D01*
X87640478Y-95785789D01*
X87810745Y-95845368D01*
X87810754Y-95845369D01*
X87811207Y-95845473D01*
X87811477Y-95845624D01*
X87817318Y-95847668D01*
X87816960Y-95848690D01*
X87872191Y-95879573D01*
X87901377Y-95933017D01*
X87902333Y-95932683D01*
X87904362Y-95938483D01*
X87904523Y-95938777D01*
X87904631Y-95939250D01*
X87904632Y-95939255D01*
X87932886Y-96020000D01*
X87964210Y-96109521D01*
X88019682Y-96197803D01*
X88060184Y-96262262D01*
X88187738Y-96389816D01*
X88340478Y-96485789D01*
X88451039Y-96524476D01*
X88510745Y-96545368D01*
X88510750Y-96545369D01*
X88689996Y-96565565D01*
X88690000Y-96565565D01*
X88690004Y-96565565D01*
X88869249Y-96545369D01*
X88869252Y-96545368D01*
X88869255Y-96545368D01*
X89039522Y-96485789D01*
X89192262Y-96389816D01*
X89302319Y-96279759D01*
X89363642Y-96246274D01*
X89433334Y-96251258D01*
X89477681Y-96279759D01*
X89587738Y-96389816D01*
X89740478Y-96485789D01*
X89851039Y-96524476D01*
X89910745Y-96545368D01*
X89910750Y-96545369D01*
X90089996Y-96565565D01*
X90090000Y-96565565D01*
X90090004Y-96565565D01*
X90269249Y-96545369D01*
X90269252Y-96545368D01*
X90269255Y-96545368D01*
X90439522Y-96485789D01*
X90592262Y-96389816D01*
X90719816Y-96262262D01*
X90815789Y-96109522D01*
X90875368Y-95939255D01*
X90875369Y-95939243D01*
X90875473Y-95938793D01*
X90875624Y-95938522D01*
X90877668Y-95932682D01*
X90878690Y-95933039D01*
X90909573Y-95877809D01*
X90963017Y-95848626D01*
X90962682Y-95847668D01*
X90968504Y-95845630D01*
X90968793Y-95845473D01*
X90969243Y-95845369D01*
X90969255Y-95845368D01*
X91139522Y-95785789D01*
X91292262Y-95689816D01*
X91419816Y-95562262D01*
X91427521Y-95550000D01*
X100814815Y-95550000D01*
X100833503Y-95727805D01*
X100833504Y-95727807D01*
X100888747Y-95897829D01*
X100888750Y-95897835D01*
X100978141Y-96052665D01*
X101019812Y-96098946D01*
X101097764Y-96185521D01*
X101097767Y-96185523D01*
X101097770Y-96185526D01*
X101242407Y-96290612D01*
X101405733Y-96363329D01*
X101580609Y-96400500D01*
X101580610Y-96400500D01*
X101759389Y-96400500D01*
X101759391Y-96400500D01*
X101934267Y-96363329D01*
X102097593Y-96290612D01*
X102242230Y-96185526D01*
X102361859Y-96052665D01*
X102392269Y-95999994D01*
X104434357Y-95999994D01*
X104434357Y-96000005D01*
X104454890Y-96247812D01*
X104454892Y-96247824D01*
X104515936Y-96488881D01*
X104615826Y-96716606D01*
X104751833Y-96924782D01*
X104751836Y-96924785D01*
X104920256Y-97107738D01*
X105116491Y-97260474D01*
X105335190Y-97378828D01*
X105570386Y-97459571D01*
X105815665Y-97500500D01*
X106064335Y-97500500D01*
X106309614Y-97459571D01*
X106544810Y-97378828D01*
X106763509Y-97260474D01*
X106959744Y-97107738D01*
X107128164Y-96924785D01*
X107264173Y-96716607D01*
X107364063Y-96488881D01*
X107425108Y-96247821D01*
X107425236Y-96246274D01*
X107445643Y-96000005D01*
X107445643Y-95999994D01*
X107425109Y-95752187D01*
X107425107Y-95752175D01*
X107364063Y-95511118D01*
X107264173Y-95283393D01*
X107128166Y-95075217D01*
X107067669Y-95009500D01*
X106959744Y-94892262D01*
X106763509Y-94739526D01*
X106763507Y-94739525D01*
X106763506Y-94739524D01*
X106544811Y-94621172D01*
X106544802Y-94621169D01*
X106309616Y-94540429D01*
X106064335Y-94499500D01*
X105815665Y-94499500D01*
X105570383Y-94540429D01*
X105335197Y-94621169D01*
X105335188Y-94621172D01*
X105116493Y-94739524D01*
X104920257Y-94892261D01*
X104751833Y-95075217D01*
X104615826Y-95283393D01*
X104515936Y-95511118D01*
X104454892Y-95752175D01*
X104454890Y-95752187D01*
X104434357Y-95999994D01*
X102392269Y-95999994D01*
X102451250Y-95897835D01*
X102506497Y-95727803D01*
X102525185Y-95550000D01*
X102506497Y-95372197D01*
X102471748Y-95265251D01*
X102451252Y-95202170D01*
X102451249Y-95202164D01*
X102436027Y-95175798D01*
X102361859Y-95047335D01*
X102302432Y-94981335D01*
X102242235Y-94914478D01*
X102242232Y-94914476D01*
X102242231Y-94914475D01*
X102242230Y-94914474D01*
X102097593Y-94809388D01*
X101934267Y-94736671D01*
X101934265Y-94736670D01*
X101806594Y-94709533D01*
X101759391Y-94699500D01*
X101580609Y-94699500D01*
X101549954Y-94706015D01*
X101405733Y-94736670D01*
X101405728Y-94736672D01*
X101242408Y-94809387D01*
X101097768Y-94914475D01*
X100978140Y-95047336D01*
X100888750Y-95202164D01*
X100888747Y-95202170D01*
X100833504Y-95372192D01*
X100833503Y-95372194D01*
X100814815Y-95550000D01*
X91427521Y-95550000D01*
X91515789Y-95409522D01*
X91575368Y-95239255D01*
X91575369Y-95239249D01*
X91595565Y-95060003D01*
X91595565Y-95059996D01*
X91575369Y-94880750D01*
X91575368Y-94880745D01*
X91550999Y-94811102D01*
X91515789Y-94710478D01*
X91419816Y-94557738D01*
X91309759Y-94447681D01*
X91276274Y-94386358D01*
X91281258Y-94316666D01*
X91309759Y-94272319D01*
X91419816Y-94162262D01*
X91515789Y-94009522D01*
X91575107Y-93840000D01*
X106734815Y-93840000D01*
X106753503Y-94017805D01*
X106753504Y-94017807D01*
X106808747Y-94187829D01*
X106808750Y-94187835D01*
X106898141Y-94342665D01*
X106939812Y-94388946D01*
X107017764Y-94475521D01*
X107017767Y-94475523D01*
X107017770Y-94475526D01*
X107162407Y-94580612D01*
X107325733Y-94653329D01*
X107500609Y-94690500D01*
X107500610Y-94690500D01*
X107679389Y-94690500D01*
X107679391Y-94690500D01*
X107854267Y-94653329D01*
X108017593Y-94580612D01*
X108162230Y-94475526D01*
X108281859Y-94342665D01*
X108371250Y-94187835D01*
X108426497Y-94017803D01*
X108445185Y-93840000D01*
X108426497Y-93662197D01*
X108394719Y-93564395D01*
X108371252Y-93492170D01*
X108371249Y-93492164D01*
X108281859Y-93337335D01*
X108230783Y-93280610D01*
X108162235Y-93204478D01*
X108162232Y-93204476D01*
X108162231Y-93204475D01*
X108162230Y-93204474D01*
X108017593Y-93099388D01*
X107854267Y-93026671D01*
X107854265Y-93026670D01*
X107726594Y-92999533D01*
X107679391Y-92989500D01*
X107500609Y-92989500D01*
X107469954Y-92996015D01*
X107325733Y-93026670D01*
X107325728Y-93026672D01*
X107162408Y-93099387D01*
X107017768Y-93204475D01*
X106898140Y-93337336D01*
X106808750Y-93492164D01*
X106808747Y-93492170D01*
X106753504Y-93662192D01*
X106753503Y-93662194D01*
X106734815Y-93840000D01*
X91575107Y-93840000D01*
X91575368Y-93839255D01*
X91584959Y-93754131D01*
X91595565Y-93660003D01*
X91595565Y-93659996D01*
X91575369Y-93480750D01*
X91575368Y-93480745D01*
X91547328Y-93400612D01*
X91515789Y-93310478D01*
X91419816Y-93157738D01*
X91292262Y-93030184D01*
X91250412Y-93003888D01*
X91139521Y-92934210D01*
X91060437Y-92906538D01*
X90969255Y-92874632D01*
X90969251Y-92874631D01*
X90969250Y-92874631D01*
X90968777Y-92874523D01*
X90968501Y-92874369D01*
X90962683Y-92872333D01*
X90963039Y-92871313D01*
X90907798Y-92840416D01*
X90878626Y-92786982D01*
X90877668Y-92787318D01*
X90875630Y-92781496D01*
X90875473Y-92781207D01*
X90875369Y-92780754D01*
X90875368Y-92780745D01*
X90833117Y-92660000D01*
X100214815Y-92660000D01*
X100233503Y-92837805D01*
X100233504Y-92837807D01*
X100288747Y-93007829D01*
X100288750Y-93007835D01*
X100378139Y-93162662D01*
X100378139Y-93162663D01*
X100497764Y-93295521D01*
X100497767Y-93295523D01*
X100497770Y-93295526D01*
X100642407Y-93400612D01*
X100805733Y-93473329D01*
X100980609Y-93510500D01*
X100980610Y-93510500D01*
X101159389Y-93510500D01*
X101159391Y-93510500D01*
X101334267Y-93473329D01*
X101497593Y-93400612D01*
X101642230Y-93295526D01*
X101655661Y-93280610D01*
X101724213Y-93204475D01*
X101761859Y-93162665D01*
X101851250Y-93007835D01*
X101906497Y-92837803D01*
X101925185Y-92660000D01*
X101906497Y-92482197D01*
X101876557Y-92390055D01*
X101874563Y-92320217D01*
X101902338Y-92268767D01*
X101961859Y-92202665D01*
X102051250Y-92047835D01*
X102106497Y-91877803D01*
X102125185Y-91700000D01*
X102106497Y-91522197D01*
X102066793Y-91400000D01*
X111004815Y-91400000D01*
X111023503Y-91577805D01*
X111023504Y-91577807D01*
X111078747Y-91747829D01*
X111078750Y-91747835D01*
X111168141Y-91902665D01*
X111209812Y-91948946D01*
X111287764Y-92035521D01*
X111287767Y-92035523D01*
X111287770Y-92035526D01*
X111432407Y-92140612D01*
X111595733Y-92213329D01*
X111770609Y-92250500D01*
X111770610Y-92250500D01*
X111949389Y-92250500D01*
X111949391Y-92250500D01*
X112124267Y-92213329D01*
X112287593Y-92140612D01*
X112432230Y-92035526D01*
X112551859Y-91902665D01*
X112641250Y-91747835D01*
X112696497Y-91577803D01*
X112715185Y-91400000D01*
X112696497Y-91222197D01*
X112645250Y-91064475D01*
X112641252Y-91052170D01*
X112641249Y-91052164D01*
X112634515Y-91040500D01*
X112551859Y-90897335D01*
X112487199Y-90825523D01*
X112432235Y-90764478D01*
X112432232Y-90764476D01*
X112432231Y-90764475D01*
X112432230Y-90764474D01*
X112287593Y-90659388D01*
X112124267Y-90586671D01*
X112124265Y-90586670D01*
X111996594Y-90559533D01*
X111949391Y-90549500D01*
X111770609Y-90549500D01*
X111739954Y-90556015D01*
X111595733Y-90586670D01*
X111595728Y-90586672D01*
X111432408Y-90659387D01*
X111287768Y-90764475D01*
X111168140Y-90897336D01*
X111078750Y-91052164D01*
X111078747Y-91052170D01*
X111023504Y-91222192D01*
X111023503Y-91222194D01*
X111004815Y-91400000D01*
X102066793Y-91400000D01*
X102051250Y-91352165D01*
X101961859Y-91197335D01*
X101915003Y-91145296D01*
X101842235Y-91064478D01*
X101842232Y-91064476D01*
X101842231Y-91064475D01*
X101842230Y-91064474D01*
X101697593Y-90959388D01*
X101534267Y-90886671D01*
X101534265Y-90886670D01*
X101406594Y-90859533D01*
X101359391Y-90849500D01*
X101180609Y-90849500D01*
X101149954Y-90856015D01*
X101005733Y-90886670D01*
X101005728Y-90886672D01*
X100842408Y-90959387D01*
X100697768Y-91064475D01*
X100578140Y-91197336D01*
X100488750Y-91352164D01*
X100488747Y-91352170D01*
X100433504Y-91522192D01*
X100433503Y-91522194D01*
X100414815Y-91700000D01*
X100433503Y-91877805D01*
X100433504Y-91877807D01*
X100463440Y-91969941D01*
X100465435Y-92039783D01*
X100437660Y-92091230D01*
X100378144Y-92157329D01*
X100378139Y-92157336D01*
X100288750Y-92312164D01*
X100288747Y-92312170D01*
X100233504Y-92482192D01*
X100233503Y-92482194D01*
X100214815Y-92660000D01*
X90833117Y-92660000D01*
X90815789Y-92610478D01*
X90719816Y-92457738D01*
X90592262Y-92330184D01*
X90563585Y-92312165D01*
X90439523Y-92234211D01*
X90269254Y-92174631D01*
X90269249Y-92174630D01*
X90090004Y-92154435D01*
X90089996Y-92154435D01*
X89910750Y-92174630D01*
X89910745Y-92174631D01*
X89740476Y-92234211D01*
X89587737Y-92330184D01*
X89477681Y-92440241D01*
X89416358Y-92473726D01*
X89346666Y-92468742D01*
X89302319Y-92440241D01*
X89192262Y-92330184D01*
X89039523Y-92234211D01*
X88869254Y-92174631D01*
X88869249Y-92174630D01*
X88690004Y-92154435D01*
X88689996Y-92154435D01*
X88510750Y-92174630D01*
X88510745Y-92174631D01*
X88340476Y-92234211D01*
X88187737Y-92330184D01*
X88060184Y-92457737D01*
X87964210Y-92610478D01*
X87904628Y-92780755D01*
X87904518Y-92781241D01*
X87904360Y-92781522D01*
X87902333Y-92787317D01*
X87901317Y-92786961D01*
X87870400Y-92842215D01*
X87816984Y-92871381D01*
X87817317Y-92872333D01*
X87811541Y-92874353D01*
X87811241Y-92874518D01*
X87810755Y-92874628D01*
X87640478Y-92934210D01*
X87487737Y-93030184D01*
X87360184Y-93157737D01*
X87264211Y-93310476D01*
X87204631Y-93480745D01*
X87204630Y-93480750D01*
X87184435Y-93659996D01*
X74450000Y-93659996D01*
X74450000Y-92540000D01*
X77274815Y-92540000D01*
X77293503Y-92717805D01*
X77293504Y-92717807D01*
X77348747Y-92887829D01*
X77348750Y-92887835D01*
X77438141Y-93042665D01*
X77468082Y-93075918D01*
X77557764Y-93175521D01*
X77557767Y-93175523D01*
X77557770Y-93175526D01*
X77702407Y-93280612D01*
X77865733Y-93353329D01*
X78040609Y-93390500D01*
X78040610Y-93390500D01*
X78219389Y-93390500D01*
X78219391Y-93390500D01*
X78394267Y-93353329D01*
X78557593Y-93280612D01*
X78702230Y-93175526D01*
X78718247Y-93157738D01*
X78746115Y-93126787D01*
X78821859Y-93042665D01*
X78911250Y-92887835D01*
X78966497Y-92717803D01*
X78985185Y-92540000D01*
X78966497Y-92362197D01*
X78911250Y-92192165D01*
X78821859Y-92037335D01*
X78761177Y-91969941D01*
X78702235Y-91904478D01*
X78702232Y-91904476D01*
X78702231Y-91904475D01*
X78702230Y-91904474D01*
X78557593Y-91799388D01*
X78394267Y-91726671D01*
X78394265Y-91726670D01*
X78266594Y-91699533D01*
X78219391Y-91689500D01*
X78040609Y-91689500D01*
X78009954Y-91696015D01*
X77865733Y-91726670D01*
X77865728Y-91726672D01*
X77702408Y-91799387D01*
X77557768Y-91904475D01*
X77438140Y-92037336D01*
X77348750Y-92192164D01*
X77348747Y-92192170D01*
X77293504Y-92362192D01*
X77293503Y-92362194D01*
X77274815Y-92540000D01*
X74450000Y-92540000D01*
X74450000Y-89550000D01*
X103114815Y-89550000D01*
X103133503Y-89727805D01*
X103133504Y-89727807D01*
X103188747Y-89897829D01*
X103188750Y-89897835D01*
X103278138Y-90052661D01*
X103278139Y-90052663D01*
X103278141Y-90052665D01*
X103367425Y-90151825D01*
X103397654Y-90214814D01*
X103393780Y-90265610D01*
X103394855Y-90265839D01*
X103393503Y-90272195D01*
X103374815Y-90450000D01*
X103393503Y-90627805D01*
X103393504Y-90627807D01*
X103448747Y-90797829D01*
X103448750Y-90797835D01*
X103538141Y-90952665D01*
X103579812Y-90998946D01*
X103657764Y-91085521D01*
X103657767Y-91085523D01*
X103657770Y-91085526D01*
X103802407Y-91190612D01*
X103965733Y-91263329D01*
X104140609Y-91300500D01*
X104140610Y-91300500D01*
X104319389Y-91300500D01*
X104319391Y-91300500D01*
X104494267Y-91263329D01*
X104657593Y-91190612D01*
X104802230Y-91085526D01*
X104821185Y-91064475D01*
X104832269Y-91052164D01*
X104921859Y-90952665D01*
X105011250Y-90797835D01*
X105066497Y-90627803D01*
X105085185Y-90450000D01*
X105066497Y-90272197D01*
X105039789Y-90190000D01*
X108464815Y-90190000D01*
X108483503Y-90367805D01*
X108483504Y-90367807D01*
X108538747Y-90537829D01*
X108538750Y-90537835D01*
X108628141Y-90692665D01*
X108669812Y-90738946D01*
X108747764Y-90825521D01*
X108747767Y-90825523D01*
X108747770Y-90825526D01*
X108892407Y-90930612D01*
X109055733Y-91003329D01*
X109230609Y-91040500D01*
X109230610Y-91040500D01*
X109409389Y-91040500D01*
X109409391Y-91040500D01*
X109584267Y-91003329D01*
X109747593Y-90930612D01*
X109892230Y-90825526D01*
X110011859Y-90692665D01*
X110101250Y-90537835D01*
X110156497Y-90367803D01*
X110175185Y-90190000D01*
X110156497Y-90012197D01*
X110119338Y-89897835D01*
X110101252Y-89842170D01*
X110101249Y-89842164D01*
X110011859Y-89687335D01*
X109965003Y-89635296D01*
X109892235Y-89554478D01*
X109892232Y-89554476D01*
X109892231Y-89554475D01*
X109892230Y-89554474D01*
X109747593Y-89449388D01*
X109584267Y-89376671D01*
X109584265Y-89376670D01*
X109447235Y-89347544D01*
X109409391Y-89339500D01*
X109230609Y-89339500D01*
X109199954Y-89346015D01*
X109055733Y-89376670D01*
X109055728Y-89376672D01*
X108892408Y-89449387D01*
X108747768Y-89554475D01*
X108628140Y-89687336D01*
X108538750Y-89842164D01*
X108538747Y-89842170D01*
X108483504Y-90012192D01*
X108483503Y-90012194D01*
X108464815Y-90190000D01*
X105039789Y-90190000D01*
X105011250Y-90102165D01*
X104921859Y-89947335D01*
X104832576Y-89848175D01*
X104802346Y-89785183D01*
X104806223Y-89734391D01*
X104805145Y-89734162D01*
X104806496Y-89727805D01*
X104806497Y-89727803D01*
X104825185Y-89550000D01*
X104806497Y-89372197D01*
X104751250Y-89202165D01*
X104661859Y-89047335D01*
X104615003Y-88995296D01*
X104542235Y-88914478D01*
X104542232Y-88914476D01*
X104542231Y-88914475D01*
X104542230Y-88914474D01*
X104397593Y-88809388D01*
X104234267Y-88736671D01*
X104234265Y-88736670D01*
X104101366Y-88708422D01*
X104059391Y-88699500D01*
X103880609Y-88699500D01*
X103849954Y-88706015D01*
X103705733Y-88736670D01*
X103705728Y-88736672D01*
X103542408Y-88809387D01*
X103397768Y-88914475D01*
X103278140Y-89047336D01*
X103188750Y-89202164D01*
X103188747Y-89202170D01*
X103133504Y-89372192D01*
X103133503Y-89372194D01*
X103114815Y-89550000D01*
X74450000Y-89550000D01*
X74450000Y-86352121D01*
X74469685Y-86285082D01*
X74522489Y-86239327D01*
X74528310Y-86236847D01*
X75040692Y-86033930D01*
X75055496Y-86029120D01*
X75611972Y-85886296D01*
X75627225Y-85883386D01*
X76197168Y-85811377D01*
X76212711Y-85810400D01*
X76539561Y-85810400D01*
X76539562Y-85810400D01*
X76548531Y-85807996D01*
X76560743Y-85804725D01*
X76592835Y-85800500D01*
X101495586Y-85800500D01*
X101562625Y-85820185D01*
G37*
%TD.AperFunction*%
%TD*%
M02*
