%TF.GenerationSoftware,KiCad,Pcbnew,8.0.2*%
%TF.CreationDate,2024-05-19T20:09:33-03:00*%
%TF.ProjectId,Diseno1,44697365-6e6f-4312-9e6b-696361645f70,01*%
%TF.SameCoordinates,Original*%
%TF.FileFunction,Legend,Top*%
%TF.FilePolarity,Positive*%
%FSLAX46Y46*%
G04 Gerber Fmt 4.6, Leading zero omitted, Abs format (unit mm)*
G04 Created by KiCad (PCBNEW 8.0.2) date 2024-05-19 20:09:33*
%MOMM*%
%LPD*%
G01*
G04 APERTURE LIST*
%ADD10C,0.250000*%
%ADD11C,0.150000*%
%ADD12C,0.125000*%
%ADD13C,0.100000*%
%ADD14C,0.120000*%
%ADD15C,0.000000*%
G04 APERTURE END LIST*
D10*
X68506003Y-96170619D02*
X68553622Y-96123000D01*
X68553622Y-96123000D02*
X68696479Y-96075380D01*
X68696479Y-96075380D02*
X68791717Y-96075380D01*
X68791717Y-96075380D02*
X68934574Y-96123000D01*
X68934574Y-96123000D02*
X69029812Y-96218238D01*
X69029812Y-96218238D02*
X69077431Y-96313476D01*
X69077431Y-96313476D02*
X69125050Y-96503952D01*
X69125050Y-96503952D02*
X69125050Y-96646809D01*
X69125050Y-96646809D02*
X69077431Y-96837285D01*
X69077431Y-96837285D02*
X69029812Y-96932523D01*
X69029812Y-96932523D02*
X68934574Y-97027761D01*
X68934574Y-97027761D02*
X68791717Y-97075380D01*
X68791717Y-97075380D02*
X68696479Y-97075380D01*
X68696479Y-97075380D02*
X68553622Y-97027761D01*
X68553622Y-97027761D02*
X68506003Y-96980142D01*
X68077431Y-96075380D02*
X68077431Y-97075380D01*
X67506003Y-96075380D02*
X67934574Y-96646809D01*
X67506003Y-97075380D02*
X68077431Y-96503952D01*
X66601241Y-96075380D02*
X67077431Y-96075380D01*
X67077431Y-96075380D02*
X67077431Y-97075380D01*
X65506002Y-96456333D02*
X64744098Y-96456333D01*
X62934574Y-96075380D02*
X63267907Y-96551571D01*
X63506002Y-96075380D02*
X63506002Y-97075380D01*
X63506002Y-97075380D02*
X63125050Y-97075380D01*
X63125050Y-97075380D02*
X63029812Y-97027761D01*
X63029812Y-97027761D02*
X62982193Y-96980142D01*
X62982193Y-96980142D02*
X62934574Y-96884904D01*
X62934574Y-96884904D02*
X62934574Y-96742047D01*
X62934574Y-96742047D02*
X62982193Y-96646809D01*
X62982193Y-96646809D02*
X63029812Y-96599190D01*
X63029812Y-96599190D02*
X63125050Y-96551571D01*
X63125050Y-96551571D02*
X63506002Y-96551571D01*
X62506002Y-96075380D02*
X62506002Y-97075380D01*
X62506002Y-97075380D02*
X62267907Y-97075380D01*
X62267907Y-97075380D02*
X62125050Y-97027761D01*
X62125050Y-97027761D02*
X62029812Y-96932523D01*
X62029812Y-96932523D02*
X61982193Y-96837285D01*
X61982193Y-96837285D02*
X61934574Y-96646809D01*
X61934574Y-96646809D02*
X61934574Y-96503952D01*
X61934574Y-96503952D02*
X61982193Y-96313476D01*
X61982193Y-96313476D02*
X62029812Y-96218238D01*
X62029812Y-96218238D02*
X62125050Y-96123000D01*
X62125050Y-96123000D02*
X62267907Y-96075380D01*
X62267907Y-96075380D02*
X62506002Y-96075380D01*
X61648859Y-97075380D02*
X61077431Y-97075380D01*
X61363145Y-96075380D02*
X61363145Y-97075380D01*
D11*
X73804819Y-90852857D02*
X73328628Y-91186190D01*
X73804819Y-91424285D02*
X72804819Y-91424285D01*
X72804819Y-91424285D02*
X72804819Y-91043333D01*
X72804819Y-91043333D02*
X72852438Y-90948095D01*
X72852438Y-90948095D02*
X72900057Y-90900476D01*
X72900057Y-90900476D02*
X72995295Y-90852857D01*
X72995295Y-90852857D02*
X73138152Y-90852857D01*
X73138152Y-90852857D02*
X73233390Y-90900476D01*
X73233390Y-90900476D02*
X73281009Y-90948095D01*
X73281009Y-90948095D02*
X73328628Y-91043333D01*
X73328628Y-91043333D02*
X73328628Y-91424285D01*
X73804819Y-89900476D02*
X73804819Y-90471904D01*
X73804819Y-90186190D02*
X72804819Y-90186190D01*
X72804819Y-90186190D02*
X72947676Y-90281428D01*
X72947676Y-90281428D02*
X73042914Y-90376666D01*
X73042914Y-90376666D02*
X73090533Y-90471904D01*
X72804819Y-89281428D02*
X72804819Y-89186190D01*
X72804819Y-89186190D02*
X72852438Y-89090952D01*
X72852438Y-89090952D02*
X72900057Y-89043333D01*
X72900057Y-89043333D02*
X72995295Y-88995714D01*
X72995295Y-88995714D02*
X73185771Y-88948095D01*
X73185771Y-88948095D02*
X73423866Y-88948095D01*
X73423866Y-88948095D02*
X73614342Y-88995714D01*
X73614342Y-88995714D02*
X73709580Y-89043333D01*
X73709580Y-89043333D02*
X73757200Y-89090952D01*
X73757200Y-89090952D02*
X73804819Y-89186190D01*
X73804819Y-89186190D02*
X73804819Y-89281428D01*
X73804819Y-89281428D02*
X73757200Y-89376666D01*
X73757200Y-89376666D02*
X73709580Y-89424285D01*
X73709580Y-89424285D02*
X73614342Y-89471904D01*
X73614342Y-89471904D02*
X73423866Y-89519523D01*
X73423866Y-89519523D02*
X73185771Y-89519523D01*
X73185771Y-89519523D02*
X72995295Y-89471904D01*
X72995295Y-89471904D02*
X72900057Y-89424285D01*
X72900057Y-89424285D02*
X72852438Y-89376666D01*
X72852438Y-89376666D02*
X72804819Y-89281428D01*
X123577856Y-96187735D02*
X123542142Y-96223450D01*
X123542142Y-96223450D02*
X123434999Y-96259164D01*
X123434999Y-96259164D02*
X123363571Y-96259164D01*
X123363571Y-96259164D02*
X123256428Y-96223450D01*
X123256428Y-96223450D02*
X123184999Y-96152021D01*
X123184999Y-96152021D02*
X123149285Y-96080592D01*
X123149285Y-96080592D02*
X123113571Y-95937735D01*
X123113571Y-95937735D02*
X123113571Y-95830592D01*
X123113571Y-95830592D02*
X123149285Y-95687735D01*
X123149285Y-95687735D02*
X123184999Y-95616307D01*
X123184999Y-95616307D02*
X123256428Y-95544878D01*
X123256428Y-95544878D02*
X123363571Y-95509164D01*
X123363571Y-95509164D02*
X123434999Y-95509164D01*
X123434999Y-95509164D02*
X123542142Y-95544878D01*
X123542142Y-95544878D02*
X123577856Y-95580592D01*
X123863571Y-95580592D02*
X123899285Y-95544878D01*
X123899285Y-95544878D02*
X123970714Y-95509164D01*
X123970714Y-95509164D02*
X124149285Y-95509164D01*
X124149285Y-95509164D02*
X124220714Y-95544878D01*
X124220714Y-95544878D02*
X124256428Y-95580592D01*
X124256428Y-95580592D02*
X124292142Y-95652021D01*
X124292142Y-95652021D02*
X124292142Y-95723450D01*
X124292142Y-95723450D02*
X124256428Y-95830592D01*
X124256428Y-95830592D02*
X123827856Y-96259164D01*
X123827856Y-96259164D02*
X124292142Y-96259164D01*
X124935000Y-95509164D02*
X124792142Y-95509164D01*
X124792142Y-95509164D02*
X124720714Y-95544878D01*
X124720714Y-95544878D02*
X124685000Y-95580592D01*
X124685000Y-95580592D02*
X124613571Y-95687735D01*
X124613571Y-95687735D02*
X124577857Y-95830592D01*
X124577857Y-95830592D02*
X124577857Y-96116307D01*
X124577857Y-96116307D02*
X124613571Y-96187735D01*
X124613571Y-96187735D02*
X124649285Y-96223450D01*
X124649285Y-96223450D02*
X124720714Y-96259164D01*
X124720714Y-96259164D02*
X124863571Y-96259164D01*
X124863571Y-96259164D02*
X124935000Y-96223450D01*
X124935000Y-96223450D02*
X124970714Y-96187735D01*
X124970714Y-96187735D02*
X125006428Y-96116307D01*
X125006428Y-96116307D02*
X125006428Y-95937735D01*
X125006428Y-95937735D02*
X124970714Y-95866307D01*
X124970714Y-95866307D02*
X124935000Y-95830592D01*
X124935000Y-95830592D02*
X124863571Y-95794878D01*
X124863571Y-95794878D02*
X124720714Y-95794878D01*
X124720714Y-95794878D02*
X124649285Y-95830592D01*
X124649285Y-95830592D02*
X124613571Y-95866307D01*
X124613571Y-95866307D02*
X124577857Y-95937735D01*
X113454819Y-102261904D02*
X114264342Y-102261904D01*
X114264342Y-102261904D02*
X114359580Y-102214285D01*
X114359580Y-102214285D02*
X114407200Y-102166666D01*
X114407200Y-102166666D02*
X114454819Y-102071428D01*
X114454819Y-102071428D02*
X114454819Y-101880952D01*
X114454819Y-101880952D02*
X114407200Y-101785714D01*
X114407200Y-101785714D02*
X114359580Y-101738095D01*
X114359580Y-101738095D02*
X114264342Y-101690476D01*
X114264342Y-101690476D02*
X113454819Y-101690476D01*
X113883390Y-101071428D02*
X113835771Y-101166666D01*
X113835771Y-101166666D02*
X113788152Y-101214285D01*
X113788152Y-101214285D02*
X113692914Y-101261904D01*
X113692914Y-101261904D02*
X113645295Y-101261904D01*
X113645295Y-101261904D02*
X113550057Y-101214285D01*
X113550057Y-101214285D02*
X113502438Y-101166666D01*
X113502438Y-101166666D02*
X113454819Y-101071428D01*
X113454819Y-101071428D02*
X113454819Y-100880952D01*
X113454819Y-100880952D02*
X113502438Y-100785714D01*
X113502438Y-100785714D02*
X113550057Y-100738095D01*
X113550057Y-100738095D02*
X113645295Y-100690476D01*
X113645295Y-100690476D02*
X113692914Y-100690476D01*
X113692914Y-100690476D02*
X113788152Y-100738095D01*
X113788152Y-100738095D02*
X113835771Y-100785714D01*
X113835771Y-100785714D02*
X113883390Y-100880952D01*
X113883390Y-100880952D02*
X113883390Y-101071428D01*
X113883390Y-101071428D02*
X113931009Y-101166666D01*
X113931009Y-101166666D02*
X113978628Y-101214285D01*
X113978628Y-101214285D02*
X114073866Y-101261904D01*
X114073866Y-101261904D02*
X114264342Y-101261904D01*
X114264342Y-101261904D02*
X114359580Y-101214285D01*
X114359580Y-101214285D02*
X114407200Y-101166666D01*
X114407200Y-101166666D02*
X114454819Y-101071428D01*
X114454819Y-101071428D02*
X114454819Y-100880952D01*
X114454819Y-100880952D02*
X114407200Y-100785714D01*
X114407200Y-100785714D02*
X114359580Y-100738095D01*
X114359580Y-100738095D02*
X114264342Y-100690476D01*
X114264342Y-100690476D02*
X114073866Y-100690476D01*
X114073866Y-100690476D02*
X113978628Y-100738095D01*
X113978628Y-100738095D02*
X113931009Y-100785714D01*
X113931009Y-100785714D02*
X113883390Y-100880952D01*
X78197142Y-108179580D02*
X78149523Y-108227200D01*
X78149523Y-108227200D02*
X78006666Y-108274819D01*
X78006666Y-108274819D02*
X77911428Y-108274819D01*
X77911428Y-108274819D02*
X77768571Y-108227200D01*
X77768571Y-108227200D02*
X77673333Y-108131961D01*
X77673333Y-108131961D02*
X77625714Y-108036723D01*
X77625714Y-108036723D02*
X77578095Y-107846247D01*
X77578095Y-107846247D02*
X77578095Y-107703390D01*
X77578095Y-107703390D02*
X77625714Y-107512914D01*
X77625714Y-107512914D02*
X77673333Y-107417676D01*
X77673333Y-107417676D02*
X77768571Y-107322438D01*
X77768571Y-107322438D02*
X77911428Y-107274819D01*
X77911428Y-107274819D02*
X78006666Y-107274819D01*
X78006666Y-107274819D02*
X78149523Y-107322438D01*
X78149523Y-107322438D02*
X78197142Y-107370057D01*
X79149523Y-108274819D02*
X78578095Y-108274819D01*
X78863809Y-108274819D02*
X78863809Y-107274819D01*
X78863809Y-107274819D02*
X78768571Y-107417676D01*
X78768571Y-107417676D02*
X78673333Y-107512914D01*
X78673333Y-107512914D02*
X78578095Y-107560533D01*
X79768571Y-107274819D02*
X79863809Y-107274819D01*
X79863809Y-107274819D02*
X79959047Y-107322438D01*
X79959047Y-107322438D02*
X80006666Y-107370057D01*
X80006666Y-107370057D02*
X80054285Y-107465295D01*
X80054285Y-107465295D02*
X80101904Y-107655771D01*
X80101904Y-107655771D02*
X80101904Y-107893866D01*
X80101904Y-107893866D02*
X80054285Y-108084342D01*
X80054285Y-108084342D02*
X80006666Y-108179580D01*
X80006666Y-108179580D02*
X79959047Y-108227200D01*
X79959047Y-108227200D02*
X79863809Y-108274819D01*
X79863809Y-108274819D02*
X79768571Y-108274819D01*
X79768571Y-108274819D02*
X79673333Y-108227200D01*
X79673333Y-108227200D02*
X79625714Y-108179580D01*
X79625714Y-108179580D02*
X79578095Y-108084342D01*
X79578095Y-108084342D02*
X79530476Y-107893866D01*
X79530476Y-107893866D02*
X79530476Y-107655771D01*
X79530476Y-107655771D02*
X79578095Y-107465295D01*
X79578095Y-107465295D02*
X79625714Y-107370057D01*
X79625714Y-107370057D02*
X79673333Y-107322438D01*
X79673333Y-107322438D02*
X79768571Y-107274819D01*
X61874819Y-101706666D02*
X61398628Y-102039999D01*
X61874819Y-102278094D02*
X60874819Y-102278094D01*
X60874819Y-102278094D02*
X60874819Y-101897142D01*
X60874819Y-101897142D02*
X60922438Y-101801904D01*
X60922438Y-101801904D02*
X60970057Y-101754285D01*
X60970057Y-101754285D02*
X61065295Y-101706666D01*
X61065295Y-101706666D02*
X61208152Y-101706666D01*
X61208152Y-101706666D02*
X61303390Y-101754285D01*
X61303390Y-101754285D02*
X61351009Y-101801904D01*
X61351009Y-101801904D02*
X61398628Y-101897142D01*
X61398628Y-101897142D02*
X61398628Y-102278094D01*
X60874819Y-100801904D02*
X60874819Y-101278094D01*
X60874819Y-101278094D02*
X61351009Y-101325713D01*
X61351009Y-101325713D02*
X61303390Y-101278094D01*
X61303390Y-101278094D02*
X61255771Y-101182856D01*
X61255771Y-101182856D02*
X61255771Y-100944761D01*
X61255771Y-100944761D02*
X61303390Y-100849523D01*
X61303390Y-100849523D02*
X61351009Y-100801904D01*
X61351009Y-100801904D02*
X61446247Y-100754285D01*
X61446247Y-100754285D02*
X61684342Y-100754285D01*
X61684342Y-100754285D02*
X61779580Y-100801904D01*
X61779580Y-100801904D02*
X61827200Y-100849523D01*
X61827200Y-100849523D02*
X61874819Y-100944761D01*
X61874819Y-100944761D02*
X61874819Y-101182856D01*
X61874819Y-101182856D02*
X61827200Y-101278094D01*
X61827200Y-101278094D02*
X61779580Y-101325713D01*
X60653333Y-100519580D02*
X60605714Y-100567200D01*
X60605714Y-100567200D02*
X60462857Y-100614819D01*
X60462857Y-100614819D02*
X60367619Y-100614819D01*
X60367619Y-100614819D02*
X60224762Y-100567200D01*
X60224762Y-100567200D02*
X60129524Y-100471961D01*
X60129524Y-100471961D02*
X60081905Y-100376723D01*
X60081905Y-100376723D02*
X60034286Y-100186247D01*
X60034286Y-100186247D02*
X60034286Y-100043390D01*
X60034286Y-100043390D02*
X60081905Y-99852914D01*
X60081905Y-99852914D02*
X60129524Y-99757676D01*
X60129524Y-99757676D02*
X60224762Y-99662438D01*
X60224762Y-99662438D02*
X60367619Y-99614819D01*
X60367619Y-99614819D02*
X60462857Y-99614819D01*
X60462857Y-99614819D02*
X60605714Y-99662438D01*
X60605714Y-99662438D02*
X60653333Y-99710057D01*
X61510476Y-99948152D02*
X61510476Y-100614819D01*
X61272381Y-99567200D02*
X61034286Y-100281485D01*
X61034286Y-100281485D02*
X61653333Y-100281485D01*
X71404580Y-104796666D02*
X71452200Y-104844285D01*
X71452200Y-104844285D02*
X71499819Y-104987142D01*
X71499819Y-104987142D02*
X71499819Y-105082380D01*
X71499819Y-105082380D02*
X71452200Y-105225237D01*
X71452200Y-105225237D02*
X71356961Y-105320475D01*
X71356961Y-105320475D02*
X71261723Y-105368094D01*
X71261723Y-105368094D02*
X71071247Y-105415713D01*
X71071247Y-105415713D02*
X70928390Y-105415713D01*
X70928390Y-105415713D02*
X70737914Y-105368094D01*
X70737914Y-105368094D02*
X70642676Y-105320475D01*
X70642676Y-105320475D02*
X70547438Y-105225237D01*
X70547438Y-105225237D02*
X70499819Y-105082380D01*
X70499819Y-105082380D02*
X70499819Y-104987142D01*
X70499819Y-104987142D02*
X70547438Y-104844285D01*
X70547438Y-104844285D02*
X70595057Y-104796666D01*
X70499819Y-103891904D02*
X70499819Y-104368094D01*
X70499819Y-104368094D02*
X70976009Y-104415713D01*
X70976009Y-104415713D02*
X70928390Y-104368094D01*
X70928390Y-104368094D02*
X70880771Y-104272856D01*
X70880771Y-104272856D02*
X70880771Y-104034761D01*
X70880771Y-104034761D02*
X70928390Y-103939523D01*
X70928390Y-103939523D02*
X70976009Y-103891904D01*
X70976009Y-103891904D02*
X71071247Y-103844285D01*
X71071247Y-103844285D02*
X71309342Y-103844285D01*
X71309342Y-103844285D02*
X71404580Y-103891904D01*
X71404580Y-103891904D02*
X71452200Y-103939523D01*
X71452200Y-103939523D02*
X71499819Y-104034761D01*
X71499819Y-104034761D02*
X71499819Y-104272856D01*
X71499819Y-104272856D02*
X71452200Y-104368094D01*
X71452200Y-104368094D02*
X71404580Y-104415713D01*
X111944819Y-92426666D02*
X111468628Y-92759999D01*
X111944819Y-92998094D02*
X110944819Y-92998094D01*
X110944819Y-92998094D02*
X110944819Y-92617142D01*
X110944819Y-92617142D02*
X110992438Y-92521904D01*
X110992438Y-92521904D02*
X111040057Y-92474285D01*
X111040057Y-92474285D02*
X111135295Y-92426666D01*
X111135295Y-92426666D02*
X111278152Y-92426666D01*
X111278152Y-92426666D02*
X111373390Y-92474285D01*
X111373390Y-92474285D02*
X111421009Y-92521904D01*
X111421009Y-92521904D02*
X111468628Y-92617142D01*
X111468628Y-92617142D02*
X111468628Y-92998094D01*
X111373390Y-91855237D02*
X111325771Y-91950475D01*
X111325771Y-91950475D02*
X111278152Y-91998094D01*
X111278152Y-91998094D02*
X111182914Y-92045713D01*
X111182914Y-92045713D02*
X111135295Y-92045713D01*
X111135295Y-92045713D02*
X111040057Y-91998094D01*
X111040057Y-91998094D02*
X110992438Y-91950475D01*
X110992438Y-91950475D02*
X110944819Y-91855237D01*
X110944819Y-91855237D02*
X110944819Y-91664761D01*
X110944819Y-91664761D02*
X110992438Y-91569523D01*
X110992438Y-91569523D02*
X111040057Y-91521904D01*
X111040057Y-91521904D02*
X111135295Y-91474285D01*
X111135295Y-91474285D02*
X111182914Y-91474285D01*
X111182914Y-91474285D02*
X111278152Y-91521904D01*
X111278152Y-91521904D02*
X111325771Y-91569523D01*
X111325771Y-91569523D02*
X111373390Y-91664761D01*
X111373390Y-91664761D02*
X111373390Y-91855237D01*
X111373390Y-91855237D02*
X111421009Y-91950475D01*
X111421009Y-91950475D02*
X111468628Y-91998094D01*
X111468628Y-91998094D02*
X111563866Y-92045713D01*
X111563866Y-92045713D02*
X111754342Y-92045713D01*
X111754342Y-92045713D02*
X111849580Y-91998094D01*
X111849580Y-91998094D02*
X111897200Y-91950475D01*
X111897200Y-91950475D02*
X111944819Y-91855237D01*
X111944819Y-91855237D02*
X111944819Y-91664761D01*
X111944819Y-91664761D02*
X111897200Y-91569523D01*
X111897200Y-91569523D02*
X111849580Y-91521904D01*
X111849580Y-91521904D02*
X111754342Y-91474285D01*
X111754342Y-91474285D02*
X111563866Y-91474285D01*
X111563866Y-91474285D02*
X111468628Y-91521904D01*
X111468628Y-91521904D02*
X111421009Y-91569523D01*
X111421009Y-91569523D02*
X111373390Y-91664761D01*
X39163333Y-100324819D02*
X38830000Y-99848628D01*
X38591905Y-100324819D02*
X38591905Y-99324819D01*
X38591905Y-99324819D02*
X38972857Y-99324819D01*
X38972857Y-99324819D02*
X39068095Y-99372438D01*
X39068095Y-99372438D02*
X39115714Y-99420057D01*
X39115714Y-99420057D02*
X39163333Y-99515295D01*
X39163333Y-99515295D02*
X39163333Y-99658152D01*
X39163333Y-99658152D02*
X39115714Y-99753390D01*
X39115714Y-99753390D02*
X39068095Y-99801009D01*
X39068095Y-99801009D02*
X38972857Y-99848628D01*
X38972857Y-99848628D02*
X38591905Y-99848628D01*
X40115714Y-100324819D02*
X39544286Y-100324819D01*
X39830000Y-100324819D02*
X39830000Y-99324819D01*
X39830000Y-99324819D02*
X39734762Y-99467676D01*
X39734762Y-99467676D02*
X39639524Y-99562914D01*
X39639524Y-99562914D02*
X39544286Y-99610533D01*
D12*
X77437190Y-89791428D02*
X77461000Y-89815237D01*
X77461000Y-89815237D02*
X77484809Y-89886666D01*
X77484809Y-89886666D02*
X77484809Y-89934285D01*
X77484809Y-89934285D02*
X77461000Y-90005713D01*
X77461000Y-90005713D02*
X77413380Y-90053332D01*
X77413380Y-90053332D02*
X77365761Y-90077142D01*
X77365761Y-90077142D02*
X77270523Y-90100951D01*
X77270523Y-90100951D02*
X77199095Y-90100951D01*
X77199095Y-90100951D02*
X77103857Y-90077142D01*
X77103857Y-90077142D02*
X77056238Y-90053332D01*
X77056238Y-90053332D02*
X77008619Y-90005713D01*
X77008619Y-90005713D02*
X76984809Y-89934285D01*
X76984809Y-89934285D02*
X76984809Y-89886666D01*
X76984809Y-89886666D02*
X77008619Y-89815237D01*
X77008619Y-89815237D02*
X77032428Y-89791428D01*
X77484809Y-89315237D02*
X77484809Y-89600951D01*
X77484809Y-89458094D02*
X76984809Y-89458094D01*
X76984809Y-89458094D02*
X77056238Y-89505713D01*
X77056238Y-89505713D02*
X77103857Y-89553332D01*
X77103857Y-89553332D02*
X77127666Y-89600951D01*
X77484809Y-89077142D02*
X77484809Y-88981904D01*
X77484809Y-88981904D02*
X77461000Y-88934285D01*
X77461000Y-88934285D02*
X77437190Y-88910476D01*
X77437190Y-88910476D02*
X77365761Y-88862857D01*
X77365761Y-88862857D02*
X77270523Y-88839047D01*
X77270523Y-88839047D02*
X77080047Y-88839047D01*
X77080047Y-88839047D02*
X77032428Y-88862857D01*
X77032428Y-88862857D02*
X77008619Y-88886666D01*
X77008619Y-88886666D02*
X76984809Y-88934285D01*
X76984809Y-88934285D02*
X76984809Y-89029523D01*
X76984809Y-89029523D02*
X77008619Y-89077142D01*
X77008619Y-89077142D02*
X77032428Y-89100952D01*
X77032428Y-89100952D02*
X77080047Y-89124761D01*
X77080047Y-89124761D02*
X77199095Y-89124761D01*
X77199095Y-89124761D02*
X77246714Y-89100952D01*
X77246714Y-89100952D02*
X77270523Y-89077142D01*
X77270523Y-89077142D02*
X77294333Y-89029523D01*
X77294333Y-89029523D02*
X77294333Y-88934285D01*
X77294333Y-88934285D02*
X77270523Y-88886666D01*
X77270523Y-88886666D02*
X77246714Y-88862857D01*
X77246714Y-88862857D02*
X77199095Y-88839047D01*
D11*
X58813333Y-100519580D02*
X58765714Y-100567200D01*
X58765714Y-100567200D02*
X58622857Y-100614819D01*
X58622857Y-100614819D02*
X58527619Y-100614819D01*
X58527619Y-100614819D02*
X58384762Y-100567200D01*
X58384762Y-100567200D02*
X58289524Y-100471961D01*
X58289524Y-100471961D02*
X58241905Y-100376723D01*
X58241905Y-100376723D02*
X58194286Y-100186247D01*
X58194286Y-100186247D02*
X58194286Y-100043390D01*
X58194286Y-100043390D02*
X58241905Y-99852914D01*
X58241905Y-99852914D02*
X58289524Y-99757676D01*
X58289524Y-99757676D02*
X58384762Y-99662438D01*
X58384762Y-99662438D02*
X58527619Y-99614819D01*
X58527619Y-99614819D02*
X58622857Y-99614819D01*
X58622857Y-99614819D02*
X58765714Y-99662438D01*
X58765714Y-99662438D02*
X58813333Y-99710057D01*
X59146667Y-99614819D02*
X59765714Y-99614819D01*
X59765714Y-99614819D02*
X59432381Y-99995771D01*
X59432381Y-99995771D02*
X59575238Y-99995771D01*
X59575238Y-99995771D02*
X59670476Y-100043390D01*
X59670476Y-100043390D02*
X59718095Y-100091009D01*
X59718095Y-100091009D02*
X59765714Y-100186247D01*
X59765714Y-100186247D02*
X59765714Y-100424342D01*
X59765714Y-100424342D02*
X59718095Y-100519580D01*
X59718095Y-100519580D02*
X59670476Y-100567200D01*
X59670476Y-100567200D02*
X59575238Y-100614819D01*
X59575238Y-100614819D02*
X59289524Y-100614819D01*
X59289524Y-100614819D02*
X59194286Y-100567200D01*
X59194286Y-100567200D02*
X59146667Y-100519580D01*
D12*
X81237190Y-89681428D02*
X81261000Y-89705237D01*
X81261000Y-89705237D02*
X81284809Y-89776666D01*
X81284809Y-89776666D02*
X81284809Y-89824285D01*
X81284809Y-89824285D02*
X81261000Y-89895713D01*
X81261000Y-89895713D02*
X81213380Y-89943332D01*
X81213380Y-89943332D02*
X81165761Y-89967142D01*
X81165761Y-89967142D02*
X81070523Y-89990951D01*
X81070523Y-89990951D02*
X80999095Y-89990951D01*
X80999095Y-89990951D02*
X80903857Y-89967142D01*
X80903857Y-89967142D02*
X80856238Y-89943332D01*
X80856238Y-89943332D02*
X80808619Y-89895713D01*
X80808619Y-89895713D02*
X80784809Y-89824285D01*
X80784809Y-89824285D02*
X80784809Y-89776666D01*
X80784809Y-89776666D02*
X80808619Y-89705237D01*
X80808619Y-89705237D02*
X80832428Y-89681428D01*
X80832428Y-89490951D02*
X80808619Y-89467142D01*
X80808619Y-89467142D02*
X80784809Y-89419523D01*
X80784809Y-89419523D02*
X80784809Y-89300475D01*
X80784809Y-89300475D02*
X80808619Y-89252856D01*
X80808619Y-89252856D02*
X80832428Y-89229047D01*
X80832428Y-89229047D02*
X80880047Y-89205237D01*
X80880047Y-89205237D02*
X80927666Y-89205237D01*
X80927666Y-89205237D02*
X80999095Y-89229047D01*
X80999095Y-89229047D02*
X81284809Y-89514761D01*
X81284809Y-89514761D02*
X81284809Y-89205237D01*
X81284809Y-88729047D02*
X81284809Y-89014761D01*
X81284809Y-88871904D02*
X80784809Y-88871904D01*
X80784809Y-88871904D02*
X80856238Y-88919523D01*
X80856238Y-88919523D02*
X80903857Y-88967142D01*
X80903857Y-88967142D02*
X80927666Y-89014761D01*
D11*
X126174819Y-104162857D02*
X125698628Y-104496190D01*
X126174819Y-104734285D02*
X125174819Y-104734285D01*
X125174819Y-104734285D02*
X125174819Y-104353333D01*
X125174819Y-104353333D02*
X125222438Y-104258095D01*
X125222438Y-104258095D02*
X125270057Y-104210476D01*
X125270057Y-104210476D02*
X125365295Y-104162857D01*
X125365295Y-104162857D02*
X125508152Y-104162857D01*
X125508152Y-104162857D02*
X125603390Y-104210476D01*
X125603390Y-104210476D02*
X125651009Y-104258095D01*
X125651009Y-104258095D02*
X125698628Y-104353333D01*
X125698628Y-104353333D02*
X125698628Y-104734285D01*
X126174819Y-103210476D02*
X126174819Y-103781904D01*
X126174819Y-103496190D02*
X125174819Y-103496190D01*
X125174819Y-103496190D02*
X125317676Y-103591428D01*
X125317676Y-103591428D02*
X125412914Y-103686666D01*
X125412914Y-103686666D02*
X125460533Y-103781904D01*
X126174819Y-102258095D02*
X126174819Y-102829523D01*
X126174819Y-102543809D02*
X125174819Y-102543809D01*
X125174819Y-102543809D02*
X125317676Y-102639047D01*
X125317676Y-102639047D02*
X125412914Y-102734285D01*
X125412914Y-102734285D02*
X125460533Y-102829523D01*
X69769580Y-104796666D02*
X69817200Y-104844285D01*
X69817200Y-104844285D02*
X69864819Y-104987142D01*
X69864819Y-104987142D02*
X69864819Y-105082380D01*
X69864819Y-105082380D02*
X69817200Y-105225237D01*
X69817200Y-105225237D02*
X69721961Y-105320475D01*
X69721961Y-105320475D02*
X69626723Y-105368094D01*
X69626723Y-105368094D02*
X69436247Y-105415713D01*
X69436247Y-105415713D02*
X69293390Y-105415713D01*
X69293390Y-105415713D02*
X69102914Y-105368094D01*
X69102914Y-105368094D02*
X69007676Y-105320475D01*
X69007676Y-105320475D02*
X68912438Y-105225237D01*
X68912438Y-105225237D02*
X68864819Y-105082380D01*
X68864819Y-105082380D02*
X68864819Y-104987142D01*
X68864819Y-104987142D02*
X68912438Y-104844285D01*
X68912438Y-104844285D02*
X68960057Y-104796666D01*
X68864819Y-103939523D02*
X68864819Y-104129999D01*
X68864819Y-104129999D02*
X68912438Y-104225237D01*
X68912438Y-104225237D02*
X68960057Y-104272856D01*
X68960057Y-104272856D02*
X69102914Y-104368094D01*
X69102914Y-104368094D02*
X69293390Y-104415713D01*
X69293390Y-104415713D02*
X69674342Y-104415713D01*
X69674342Y-104415713D02*
X69769580Y-104368094D01*
X69769580Y-104368094D02*
X69817200Y-104320475D01*
X69817200Y-104320475D02*
X69864819Y-104225237D01*
X69864819Y-104225237D02*
X69864819Y-104034761D01*
X69864819Y-104034761D02*
X69817200Y-103939523D01*
X69817200Y-103939523D02*
X69769580Y-103891904D01*
X69769580Y-103891904D02*
X69674342Y-103844285D01*
X69674342Y-103844285D02*
X69436247Y-103844285D01*
X69436247Y-103844285D02*
X69341009Y-103891904D01*
X69341009Y-103891904D02*
X69293390Y-103939523D01*
X69293390Y-103939523D02*
X69245771Y-104034761D01*
X69245771Y-104034761D02*
X69245771Y-104225237D01*
X69245771Y-104225237D02*
X69293390Y-104320475D01*
X69293390Y-104320475D02*
X69341009Y-104368094D01*
X69341009Y-104368094D02*
X69436247Y-104415713D01*
X87039580Y-110722857D02*
X87087200Y-110770476D01*
X87087200Y-110770476D02*
X87134819Y-110913333D01*
X87134819Y-110913333D02*
X87134819Y-111008571D01*
X87134819Y-111008571D02*
X87087200Y-111151428D01*
X87087200Y-111151428D02*
X86991961Y-111246666D01*
X86991961Y-111246666D02*
X86896723Y-111294285D01*
X86896723Y-111294285D02*
X86706247Y-111341904D01*
X86706247Y-111341904D02*
X86563390Y-111341904D01*
X86563390Y-111341904D02*
X86372914Y-111294285D01*
X86372914Y-111294285D02*
X86277676Y-111246666D01*
X86277676Y-111246666D02*
X86182438Y-111151428D01*
X86182438Y-111151428D02*
X86134819Y-111008571D01*
X86134819Y-111008571D02*
X86134819Y-110913333D01*
X86134819Y-110913333D02*
X86182438Y-110770476D01*
X86182438Y-110770476D02*
X86230057Y-110722857D01*
X87134819Y-109770476D02*
X87134819Y-110341904D01*
X87134819Y-110056190D02*
X86134819Y-110056190D01*
X86134819Y-110056190D02*
X86277676Y-110151428D01*
X86277676Y-110151428D02*
X86372914Y-110246666D01*
X86372914Y-110246666D02*
X86420533Y-110341904D01*
X86134819Y-109437142D02*
X86134819Y-108818095D01*
X86134819Y-108818095D02*
X86515771Y-109151428D01*
X86515771Y-109151428D02*
X86515771Y-109008571D01*
X86515771Y-109008571D02*
X86563390Y-108913333D01*
X86563390Y-108913333D02*
X86611009Y-108865714D01*
X86611009Y-108865714D02*
X86706247Y-108818095D01*
X86706247Y-108818095D02*
X86944342Y-108818095D01*
X86944342Y-108818095D02*
X87039580Y-108865714D01*
X87039580Y-108865714D02*
X87087200Y-108913333D01*
X87087200Y-108913333D02*
X87134819Y-109008571D01*
X87134819Y-109008571D02*
X87134819Y-109294285D01*
X87134819Y-109294285D02*
X87087200Y-109389523D01*
X87087200Y-109389523D02*
X87039580Y-109437142D01*
X107603333Y-93224819D02*
X107270000Y-92748628D01*
X107031905Y-93224819D02*
X107031905Y-92224819D01*
X107031905Y-92224819D02*
X107412857Y-92224819D01*
X107412857Y-92224819D02*
X107508095Y-92272438D01*
X107508095Y-92272438D02*
X107555714Y-92320057D01*
X107555714Y-92320057D02*
X107603333Y-92415295D01*
X107603333Y-92415295D02*
X107603333Y-92558152D01*
X107603333Y-92558152D02*
X107555714Y-92653390D01*
X107555714Y-92653390D02*
X107508095Y-92701009D01*
X107508095Y-92701009D02*
X107412857Y-92748628D01*
X107412857Y-92748628D02*
X107031905Y-92748628D01*
X108460476Y-92224819D02*
X108270000Y-92224819D01*
X108270000Y-92224819D02*
X108174762Y-92272438D01*
X108174762Y-92272438D02*
X108127143Y-92320057D01*
X108127143Y-92320057D02*
X108031905Y-92462914D01*
X108031905Y-92462914D02*
X107984286Y-92653390D01*
X107984286Y-92653390D02*
X107984286Y-93034342D01*
X107984286Y-93034342D02*
X108031905Y-93129580D01*
X108031905Y-93129580D02*
X108079524Y-93177200D01*
X108079524Y-93177200D02*
X108174762Y-93224819D01*
X108174762Y-93224819D02*
X108365238Y-93224819D01*
X108365238Y-93224819D02*
X108460476Y-93177200D01*
X108460476Y-93177200D02*
X108508095Y-93129580D01*
X108508095Y-93129580D02*
X108555714Y-93034342D01*
X108555714Y-93034342D02*
X108555714Y-92796247D01*
X108555714Y-92796247D02*
X108508095Y-92701009D01*
X108508095Y-92701009D02*
X108460476Y-92653390D01*
X108460476Y-92653390D02*
X108365238Y-92605771D01*
X108365238Y-92605771D02*
X108174762Y-92605771D01*
X108174762Y-92605771D02*
X108079524Y-92653390D01*
X108079524Y-92653390D02*
X108031905Y-92701009D01*
X108031905Y-92701009D02*
X107984286Y-92796247D01*
X79024819Y-111143333D02*
X79739104Y-111143333D01*
X79739104Y-111143333D02*
X79881961Y-111190952D01*
X79881961Y-111190952D02*
X79977200Y-111286190D01*
X79977200Y-111286190D02*
X80024819Y-111429047D01*
X80024819Y-111429047D02*
X80024819Y-111524285D01*
X79120057Y-110714761D02*
X79072438Y-110667142D01*
X79072438Y-110667142D02*
X79024819Y-110571904D01*
X79024819Y-110571904D02*
X79024819Y-110333809D01*
X79024819Y-110333809D02*
X79072438Y-110238571D01*
X79072438Y-110238571D02*
X79120057Y-110190952D01*
X79120057Y-110190952D02*
X79215295Y-110143333D01*
X79215295Y-110143333D02*
X79310533Y-110143333D01*
X79310533Y-110143333D02*
X79453390Y-110190952D01*
X79453390Y-110190952D02*
X80024819Y-110762380D01*
X80024819Y-110762380D02*
X80024819Y-110143333D01*
X108403333Y-89374819D02*
X108070000Y-88898628D01*
X107831905Y-89374819D02*
X107831905Y-88374819D01*
X107831905Y-88374819D02*
X108212857Y-88374819D01*
X108212857Y-88374819D02*
X108308095Y-88422438D01*
X108308095Y-88422438D02*
X108355714Y-88470057D01*
X108355714Y-88470057D02*
X108403333Y-88565295D01*
X108403333Y-88565295D02*
X108403333Y-88708152D01*
X108403333Y-88708152D02*
X108355714Y-88803390D01*
X108355714Y-88803390D02*
X108308095Y-88851009D01*
X108308095Y-88851009D02*
X108212857Y-88898628D01*
X108212857Y-88898628D02*
X107831905Y-88898628D01*
X108879524Y-89374819D02*
X109070000Y-89374819D01*
X109070000Y-89374819D02*
X109165238Y-89327200D01*
X109165238Y-89327200D02*
X109212857Y-89279580D01*
X109212857Y-89279580D02*
X109308095Y-89136723D01*
X109308095Y-89136723D02*
X109355714Y-88946247D01*
X109355714Y-88946247D02*
X109355714Y-88565295D01*
X109355714Y-88565295D02*
X109308095Y-88470057D01*
X109308095Y-88470057D02*
X109260476Y-88422438D01*
X109260476Y-88422438D02*
X109165238Y-88374819D01*
X109165238Y-88374819D02*
X108974762Y-88374819D01*
X108974762Y-88374819D02*
X108879524Y-88422438D01*
X108879524Y-88422438D02*
X108831905Y-88470057D01*
X108831905Y-88470057D02*
X108784286Y-88565295D01*
X108784286Y-88565295D02*
X108784286Y-88803390D01*
X108784286Y-88803390D02*
X108831905Y-88898628D01*
X108831905Y-88898628D02*
X108879524Y-88946247D01*
X108879524Y-88946247D02*
X108974762Y-88993866D01*
X108974762Y-88993866D02*
X109165238Y-88993866D01*
X109165238Y-88993866D02*
X109260476Y-88946247D01*
X109260476Y-88946247D02*
X109308095Y-88898628D01*
X109308095Y-88898628D02*
X109355714Y-88803390D01*
D12*
X79307190Y-89721428D02*
X79331000Y-89745237D01*
X79331000Y-89745237D02*
X79354809Y-89816666D01*
X79354809Y-89816666D02*
X79354809Y-89864285D01*
X79354809Y-89864285D02*
X79331000Y-89935713D01*
X79331000Y-89935713D02*
X79283380Y-89983332D01*
X79283380Y-89983332D02*
X79235761Y-90007142D01*
X79235761Y-90007142D02*
X79140523Y-90030951D01*
X79140523Y-90030951D02*
X79069095Y-90030951D01*
X79069095Y-90030951D02*
X78973857Y-90007142D01*
X78973857Y-90007142D02*
X78926238Y-89983332D01*
X78926238Y-89983332D02*
X78878619Y-89935713D01*
X78878619Y-89935713D02*
X78854809Y-89864285D01*
X78854809Y-89864285D02*
X78854809Y-89816666D01*
X78854809Y-89816666D02*
X78878619Y-89745237D01*
X78878619Y-89745237D02*
X78902428Y-89721428D01*
X78902428Y-89530951D02*
X78878619Y-89507142D01*
X78878619Y-89507142D02*
X78854809Y-89459523D01*
X78854809Y-89459523D02*
X78854809Y-89340475D01*
X78854809Y-89340475D02*
X78878619Y-89292856D01*
X78878619Y-89292856D02*
X78902428Y-89269047D01*
X78902428Y-89269047D02*
X78950047Y-89245237D01*
X78950047Y-89245237D02*
X78997666Y-89245237D01*
X78997666Y-89245237D02*
X79069095Y-89269047D01*
X79069095Y-89269047D02*
X79354809Y-89554761D01*
X79354809Y-89554761D02*
X79354809Y-89245237D01*
X78854809Y-88935714D02*
X78854809Y-88888095D01*
X78854809Y-88888095D02*
X78878619Y-88840476D01*
X78878619Y-88840476D02*
X78902428Y-88816666D01*
X78902428Y-88816666D02*
X78950047Y-88792857D01*
X78950047Y-88792857D02*
X79045285Y-88769047D01*
X79045285Y-88769047D02*
X79164333Y-88769047D01*
X79164333Y-88769047D02*
X79259571Y-88792857D01*
X79259571Y-88792857D02*
X79307190Y-88816666D01*
X79307190Y-88816666D02*
X79331000Y-88840476D01*
X79331000Y-88840476D02*
X79354809Y-88888095D01*
X79354809Y-88888095D02*
X79354809Y-88935714D01*
X79354809Y-88935714D02*
X79331000Y-88983333D01*
X79331000Y-88983333D02*
X79307190Y-89007142D01*
X79307190Y-89007142D02*
X79259571Y-89030952D01*
X79259571Y-89030952D02*
X79164333Y-89054761D01*
X79164333Y-89054761D02*
X79045285Y-89054761D01*
X79045285Y-89054761D02*
X78950047Y-89030952D01*
X78950047Y-89030952D02*
X78902428Y-89007142D01*
X78902428Y-89007142D02*
X78878619Y-88983333D01*
X78878619Y-88983333D02*
X78854809Y-88935714D01*
D11*
X113034819Y-88436666D02*
X112558628Y-88769999D01*
X113034819Y-89008094D02*
X112034819Y-89008094D01*
X112034819Y-89008094D02*
X112034819Y-88627142D01*
X112034819Y-88627142D02*
X112082438Y-88531904D01*
X112082438Y-88531904D02*
X112130057Y-88484285D01*
X112130057Y-88484285D02*
X112225295Y-88436666D01*
X112225295Y-88436666D02*
X112368152Y-88436666D01*
X112368152Y-88436666D02*
X112463390Y-88484285D01*
X112463390Y-88484285D02*
X112511009Y-88531904D01*
X112511009Y-88531904D02*
X112558628Y-88627142D01*
X112558628Y-88627142D02*
X112558628Y-89008094D01*
X112034819Y-88103332D02*
X112034819Y-87436666D01*
X112034819Y-87436666D02*
X113034819Y-87865237D01*
X103904761Y-107050057D02*
X103809523Y-107002438D01*
X103809523Y-107002438D02*
X103714285Y-106907200D01*
X103714285Y-106907200D02*
X103571428Y-106764342D01*
X103571428Y-106764342D02*
X103476190Y-106716723D01*
X103476190Y-106716723D02*
X103380952Y-106716723D01*
X103428571Y-106954819D02*
X103333333Y-106907200D01*
X103333333Y-106907200D02*
X103238095Y-106811961D01*
X103238095Y-106811961D02*
X103190476Y-106621485D01*
X103190476Y-106621485D02*
X103190476Y-106288152D01*
X103190476Y-106288152D02*
X103238095Y-106097676D01*
X103238095Y-106097676D02*
X103333333Y-106002438D01*
X103333333Y-106002438D02*
X103428571Y-105954819D01*
X103428571Y-105954819D02*
X103619047Y-105954819D01*
X103619047Y-105954819D02*
X103714285Y-106002438D01*
X103714285Y-106002438D02*
X103809523Y-106097676D01*
X103809523Y-106097676D02*
X103857142Y-106288152D01*
X103857142Y-106288152D02*
X103857142Y-106621485D01*
X103857142Y-106621485D02*
X103809523Y-106811961D01*
X103809523Y-106811961D02*
X103714285Y-106907200D01*
X103714285Y-106907200D02*
X103619047Y-106954819D01*
X103619047Y-106954819D02*
X103428571Y-106954819D01*
X104190476Y-105954819D02*
X104809523Y-105954819D01*
X104809523Y-105954819D02*
X104476190Y-106335771D01*
X104476190Y-106335771D02*
X104619047Y-106335771D01*
X104619047Y-106335771D02*
X104714285Y-106383390D01*
X104714285Y-106383390D02*
X104761904Y-106431009D01*
X104761904Y-106431009D02*
X104809523Y-106526247D01*
X104809523Y-106526247D02*
X104809523Y-106764342D01*
X104809523Y-106764342D02*
X104761904Y-106859580D01*
X104761904Y-106859580D02*
X104714285Y-106907200D01*
X104714285Y-106907200D02*
X104619047Y-106954819D01*
X104619047Y-106954819D02*
X104333333Y-106954819D01*
X104333333Y-106954819D02*
X104238095Y-106907200D01*
X104238095Y-106907200D02*
X104190476Y-106859580D01*
X75438095Y-102954819D02*
X75438095Y-103764342D01*
X75438095Y-103764342D02*
X75485714Y-103859580D01*
X75485714Y-103859580D02*
X75533333Y-103907200D01*
X75533333Y-103907200D02*
X75628571Y-103954819D01*
X75628571Y-103954819D02*
X75819047Y-103954819D01*
X75819047Y-103954819D02*
X75914285Y-103907200D01*
X75914285Y-103907200D02*
X75961904Y-103859580D01*
X75961904Y-103859580D02*
X76009523Y-103764342D01*
X76009523Y-103764342D02*
X76009523Y-102954819D01*
X76390476Y-102954819D02*
X77009523Y-102954819D01*
X77009523Y-102954819D02*
X76676190Y-103335771D01*
X76676190Y-103335771D02*
X76819047Y-103335771D01*
X76819047Y-103335771D02*
X76914285Y-103383390D01*
X76914285Y-103383390D02*
X76961904Y-103431009D01*
X76961904Y-103431009D02*
X77009523Y-103526247D01*
X77009523Y-103526247D02*
X77009523Y-103764342D01*
X77009523Y-103764342D02*
X76961904Y-103859580D01*
X76961904Y-103859580D02*
X76914285Y-103907200D01*
X76914285Y-103907200D02*
X76819047Y-103954819D01*
X76819047Y-103954819D02*
X76533333Y-103954819D01*
X76533333Y-103954819D02*
X76438095Y-103907200D01*
X76438095Y-103907200D02*
X76390476Y-103859580D01*
D13*
X112777419Y-94491904D02*
X113586942Y-94491904D01*
X113586942Y-94491904D02*
X113682180Y-94444285D01*
X113682180Y-94444285D02*
X113729800Y-94396666D01*
X113729800Y-94396666D02*
X113777419Y-94301428D01*
X113777419Y-94301428D02*
X113777419Y-94110952D01*
X113777419Y-94110952D02*
X113729800Y-94015714D01*
X113729800Y-94015714D02*
X113682180Y-93968095D01*
X113682180Y-93968095D02*
X113586942Y-93920476D01*
X113586942Y-93920476D02*
X112777419Y-93920476D01*
X112777419Y-93539523D02*
X112777419Y-92872857D01*
X112777419Y-92872857D02*
X113777419Y-93301428D01*
D11*
X53298095Y-100904819D02*
X53298095Y-101714342D01*
X53298095Y-101714342D02*
X53345714Y-101809580D01*
X53345714Y-101809580D02*
X53393333Y-101857200D01*
X53393333Y-101857200D02*
X53488571Y-101904819D01*
X53488571Y-101904819D02*
X53679047Y-101904819D01*
X53679047Y-101904819D02*
X53774285Y-101857200D01*
X53774285Y-101857200D02*
X53821904Y-101809580D01*
X53821904Y-101809580D02*
X53869523Y-101714342D01*
X53869523Y-101714342D02*
X53869523Y-100904819D01*
X54298095Y-101000057D02*
X54345714Y-100952438D01*
X54345714Y-100952438D02*
X54440952Y-100904819D01*
X54440952Y-100904819D02*
X54679047Y-100904819D01*
X54679047Y-100904819D02*
X54774285Y-100952438D01*
X54774285Y-100952438D02*
X54821904Y-101000057D01*
X54821904Y-101000057D02*
X54869523Y-101095295D01*
X54869523Y-101095295D02*
X54869523Y-101190533D01*
X54869523Y-101190533D02*
X54821904Y-101333390D01*
X54821904Y-101333390D02*
X54250476Y-101904819D01*
X54250476Y-101904819D02*
X54869523Y-101904819D01*
X124994819Y-107822857D02*
X124518628Y-108156190D01*
X124994819Y-108394285D02*
X123994819Y-108394285D01*
X123994819Y-108394285D02*
X123994819Y-108013333D01*
X123994819Y-108013333D02*
X124042438Y-107918095D01*
X124042438Y-107918095D02*
X124090057Y-107870476D01*
X124090057Y-107870476D02*
X124185295Y-107822857D01*
X124185295Y-107822857D02*
X124328152Y-107822857D01*
X124328152Y-107822857D02*
X124423390Y-107870476D01*
X124423390Y-107870476D02*
X124471009Y-107918095D01*
X124471009Y-107918095D02*
X124518628Y-108013333D01*
X124518628Y-108013333D02*
X124518628Y-108394285D01*
X124994819Y-106870476D02*
X124994819Y-107441904D01*
X124994819Y-107156190D02*
X123994819Y-107156190D01*
X123994819Y-107156190D02*
X124137676Y-107251428D01*
X124137676Y-107251428D02*
X124232914Y-107346666D01*
X124232914Y-107346666D02*
X124280533Y-107441904D01*
X124090057Y-106489523D02*
X124042438Y-106441904D01*
X124042438Y-106441904D02*
X123994819Y-106346666D01*
X123994819Y-106346666D02*
X123994819Y-106108571D01*
X123994819Y-106108571D02*
X124042438Y-106013333D01*
X124042438Y-106013333D02*
X124090057Y-105965714D01*
X124090057Y-105965714D02*
X124185295Y-105918095D01*
X124185295Y-105918095D02*
X124280533Y-105918095D01*
X124280533Y-105918095D02*
X124423390Y-105965714D01*
X124423390Y-105965714D02*
X124994819Y-106537142D01*
X124994819Y-106537142D02*
X124994819Y-105918095D01*
D12*
X116617190Y-108381428D02*
X116641000Y-108405237D01*
X116641000Y-108405237D02*
X116664809Y-108476666D01*
X116664809Y-108476666D02*
X116664809Y-108524285D01*
X116664809Y-108524285D02*
X116641000Y-108595713D01*
X116641000Y-108595713D02*
X116593380Y-108643332D01*
X116593380Y-108643332D02*
X116545761Y-108667142D01*
X116545761Y-108667142D02*
X116450523Y-108690951D01*
X116450523Y-108690951D02*
X116379095Y-108690951D01*
X116379095Y-108690951D02*
X116283857Y-108667142D01*
X116283857Y-108667142D02*
X116236238Y-108643332D01*
X116236238Y-108643332D02*
X116188619Y-108595713D01*
X116188619Y-108595713D02*
X116164809Y-108524285D01*
X116164809Y-108524285D02*
X116164809Y-108476666D01*
X116164809Y-108476666D02*
X116188619Y-108405237D01*
X116188619Y-108405237D02*
X116212428Y-108381428D01*
X116212428Y-108190951D02*
X116188619Y-108167142D01*
X116188619Y-108167142D02*
X116164809Y-108119523D01*
X116164809Y-108119523D02*
X116164809Y-108000475D01*
X116164809Y-108000475D02*
X116188619Y-107952856D01*
X116188619Y-107952856D02*
X116212428Y-107929047D01*
X116212428Y-107929047D02*
X116260047Y-107905237D01*
X116260047Y-107905237D02*
X116307666Y-107905237D01*
X116307666Y-107905237D02*
X116379095Y-107929047D01*
X116379095Y-107929047D02*
X116664809Y-108214761D01*
X116664809Y-108214761D02*
X116664809Y-107905237D01*
X116331476Y-107476666D02*
X116664809Y-107476666D01*
X116141000Y-107595714D02*
X116498142Y-107714761D01*
X116498142Y-107714761D02*
X116498142Y-107405238D01*
D11*
X126294819Y-88543333D02*
X127009104Y-88543333D01*
X127009104Y-88543333D02*
X127151961Y-88590952D01*
X127151961Y-88590952D02*
X127247200Y-88686190D01*
X127247200Y-88686190D02*
X127294819Y-88829047D01*
X127294819Y-88829047D02*
X127294819Y-88924285D01*
X127294819Y-87543333D02*
X127294819Y-88114761D01*
X127294819Y-87829047D02*
X126294819Y-87829047D01*
X126294819Y-87829047D02*
X126437676Y-87924285D01*
X126437676Y-87924285D02*
X126532914Y-88019523D01*
X126532914Y-88019523D02*
X126580533Y-88114761D01*
D13*
X114161704Y-93805163D02*
X114161704Y-93638496D01*
X114423609Y-93567068D02*
X114423609Y-93805163D01*
X114423609Y-93805163D02*
X113923609Y-93805163D01*
X113923609Y-93805163D02*
X113923609Y-93567068D01*
X114399800Y-93376591D02*
X114423609Y-93305163D01*
X114423609Y-93305163D02*
X114423609Y-93186115D01*
X114423609Y-93186115D02*
X114399800Y-93138496D01*
X114399800Y-93138496D02*
X114375990Y-93114687D01*
X114375990Y-93114687D02*
X114328371Y-93090877D01*
X114328371Y-93090877D02*
X114280752Y-93090877D01*
X114280752Y-93090877D02*
X114233133Y-93114687D01*
X114233133Y-93114687D02*
X114209323Y-93138496D01*
X114209323Y-93138496D02*
X114185514Y-93186115D01*
X114185514Y-93186115D02*
X114161704Y-93281353D01*
X114161704Y-93281353D02*
X114137895Y-93328972D01*
X114137895Y-93328972D02*
X114114085Y-93352782D01*
X114114085Y-93352782D02*
X114066466Y-93376591D01*
X114066466Y-93376591D02*
X114018847Y-93376591D01*
X114018847Y-93376591D02*
X113971228Y-93352782D01*
X113971228Y-93352782D02*
X113947419Y-93328972D01*
X113947419Y-93328972D02*
X113923609Y-93281353D01*
X113923609Y-93281353D02*
X113923609Y-93162306D01*
X113923609Y-93162306D02*
X113947419Y-93090877D01*
X114423609Y-92876592D02*
X113923609Y-92876592D01*
X113923609Y-92876592D02*
X113923609Y-92686116D01*
X113923609Y-92686116D02*
X113947419Y-92638497D01*
X113947419Y-92638497D02*
X113971228Y-92614687D01*
X113971228Y-92614687D02*
X114018847Y-92590878D01*
X114018847Y-92590878D02*
X114090276Y-92590878D01*
X114090276Y-92590878D02*
X114137895Y-92614687D01*
X114137895Y-92614687D02*
X114161704Y-92638497D01*
X114161704Y-92638497D02*
X114185514Y-92686116D01*
X114185514Y-92686116D02*
X114185514Y-92876592D01*
X114423609Y-92090878D02*
X114185514Y-92257544D01*
X114423609Y-92376592D02*
X113923609Y-92376592D01*
X113923609Y-92376592D02*
X113923609Y-92186116D01*
X113923609Y-92186116D02*
X113947419Y-92138497D01*
X113947419Y-92138497D02*
X113971228Y-92114687D01*
X113971228Y-92114687D02*
X114018847Y-92090878D01*
X114018847Y-92090878D02*
X114090276Y-92090878D01*
X114090276Y-92090878D02*
X114137895Y-92114687D01*
X114137895Y-92114687D02*
X114161704Y-92138497D01*
X114161704Y-92138497D02*
X114185514Y-92186116D01*
X114185514Y-92186116D02*
X114185514Y-92376592D01*
X113923609Y-91924211D02*
X114423609Y-91590878D01*
X113923609Y-91590878D02*
X114423609Y-91924211D01*
X113971228Y-91424211D02*
X113947419Y-91400402D01*
X113947419Y-91400402D02*
X113923609Y-91352783D01*
X113923609Y-91352783D02*
X113923609Y-91233735D01*
X113923609Y-91233735D02*
X113947419Y-91186116D01*
X113947419Y-91186116D02*
X113971228Y-91162307D01*
X113971228Y-91162307D02*
X114018847Y-91138497D01*
X114018847Y-91138497D02*
X114066466Y-91138497D01*
X114066466Y-91138497D02*
X114137895Y-91162307D01*
X114137895Y-91162307D02*
X114423609Y-91448021D01*
X114423609Y-91448021D02*
X114423609Y-91138497D01*
X114161704Y-90757545D02*
X114161704Y-90924212D01*
X114423609Y-90924212D02*
X113923609Y-90924212D01*
X113923609Y-90924212D02*
X113923609Y-90686117D01*
X113923609Y-90567069D02*
X113923609Y-90281355D01*
X114423609Y-90424212D02*
X113923609Y-90424212D01*
X114423609Y-90114689D02*
X113923609Y-90114689D01*
X113923609Y-90114689D02*
X113923609Y-89995641D01*
X113923609Y-89995641D02*
X113947419Y-89924213D01*
X113947419Y-89924213D02*
X113995038Y-89876594D01*
X113995038Y-89876594D02*
X114042657Y-89852784D01*
X114042657Y-89852784D02*
X114137895Y-89828975D01*
X114137895Y-89828975D02*
X114209323Y-89828975D01*
X114209323Y-89828975D02*
X114304561Y-89852784D01*
X114304561Y-89852784D02*
X114352180Y-89876594D01*
X114352180Y-89876594D02*
X114399800Y-89924213D01*
X114399800Y-89924213D02*
X114423609Y-89995641D01*
X114423609Y-89995641D02*
X114423609Y-90114689D01*
X114423609Y-89614689D02*
X113923609Y-89614689D01*
X116611704Y-93705163D02*
X116611704Y-93538496D01*
X116873609Y-93467068D02*
X116873609Y-93705163D01*
X116873609Y-93705163D02*
X116373609Y-93705163D01*
X116373609Y-93705163D02*
X116373609Y-93467068D01*
X116849800Y-93276591D02*
X116873609Y-93205163D01*
X116873609Y-93205163D02*
X116873609Y-93086115D01*
X116873609Y-93086115D02*
X116849800Y-93038496D01*
X116849800Y-93038496D02*
X116825990Y-93014687D01*
X116825990Y-93014687D02*
X116778371Y-92990877D01*
X116778371Y-92990877D02*
X116730752Y-92990877D01*
X116730752Y-92990877D02*
X116683133Y-93014687D01*
X116683133Y-93014687D02*
X116659323Y-93038496D01*
X116659323Y-93038496D02*
X116635514Y-93086115D01*
X116635514Y-93086115D02*
X116611704Y-93181353D01*
X116611704Y-93181353D02*
X116587895Y-93228972D01*
X116587895Y-93228972D02*
X116564085Y-93252782D01*
X116564085Y-93252782D02*
X116516466Y-93276591D01*
X116516466Y-93276591D02*
X116468847Y-93276591D01*
X116468847Y-93276591D02*
X116421228Y-93252782D01*
X116421228Y-93252782D02*
X116397419Y-93228972D01*
X116397419Y-93228972D02*
X116373609Y-93181353D01*
X116373609Y-93181353D02*
X116373609Y-93062306D01*
X116373609Y-93062306D02*
X116397419Y-92990877D01*
X116873609Y-92776592D02*
X116373609Y-92776592D01*
X116373609Y-92776592D02*
X116373609Y-92586116D01*
X116373609Y-92586116D02*
X116397419Y-92538497D01*
X116397419Y-92538497D02*
X116421228Y-92514687D01*
X116421228Y-92514687D02*
X116468847Y-92490878D01*
X116468847Y-92490878D02*
X116540276Y-92490878D01*
X116540276Y-92490878D02*
X116587895Y-92514687D01*
X116587895Y-92514687D02*
X116611704Y-92538497D01*
X116611704Y-92538497D02*
X116635514Y-92586116D01*
X116635514Y-92586116D02*
X116635514Y-92776592D01*
X116373609Y-92348020D02*
X116373609Y-92062306D01*
X116873609Y-92205163D02*
X116373609Y-92205163D01*
X116373609Y-91943259D02*
X116873609Y-91609926D01*
X116373609Y-91609926D02*
X116873609Y-91943259D01*
X116421228Y-91443259D02*
X116397419Y-91419450D01*
X116397419Y-91419450D02*
X116373609Y-91371831D01*
X116373609Y-91371831D02*
X116373609Y-91252783D01*
X116373609Y-91252783D02*
X116397419Y-91205164D01*
X116397419Y-91205164D02*
X116421228Y-91181355D01*
X116421228Y-91181355D02*
X116468847Y-91157545D01*
X116468847Y-91157545D02*
X116516466Y-91157545D01*
X116516466Y-91157545D02*
X116587895Y-91181355D01*
X116587895Y-91181355D02*
X116873609Y-91467069D01*
X116873609Y-91467069D02*
X116873609Y-91157545D01*
X116611704Y-90776593D02*
X116611704Y-90943260D01*
X116873609Y-90943260D02*
X116373609Y-90943260D01*
X116373609Y-90943260D02*
X116373609Y-90705165D01*
X116373609Y-90586117D02*
X116373609Y-90300403D01*
X116873609Y-90443260D02*
X116373609Y-90443260D01*
X116873609Y-90133737D02*
X116373609Y-90133737D01*
X116373609Y-90133737D02*
X116373609Y-90014689D01*
X116373609Y-90014689D02*
X116397419Y-89943261D01*
X116397419Y-89943261D02*
X116445038Y-89895642D01*
X116445038Y-89895642D02*
X116492657Y-89871832D01*
X116492657Y-89871832D02*
X116587895Y-89848023D01*
X116587895Y-89848023D02*
X116659323Y-89848023D01*
X116659323Y-89848023D02*
X116754561Y-89871832D01*
X116754561Y-89871832D02*
X116802180Y-89895642D01*
X116802180Y-89895642D02*
X116849800Y-89943261D01*
X116849800Y-89943261D02*
X116873609Y-90014689D01*
X116873609Y-90014689D02*
X116873609Y-90133737D01*
X116873609Y-89633737D02*
X116373609Y-89633737D01*
X118997419Y-90643258D02*
X118973609Y-90690877D01*
X118973609Y-90690877D02*
X118973609Y-90762306D01*
X118973609Y-90762306D02*
X118997419Y-90833734D01*
X118997419Y-90833734D02*
X119045038Y-90881353D01*
X119045038Y-90881353D02*
X119092657Y-90905163D01*
X119092657Y-90905163D02*
X119187895Y-90928972D01*
X119187895Y-90928972D02*
X119259323Y-90928972D01*
X119259323Y-90928972D02*
X119354561Y-90905163D01*
X119354561Y-90905163D02*
X119402180Y-90881353D01*
X119402180Y-90881353D02*
X119449800Y-90833734D01*
X119449800Y-90833734D02*
X119473609Y-90762306D01*
X119473609Y-90762306D02*
X119473609Y-90714687D01*
X119473609Y-90714687D02*
X119449800Y-90643258D01*
X119449800Y-90643258D02*
X119425990Y-90619449D01*
X119425990Y-90619449D02*
X119259323Y-90619449D01*
X119259323Y-90619449D02*
X119259323Y-90714687D01*
X119473609Y-90405163D02*
X118973609Y-90405163D01*
X118973609Y-90405163D02*
X119473609Y-90119449D01*
X119473609Y-90119449D02*
X118973609Y-90119449D01*
X119473609Y-89881353D02*
X118973609Y-89881353D01*
X118973609Y-89881353D02*
X118973609Y-89762305D01*
X118973609Y-89762305D02*
X118997419Y-89690877D01*
X118997419Y-89690877D02*
X119045038Y-89643258D01*
X119045038Y-89643258D02*
X119092657Y-89619448D01*
X119092657Y-89619448D02*
X119187895Y-89595639D01*
X119187895Y-89595639D02*
X119259323Y-89595639D01*
X119259323Y-89595639D02*
X119354561Y-89619448D01*
X119354561Y-89619448D02*
X119402180Y-89643258D01*
X119402180Y-89643258D02*
X119449800Y-89690877D01*
X119449800Y-89690877D02*
X119473609Y-89762305D01*
X119473609Y-89762305D02*
X119473609Y-89881353D01*
X121623609Y-91805163D02*
X122028371Y-91805163D01*
X122028371Y-91805163D02*
X122075990Y-91781353D01*
X122075990Y-91781353D02*
X122099800Y-91757544D01*
X122099800Y-91757544D02*
X122123609Y-91709925D01*
X122123609Y-91709925D02*
X122123609Y-91614687D01*
X122123609Y-91614687D02*
X122099800Y-91567068D01*
X122099800Y-91567068D02*
X122075990Y-91543258D01*
X122075990Y-91543258D02*
X122028371Y-91519449D01*
X122028371Y-91519449D02*
X121623609Y-91519449D01*
X121623609Y-91186115D02*
X121623609Y-91138496D01*
X121623609Y-91138496D02*
X121647419Y-91090877D01*
X121647419Y-91090877D02*
X121671228Y-91067067D01*
X121671228Y-91067067D02*
X121718847Y-91043258D01*
X121718847Y-91043258D02*
X121814085Y-91019448D01*
X121814085Y-91019448D02*
X121933133Y-91019448D01*
X121933133Y-91019448D02*
X122028371Y-91043258D01*
X122028371Y-91043258D02*
X122075990Y-91067067D01*
X122075990Y-91067067D02*
X122099800Y-91090877D01*
X122099800Y-91090877D02*
X122123609Y-91138496D01*
X122123609Y-91138496D02*
X122123609Y-91186115D01*
X122123609Y-91186115D02*
X122099800Y-91233734D01*
X122099800Y-91233734D02*
X122075990Y-91257543D01*
X122075990Y-91257543D02*
X122028371Y-91281353D01*
X122028371Y-91281353D02*
X121933133Y-91305162D01*
X121933133Y-91305162D02*
X121814085Y-91305162D01*
X121814085Y-91305162D02*
X121718847Y-91281353D01*
X121718847Y-91281353D02*
X121671228Y-91257543D01*
X121671228Y-91257543D02*
X121647419Y-91233734D01*
X121647419Y-91233734D02*
X121623609Y-91186115D01*
X122123609Y-90519449D02*
X121885514Y-90686115D01*
X122123609Y-90805163D02*
X121623609Y-90805163D01*
X121623609Y-90805163D02*
X121623609Y-90614687D01*
X121623609Y-90614687D02*
X121647419Y-90567068D01*
X121647419Y-90567068D02*
X121671228Y-90543258D01*
X121671228Y-90543258D02*
X121718847Y-90519449D01*
X121718847Y-90519449D02*
X121790276Y-90519449D01*
X121790276Y-90519449D02*
X121837895Y-90543258D01*
X121837895Y-90543258D02*
X121861704Y-90567068D01*
X121861704Y-90567068D02*
X121885514Y-90614687D01*
X121885514Y-90614687D02*
X121885514Y-90805163D01*
X121623609Y-90376591D02*
X121623609Y-90090877D01*
X122123609Y-90233734D02*
X121623609Y-90233734D01*
X122099800Y-89948020D02*
X122123609Y-89876592D01*
X122123609Y-89876592D02*
X122123609Y-89757544D01*
X122123609Y-89757544D02*
X122099800Y-89709925D01*
X122099800Y-89709925D02*
X122075990Y-89686116D01*
X122075990Y-89686116D02*
X122028371Y-89662306D01*
X122028371Y-89662306D02*
X121980752Y-89662306D01*
X121980752Y-89662306D02*
X121933133Y-89686116D01*
X121933133Y-89686116D02*
X121909323Y-89709925D01*
X121909323Y-89709925D02*
X121885514Y-89757544D01*
X121885514Y-89757544D02*
X121861704Y-89852782D01*
X121861704Y-89852782D02*
X121837895Y-89900401D01*
X121837895Y-89900401D02*
X121814085Y-89924211D01*
X121814085Y-89924211D02*
X121766466Y-89948020D01*
X121766466Y-89948020D02*
X121718847Y-89948020D01*
X121718847Y-89948020D02*
X121671228Y-89924211D01*
X121671228Y-89924211D02*
X121647419Y-89900401D01*
X121647419Y-89900401D02*
X121623609Y-89852782D01*
X121623609Y-89852782D02*
X121623609Y-89733735D01*
X121623609Y-89733735D02*
X121647419Y-89662306D01*
X123973609Y-91805163D02*
X124378371Y-91805163D01*
X124378371Y-91805163D02*
X124425990Y-91781353D01*
X124425990Y-91781353D02*
X124449800Y-91757544D01*
X124449800Y-91757544D02*
X124473609Y-91709925D01*
X124473609Y-91709925D02*
X124473609Y-91614687D01*
X124473609Y-91614687D02*
X124449800Y-91567068D01*
X124449800Y-91567068D02*
X124425990Y-91543258D01*
X124425990Y-91543258D02*
X124378371Y-91519449D01*
X124378371Y-91519449D02*
X123973609Y-91519449D01*
X123973609Y-91186115D02*
X123973609Y-91138496D01*
X123973609Y-91138496D02*
X123997419Y-91090877D01*
X123997419Y-91090877D02*
X124021228Y-91067067D01*
X124021228Y-91067067D02*
X124068847Y-91043258D01*
X124068847Y-91043258D02*
X124164085Y-91019448D01*
X124164085Y-91019448D02*
X124283133Y-91019448D01*
X124283133Y-91019448D02*
X124378371Y-91043258D01*
X124378371Y-91043258D02*
X124425990Y-91067067D01*
X124425990Y-91067067D02*
X124449800Y-91090877D01*
X124449800Y-91090877D02*
X124473609Y-91138496D01*
X124473609Y-91138496D02*
X124473609Y-91186115D01*
X124473609Y-91186115D02*
X124449800Y-91233734D01*
X124449800Y-91233734D02*
X124425990Y-91257543D01*
X124425990Y-91257543D02*
X124378371Y-91281353D01*
X124378371Y-91281353D02*
X124283133Y-91305162D01*
X124283133Y-91305162D02*
X124164085Y-91305162D01*
X124164085Y-91305162D02*
X124068847Y-91281353D01*
X124068847Y-91281353D02*
X124021228Y-91257543D01*
X124021228Y-91257543D02*
X123997419Y-91233734D01*
X123997419Y-91233734D02*
X123973609Y-91186115D01*
X124473609Y-90805163D02*
X123973609Y-90805163D01*
X123973609Y-90805163D02*
X123973609Y-90686115D01*
X123973609Y-90686115D02*
X123997419Y-90614687D01*
X123997419Y-90614687D02*
X124045038Y-90567068D01*
X124045038Y-90567068D02*
X124092657Y-90543258D01*
X124092657Y-90543258D02*
X124187895Y-90519449D01*
X124187895Y-90519449D02*
X124259323Y-90519449D01*
X124259323Y-90519449D02*
X124354561Y-90543258D01*
X124354561Y-90543258D02*
X124402180Y-90567068D01*
X124402180Y-90567068D02*
X124449800Y-90614687D01*
X124449800Y-90614687D02*
X124473609Y-90686115D01*
X124473609Y-90686115D02*
X124473609Y-90805163D01*
X123973609Y-90376591D02*
X123973609Y-90090877D01*
X124473609Y-90233734D02*
X123973609Y-90233734D01*
X124473609Y-89638497D02*
X124235514Y-89805163D01*
X124473609Y-89924211D02*
X123973609Y-89924211D01*
X123973609Y-89924211D02*
X123973609Y-89733735D01*
X123973609Y-89733735D02*
X123997419Y-89686116D01*
X123997419Y-89686116D02*
X124021228Y-89662306D01*
X124021228Y-89662306D02*
X124068847Y-89638497D01*
X124068847Y-89638497D02*
X124140276Y-89638497D01*
X124140276Y-89638497D02*
X124187895Y-89662306D01*
X124187895Y-89662306D02*
X124211704Y-89686116D01*
X124211704Y-89686116D02*
X124235514Y-89733735D01*
X124235514Y-89733735D02*
X124235514Y-89924211D01*
D11*
X68134580Y-104796666D02*
X68182200Y-104844285D01*
X68182200Y-104844285D02*
X68229819Y-104987142D01*
X68229819Y-104987142D02*
X68229819Y-105082380D01*
X68229819Y-105082380D02*
X68182200Y-105225237D01*
X68182200Y-105225237D02*
X68086961Y-105320475D01*
X68086961Y-105320475D02*
X67991723Y-105368094D01*
X67991723Y-105368094D02*
X67801247Y-105415713D01*
X67801247Y-105415713D02*
X67658390Y-105415713D01*
X67658390Y-105415713D02*
X67467914Y-105368094D01*
X67467914Y-105368094D02*
X67372676Y-105320475D01*
X67372676Y-105320475D02*
X67277438Y-105225237D01*
X67277438Y-105225237D02*
X67229819Y-105082380D01*
X67229819Y-105082380D02*
X67229819Y-104987142D01*
X67229819Y-104987142D02*
X67277438Y-104844285D01*
X67277438Y-104844285D02*
X67325057Y-104796666D01*
X67229819Y-104463332D02*
X67229819Y-103796666D01*
X67229819Y-103796666D02*
X68229819Y-104225237D01*
X101967735Y-114792143D02*
X102003450Y-114827857D01*
X102003450Y-114827857D02*
X102039164Y-114935000D01*
X102039164Y-114935000D02*
X102039164Y-115006428D01*
X102039164Y-115006428D02*
X102003450Y-115113571D01*
X102003450Y-115113571D02*
X101932021Y-115185000D01*
X101932021Y-115185000D02*
X101860592Y-115220714D01*
X101860592Y-115220714D02*
X101717735Y-115256428D01*
X101717735Y-115256428D02*
X101610592Y-115256428D01*
X101610592Y-115256428D02*
X101467735Y-115220714D01*
X101467735Y-115220714D02*
X101396307Y-115185000D01*
X101396307Y-115185000D02*
X101324878Y-115113571D01*
X101324878Y-115113571D02*
X101289164Y-115006428D01*
X101289164Y-115006428D02*
X101289164Y-114935000D01*
X101289164Y-114935000D02*
X101324878Y-114827857D01*
X101324878Y-114827857D02*
X101360592Y-114792143D01*
X102039164Y-114077857D02*
X102039164Y-114506428D01*
X102039164Y-114292143D02*
X101289164Y-114292143D01*
X101289164Y-114292143D02*
X101396307Y-114363571D01*
X101396307Y-114363571D02*
X101467735Y-114435000D01*
X101467735Y-114435000D02*
X101503450Y-114506428D01*
X101289164Y-113399285D02*
X101289164Y-113756428D01*
X101289164Y-113756428D02*
X101646307Y-113792142D01*
X101646307Y-113792142D02*
X101610592Y-113756428D01*
X101610592Y-113756428D02*
X101574878Y-113685000D01*
X101574878Y-113685000D02*
X101574878Y-113506428D01*
X101574878Y-113506428D02*
X101610592Y-113435000D01*
X101610592Y-113435000D02*
X101646307Y-113399285D01*
X101646307Y-113399285D02*
X101717735Y-113363571D01*
X101717735Y-113363571D02*
X101896307Y-113363571D01*
X101896307Y-113363571D02*
X101967735Y-113399285D01*
X101967735Y-113399285D02*
X102003450Y-113435000D01*
X102003450Y-113435000D02*
X102039164Y-113506428D01*
X102039164Y-113506428D02*
X102039164Y-113685000D01*
X102039164Y-113685000D02*
X102003450Y-113756428D01*
X102003450Y-113756428D02*
X101967735Y-113792142D01*
X101904761Y-90050057D02*
X101809523Y-90002438D01*
X101809523Y-90002438D02*
X101714285Y-89907200D01*
X101714285Y-89907200D02*
X101571428Y-89764342D01*
X101571428Y-89764342D02*
X101476190Y-89716723D01*
X101476190Y-89716723D02*
X101380952Y-89716723D01*
X101428571Y-89954819D02*
X101333333Y-89907200D01*
X101333333Y-89907200D02*
X101238095Y-89811961D01*
X101238095Y-89811961D02*
X101190476Y-89621485D01*
X101190476Y-89621485D02*
X101190476Y-89288152D01*
X101190476Y-89288152D02*
X101238095Y-89097676D01*
X101238095Y-89097676D02*
X101333333Y-89002438D01*
X101333333Y-89002438D02*
X101428571Y-88954819D01*
X101428571Y-88954819D02*
X101619047Y-88954819D01*
X101619047Y-88954819D02*
X101714285Y-89002438D01*
X101714285Y-89002438D02*
X101809523Y-89097676D01*
X101809523Y-89097676D02*
X101857142Y-89288152D01*
X101857142Y-89288152D02*
X101857142Y-89621485D01*
X101857142Y-89621485D02*
X101809523Y-89811961D01*
X101809523Y-89811961D02*
X101714285Y-89907200D01*
X101714285Y-89907200D02*
X101619047Y-89954819D01*
X101619047Y-89954819D02*
X101428571Y-89954819D01*
X102238095Y-89050057D02*
X102285714Y-89002438D01*
X102285714Y-89002438D02*
X102380952Y-88954819D01*
X102380952Y-88954819D02*
X102619047Y-88954819D01*
X102619047Y-88954819D02*
X102714285Y-89002438D01*
X102714285Y-89002438D02*
X102761904Y-89050057D01*
X102761904Y-89050057D02*
X102809523Y-89145295D01*
X102809523Y-89145295D02*
X102809523Y-89240533D01*
X102809523Y-89240533D02*
X102761904Y-89383390D01*
X102761904Y-89383390D02*
X102190476Y-89954819D01*
X102190476Y-89954819D02*
X102809523Y-89954819D01*
X77704819Y-115051904D02*
X76704819Y-115051904D01*
X77181009Y-115051904D02*
X77181009Y-114480476D01*
X77704819Y-114480476D02*
X76704819Y-114480476D01*
X76800057Y-114051904D02*
X76752438Y-114004285D01*
X76752438Y-114004285D02*
X76704819Y-113909047D01*
X76704819Y-113909047D02*
X76704819Y-113670952D01*
X76704819Y-113670952D02*
X76752438Y-113575714D01*
X76752438Y-113575714D02*
X76800057Y-113528095D01*
X76800057Y-113528095D02*
X76895295Y-113480476D01*
X76895295Y-113480476D02*
X76990533Y-113480476D01*
X76990533Y-113480476D02*
X77133390Y-113528095D01*
X77133390Y-113528095D02*
X77704819Y-114099523D01*
X77704819Y-114099523D02*
X77704819Y-113480476D01*
X116167856Y-114629580D02*
X116132142Y-114677200D01*
X116132142Y-114677200D02*
X116024999Y-114724819D01*
X116024999Y-114724819D02*
X115953571Y-114724819D01*
X115953571Y-114724819D02*
X115846428Y-114677200D01*
X115846428Y-114677200D02*
X115774999Y-114581961D01*
X115774999Y-114581961D02*
X115739285Y-114486723D01*
X115739285Y-114486723D02*
X115703571Y-114296247D01*
X115703571Y-114296247D02*
X115703571Y-114153390D01*
X115703571Y-114153390D02*
X115739285Y-113962914D01*
X115739285Y-113962914D02*
X115774999Y-113867676D01*
X115774999Y-113867676D02*
X115846428Y-113772438D01*
X115846428Y-113772438D02*
X115953571Y-113724819D01*
X115953571Y-113724819D02*
X116024999Y-113724819D01*
X116024999Y-113724819D02*
X116132142Y-113772438D01*
X116132142Y-113772438D02*
X116167856Y-113820057D01*
X116882142Y-114724819D02*
X116453571Y-114724819D01*
X116667856Y-114724819D02*
X116667856Y-113724819D01*
X116667856Y-113724819D02*
X116596428Y-113867676D01*
X116596428Y-113867676D02*
X116524999Y-113962914D01*
X116524999Y-113962914D02*
X116453571Y-114010533D01*
X117132142Y-113724819D02*
X117632142Y-113724819D01*
X117632142Y-113724819D02*
X117310714Y-114724819D01*
X88969580Y-110812857D02*
X89017200Y-110860476D01*
X89017200Y-110860476D02*
X89064819Y-111003333D01*
X89064819Y-111003333D02*
X89064819Y-111098571D01*
X89064819Y-111098571D02*
X89017200Y-111241428D01*
X89017200Y-111241428D02*
X88921961Y-111336666D01*
X88921961Y-111336666D02*
X88826723Y-111384285D01*
X88826723Y-111384285D02*
X88636247Y-111431904D01*
X88636247Y-111431904D02*
X88493390Y-111431904D01*
X88493390Y-111431904D02*
X88302914Y-111384285D01*
X88302914Y-111384285D02*
X88207676Y-111336666D01*
X88207676Y-111336666D02*
X88112438Y-111241428D01*
X88112438Y-111241428D02*
X88064819Y-111098571D01*
X88064819Y-111098571D02*
X88064819Y-111003333D01*
X88064819Y-111003333D02*
X88112438Y-110860476D01*
X88112438Y-110860476D02*
X88160057Y-110812857D01*
X89064819Y-109860476D02*
X89064819Y-110431904D01*
X89064819Y-110146190D02*
X88064819Y-110146190D01*
X88064819Y-110146190D02*
X88207676Y-110241428D01*
X88207676Y-110241428D02*
X88302914Y-110336666D01*
X88302914Y-110336666D02*
X88350533Y-110431904D01*
X88160057Y-109479523D02*
X88112438Y-109431904D01*
X88112438Y-109431904D02*
X88064819Y-109336666D01*
X88064819Y-109336666D02*
X88064819Y-109098571D01*
X88064819Y-109098571D02*
X88112438Y-109003333D01*
X88112438Y-109003333D02*
X88160057Y-108955714D01*
X88160057Y-108955714D02*
X88255295Y-108908095D01*
X88255295Y-108908095D02*
X88350533Y-108908095D01*
X88350533Y-108908095D02*
X88493390Y-108955714D01*
X88493390Y-108955714D02*
X89064819Y-109527142D01*
X89064819Y-109527142D02*
X89064819Y-108908095D01*
X82944819Y-111163333D02*
X83659104Y-111163333D01*
X83659104Y-111163333D02*
X83801961Y-111210952D01*
X83801961Y-111210952D02*
X83897200Y-111306190D01*
X83897200Y-111306190D02*
X83944819Y-111449047D01*
X83944819Y-111449047D02*
X83944819Y-111544285D01*
X82944819Y-110782380D02*
X82944819Y-110163333D01*
X82944819Y-110163333D02*
X83325771Y-110496666D01*
X83325771Y-110496666D02*
X83325771Y-110353809D01*
X83325771Y-110353809D02*
X83373390Y-110258571D01*
X83373390Y-110258571D02*
X83421009Y-110210952D01*
X83421009Y-110210952D02*
X83516247Y-110163333D01*
X83516247Y-110163333D02*
X83754342Y-110163333D01*
X83754342Y-110163333D02*
X83849580Y-110210952D01*
X83849580Y-110210952D02*
X83897200Y-110258571D01*
X83897200Y-110258571D02*
X83944819Y-110353809D01*
X83944819Y-110353809D02*
X83944819Y-110639523D01*
X83944819Y-110639523D02*
X83897200Y-110734761D01*
X83897200Y-110734761D02*
X83849580Y-110782380D01*
X125977856Y-96207735D02*
X125942142Y-96243450D01*
X125942142Y-96243450D02*
X125834999Y-96279164D01*
X125834999Y-96279164D02*
X125763571Y-96279164D01*
X125763571Y-96279164D02*
X125656428Y-96243450D01*
X125656428Y-96243450D02*
X125584999Y-96172021D01*
X125584999Y-96172021D02*
X125549285Y-96100592D01*
X125549285Y-96100592D02*
X125513571Y-95957735D01*
X125513571Y-95957735D02*
X125513571Y-95850592D01*
X125513571Y-95850592D02*
X125549285Y-95707735D01*
X125549285Y-95707735D02*
X125584999Y-95636307D01*
X125584999Y-95636307D02*
X125656428Y-95564878D01*
X125656428Y-95564878D02*
X125763571Y-95529164D01*
X125763571Y-95529164D02*
X125834999Y-95529164D01*
X125834999Y-95529164D02*
X125942142Y-95564878D01*
X125942142Y-95564878D02*
X125977856Y-95600592D01*
X126263571Y-95600592D02*
X126299285Y-95564878D01*
X126299285Y-95564878D02*
X126370714Y-95529164D01*
X126370714Y-95529164D02*
X126549285Y-95529164D01*
X126549285Y-95529164D02*
X126620714Y-95564878D01*
X126620714Y-95564878D02*
X126656428Y-95600592D01*
X126656428Y-95600592D02*
X126692142Y-95672021D01*
X126692142Y-95672021D02*
X126692142Y-95743450D01*
X126692142Y-95743450D02*
X126656428Y-95850592D01*
X126656428Y-95850592D02*
X126227856Y-96279164D01*
X126227856Y-96279164D02*
X126692142Y-96279164D01*
X127370714Y-95529164D02*
X127013571Y-95529164D01*
X127013571Y-95529164D02*
X126977857Y-95886307D01*
X126977857Y-95886307D02*
X127013571Y-95850592D01*
X127013571Y-95850592D02*
X127085000Y-95814878D01*
X127085000Y-95814878D02*
X127263571Y-95814878D01*
X127263571Y-95814878D02*
X127335000Y-95850592D01*
X127335000Y-95850592D02*
X127370714Y-95886307D01*
X127370714Y-95886307D02*
X127406428Y-95957735D01*
X127406428Y-95957735D02*
X127406428Y-96136307D01*
X127406428Y-96136307D02*
X127370714Y-96207735D01*
X127370714Y-96207735D02*
X127335000Y-96243450D01*
X127335000Y-96243450D02*
X127263571Y-96279164D01*
X127263571Y-96279164D02*
X127085000Y-96279164D01*
X127085000Y-96279164D02*
X127013571Y-96243450D01*
X127013571Y-96243450D02*
X126977857Y-96207735D01*
X74666667Y-96907200D02*
X74809524Y-96954819D01*
X74809524Y-96954819D02*
X75047619Y-96954819D01*
X75047619Y-96954819D02*
X75142857Y-96907200D01*
X75142857Y-96907200D02*
X75190476Y-96859580D01*
X75190476Y-96859580D02*
X75238095Y-96764342D01*
X75238095Y-96764342D02*
X75238095Y-96669104D01*
X75238095Y-96669104D02*
X75190476Y-96573866D01*
X75190476Y-96573866D02*
X75142857Y-96526247D01*
X75142857Y-96526247D02*
X75047619Y-96478628D01*
X75047619Y-96478628D02*
X74857143Y-96431009D01*
X74857143Y-96431009D02*
X74761905Y-96383390D01*
X74761905Y-96383390D02*
X74714286Y-96335771D01*
X74714286Y-96335771D02*
X74666667Y-96240533D01*
X74666667Y-96240533D02*
X74666667Y-96145295D01*
X74666667Y-96145295D02*
X74714286Y-96050057D01*
X74714286Y-96050057D02*
X74761905Y-96002438D01*
X74761905Y-96002438D02*
X74857143Y-95954819D01*
X74857143Y-95954819D02*
X75095238Y-95954819D01*
X75095238Y-95954819D02*
X75238095Y-96002438D01*
X75571429Y-95954819D02*
X75809524Y-96954819D01*
X75809524Y-96954819D02*
X76000000Y-96240533D01*
X76000000Y-96240533D02*
X76190476Y-96954819D01*
X76190476Y-96954819D02*
X76428572Y-95954819D01*
X77333333Y-96954819D02*
X76761905Y-96954819D01*
X77047619Y-96954819D02*
X77047619Y-95954819D01*
X77047619Y-95954819D02*
X76952381Y-96097676D01*
X76952381Y-96097676D02*
X76857143Y-96192914D01*
X76857143Y-96192914D02*
X76761905Y-96240533D01*
X35954819Y-97761904D02*
X36764342Y-97761904D01*
X36764342Y-97761904D02*
X36859580Y-97714285D01*
X36859580Y-97714285D02*
X36907200Y-97666666D01*
X36907200Y-97666666D02*
X36954819Y-97571428D01*
X36954819Y-97571428D02*
X36954819Y-97380952D01*
X36954819Y-97380952D02*
X36907200Y-97285714D01*
X36907200Y-97285714D02*
X36859580Y-97238095D01*
X36859580Y-97238095D02*
X36764342Y-97190476D01*
X36764342Y-97190476D02*
X35954819Y-97190476D01*
X36954819Y-96190476D02*
X36954819Y-96761904D01*
X36954819Y-96476190D02*
X35954819Y-96476190D01*
X35954819Y-96476190D02*
X36097676Y-96571428D01*
X36097676Y-96571428D02*
X36192914Y-96666666D01*
X36192914Y-96666666D02*
X36240533Y-96761904D01*
X129264819Y-91511904D02*
X128264819Y-91511904D01*
X128741009Y-91511904D02*
X128741009Y-90940476D01*
X129264819Y-90940476D02*
X128264819Y-90940476D01*
X129264819Y-89940476D02*
X129264819Y-90511904D01*
X129264819Y-90226190D02*
X128264819Y-90226190D01*
X128264819Y-90226190D02*
X128407676Y-90321428D01*
X128407676Y-90321428D02*
X128502914Y-90416666D01*
X128502914Y-90416666D02*
X128550533Y-90511904D01*
X93018095Y-108954819D02*
X93018095Y-109764342D01*
X93018095Y-109764342D02*
X93065714Y-109859580D01*
X93065714Y-109859580D02*
X93113333Y-109907200D01*
X93113333Y-109907200D02*
X93208571Y-109954819D01*
X93208571Y-109954819D02*
X93399047Y-109954819D01*
X93399047Y-109954819D02*
X93494285Y-109907200D01*
X93494285Y-109907200D02*
X93541904Y-109859580D01*
X93541904Y-109859580D02*
X93589523Y-109764342D01*
X93589523Y-109764342D02*
X93589523Y-108954819D01*
X94494285Y-109288152D02*
X94494285Y-109954819D01*
X94256190Y-108907200D02*
X94018095Y-109621485D01*
X94018095Y-109621485D02*
X94637142Y-109621485D01*
X102904761Y-96050057D02*
X102809523Y-96002438D01*
X102809523Y-96002438D02*
X102714285Y-95907200D01*
X102714285Y-95907200D02*
X102571428Y-95764342D01*
X102571428Y-95764342D02*
X102476190Y-95716723D01*
X102476190Y-95716723D02*
X102380952Y-95716723D01*
X102428571Y-95954819D02*
X102333333Y-95907200D01*
X102333333Y-95907200D02*
X102238095Y-95811961D01*
X102238095Y-95811961D02*
X102190476Y-95621485D01*
X102190476Y-95621485D02*
X102190476Y-95288152D01*
X102190476Y-95288152D02*
X102238095Y-95097676D01*
X102238095Y-95097676D02*
X102333333Y-95002438D01*
X102333333Y-95002438D02*
X102428571Y-94954819D01*
X102428571Y-94954819D02*
X102619047Y-94954819D01*
X102619047Y-94954819D02*
X102714285Y-95002438D01*
X102714285Y-95002438D02*
X102809523Y-95097676D01*
X102809523Y-95097676D02*
X102857142Y-95288152D01*
X102857142Y-95288152D02*
X102857142Y-95621485D01*
X102857142Y-95621485D02*
X102809523Y-95811961D01*
X102809523Y-95811961D02*
X102714285Y-95907200D01*
X102714285Y-95907200D02*
X102619047Y-95954819D01*
X102619047Y-95954819D02*
X102428571Y-95954819D01*
X103809523Y-95954819D02*
X103238095Y-95954819D01*
X103523809Y-95954819D02*
X103523809Y-94954819D01*
X103523809Y-94954819D02*
X103428571Y-95097676D01*
X103428571Y-95097676D02*
X103333333Y-95192914D01*
X103333333Y-95192914D02*
X103238095Y-95240533D01*
X100397735Y-114772143D02*
X100433450Y-114807857D01*
X100433450Y-114807857D02*
X100469164Y-114915000D01*
X100469164Y-114915000D02*
X100469164Y-114986428D01*
X100469164Y-114986428D02*
X100433450Y-115093571D01*
X100433450Y-115093571D02*
X100362021Y-115165000D01*
X100362021Y-115165000D02*
X100290592Y-115200714D01*
X100290592Y-115200714D02*
X100147735Y-115236428D01*
X100147735Y-115236428D02*
X100040592Y-115236428D01*
X100040592Y-115236428D02*
X99897735Y-115200714D01*
X99897735Y-115200714D02*
X99826307Y-115165000D01*
X99826307Y-115165000D02*
X99754878Y-115093571D01*
X99754878Y-115093571D02*
X99719164Y-114986428D01*
X99719164Y-114986428D02*
X99719164Y-114915000D01*
X99719164Y-114915000D02*
X99754878Y-114807857D01*
X99754878Y-114807857D02*
X99790592Y-114772143D01*
X100469164Y-114057857D02*
X100469164Y-114486428D01*
X100469164Y-114272143D02*
X99719164Y-114272143D01*
X99719164Y-114272143D02*
X99826307Y-114343571D01*
X99826307Y-114343571D02*
X99897735Y-114415000D01*
X99897735Y-114415000D02*
X99933450Y-114486428D01*
X99969164Y-113415000D02*
X100469164Y-113415000D01*
X99683450Y-113593571D02*
X100219164Y-113772142D01*
X100219164Y-113772142D02*
X100219164Y-113307857D01*
X53573333Y-97084819D02*
X53240000Y-96608628D01*
X53001905Y-97084819D02*
X53001905Y-96084819D01*
X53001905Y-96084819D02*
X53382857Y-96084819D01*
X53382857Y-96084819D02*
X53478095Y-96132438D01*
X53478095Y-96132438D02*
X53525714Y-96180057D01*
X53525714Y-96180057D02*
X53573333Y-96275295D01*
X53573333Y-96275295D02*
X53573333Y-96418152D01*
X53573333Y-96418152D02*
X53525714Y-96513390D01*
X53525714Y-96513390D02*
X53478095Y-96561009D01*
X53478095Y-96561009D02*
X53382857Y-96608628D01*
X53382857Y-96608628D02*
X53001905Y-96608628D01*
X54430476Y-96418152D02*
X54430476Y-97084819D01*
X54192381Y-96037200D02*
X53954286Y-96751485D01*
X53954286Y-96751485D02*
X54573333Y-96751485D01*
X107768095Y-110454819D02*
X107768095Y-111264342D01*
X107768095Y-111264342D02*
X107815714Y-111359580D01*
X107815714Y-111359580D02*
X107863333Y-111407200D01*
X107863333Y-111407200D02*
X107958571Y-111454819D01*
X107958571Y-111454819D02*
X108149047Y-111454819D01*
X108149047Y-111454819D02*
X108244285Y-111407200D01*
X108244285Y-111407200D02*
X108291904Y-111359580D01*
X108291904Y-111359580D02*
X108339523Y-111264342D01*
X108339523Y-111264342D02*
X108339523Y-110454819D01*
X109244285Y-110454819D02*
X109053809Y-110454819D01*
X109053809Y-110454819D02*
X108958571Y-110502438D01*
X108958571Y-110502438D02*
X108910952Y-110550057D01*
X108910952Y-110550057D02*
X108815714Y-110692914D01*
X108815714Y-110692914D02*
X108768095Y-110883390D01*
X108768095Y-110883390D02*
X108768095Y-111264342D01*
X108768095Y-111264342D02*
X108815714Y-111359580D01*
X108815714Y-111359580D02*
X108863333Y-111407200D01*
X108863333Y-111407200D02*
X108958571Y-111454819D01*
X108958571Y-111454819D02*
X109149047Y-111454819D01*
X109149047Y-111454819D02*
X109244285Y-111407200D01*
X109244285Y-111407200D02*
X109291904Y-111359580D01*
X109291904Y-111359580D02*
X109339523Y-111264342D01*
X109339523Y-111264342D02*
X109339523Y-111026247D01*
X109339523Y-111026247D02*
X109291904Y-110931009D01*
X109291904Y-110931009D02*
X109244285Y-110883390D01*
X109244285Y-110883390D02*
X109149047Y-110835771D01*
X109149047Y-110835771D02*
X108958571Y-110835771D01*
X108958571Y-110835771D02*
X108863333Y-110883390D01*
X108863333Y-110883390D02*
X108815714Y-110931009D01*
X108815714Y-110931009D02*
X108768095Y-111026247D01*
D12*
X118807190Y-108471428D02*
X118831000Y-108495237D01*
X118831000Y-108495237D02*
X118854809Y-108566666D01*
X118854809Y-108566666D02*
X118854809Y-108614285D01*
X118854809Y-108614285D02*
X118831000Y-108685713D01*
X118831000Y-108685713D02*
X118783380Y-108733332D01*
X118783380Y-108733332D02*
X118735761Y-108757142D01*
X118735761Y-108757142D02*
X118640523Y-108780951D01*
X118640523Y-108780951D02*
X118569095Y-108780951D01*
X118569095Y-108780951D02*
X118473857Y-108757142D01*
X118473857Y-108757142D02*
X118426238Y-108733332D01*
X118426238Y-108733332D02*
X118378619Y-108685713D01*
X118378619Y-108685713D02*
X118354809Y-108614285D01*
X118354809Y-108614285D02*
X118354809Y-108566666D01*
X118354809Y-108566666D02*
X118378619Y-108495237D01*
X118378619Y-108495237D02*
X118402428Y-108471428D01*
X118402428Y-108280951D02*
X118378619Y-108257142D01*
X118378619Y-108257142D02*
X118354809Y-108209523D01*
X118354809Y-108209523D02*
X118354809Y-108090475D01*
X118354809Y-108090475D02*
X118378619Y-108042856D01*
X118378619Y-108042856D02*
X118402428Y-108019047D01*
X118402428Y-108019047D02*
X118450047Y-107995237D01*
X118450047Y-107995237D02*
X118497666Y-107995237D01*
X118497666Y-107995237D02*
X118569095Y-108019047D01*
X118569095Y-108019047D02*
X118854809Y-108304761D01*
X118854809Y-108304761D02*
X118854809Y-107995237D01*
X118354809Y-107828571D02*
X118354809Y-107519047D01*
X118354809Y-107519047D02*
X118545285Y-107685714D01*
X118545285Y-107685714D02*
X118545285Y-107614285D01*
X118545285Y-107614285D02*
X118569095Y-107566666D01*
X118569095Y-107566666D02*
X118592904Y-107542857D01*
X118592904Y-107542857D02*
X118640523Y-107519047D01*
X118640523Y-107519047D02*
X118759571Y-107519047D01*
X118759571Y-107519047D02*
X118807190Y-107542857D01*
X118807190Y-107542857D02*
X118831000Y-107566666D01*
X118831000Y-107566666D02*
X118854809Y-107614285D01*
X118854809Y-107614285D02*
X118854809Y-107757142D01*
X118854809Y-107757142D02*
X118831000Y-107804761D01*
X118831000Y-107804761D02*
X118807190Y-107828571D01*
X78607190Y-88013333D02*
X78631000Y-88037142D01*
X78631000Y-88037142D02*
X78654809Y-88108571D01*
X78654809Y-88108571D02*
X78654809Y-88156190D01*
X78654809Y-88156190D02*
X78631000Y-88227618D01*
X78631000Y-88227618D02*
X78583380Y-88275237D01*
X78583380Y-88275237D02*
X78535761Y-88299047D01*
X78535761Y-88299047D02*
X78440523Y-88322856D01*
X78440523Y-88322856D02*
X78369095Y-88322856D01*
X78369095Y-88322856D02*
X78273857Y-88299047D01*
X78273857Y-88299047D02*
X78226238Y-88275237D01*
X78226238Y-88275237D02*
X78178619Y-88227618D01*
X78178619Y-88227618D02*
X78154809Y-88156190D01*
X78154809Y-88156190D02*
X78154809Y-88108571D01*
X78154809Y-88108571D02*
X78178619Y-88037142D01*
X78178619Y-88037142D02*
X78202428Y-88013333D01*
X78654809Y-87775237D02*
X78654809Y-87679999D01*
X78654809Y-87679999D02*
X78631000Y-87632380D01*
X78631000Y-87632380D02*
X78607190Y-87608571D01*
X78607190Y-87608571D02*
X78535761Y-87560952D01*
X78535761Y-87560952D02*
X78440523Y-87537142D01*
X78440523Y-87537142D02*
X78250047Y-87537142D01*
X78250047Y-87537142D02*
X78202428Y-87560952D01*
X78202428Y-87560952D02*
X78178619Y-87584761D01*
X78178619Y-87584761D02*
X78154809Y-87632380D01*
X78154809Y-87632380D02*
X78154809Y-87727618D01*
X78154809Y-87727618D02*
X78178619Y-87775237D01*
X78178619Y-87775237D02*
X78202428Y-87799047D01*
X78202428Y-87799047D02*
X78250047Y-87822856D01*
X78250047Y-87822856D02*
X78369095Y-87822856D01*
X78369095Y-87822856D02*
X78416714Y-87799047D01*
X78416714Y-87799047D02*
X78440523Y-87775237D01*
X78440523Y-87775237D02*
X78464333Y-87727618D01*
X78464333Y-87727618D02*
X78464333Y-87632380D01*
X78464333Y-87632380D02*
X78440523Y-87584761D01*
X78440523Y-87584761D02*
X78416714Y-87560952D01*
X78416714Y-87560952D02*
X78369095Y-87537142D01*
D11*
X74903333Y-110039580D02*
X74855714Y-110087200D01*
X74855714Y-110087200D02*
X74712857Y-110134819D01*
X74712857Y-110134819D02*
X74617619Y-110134819D01*
X74617619Y-110134819D02*
X74474762Y-110087200D01*
X74474762Y-110087200D02*
X74379524Y-109991961D01*
X74379524Y-109991961D02*
X74331905Y-109896723D01*
X74331905Y-109896723D02*
X74284286Y-109706247D01*
X74284286Y-109706247D02*
X74284286Y-109563390D01*
X74284286Y-109563390D02*
X74331905Y-109372914D01*
X74331905Y-109372914D02*
X74379524Y-109277676D01*
X74379524Y-109277676D02*
X74474762Y-109182438D01*
X74474762Y-109182438D02*
X74617619Y-109134819D01*
X74617619Y-109134819D02*
X74712857Y-109134819D01*
X74712857Y-109134819D02*
X74855714Y-109182438D01*
X74855714Y-109182438D02*
X74903333Y-109230057D01*
X75474762Y-109563390D02*
X75379524Y-109515771D01*
X75379524Y-109515771D02*
X75331905Y-109468152D01*
X75331905Y-109468152D02*
X75284286Y-109372914D01*
X75284286Y-109372914D02*
X75284286Y-109325295D01*
X75284286Y-109325295D02*
X75331905Y-109230057D01*
X75331905Y-109230057D02*
X75379524Y-109182438D01*
X75379524Y-109182438D02*
X75474762Y-109134819D01*
X75474762Y-109134819D02*
X75665238Y-109134819D01*
X75665238Y-109134819D02*
X75760476Y-109182438D01*
X75760476Y-109182438D02*
X75808095Y-109230057D01*
X75808095Y-109230057D02*
X75855714Y-109325295D01*
X75855714Y-109325295D02*
X75855714Y-109372914D01*
X75855714Y-109372914D02*
X75808095Y-109468152D01*
X75808095Y-109468152D02*
X75760476Y-109515771D01*
X75760476Y-109515771D02*
X75665238Y-109563390D01*
X75665238Y-109563390D02*
X75474762Y-109563390D01*
X75474762Y-109563390D02*
X75379524Y-109611009D01*
X75379524Y-109611009D02*
X75331905Y-109658628D01*
X75331905Y-109658628D02*
X75284286Y-109753866D01*
X75284286Y-109753866D02*
X75284286Y-109944342D01*
X75284286Y-109944342D02*
X75331905Y-110039580D01*
X75331905Y-110039580D02*
X75379524Y-110087200D01*
X75379524Y-110087200D02*
X75474762Y-110134819D01*
X75474762Y-110134819D02*
X75665238Y-110134819D01*
X75665238Y-110134819D02*
X75760476Y-110087200D01*
X75760476Y-110087200D02*
X75808095Y-110039580D01*
X75808095Y-110039580D02*
X75855714Y-109944342D01*
X75855714Y-109944342D02*
X75855714Y-109753866D01*
X75855714Y-109753866D02*
X75808095Y-109658628D01*
X75808095Y-109658628D02*
X75760476Y-109611009D01*
X75760476Y-109611009D02*
X75665238Y-109563390D01*
X103687735Y-114782143D02*
X103723450Y-114817857D01*
X103723450Y-114817857D02*
X103759164Y-114925000D01*
X103759164Y-114925000D02*
X103759164Y-114996428D01*
X103759164Y-114996428D02*
X103723450Y-115103571D01*
X103723450Y-115103571D02*
X103652021Y-115175000D01*
X103652021Y-115175000D02*
X103580592Y-115210714D01*
X103580592Y-115210714D02*
X103437735Y-115246428D01*
X103437735Y-115246428D02*
X103330592Y-115246428D01*
X103330592Y-115246428D02*
X103187735Y-115210714D01*
X103187735Y-115210714D02*
X103116307Y-115175000D01*
X103116307Y-115175000D02*
X103044878Y-115103571D01*
X103044878Y-115103571D02*
X103009164Y-114996428D01*
X103009164Y-114996428D02*
X103009164Y-114925000D01*
X103009164Y-114925000D02*
X103044878Y-114817857D01*
X103044878Y-114817857D02*
X103080592Y-114782143D01*
X103759164Y-114067857D02*
X103759164Y-114496428D01*
X103759164Y-114282143D02*
X103009164Y-114282143D01*
X103009164Y-114282143D02*
X103116307Y-114353571D01*
X103116307Y-114353571D02*
X103187735Y-114425000D01*
X103187735Y-114425000D02*
X103223450Y-114496428D01*
X103009164Y-113425000D02*
X103009164Y-113567857D01*
X103009164Y-113567857D02*
X103044878Y-113639285D01*
X103044878Y-113639285D02*
X103080592Y-113675000D01*
X103080592Y-113675000D02*
X103187735Y-113746428D01*
X103187735Y-113746428D02*
X103330592Y-113782142D01*
X103330592Y-113782142D02*
X103616307Y-113782142D01*
X103616307Y-113782142D02*
X103687735Y-113746428D01*
X103687735Y-113746428D02*
X103723450Y-113710714D01*
X103723450Y-113710714D02*
X103759164Y-113639285D01*
X103759164Y-113639285D02*
X103759164Y-113496428D01*
X103759164Y-113496428D02*
X103723450Y-113425000D01*
X103723450Y-113425000D02*
X103687735Y-113389285D01*
X103687735Y-113389285D02*
X103616307Y-113353571D01*
X103616307Y-113353571D02*
X103437735Y-113353571D01*
X103437735Y-113353571D02*
X103366307Y-113389285D01*
X103366307Y-113389285D02*
X103330592Y-113425000D01*
X103330592Y-113425000D02*
X103294878Y-113496428D01*
X103294878Y-113496428D02*
X103294878Y-113639285D01*
X103294878Y-113639285D02*
X103330592Y-113710714D01*
X103330592Y-113710714D02*
X103366307Y-113746428D01*
X103366307Y-113746428D02*
X103437735Y-113782142D01*
X90454819Y-98761904D02*
X91264342Y-98761904D01*
X91264342Y-98761904D02*
X91359580Y-98714285D01*
X91359580Y-98714285D02*
X91407200Y-98666666D01*
X91407200Y-98666666D02*
X91454819Y-98571428D01*
X91454819Y-98571428D02*
X91454819Y-98380952D01*
X91454819Y-98380952D02*
X91407200Y-98285714D01*
X91407200Y-98285714D02*
X91359580Y-98238095D01*
X91359580Y-98238095D02*
X91264342Y-98190476D01*
X91264342Y-98190476D02*
X90454819Y-98190476D01*
X90454819Y-97238095D02*
X90454819Y-97714285D01*
X90454819Y-97714285D02*
X90931009Y-97761904D01*
X90931009Y-97761904D02*
X90883390Y-97714285D01*
X90883390Y-97714285D02*
X90835771Y-97619047D01*
X90835771Y-97619047D02*
X90835771Y-97380952D01*
X90835771Y-97380952D02*
X90883390Y-97285714D01*
X90883390Y-97285714D02*
X90931009Y-97238095D01*
X90931009Y-97238095D02*
X91026247Y-97190476D01*
X91026247Y-97190476D02*
X91264342Y-97190476D01*
X91264342Y-97190476D02*
X91359580Y-97238095D01*
X91359580Y-97238095D02*
X91407200Y-97285714D01*
X91407200Y-97285714D02*
X91454819Y-97380952D01*
X91454819Y-97380952D02*
X91454819Y-97619047D01*
X91454819Y-97619047D02*
X91407200Y-97714285D01*
X91407200Y-97714285D02*
X91359580Y-97761904D01*
X42447080Y-99986666D02*
X42494700Y-100034285D01*
X42494700Y-100034285D02*
X42542319Y-100177142D01*
X42542319Y-100177142D02*
X42542319Y-100272380D01*
X42542319Y-100272380D02*
X42494700Y-100415237D01*
X42494700Y-100415237D02*
X42399461Y-100510475D01*
X42399461Y-100510475D02*
X42304223Y-100558094D01*
X42304223Y-100558094D02*
X42113747Y-100605713D01*
X42113747Y-100605713D02*
X41970890Y-100605713D01*
X41970890Y-100605713D02*
X41780414Y-100558094D01*
X41780414Y-100558094D02*
X41685176Y-100510475D01*
X41685176Y-100510475D02*
X41589938Y-100415237D01*
X41589938Y-100415237D02*
X41542319Y-100272380D01*
X41542319Y-100272380D02*
X41542319Y-100177142D01*
X41542319Y-100177142D02*
X41589938Y-100034285D01*
X41589938Y-100034285D02*
X41637557Y-99986666D01*
X42542319Y-99034285D02*
X42542319Y-99605713D01*
X42542319Y-99319999D02*
X41542319Y-99319999D01*
X41542319Y-99319999D02*
X41685176Y-99415237D01*
X41685176Y-99415237D02*
X41780414Y-99510475D01*
X41780414Y-99510475D02*
X41828033Y-99605713D01*
X46233333Y-100704819D02*
X45900000Y-100228628D01*
X45661905Y-100704819D02*
X45661905Y-99704819D01*
X45661905Y-99704819D02*
X46042857Y-99704819D01*
X46042857Y-99704819D02*
X46138095Y-99752438D01*
X46138095Y-99752438D02*
X46185714Y-99800057D01*
X46185714Y-99800057D02*
X46233333Y-99895295D01*
X46233333Y-99895295D02*
X46233333Y-100038152D01*
X46233333Y-100038152D02*
X46185714Y-100133390D01*
X46185714Y-100133390D02*
X46138095Y-100181009D01*
X46138095Y-100181009D02*
X46042857Y-100228628D01*
X46042857Y-100228628D02*
X45661905Y-100228628D01*
X46614286Y-99800057D02*
X46661905Y-99752438D01*
X46661905Y-99752438D02*
X46757143Y-99704819D01*
X46757143Y-99704819D02*
X46995238Y-99704819D01*
X46995238Y-99704819D02*
X47090476Y-99752438D01*
X47090476Y-99752438D02*
X47138095Y-99800057D01*
X47138095Y-99800057D02*
X47185714Y-99895295D01*
X47185714Y-99895295D02*
X47185714Y-99990533D01*
X47185714Y-99990533D02*
X47138095Y-100133390D01*
X47138095Y-100133390D02*
X46566667Y-100704819D01*
X46566667Y-100704819D02*
X47185714Y-100704819D01*
X121637142Y-105839580D02*
X121589523Y-105887200D01*
X121589523Y-105887200D02*
X121446666Y-105934819D01*
X121446666Y-105934819D02*
X121351428Y-105934819D01*
X121351428Y-105934819D02*
X121208571Y-105887200D01*
X121208571Y-105887200D02*
X121113333Y-105791961D01*
X121113333Y-105791961D02*
X121065714Y-105696723D01*
X121065714Y-105696723D02*
X121018095Y-105506247D01*
X121018095Y-105506247D02*
X121018095Y-105363390D01*
X121018095Y-105363390D02*
X121065714Y-105172914D01*
X121065714Y-105172914D02*
X121113333Y-105077676D01*
X121113333Y-105077676D02*
X121208571Y-104982438D01*
X121208571Y-104982438D02*
X121351428Y-104934819D01*
X121351428Y-104934819D02*
X121446666Y-104934819D01*
X121446666Y-104934819D02*
X121589523Y-104982438D01*
X121589523Y-104982438D02*
X121637142Y-105030057D01*
X122018095Y-105030057D02*
X122065714Y-104982438D01*
X122065714Y-104982438D02*
X122160952Y-104934819D01*
X122160952Y-104934819D02*
X122399047Y-104934819D01*
X122399047Y-104934819D02*
X122494285Y-104982438D01*
X122494285Y-104982438D02*
X122541904Y-105030057D01*
X122541904Y-105030057D02*
X122589523Y-105125295D01*
X122589523Y-105125295D02*
X122589523Y-105220533D01*
X122589523Y-105220533D02*
X122541904Y-105363390D01*
X122541904Y-105363390D02*
X121970476Y-105934819D01*
X121970476Y-105934819D02*
X122589523Y-105934819D01*
X122970476Y-105030057D02*
X123018095Y-104982438D01*
X123018095Y-104982438D02*
X123113333Y-104934819D01*
X123113333Y-104934819D02*
X123351428Y-104934819D01*
X123351428Y-104934819D02*
X123446666Y-104982438D01*
X123446666Y-104982438D02*
X123494285Y-105030057D01*
X123494285Y-105030057D02*
X123541904Y-105125295D01*
X123541904Y-105125295D02*
X123541904Y-105220533D01*
X123541904Y-105220533D02*
X123494285Y-105363390D01*
X123494285Y-105363390D02*
X122922857Y-105934819D01*
X122922857Y-105934819D02*
X123541904Y-105934819D01*
X113947856Y-114639580D02*
X113912142Y-114687200D01*
X113912142Y-114687200D02*
X113804999Y-114734819D01*
X113804999Y-114734819D02*
X113733571Y-114734819D01*
X113733571Y-114734819D02*
X113626428Y-114687200D01*
X113626428Y-114687200D02*
X113554999Y-114591961D01*
X113554999Y-114591961D02*
X113519285Y-114496723D01*
X113519285Y-114496723D02*
X113483571Y-114306247D01*
X113483571Y-114306247D02*
X113483571Y-114163390D01*
X113483571Y-114163390D02*
X113519285Y-113972914D01*
X113519285Y-113972914D02*
X113554999Y-113877676D01*
X113554999Y-113877676D02*
X113626428Y-113782438D01*
X113626428Y-113782438D02*
X113733571Y-113734819D01*
X113733571Y-113734819D02*
X113804999Y-113734819D01*
X113804999Y-113734819D02*
X113912142Y-113782438D01*
X113912142Y-113782438D02*
X113947856Y-113830057D01*
X114662142Y-114734819D02*
X114233571Y-114734819D01*
X114447856Y-114734819D02*
X114447856Y-113734819D01*
X114447856Y-113734819D02*
X114376428Y-113877676D01*
X114376428Y-113877676D02*
X114304999Y-113972914D01*
X114304999Y-113972914D02*
X114233571Y-114020533D01*
X115090714Y-114163390D02*
X115019285Y-114115771D01*
X115019285Y-114115771D02*
X114983571Y-114068152D01*
X114983571Y-114068152D02*
X114947857Y-113972914D01*
X114947857Y-113972914D02*
X114947857Y-113925295D01*
X114947857Y-113925295D02*
X114983571Y-113830057D01*
X114983571Y-113830057D02*
X115019285Y-113782438D01*
X115019285Y-113782438D02*
X115090714Y-113734819D01*
X115090714Y-113734819D02*
X115233571Y-113734819D01*
X115233571Y-113734819D02*
X115305000Y-113782438D01*
X115305000Y-113782438D02*
X115340714Y-113830057D01*
X115340714Y-113830057D02*
X115376428Y-113925295D01*
X115376428Y-113925295D02*
X115376428Y-113972914D01*
X115376428Y-113972914D02*
X115340714Y-114068152D01*
X115340714Y-114068152D02*
X115305000Y-114115771D01*
X115305000Y-114115771D02*
X115233571Y-114163390D01*
X115233571Y-114163390D02*
X115090714Y-114163390D01*
X115090714Y-114163390D02*
X115019285Y-114211009D01*
X115019285Y-114211009D02*
X114983571Y-114258628D01*
X114983571Y-114258628D02*
X114947857Y-114353866D01*
X114947857Y-114353866D02*
X114947857Y-114544342D01*
X114947857Y-114544342D02*
X114983571Y-114639580D01*
X114983571Y-114639580D02*
X115019285Y-114687200D01*
X115019285Y-114687200D02*
X115090714Y-114734819D01*
X115090714Y-114734819D02*
X115233571Y-114734819D01*
X115233571Y-114734819D02*
X115305000Y-114687200D01*
X115305000Y-114687200D02*
X115340714Y-114639580D01*
X115340714Y-114639580D02*
X115376428Y-114544342D01*
X115376428Y-114544342D02*
X115376428Y-114353866D01*
X115376428Y-114353866D02*
X115340714Y-114258628D01*
X115340714Y-114258628D02*
X115305000Y-114211009D01*
X115305000Y-114211009D02*
X115233571Y-114163390D01*
X115624819Y-109662857D02*
X115148628Y-109996190D01*
X115624819Y-110234285D02*
X114624819Y-110234285D01*
X114624819Y-110234285D02*
X114624819Y-109853333D01*
X114624819Y-109853333D02*
X114672438Y-109758095D01*
X114672438Y-109758095D02*
X114720057Y-109710476D01*
X114720057Y-109710476D02*
X114815295Y-109662857D01*
X114815295Y-109662857D02*
X114958152Y-109662857D01*
X114958152Y-109662857D02*
X115053390Y-109710476D01*
X115053390Y-109710476D02*
X115101009Y-109758095D01*
X115101009Y-109758095D02*
X115148628Y-109853333D01*
X115148628Y-109853333D02*
X115148628Y-110234285D01*
X115624819Y-108710476D02*
X115624819Y-109281904D01*
X115624819Y-108996190D02*
X114624819Y-108996190D01*
X114624819Y-108996190D02*
X114767676Y-109091428D01*
X114767676Y-109091428D02*
X114862914Y-109186666D01*
X114862914Y-109186666D02*
X114910533Y-109281904D01*
X114624819Y-108377142D02*
X114624819Y-107758095D01*
X114624819Y-107758095D02*
X115005771Y-108091428D01*
X115005771Y-108091428D02*
X115005771Y-107948571D01*
X115005771Y-107948571D02*
X115053390Y-107853333D01*
X115053390Y-107853333D02*
X115101009Y-107805714D01*
X115101009Y-107805714D02*
X115196247Y-107758095D01*
X115196247Y-107758095D02*
X115434342Y-107758095D01*
X115434342Y-107758095D02*
X115529580Y-107805714D01*
X115529580Y-107805714D02*
X115577200Y-107853333D01*
X115577200Y-107853333D02*
X115624819Y-107948571D01*
X115624819Y-107948571D02*
X115624819Y-108234285D01*
X115624819Y-108234285D02*
X115577200Y-108329523D01*
X115577200Y-108329523D02*
X115529580Y-108377142D01*
X49329580Y-98466666D02*
X49377200Y-98514285D01*
X49377200Y-98514285D02*
X49424819Y-98657142D01*
X49424819Y-98657142D02*
X49424819Y-98752380D01*
X49424819Y-98752380D02*
X49377200Y-98895237D01*
X49377200Y-98895237D02*
X49281961Y-98990475D01*
X49281961Y-98990475D02*
X49186723Y-99038094D01*
X49186723Y-99038094D02*
X48996247Y-99085713D01*
X48996247Y-99085713D02*
X48853390Y-99085713D01*
X48853390Y-99085713D02*
X48662914Y-99038094D01*
X48662914Y-99038094D02*
X48567676Y-98990475D01*
X48567676Y-98990475D02*
X48472438Y-98895237D01*
X48472438Y-98895237D02*
X48424819Y-98752380D01*
X48424819Y-98752380D02*
X48424819Y-98657142D01*
X48424819Y-98657142D02*
X48472438Y-98514285D01*
X48472438Y-98514285D02*
X48520057Y-98466666D01*
X48520057Y-98085713D02*
X48472438Y-98038094D01*
X48472438Y-98038094D02*
X48424819Y-97942856D01*
X48424819Y-97942856D02*
X48424819Y-97704761D01*
X48424819Y-97704761D02*
X48472438Y-97609523D01*
X48472438Y-97609523D02*
X48520057Y-97561904D01*
X48520057Y-97561904D02*
X48615295Y-97514285D01*
X48615295Y-97514285D02*
X48710533Y-97514285D01*
X48710533Y-97514285D02*
X48853390Y-97561904D01*
X48853390Y-97561904D02*
X49424819Y-98133332D01*
X49424819Y-98133332D02*
X49424819Y-97514285D01*
D12*
X80667190Y-88021428D02*
X80691000Y-88045237D01*
X80691000Y-88045237D02*
X80714809Y-88116666D01*
X80714809Y-88116666D02*
X80714809Y-88164285D01*
X80714809Y-88164285D02*
X80691000Y-88235713D01*
X80691000Y-88235713D02*
X80643380Y-88283332D01*
X80643380Y-88283332D02*
X80595761Y-88307142D01*
X80595761Y-88307142D02*
X80500523Y-88330951D01*
X80500523Y-88330951D02*
X80429095Y-88330951D01*
X80429095Y-88330951D02*
X80333857Y-88307142D01*
X80333857Y-88307142D02*
X80286238Y-88283332D01*
X80286238Y-88283332D02*
X80238619Y-88235713D01*
X80238619Y-88235713D02*
X80214809Y-88164285D01*
X80214809Y-88164285D02*
X80214809Y-88116666D01*
X80214809Y-88116666D02*
X80238619Y-88045237D01*
X80238619Y-88045237D02*
X80262428Y-88021428D01*
X80714809Y-87545237D02*
X80714809Y-87830951D01*
X80714809Y-87688094D02*
X80214809Y-87688094D01*
X80214809Y-87688094D02*
X80286238Y-87735713D01*
X80286238Y-87735713D02*
X80333857Y-87783332D01*
X80333857Y-87783332D02*
X80357666Y-87830951D01*
X80714809Y-87069047D02*
X80714809Y-87354761D01*
X80714809Y-87211904D02*
X80214809Y-87211904D01*
X80214809Y-87211904D02*
X80286238Y-87259523D01*
X80286238Y-87259523D02*
X80333857Y-87307142D01*
X80333857Y-87307142D02*
X80357666Y-87354761D01*
D11*
X121277856Y-96237735D02*
X121242142Y-96273450D01*
X121242142Y-96273450D02*
X121134999Y-96309164D01*
X121134999Y-96309164D02*
X121063571Y-96309164D01*
X121063571Y-96309164D02*
X120956428Y-96273450D01*
X120956428Y-96273450D02*
X120884999Y-96202021D01*
X120884999Y-96202021D02*
X120849285Y-96130592D01*
X120849285Y-96130592D02*
X120813571Y-95987735D01*
X120813571Y-95987735D02*
X120813571Y-95880592D01*
X120813571Y-95880592D02*
X120849285Y-95737735D01*
X120849285Y-95737735D02*
X120884999Y-95666307D01*
X120884999Y-95666307D02*
X120956428Y-95594878D01*
X120956428Y-95594878D02*
X121063571Y-95559164D01*
X121063571Y-95559164D02*
X121134999Y-95559164D01*
X121134999Y-95559164D02*
X121242142Y-95594878D01*
X121242142Y-95594878D02*
X121277856Y-95630592D01*
X121563571Y-95630592D02*
X121599285Y-95594878D01*
X121599285Y-95594878D02*
X121670714Y-95559164D01*
X121670714Y-95559164D02*
X121849285Y-95559164D01*
X121849285Y-95559164D02*
X121920714Y-95594878D01*
X121920714Y-95594878D02*
X121956428Y-95630592D01*
X121956428Y-95630592D02*
X121992142Y-95702021D01*
X121992142Y-95702021D02*
X121992142Y-95773450D01*
X121992142Y-95773450D02*
X121956428Y-95880592D01*
X121956428Y-95880592D02*
X121527856Y-96309164D01*
X121527856Y-96309164D02*
X121992142Y-96309164D01*
X122242142Y-95559164D02*
X122742142Y-95559164D01*
X122742142Y-95559164D02*
X122420714Y-96309164D01*
X43943333Y-99214819D02*
X43610000Y-98738628D01*
X43371905Y-99214819D02*
X43371905Y-98214819D01*
X43371905Y-98214819D02*
X43752857Y-98214819D01*
X43752857Y-98214819D02*
X43848095Y-98262438D01*
X43848095Y-98262438D02*
X43895714Y-98310057D01*
X43895714Y-98310057D02*
X43943333Y-98405295D01*
X43943333Y-98405295D02*
X43943333Y-98548152D01*
X43943333Y-98548152D02*
X43895714Y-98643390D01*
X43895714Y-98643390D02*
X43848095Y-98691009D01*
X43848095Y-98691009D02*
X43752857Y-98738628D01*
X43752857Y-98738628D02*
X43371905Y-98738628D01*
X44276667Y-98214819D02*
X44895714Y-98214819D01*
X44895714Y-98214819D02*
X44562381Y-98595771D01*
X44562381Y-98595771D02*
X44705238Y-98595771D01*
X44705238Y-98595771D02*
X44800476Y-98643390D01*
X44800476Y-98643390D02*
X44848095Y-98691009D01*
X44848095Y-98691009D02*
X44895714Y-98786247D01*
X44895714Y-98786247D02*
X44895714Y-99024342D01*
X44895714Y-99024342D02*
X44848095Y-99119580D01*
X44848095Y-99119580D02*
X44800476Y-99167200D01*
X44800476Y-99167200D02*
X44705238Y-99214819D01*
X44705238Y-99214819D02*
X44419524Y-99214819D01*
X44419524Y-99214819D02*
X44324286Y-99167200D01*
X44324286Y-99167200D02*
X44276667Y-99119580D01*
D14*
%TO.C,R10*%
X74187500Y-90037742D02*
X74187500Y-90512258D01*
X75232500Y-90037742D02*
X75232500Y-90512258D01*
%TO.C,C26*%
X123590000Y-97699420D02*
X123590000Y-97980580D01*
X124610000Y-97699420D02*
X124610000Y-97980580D01*
%TO.C,U8*%
X107525000Y-97640000D02*
X107760000Y-97640000D01*
X107525000Y-101500000D02*
X107525000Y-97640000D01*
X107525000Y-101500000D02*
X107525000Y-105360000D01*
X107525000Y-105360000D02*
X107760000Y-105360000D01*
X120545000Y-97640000D02*
X120310000Y-97640000D01*
X120545000Y-101500000D02*
X120545000Y-97640000D01*
X120545000Y-101500000D02*
X120545000Y-105360000D01*
X120545000Y-105360000D02*
X120310000Y-105360000D01*
X120780000Y-97127500D02*
X120310000Y-96787500D01*
X120780000Y-96447500D01*
X120780000Y-97127500D01*
G36*
X120780000Y-97127500D02*
G01*
X120310000Y-96787500D01*
X120780000Y-96447500D01*
X120780000Y-97127500D01*
G37*
%TO.C,C10*%
X76220000Y-108379420D02*
X76220000Y-108660580D01*
X77240000Y-108379420D02*
X77240000Y-108660580D01*
%TO.C,R5*%
X59407500Y-101817258D02*
X59407500Y-101342742D01*
X60452500Y-101817258D02*
X60452500Y-101342742D01*
%TO.C,C4*%
X60160000Y-98420580D02*
X60160000Y-98139420D01*
X61180000Y-98420580D02*
X61180000Y-98139420D01*
%TO.C,C5*%
X70530000Y-102530580D02*
X70530000Y-102249420D01*
X71550000Y-102530580D02*
X71550000Y-102249420D01*
%TO.C,R8*%
X109537500Y-92022742D02*
X109537500Y-92497258D01*
X110582500Y-92022742D02*
X110582500Y-92497258D01*
%TO.C,R1*%
X39092742Y-100777500D02*
X39567258Y-100777500D01*
X39092742Y-101822500D02*
X39567258Y-101822500D01*
%TO.C,C19*%
X75880000Y-90039420D02*
X75880000Y-90320580D01*
X76900000Y-90039420D02*
X76900000Y-90320580D01*
%TO.C,C3*%
X58450000Y-98410580D02*
X58450000Y-98129420D01*
X59470000Y-98410580D02*
X59470000Y-98129420D01*
%TO.C,C21*%
X79690000Y-90009420D02*
X79690000Y-90290580D01*
X80710000Y-90009420D02*
X80710000Y-90290580D01*
%TO.C,R11*%
X123802500Y-103812258D02*
X123802500Y-103337742D01*
X124847500Y-103812258D02*
X124847500Y-103337742D01*
%TO.C,C6*%
X68885000Y-102520580D02*
X68885000Y-102239420D01*
X69905000Y-102520580D02*
X69905000Y-102239420D01*
%TO.C,C13*%
X85815000Y-112801248D02*
X85815000Y-113323752D01*
X87285000Y-112801248D02*
X87285000Y-113323752D01*
%TO.C,R6*%
X108007258Y-90817500D02*
X107532742Y-90817500D01*
X108007258Y-91862500D02*
X107532742Y-91862500D01*
%TO.C,J2*%
X78260000Y-111900000D02*
X78260000Y-111840000D01*
X80920000Y-111840000D02*
X78260000Y-111840000D01*
X80920000Y-111900000D02*
X78260000Y-111900000D01*
X80920000Y-111900000D02*
X80920000Y-111840000D01*
X80920000Y-113170000D02*
X80920000Y-114500000D01*
X80920000Y-114500000D02*
X79590000Y-114500000D01*
%TO.C,R9*%
X108807258Y-86967500D02*
X108332742Y-86967500D01*
X108807258Y-88012500D02*
X108332742Y-88012500D01*
%TO.C,C20*%
X77710000Y-90049420D02*
X77710000Y-90330580D01*
X78730000Y-90049420D02*
X78730000Y-90330580D01*
%TO.C,R7*%
X110627500Y-88032742D02*
X110627500Y-88507258D01*
X111672500Y-88032742D02*
X111672500Y-88507258D01*
%TO.C,Q3*%
X100980000Y-105940000D02*
X100330000Y-105940000D01*
X100980000Y-105940000D02*
X101630000Y-105940000D01*
X100980000Y-109060000D02*
X100330000Y-109060000D01*
X100980000Y-109060000D02*
X101630000Y-109060000D01*
X99817500Y-105990000D02*
X99577500Y-105660000D01*
X100057500Y-105660000D01*
X99817500Y-105990000D01*
G36*
X99817500Y-105990000D02*
G01*
X99577500Y-105660000D01*
X100057500Y-105660000D01*
X99817500Y-105990000D01*
G37*
%TO.C,U3*%
X74350000Y-99990000D02*
X78110000Y-99990000D01*
X74350000Y-106810000D02*
X78110000Y-106810000D01*
X78110000Y-99990000D02*
X78110000Y-101250000D01*
X78110000Y-106810000D02*
X78110000Y-105550000D01*
X73070000Y-100090000D02*
X72830000Y-99760000D01*
X73310000Y-99760000D01*
X73070000Y-100090000D01*
G36*
X73070000Y-100090000D02*
G01*
X72830000Y-99760000D01*
X73310000Y-99760000D01*
X73070000Y-100090000D01*
G37*
%TO.C,U7*%
X112340000Y-92460000D02*
X137080000Y-92460000D01*
X112340000Y-111200000D02*
X112340000Y-92460000D01*
D11*
X117121014Y-101533463D02*
X118391014Y-96453463D01*
X117121014Y-102803463D02*
X115851014Y-107883463D01*
X120931014Y-107883463D02*
X116486014Y-107883463D01*
X122201014Y-102168463D02*
X117756014Y-102168463D01*
X122836014Y-102803463D02*
X121566014Y-107883463D01*
X123471014Y-96453463D02*
X119026014Y-96453463D01*
X124106014Y-96453463D02*
X122836014Y-101533463D01*
X127281014Y-101533463D02*
X128551014Y-96453463D01*
X127281014Y-102803463D02*
X126011014Y-107883463D01*
X131091014Y-107883463D02*
X126646014Y-107883463D01*
X132107014Y-102168463D02*
X128043014Y-102168463D01*
X132234014Y-102168463D02*
X127916014Y-102168463D01*
X132996014Y-101533463D02*
X134266014Y-96453463D01*
X132996014Y-102803463D02*
X131726014Y-107883463D01*
X133631014Y-96453463D02*
X129186014Y-96453463D01*
D14*
X137080000Y-92460000D02*
X137080000Y-111200000D01*
X137080000Y-111200000D02*
X112340000Y-111200000D01*
D11*
X116486014Y-97088463D02*
G75*
G02*
X115216014Y-97088463I-635000J0D01*
G01*
X115216014Y-97088463D02*
G75*
G02*
X116486014Y-97088463I635000J0D01*
G01*
X126646014Y-97088463D02*
G75*
G02*
X125376014Y-97088463I-635000J0D01*
G01*
X125376014Y-97088463D02*
G75*
G02*
X126646014Y-97088463I635000J0D01*
G01*
D14*
%TO.C,U2*%
X54090000Y-98970000D02*
X52140000Y-98970000D01*
X54090000Y-98970000D02*
X56040000Y-98970000D01*
X54090000Y-104090000D02*
X52140000Y-104090000D01*
X54090000Y-104090000D02*
X56040000Y-104090000D01*
X51390000Y-99065000D02*
X51150000Y-98735000D01*
X51630000Y-98735000D01*
X51390000Y-99065000D01*
G36*
X51390000Y-99065000D02*
G01*
X51150000Y-98735000D01*
X51630000Y-98735000D01*
X51390000Y-99065000D01*
G37*
%TO.C,R12*%
X122137742Y-106552500D02*
X122612258Y-106552500D01*
X122137742Y-107597500D02*
X122612258Y-107597500D01*
%TO.C,C24*%
X115060000Y-108869420D02*
X115060000Y-109150580D01*
X116080000Y-108869420D02*
X116080000Y-109150580D01*
%TO.C,J1*%
X112860000Y-89470000D02*
X112860000Y-88140000D01*
X114190000Y-89470000D02*
X112860000Y-89470000D01*
X115460000Y-86810000D02*
X125680000Y-86810000D01*
X115460000Y-89470000D02*
X115460000Y-86810000D01*
X115460000Y-89470000D02*
X125680000Y-89470000D01*
X125680000Y-89470000D02*
X125680000Y-86810000D01*
%TO.C,C7*%
X67240000Y-102490580D02*
X67240000Y-102209420D01*
X68260000Y-102490580D02*
X68260000Y-102209420D01*
%TO.C,C15*%
X101130000Y-112340580D02*
X101130000Y-112059420D01*
X102150000Y-112340580D02*
X102150000Y-112059420D01*
%TO.C,Q2*%
X104880000Y-86880000D02*
X104230000Y-86880000D01*
X104880000Y-86880000D02*
X105530000Y-86880000D01*
X104880000Y-90000000D02*
X104230000Y-90000000D01*
X104880000Y-90000000D02*
X105530000Y-90000000D01*
X106282500Y-90280000D02*
X105802500Y-90280000D01*
X106042500Y-89950000D01*
X106282500Y-90280000D01*
G36*
X106282500Y-90280000D02*
G01*
X105802500Y-90280000D01*
X106042500Y-89950000D01*
X106282500Y-90280000D01*
G37*
%TO.C,C17*%
X115870000Y-112450580D02*
X115870000Y-112169420D01*
X116890000Y-112450580D02*
X116890000Y-112169420D01*
%TO.C,C12*%
X88040000Y-112921920D02*
X88040000Y-113203080D01*
X89060000Y-112921920D02*
X89060000Y-113203080D01*
%TO.C,J3*%
X82180000Y-111920000D02*
X82180000Y-111860000D01*
X84840000Y-111860000D02*
X82180000Y-111860000D01*
X84840000Y-111920000D02*
X82180000Y-111920000D01*
X84840000Y-111920000D02*
X84840000Y-111860000D01*
X84840000Y-113190000D02*
X84840000Y-114520000D01*
X84840000Y-114520000D02*
X83510000Y-114520000D01*
%TO.C,C25*%
X126070000Y-97699420D02*
X126070000Y-97980580D01*
X127090000Y-97699420D02*
X127090000Y-97980580D01*
%TO.C,SW1*%
X72800000Y-93130000D02*
X79260000Y-93130000D01*
X72800000Y-93160000D02*
X72800000Y-93130000D01*
X72800000Y-95060000D02*
X72800000Y-97660000D01*
X72800000Y-99590000D02*
X72800000Y-99560000D01*
X72800000Y-99590000D02*
X79260000Y-99590000D01*
X79260000Y-93130000D02*
X79260000Y-93160000D01*
X79260000Y-95060000D02*
X79260000Y-97660000D01*
X79260000Y-99590000D02*
X79260000Y-99560000D01*
%TO.C,U1*%
X32650000Y-98470000D02*
X32650000Y-102070000D01*
X32661522Y-98431522D02*
G75*
G02*
X37100001Y-100270000I1838478J-1838478D01*
G01*
X37100000Y-100270000D02*
G75*
G02*
X32661522Y-102108478I-2600000J0D01*
G01*
%TO.C,U4*%
X91930000Y-106390000D02*
X95690000Y-106390000D01*
X91930000Y-113210000D02*
X95690000Y-113210000D01*
X95690000Y-106390000D02*
X95690000Y-107650000D01*
X95690000Y-113210000D02*
X95690000Y-111950000D01*
X90650000Y-106490000D02*
X90410000Y-106160000D01*
X90890000Y-106160000D01*
X90650000Y-106490000D01*
G36*
X90650000Y-106490000D02*
G01*
X90410000Y-106160000D01*
X90890000Y-106160000D01*
X90650000Y-106490000D01*
G37*
%TO.C,Q1*%
X103670000Y-91340000D02*
X103020000Y-91340000D01*
X103670000Y-91340000D02*
X104320000Y-91340000D01*
X103670000Y-94460000D02*
X103020000Y-94460000D01*
X103670000Y-94460000D02*
X104320000Y-94460000D01*
X105072500Y-94740000D02*
X104592500Y-94740000D01*
X104832500Y-94410000D01*
X105072500Y-94740000D01*
G36*
X105072500Y-94740000D02*
G01*
X104592500Y-94740000D01*
X104832500Y-94410000D01*
X105072500Y-94740000D01*
G37*
%TO.C,C14*%
X99580000Y-112340580D02*
X99580000Y-112059420D01*
X100600000Y-112340580D02*
X100600000Y-112059420D01*
%TO.C,R4*%
X53502742Y-97537500D02*
X53977258Y-97537500D01*
X53502742Y-98582500D02*
X53977258Y-98582500D01*
%TO.C,U6*%
X106680000Y-107647500D02*
X110440000Y-107647500D01*
X106680000Y-114467500D02*
X110440000Y-114467500D01*
X110440000Y-107647500D02*
X110440000Y-108907500D01*
X110440000Y-114467500D02*
X110440000Y-113207500D01*
X105400000Y-107747500D02*
X105160000Y-107417500D01*
X105640000Y-107417500D01*
X105400000Y-107747500D01*
G36*
X105400000Y-107747500D02*
G01*
X105160000Y-107417500D01*
X105640000Y-107417500D01*
X105400000Y-107747500D01*
G37*
%TO.C,C23*%
X117280000Y-108929420D02*
X117280000Y-109210580D01*
X118300000Y-108929420D02*
X118300000Y-109210580D01*
%TO.C,C9*%
X76910000Y-87280580D02*
X76910000Y-86999420D01*
X77930000Y-87280580D02*
X77930000Y-86999420D01*
%TO.C,C8*%
X74321252Y-107285000D02*
X73798748Y-107285000D01*
X74321252Y-108755000D02*
X73798748Y-108755000D01*
%TO.C,C16*%
X102810000Y-112340580D02*
X102810000Y-112059420D01*
X103830000Y-112340580D02*
X103830000Y-112059420D01*
%TO.C,U5*%
X81770000Y-79030000D02*
X81770000Y-85190000D01*
X81770000Y-79030000D02*
X100010000Y-79030000D01*
X81770000Y-103990000D02*
X81770000Y-104770000D01*
X81770000Y-104770000D02*
X82770000Y-104770000D01*
X100010000Y-79030000D02*
X100010000Y-85445000D01*
X100010000Y-103990000D02*
X100010000Y-104770000D01*
X100010000Y-104770000D02*
X99010000Y-104770000D01*
X81765000Y-85915000D02*
X81265000Y-85915000D01*
X81765000Y-85415000D01*
X81765000Y-85915000D01*
G36*
X81765000Y-85915000D02*
G01*
X81265000Y-85915000D01*
X81765000Y-85415000D01*
X81765000Y-85915000D01*
G37*
%TO.C,C1*%
X41295000Y-102138748D02*
X41295000Y-102661252D01*
X42765000Y-102138748D02*
X42765000Y-102661252D01*
%TO.C,R2*%
X46162742Y-101157500D02*
X46637258Y-101157500D01*
X46162742Y-102202500D02*
X46637258Y-102202500D01*
%TO.C,C22*%
X121690000Y-103740580D02*
X121690000Y-103459420D01*
X122710000Y-103740580D02*
X122710000Y-103459420D01*
%TO.C,C18*%
X114240000Y-112460580D02*
X114240000Y-112179420D01*
X115260000Y-112460580D02*
X115260000Y-112179420D01*
%TO.C,R13*%
X113217500Y-108782742D02*
X113217500Y-109257258D01*
X114262500Y-108782742D02*
X114262500Y-109257258D01*
%TO.C,C2*%
X48440000Y-100619420D02*
X48440000Y-100900580D01*
X49460000Y-100619420D02*
X49460000Y-100900580D01*
%TO.C,C11*%
X78910000Y-87280580D02*
X78910000Y-86999420D01*
X79930000Y-87280580D02*
X79930000Y-86999420D01*
%TO.C,C27*%
X121140000Y-97699420D02*
X121140000Y-97980580D01*
X122160000Y-97699420D02*
X122160000Y-97980580D01*
D15*
%TO.C,G\u002A\u002A\u002A*%
G36*
X65825149Y-99770995D02*
G01*
X65554121Y-99933076D01*
X65352942Y-100050482D01*
X65208433Y-100128943D01*
X65107414Y-100174191D01*
X65036705Y-100191956D01*
X64983127Y-100187969D01*
X64933499Y-100167962D01*
X64923704Y-100162964D01*
X64836178Y-100114279D01*
X64683666Y-100025979D01*
X64484306Y-99908701D01*
X64256236Y-99773078D01*
X64137482Y-99701940D01*
X63484816Y-99309980D01*
X65038927Y-99309971D01*
X66593038Y-99309962D01*
X65825149Y-99770995D01*
G37*
G36*
X65435044Y-97952022D02*
G01*
X65568274Y-97988620D01*
X65722125Y-98045287D01*
X65869233Y-98109879D01*
X65982236Y-98170250D01*
X66033772Y-98214255D01*
X66034530Y-98218111D01*
X65988343Y-98225031D01*
X65859300Y-98231056D01*
X65661674Y-98235865D01*
X65409738Y-98239142D01*
X65117766Y-98240568D01*
X65026786Y-98240589D01*
X64019042Y-98239770D01*
X64165741Y-98145741D01*
X64444953Y-98015433D01*
X64777587Y-97938158D01*
X65132812Y-97918624D01*
X65435044Y-97952022D01*
G37*
G36*
X66466872Y-98782880D02*
G01*
X66503144Y-98891508D01*
X66520033Y-98951106D01*
X66520189Y-98952860D01*
X66473586Y-98957094D01*
X66341624Y-98960945D01*
X66136077Y-98964276D01*
X65868718Y-98966952D01*
X65551321Y-98968839D01*
X65195659Y-98969801D01*
X65038927Y-98969896D01*
X64670793Y-98969360D01*
X64336017Y-98967843D01*
X64046372Y-98965479D01*
X63813632Y-98962404D01*
X63649570Y-98958753D01*
X63565960Y-98954663D01*
X63557665Y-98952860D01*
X63571993Y-98900172D01*
X63606895Y-98794653D01*
X63610982Y-98782880D01*
X63664299Y-98629935D01*
X65038927Y-98629935D01*
X66413555Y-98629935D01*
X66466872Y-98782880D01*
G37*
G36*
X65124161Y-100777634D02*
G01*
X65154724Y-100829049D01*
X65160342Y-100933440D01*
X65168064Y-101049120D01*
X65207604Y-101097164D01*
X65303524Y-101106797D01*
X65306040Y-101106799D01*
X65410166Y-101119866D01*
X65448259Y-101175415D01*
X65451738Y-101228214D01*
X65436057Y-101314986D01*
X65369398Y-101346729D01*
X65306040Y-101349629D01*
X65202842Y-101361663D01*
X65164806Y-101418428D01*
X65160342Y-101495326D01*
X65147275Y-101599453D01*
X65091726Y-101637545D01*
X65038927Y-101641024D01*
X64952155Y-101625343D01*
X64920412Y-101558685D01*
X64917512Y-101495326D01*
X64905478Y-101392129D01*
X64848713Y-101354092D01*
X64771814Y-101349629D01*
X64667688Y-101336561D01*
X64629596Y-101281012D01*
X64626117Y-101228214D01*
X64642263Y-101140783D01*
X64710334Y-101109354D01*
X64768737Y-101106799D01*
X64868902Y-101094083D01*
X64912869Y-101035948D01*
X64926577Y-100948959D01*
X64955609Y-100830989D01*
X65024667Y-100780817D01*
X65051069Y-100775601D01*
X65124161Y-100777634D01*
G37*
G36*
X67296057Y-99980031D02*
G01*
X67292272Y-100341839D01*
X67279878Y-100627353D01*
X67255423Y-100857274D01*
X67215450Y-101052305D01*
X67156506Y-101233146D01*
X67075135Y-101420498D01*
X67045428Y-101481896D01*
X66800311Y-101875130D01*
X66489842Y-102200812D01*
X66123788Y-102452837D01*
X65711913Y-102625103D01*
X65263984Y-102711507D01*
X65063210Y-102720740D01*
X64603730Y-102677425D01*
X64176633Y-102543802D01*
X63779251Y-102318659D01*
X63408914Y-102000782D01*
X63355766Y-101945280D01*
X63169969Y-101726246D01*
X63026776Y-101504513D01*
X62921380Y-101263533D01*
X62848975Y-100986758D01*
X62804752Y-100657640D01*
X62783905Y-100259633D01*
X62780610Y-99965499D01*
X62785420Y-99578586D01*
X62802441Y-99266912D01*
X62835557Y-99008943D01*
X62850448Y-98945613D01*
X63241987Y-98945613D01*
X63241987Y-99965499D01*
X63241987Y-100985384D01*
X63406647Y-101289023D01*
X63647234Y-101639407D01*
X63955248Y-101923458D01*
X64325998Y-102142093D01*
X64507156Y-102221229D01*
X64660088Y-102267553D01*
X64825518Y-102289554D01*
X65044167Y-102295721D01*
X65063210Y-102295781D01*
X65292493Y-102290853D01*
X65463360Y-102270123D01*
X65614145Y-102226414D01*
X65753724Y-102166505D01*
X66092953Y-101958405D01*
X66395236Y-101677396D01*
X66636178Y-101346891D01*
X66668844Y-101288290D01*
X66730535Y-101168902D01*
X66775036Y-101065530D01*
X66806114Y-100957850D01*
X66827536Y-100825538D01*
X66843069Y-100648270D01*
X66856481Y-100405721D01*
X66864524Y-100232611D01*
X66874237Y-99928106D01*
X66875919Y-99640391D01*
X66869854Y-99394422D01*
X66856330Y-99215154D01*
X66852588Y-99188443D01*
X66740831Y-98768261D01*
X66549980Y-98399041D01*
X66286330Y-98088276D01*
X65956174Y-97843458D01*
X65583544Y-97677771D01*
X65366354Y-97635192D01*
X65093240Y-97621655D01*
X64800342Y-97635235D01*
X64523801Y-97674006D01*
X64299757Y-97736044D01*
X64272034Y-97747627D01*
X64000268Y-97909965D01*
X63739267Y-98140036D01*
X63516769Y-98409935D01*
X63381573Y-98643418D01*
X63241987Y-98945613D01*
X62850448Y-98945613D01*
X62888652Y-98783141D01*
X62965612Y-98567973D01*
X63070321Y-98341901D01*
X63075245Y-98332121D01*
X63315164Y-97961397D01*
X63625862Y-97655010D01*
X64001647Y-97417411D01*
X64436824Y-97253050D01*
X64465523Y-97245400D01*
X64770012Y-97193151D01*
X65105255Y-97179261D01*
X65425616Y-97203985D01*
X65597436Y-97239007D01*
X65971519Y-97377388D01*
X66312721Y-97585014D01*
X66621009Y-97852505D01*
X66831871Y-98080045D01*
X66996023Y-98306502D01*
X67118605Y-98548076D01*
X67204759Y-98820966D01*
X67259622Y-99141371D01*
X67288336Y-99525490D01*
X67290288Y-99640391D01*
X67296057Y-99980031D01*
G37*
D14*
%TO.C,R3*%
X43547500Y-101097258D02*
X43547500Y-100622742D01*
X44592500Y-101097258D02*
X44592500Y-100622742D01*
%TD*%
M02*
