%TF.GenerationSoftware,KiCad,Pcbnew,8.0.2*%
%TF.CreationDate,2024-05-19T20:09:33-03:00*%
%TF.ProjectId,Diseno1,44697365-6e6f-4312-9e6b-696361645f70,01*%
%TF.SameCoordinates,Original*%
%TF.FileFunction,Copper,L4,Bot*%
%TF.FilePolarity,Positive*%
%FSLAX46Y46*%
G04 Gerber Fmt 4.6, Leading zero omitted, Abs format (unit mm)*
G04 Created by KiCad (PCBNEW 8.0.2) date 2024-05-19 20:09:33*
%MOMM*%
%LPD*%
G01*
G04 APERTURE LIST*
%TA.AperFunction,ComponentPad*%
%ADD10R,1.700000X1.700000*%
%TD*%
%TA.AperFunction,ComponentPad*%
%ADD11R,1.500000X1.500000*%
%TD*%
%TA.AperFunction,ComponentPad*%
%ADD12C,1.500000*%
%TD*%
%TA.AperFunction,ComponentPad*%
%ADD13O,1.700000X1.700000*%
%TD*%
%TA.AperFunction,ComponentPad*%
%ADD14C,3.500000*%
%TD*%
%TA.AperFunction,ComponentPad*%
%ADD15R,1.500000X1.050000*%
%TD*%
%TA.AperFunction,ComponentPad*%
%ADD16O,1.500000X1.050000*%
%TD*%
%TA.AperFunction,HeatsinkPad*%
%ADD17C,0.600000*%
%TD*%
%TA.AperFunction,ComponentPad*%
%ADD18R,2.000000X2.000000*%
%TD*%
%TA.AperFunction,ComponentPad*%
%ADD19C,2.000000*%
%TD*%
%TA.AperFunction,ViaPad*%
%ADD20C,0.700000*%
%TD*%
%TA.AperFunction,Conductor*%
%ADD21C,0.300000*%
%TD*%
G04 APERTURE END LIST*
D10*
%TO.P,J2,1,Pin_1*%
%TO.N,Net-(J2-Pin_1)*%
X79590000Y-113170000D03*
%TD*%
D11*
%TO.P,U7,1,D*%
%TO.N,Net-(U7-D)*%
X129861014Y-94183463D03*
D12*
%TO.P,U7,2,DP*%
%TO.N,Net-(U7-DP)*%
X127321014Y-94183463D03*
%TO.P,U7,3,E*%
%TO.N,Net-(U7-E)*%
X124781014Y-94183463D03*
%TO.P,U7,4,C*%
%TO.N,Net-(U7-C)*%
X122241014Y-94183463D03*
%TO.P,U7,5,DIG2*%
%TO.N,Net-(U7-DIG2)*%
X119701014Y-94183463D03*
%TO.P,U7,6,B*%
%TO.N,Net-(U7-B)*%
X119701014Y-109423000D03*
%TO.P,U7,7,A*%
%TO.N,Net-(U7-A)*%
X122241014Y-109423000D03*
%TO.P,U7,8,F*%
%TO.N,Net-(U7-F)*%
X124781014Y-109423000D03*
%TO.P,U7,9,G*%
%TO.N,Net-(U7-G)*%
X127321014Y-109423000D03*
%TO.P,U7,10,DIG1*%
%TO.N,Net-(U7-DIG1)*%
X129861014Y-109423000D03*
%TD*%
D10*
%TO.P,J1,1,Pin_1*%
%TO.N,/ESPRX2FTDI*%
X114190000Y-88140000D03*
D13*
%TO.P,J1,2,Pin_2*%
%TO.N,/ESPTX2FTDI*%
X116730000Y-88140000D03*
%TO.P,J1,3,Pin_3*%
%TO.N,GND*%
X119270000Y-88140000D03*
%TO.P,J1,4,Pin_4*%
%TO.N,/U0RTS*%
X121810000Y-88140000D03*
%TO.P,J1,5,Pin_5*%
%TO.N,/U0DTR*%
X124350000Y-88140000D03*
%TD*%
D14*
%TO.P,H2,1,1*%
%TO.N,Net-(J2-Pin_1)*%
X75140000Y-112400000D03*
%TD*%
D10*
%TO.P,J3,1,Pin_1*%
%TO.N,GND*%
X83510000Y-113190000D03*
%TD*%
D15*
%TO.P,U1,1,+V_{S}*%
%TO.N,+5V*%
X34500000Y-99000000D03*
D16*
%TO.P,U1,2,V_{OUT}*%
%TO.N,Net-(U1-V_{OUT})*%
X34500000Y-100270000D03*
%TO.P,U1,3,GND*%
%TO.N,GND*%
X34500000Y-101540000D03*
%TD*%
D14*
%TO.P,H1,1,1*%
%TO.N,GND*%
X128810000Y-88000000D03*
%TD*%
D17*
%TO.P,U5,39,GND*%
%TO.N,GND*%
X87990000Y-93660000D03*
X87990000Y-95060000D03*
X88690000Y-92960000D03*
X88690000Y-94360000D03*
X88690000Y-95760000D03*
X89365000Y-93660000D03*
X89365000Y-95060000D03*
X90090000Y-92960000D03*
X90090000Y-94360000D03*
X90090000Y-95760000D03*
X90790000Y-93660000D03*
X90790000Y-95060000D03*
%TD*%
D18*
%TO.P,BZ1,1,+*%
%TO.N,Net-(BZ1-+)*%
X105940000Y-103600000D03*
D19*
%TO.P,BZ1,2,-*%
%TO.N,GND*%
X105940000Y-96000000D03*
%TD*%
D20*
%TO.N,GND*%
X70990000Y-100340000D03*
X101070000Y-92660000D03*
X103970000Y-89550000D03*
X77750000Y-98750000D03*
%TO.N,/EN*%
X79290000Y-95860000D03*
X103800000Y-87240000D03*
%TO.N,/BOOT*%
X101250000Y-103010000D03*
X101670000Y-95550000D03*
%TO.N,/U0DTR*%
X107590000Y-93840000D03*
X109320000Y-90190000D03*
%TO.N,/U0RTS*%
X111860000Y-91400000D03*
%TO.N,/GATEQ3*%
X103350000Y-104400000D03*
X103460000Y-97160000D03*
%TO.N,/SENSOR_VN*%
X78130000Y-92540000D03*
X76870000Y-96020000D03*
%TO.N,/ESPTX2FTDI*%
X104230000Y-90450000D03*
%TO.N,/ESPRX2FTDI*%
X101270000Y-91700000D03*
X101970000Y-86780000D03*
%TO.N,Net-(U7-DIG1)*%
X118280000Y-111410000D03*
X114930000Y-104550000D03*
%TO.N,Net-(U7-F)*%
X114025000Y-98475000D03*
X117190000Y-100675000D03*
%TO.N,Net-(U7-DIG2)*%
X112580000Y-104510000D03*
%TO.N,Net-(U7-B)*%
X117230000Y-98220000D03*
%TO.N,Net-(U7-A)*%
X119100000Y-98530000D03*
%TO.N,Net-(U7-G)*%
X110870000Y-98470000D03*
X120770000Y-111870000D03*
%TD*%
D21*
%TO.N,/U0DTR*%
X107590000Y-91920000D02*
X107590000Y-93840000D01*
X109320000Y-90190000D02*
X107590000Y-91920000D01*
%TO.N,/EN*%
X79290000Y-96720050D02*
X79290000Y-95860000D01*
X103000000Y-88040000D02*
X103000000Y-95750000D01*
X79280000Y-103970000D02*
X79280000Y-96730050D01*
X79280000Y-96730050D02*
X79290000Y-96720050D01*
X103680000Y-87360000D02*
X103800000Y-87240000D01*
X103000000Y-95750000D02*
X102260000Y-96490000D01*
X81490000Y-106180000D02*
X79280000Y-103970000D01*
X99880000Y-106180000D02*
X81490000Y-106180000D01*
X102260000Y-96490000D02*
X102260000Y-103800000D01*
X102260000Y-103800000D02*
X99880000Y-106180000D01*
X103800000Y-87240000D02*
X103000000Y-88040000D01*
%TO.N,/BOOT*%
X100800000Y-96420000D02*
X100800000Y-102560000D01*
X101670000Y-95550000D02*
X100800000Y-96420000D01*
X100800000Y-102560000D02*
X101250000Y-103010000D01*
%TO.N,/U0DTR*%
X124350000Y-88140000D02*
X120200000Y-92290000D01*
X120200000Y-92290000D02*
X112260000Y-92290000D01*
X107590000Y-93840000D02*
X110710000Y-93840000D01*
X110710000Y-93840000D02*
X112260000Y-92290000D01*
%TO.N,/U0RTS*%
X121810000Y-88140000D02*
X119040000Y-90910000D01*
X119040000Y-90910000D02*
X112350000Y-90910000D01*
X112350000Y-90910000D02*
X111860000Y-91400000D01*
%TO.N,/GATEQ3*%
X103350000Y-104400000D02*
X103860000Y-103890000D01*
X103860000Y-97560000D02*
X103460000Y-97160000D01*
X103860000Y-103890000D02*
X103860000Y-97560000D01*
%TO.N,/SENSOR_VN*%
X76870000Y-93440000D02*
X77770000Y-92540000D01*
X77770000Y-92540000D02*
X78130000Y-92540000D01*
X76870000Y-96020000D02*
X76870000Y-93440000D01*
%TO.N,/ESPTX2FTDI*%
X104930000Y-90450000D02*
X105890000Y-89490000D01*
X104230000Y-90450000D02*
X104930000Y-90450000D01*
X115380000Y-89490000D02*
X116730000Y-88140000D01*
X105890000Y-89490000D02*
X115380000Y-89490000D01*
%TO.N,/ESPRX2FTDI*%
X101960000Y-86790000D02*
X101960000Y-91010000D01*
X101960000Y-91010000D02*
X101270000Y-91700000D01*
X101960000Y-86790000D02*
X101970000Y-86780000D01*
%TO.N,Net-(U7-DIG1)*%
X115430000Y-108480000D02*
X118280000Y-111330000D01*
X115430000Y-105050000D02*
X115430000Y-108480000D01*
X118280000Y-111330000D02*
X118280000Y-111410000D01*
X114930000Y-104550000D02*
X115430000Y-105050000D01*
%TO.N,Net-(U7-F)*%
X114765000Y-100675000D02*
X114025000Y-99935000D01*
X117190000Y-100675000D02*
X114765000Y-100675000D01*
X114025000Y-99935000D02*
X114025000Y-98475000D01*
%TO.N,Net-(U7-DIG2)*%
X112150000Y-104080000D02*
X112150000Y-98400000D01*
X112580000Y-104510000D02*
X112150000Y-104080000D01*
X116366537Y-94183463D02*
X119701014Y-94183463D01*
X112150000Y-98400000D02*
X116366537Y-94183463D01*
%TO.N,Net-(U7-B)*%
X117230000Y-98220000D02*
X118363510Y-99353510D01*
X119701014Y-107781014D02*
X119701014Y-109423000D01*
X118363510Y-99353510D02*
X118363510Y-106443510D01*
X118363510Y-106443510D02*
X119701014Y-107781014D01*
%TO.N,Net-(U7-A)*%
X119675000Y-99105000D02*
X119675000Y-105266986D01*
X122241014Y-107833000D02*
X122241014Y-109423000D01*
X119675000Y-105266986D02*
X122241014Y-107833000D01*
X119100000Y-98530000D02*
X119675000Y-99105000D01*
%TO.N,Net-(U7-G)*%
X119765000Y-112875000D02*
X113700000Y-112875000D01*
X120770000Y-111870000D02*
X119765000Y-112875000D01*
X113700000Y-112875000D02*
X110870000Y-110045000D01*
X110870000Y-110045000D02*
X110870000Y-98470000D01*
%TD*%
M02*
