%TF.GenerationSoftware,KiCad,Pcbnew,8.0.2*%
%TF.CreationDate,2024-05-19T20:09:33-03:00*%
%TF.ProjectId,Diseno1,44697365-6e6f-4312-9e6b-696361645f70,01*%
%TF.SameCoordinates,Original*%
%TF.FileFunction,Copper,L1,Top*%
%TF.FilePolarity,Positive*%
%FSLAX46Y46*%
G04 Gerber Fmt 4.6, Leading zero omitted, Abs format (unit mm)*
G04 Created by KiCad (PCBNEW 8.0.2) date 2024-05-19 20:09:33*
%MOMM*%
%LPD*%
G01*
G04 APERTURE LIST*
G04 Aperture macros list*
%AMRoundRect*
0 Rectangle with rounded corners*
0 $1 Rounding radius*
0 $2 $3 $4 $5 $6 $7 $8 $9 X,Y pos of 4 corners*
0 Add a 4 corners polygon primitive as box body*
4,1,4,$2,$3,$4,$5,$6,$7,$8,$9,$2,$3,0*
0 Add four circle primitives for the rounded corners*
1,1,$1+$1,$2,$3*
1,1,$1+$1,$4,$5*
1,1,$1+$1,$6,$7*
1,1,$1+$1,$8,$9*
0 Add four rect primitives between the rounded corners*
20,1,$1+$1,$2,$3,$4,$5,0*
20,1,$1+$1,$4,$5,$6,$7,0*
20,1,$1+$1,$6,$7,$8,$9,0*
20,1,$1+$1,$8,$9,$2,$3,0*%
G04 Aperture macros list end*
%TA.AperFunction,SMDPad,CuDef*%
%ADD10RoundRect,0.200000X-0.275000X0.200000X-0.275000X-0.200000X0.275000X-0.200000X0.275000X0.200000X0*%
%TD*%
%TA.AperFunction,SMDPad,CuDef*%
%ADD11RoundRect,0.225000X-0.250000X0.225000X-0.250000X-0.225000X0.250000X-0.225000X0.250000X0.225000X0*%
%TD*%
%TA.AperFunction,SMDPad,CuDef*%
%ADD12RoundRect,0.150000X-0.150000X0.875000X-0.150000X-0.875000X0.150000X-0.875000X0.150000X0.875000X0*%
%TD*%
%TA.AperFunction,SMDPad,CuDef*%
%ADD13RoundRect,0.200000X0.275000X-0.200000X0.275000X0.200000X-0.275000X0.200000X-0.275000X-0.200000X0*%
%TD*%
%TA.AperFunction,SMDPad,CuDef*%
%ADD14RoundRect,0.225000X0.250000X-0.225000X0.250000X0.225000X-0.250000X0.225000X-0.250000X-0.225000X0*%
%TD*%
%TA.AperFunction,SMDPad,CuDef*%
%ADD15RoundRect,0.200000X-0.200000X-0.275000X0.200000X-0.275000X0.200000X0.275000X-0.200000X0.275000X0*%
%TD*%
%TA.AperFunction,SMDPad,CuDef*%
%ADD16RoundRect,0.250000X-0.475000X0.250000X-0.475000X-0.250000X0.475000X-0.250000X0.475000X0.250000X0*%
%TD*%
%TA.AperFunction,SMDPad,CuDef*%
%ADD17RoundRect,0.200000X0.200000X0.275000X-0.200000X0.275000X-0.200000X-0.275000X0.200000X-0.275000X0*%
%TD*%
%TA.AperFunction,ComponentPad*%
%ADD18R,1.700000X1.700000*%
%TD*%
%TA.AperFunction,SMDPad,CuDef*%
%ADD19RoundRect,0.150000X-0.587500X-0.150000X0.587500X-0.150000X0.587500X0.150000X-0.587500X0.150000X0*%
%TD*%
%TA.AperFunction,SMDPad,CuDef*%
%ADD20RoundRect,0.375000X-0.625000X-0.375000X0.625000X-0.375000X0.625000X0.375000X-0.625000X0.375000X0*%
%TD*%
%TA.AperFunction,SMDPad,CuDef*%
%ADD21RoundRect,0.500000X-0.500000X-1.400000X0.500000X-1.400000X0.500000X1.400000X-0.500000X1.400000X0*%
%TD*%
%TA.AperFunction,ComponentPad*%
%ADD22R,1.500000X1.500000*%
%TD*%
%TA.AperFunction,ComponentPad*%
%ADD23C,1.500000*%
%TD*%
%TA.AperFunction,SMDPad,CuDef*%
%ADD24RoundRect,0.150000X-0.825000X-0.150000X0.825000X-0.150000X0.825000X0.150000X-0.825000X0.150000X0*%
%TD*%
%TA.AperFunction,ComponentPad*%
%ADD25O,1.700000X1.700000*%
%TD*%
%TA.AperFunction,SMDPad,CuDef*%
%ADD26RoundRect,0.150000X0.587500X0.150000X-0.587500X0.150000X-0.587500X-0.150000X0.587500X-0.150000X0*%
%TD*%
%TA.AperFunction,ComponentPad*%
%ADD27C,3.500000*%
%TD*%
%TA.AperFunction,SMDPad,CuDef*%
%ADD28R,1.550000X1.300000*%
%TD*%
%TA.AperFunction,ComponentPad*%
%ADD29R,1.500000X1.050000*%
%TD*%
%TA.AperFunction,ComponentPad*%
%ADD30O,1.500000X1.050000*%
%TD*%
%TA.AperFunction,SMDPad,CuDef*%
%ADD31RoundRect,0.250000X0.250000X0.475000X-0.250000X0.475000X-0.250000X-0.475000X0.250000X-0.475000X0*%
%TD*%
%TA.AperFunction,SMDPad,CuDef*%
%ADD32R,1.500000X0.900000*%
%TD*%
%TA.AperFunction,SMDPad,CuDef*%
%ADD33R,0.900000X1.500000*%
%TD*%
%TA.AperFunction,SMDPad,CuDef*%
%ADD34R,0.900000X0.900000*%
%TD*%
%TA.AperFunction,HeatsinkPad*%
%ADD35C,0.600000*%
%TD*%
%TA.AperFunction,SMDPad,CuDef*%
%ADD36R,3.800000X3.800000*%
%TD*%
%TA.AperFunction,ComponentPad*%
%ADD37R,2.000000X2.000000*%
%TD*%
%TA.AperFunction,ComponentPad*%
%ADD38C,2.000000*%
%TD*%
%TA.AperFunction,ViaPad*%
%ADD39C,0.700000*%
%TD*%
%TA.AperFunction,Conductor*%
%ADD40C,0.300000*%
%TD*%
%TA.AperFunction,Conductor*%
%ADD41C,0.500000*%
%TD*%
%TA.AperFunction,Conductor*%
%ADD42C,0.200000*%
%TD*%
G04 APERTURE END LIST*
D10*
%TO.P,R10,1*%
%TO.N,/EN*%
X74710000Y-89450000D03*
%TO.P,R10,2*%
%TO.N,VDD*%
X74710000Y-91100000D03*
%TD*%
D11*
%TO.P,C26,1*%
%TO.N,VDD*%
X124100000Y-97065000D03*
%TO.P,C26,2*%
%TO.N,GND*%
X124100000Y-98615000D03*
%TD*%
D12*
%TO.P,U8,1,VDD*%
%TO.N,VDD*%
X119750000Y-96850000D03*
%TO.P,U8,2,SEG1*%
%TO.N,Net-(U7-A)*%
X118480000Y-96850000D03*
%TO.P,U8,3,SEG2*%
%TO.N,Net-(U7-B)*%
X117210000Y-96850000D03*
%TO.P,U8,4,SEG3*%
%TO.N,Net-(U7-C)*%
X115940000Y-96850000D03*
%TO.P,U8,5,SEG4*%
%TO.N,Net-(U7-D)*%
X114670000Y-96850000D03*
%TO.P,U8,6,SEG5*%
%TO.N,Net-(U7-E)*%
X113400000Y-96850000D03*
%TO.P,U8,7,SEG6*%
%TO.N,Net-(U7-F)*%
X112130000Y-96850000D03*
%TO.P,U8,8,SEG7*%
%TO.N,Net-(U7-G)*%
X110860000Y-96850000D03*
%TO.P,U8,9,SEG8*%
%TO.N,Net-(U7-DP)*%
X109590000Y-96850000D03*
%TO.P,U8,10,SEG13/GRID6*%
%TO.N,unconnected-(U8-SEG13{slash}GRID6-Pad10)*%
X108320000Y-96850000D03*
%TO.P,U8,11,SEG14/GRID5*%
%TO.N,unconnected-(U8-SEG14{slash}GRID5-Pad11)*%
X108320000Y-106150000D03*
%TO.P,U8,12,GND*%
%TO.N,GND*%
X109590000Y-106150000D03*
%TO.P,U8,13,GRID4*%
%TO.N,unconnected-(U8-GRID4-Pad13)*%
X110860000Y-106150000D03*
%TO.P,U8,14,GRID3*%
%TO.N,unconnected-(U8-GRID3-Pad14)*%
X112130000Y-106150000D03*
%TO.P,U8,15,VSS*%
%TO.N,GND*%
X113400000Y-106150000D03*
%TO.P,U8,16,GRID2*%
%TO.N,Net-(U7-DIG2)*%
X114670000Y-106150000D03*
%TO.P,U8,17,GRID1*%
%TO.N,Net-(U7-DIG1)*%
X115940000Y-106150000D03*
%TO.P,U8,18,DIN*%
%TO.N,/DIN*%
X117210000Y-106150000D03*
%TO.P,U8,19,CLK*%
%TO.N,/CLK*%
X118480000Y-106150000D03*
%TO.P,U8,20,STB*%
%TO.N,/STB*%
X119750000Y-106150000D03*
%TD*%
D11*
%TO.P,C10,1*%
%TO.N,Net-(J2-Pin_1)*%
X76730000Y-107745000D03*
%TO.P,C10,2*%
%TO.N,GND*%
X76730000Y-109295000D03*
%TD*%
D13*
%TO.P,R5,1*%
%TO.N,Net-(U2B--)*%
X59930000Y-102405000D03*
%TO.P,R5,2*%
%TO.N,/SENSOR_VN*%
X59930000Y-100755000D03*
%TD*%
D14*
%TO.P,C4,1*%
%TO.N,+5V*%
X60670000Y-99055000D03*
%TO.P,C4,2*%
%TO.N,GND*%
X60670000Y-97505000D03*
%TD*%
%TO.P,C5,1*%
%TO.N,+5V*%
X71040000Y-103165000D03*
%TO.P,C5,2*%
%TO.N,GND*%
X71040000Y-101615000D03*
%TD*%
D10*
%TO.P,R8,1*%
%TO.N,/U0RTS*%
X110060000Y-91435000D03*
%TO.P,R8,2*%
%TO.N,VDD*%
X110060000Y-93085000D03*
%TD*%
D15*
%TO.P,R1,1*%
%TO.N,Net-(U1-V_{OUT})*%
X38505000Y-101300000D03*
%TO.P,R1,2*%
%TO.N,Net-(C1-Pad1)*%
X40155000Y-101300000D03*
%TD*%
D11*
%TO.P,C19,1*%
%TO.N,/EN*%
X76390000Y-89405000D03*
%TO.P,C19,2*%
%TO.N,GND*%
X76390000Y-90955000D03*
%TD*%
D14*
%TO.P,C3,1*%
%TO.N,+5V*%
X58960000Y-99045000D03*
%TO.P,C3,2*%
%TO.N,GND*%
X58960000Y-97495000D03*
%TD*%
D11*
%TO.P,C21,1*%
%TO.N,/EN*%
X80200000Y-89375000D03*
%TO.P,C21,2*%
%TO.N,GND*%
X80200000Y-90925000D03*
%TD*%
D13*
%TO.P,R11,1*%
%TO.N,/STB*%
X124325000Y-104400000D03*
%TO.P,R11,2*%
%TO.N,VDD*%
X124325000Y-102750000D03*
%TD*%
D14*
%TO.P,C6,1*%
%TO.N,+5V*%
X69395000Y-103155000D03*
%TO.P,C6,2*%
%TO.N,GND*%
X69395000Y-101605000D03*
%TD*%
D16*
%TO.P,C13,1*%
%TO.N,Net-(J2-Pin_1)*%
X86550000Y-112112500D03*
%TO.P,C13,2*%
%TO.N,GND*%
X86550000Y-114012500D03*
%TD*%
D17*
%TO.P,R6,1*%
%TO.N,/U0RTS*%
X108595000Y-91340000D03*
%TO.P,R6,2*%
%TO.N,Net-(Q1-B)*%
X106945000Y-91340000D03*
%TD*%
D18*
%TO.P,J2,1,Pin_1*%
%TO.N,Net-(J2-Pin_1)*%
X79590000Y-113170000D03*
%TD*%
D17*
%TO.P,R9,1*%
%TO.N,/U0DTR*%
X109395000Y-87490000D03*
%TO.P,R9,2*%
%TO.N,Net-(Q2-B)*%
X107745000Y-87490000D03*
%TD*%
D11*
%TO.P,C20,1*%
%TO.N,/EN*%
X78220000Y-89415000D03*
%TO.P,C20,2*%
%TO.N,GND*%
X78220000Y-90965000D03*
%TD*%
D10*
%TO.P,R7,1*%
%TO.N,/U0DTR*%
X111150000Y-87445000D03*
%TO.P,R7,2*%
%TO.N,VDD*%
X111150000Y-89095000D03*
%TD*%
D19*
%TO.P,Q3,1,G*%
%TO.N,/GATEQ3*%
X100042500Y-106550000D03*
%TO.P,Q3,2,S*%
%TO.N,/BZ*%
X100042500Y-108450000D03*
%TO.P,Q3,3,D*%
%TO.N,Net-(BZ1-+)*%
X101917500Y-107500000D03*
%TD*%
D20*
%TO.P,U3,1,GND*%
%TO.N,GND*%
X73050000Y-101100000D03*
%TO.P,U3,2,VO*%
%TO.N,+5V*%
X73050000Y-103400000D03*
%TO.P,U3,3,VI*%
%TO.N,Net-(J2-Pin_1)*%
X73050000Y-105700000D03*
D21*
%TO.P,U3,4*%
%TO.N,N/C*%
X79350000Y-103400000D03*
%TD*%
D22*
%TO.P,U7,1,D*%
%TO.N,Net-(U7-D)*%
X129861014Y-94183463D03*
D23*
%TO.P,U7,2,DP*%
%TO.N,Net-(U7-DP)*%
X127321014Y-94183463D03*
%TO.P,U7,3,E*%
%TO.N,Net-(U7-E)*%
X124781014Y-94183463D03*
%TO.P,U7,4,C*%
%TO.N,Net-(U7-C)*%
X122241014Y-94183463D03*
%TO.P,U7,5,DIG2*%
%TO.N,Net-(U7-DIG2)*%
X119701014Y-94183463D03*
%TO.P,U7,6,B*%
%TO.N,Net-(U7-B)*%
X119701014Y-109423000D03*
%TO.P,U7,7,A*%
%TO.N,Net-(U7-A)*%
X122241014Y-109423000D03*
%TO.P,U7,8,F*%
%TO.N,Net-(U7-F)*%
X124781014Y-109423000D03*
%TO.P,U7,9,G*%
%TO.N,Net-(U7-G)*%
X127321014Y-109423000D03*
%TO.P,U7,10,DIG1*%
%TO.N,Net-(U7-DIG1)*%
X129861014Y-109423000D03*
%TD*%
D24*
%TO.P,U2,1*%
%TO.N,Net-(C2-Pad1)*%
X51615000Y-99625000D03*
%TO.P,U2,2,-*%
%TO.N,Net-(U2A--)*%
X51615000Y-100895000D03*
%TO.P,U2,3,+*%
%TO.N,GND*%
X51615000Y-102165000D03*
%TO.P,U2,4,V-*%
X51615000Y-103435000D03*
%TO.P,U2,5,+*%
X56565000Y-103435000D03*
%TO.P,U2,6,-*%
%TO.N,Net-(U2B--)*%
X56565000Y-102165000D03*
%TO.P,U2,7*%
%TO.N,/SENSOR_VN*%
X56565000Y-100895000D03*
%TO.P,U2,8,V+*%
%TO.N,+5V*%
X56565000Y-99625000D03*
%TD*%
D15*
%TO.P,R12,1*%
%TO.N,/CLK*%
X121550000Y-107075000D03*
%TO.P,R12,2*%
%TO.N,VDD*%
X123200000Y-107075000D03*
%TD*%
D11*
%TO.P,C24,1*%
%TO.N,/DIN*%
X115570000Y-108235000D03*
%TO.P,C24,2*%
%TO.N,GND*%
X115570000Y-109785000D03*
%TD*%
D18*
%TO.P,J1,1,Pin_1*%
%TO.N,/ESPRX2FTDI*%
X114190000Y-88140000D03*
D25*
%TO.P,J1,2,Pin_2*%
%TO.N,/ESPTX2FTDI*%
X116730000Y-88140000D03*
%TO.P,J1,3,Pin_3*%
%TO.N,GND*%
X119270000Y-88140000D03*
%TO.P,J1,4,Pin_4*%
%TO.N,/U0RTS*%
X121810000Y-88140000D03*
%TO.P,J1,5,Pin_5*%
%TO.N,/U0DTR*%
X124350000Y-88140000D03*
%TD*%
D14*
%TO.P,C7,1*%
%TO.N,+5V*%
X67750000Y-103125000D03*
%TO.P,C7,2*%
%TO.N,GND*%
X67750000Y-101575000D03*
%TD*%
%TO.P,C15,1*%
%TO.N,/BZ*%
X101640000Y-112975000D03*
%TO.P,C15,2*%
%TO.N,GND*%
X101640000Y-111425000D03*
%TD*%
D26*
%TO.P,Q2,1,E*%
%TO.N,/U0RTS*%
X105817500Y-89390000D03*
%TO.P,Q2,2,B*%
%TO.N,Net-(Q2-B)*%
X105817500Y-87490000D03*
%TO.P,Q2,3,C*%
%TO.N,/EN*%
X103942500Y-88440000D03*
%TD*%
D27*
%TO.P,H2,1,1*%
%TO.N,Net-(J2-Pin_1)*%
X75140000Y-112400000D03*
%TD*%
D14*
%TO.P,C17,1*%
%TO.N,VDD*%
X116380000Y-113085000D03*
%TO.P,C17,2*%
%TO.N,GND*%
X116380000Y-111535000D03*
%TD*%
D11*
%TO.P,C12,1*%
%TO.N,Net-(J2-Pin_1)*%
X88550000Y-112287500D03*
%TO.P,C12,2*%
%TO.N,GND*%
X88550000Y-113837500D03*
%TD*%
D18*
%TO.P,J3,1,Pin_1*%
%TO.N,GND*%
X83510000Y-113190000D03*
%TD*%
D11*
%TO.P,C25,1*%
%TO.N,VDD*%
X126580000Y-97065000D03*
%TO.P,C25,2*%
%TO.N,GND*%
X126580000Y-98615000D03*
%TD*%
D28*
%TO.P,SW1,1,1*%
%TO.N,/EN*%
X72050000Y-94110000D03*
X80010000Y-94110000D03*
%TO.P,SW1,2,2*%
%TO.N,GND*%
X72050000Y-98610000D03*
X80010000Y-98610000D03*
%TD*%
D29*
%TO.P,U1,1,+V_{S}*%
%TO.N,+5V*%
X34500000Y-99000000D03*
D30*
%TO.P,U1,2,V_{OUT}*%
%TO.N,Net-(U1-V_{OUT})*%
X34500000Y-100270000D03*
%TO.P,U1,3,GND*%
%TO.N,GND*%
X34500000Y-101540000D03*
%TD*%
D27*
%TO.P,H1,1,1*%
%TO.N,GND*%
X128810000Y-88000000D03*
%TD*%
D20*
%TO.P,U4,1,GND*%
%TO.N,GND*%
X90630000Y-107500000D03*
%TO.P,U4,2,VO*%
%TO.N,/BZ*%
X90630000Y-109800000D03*
%TO.P,U4,3,VI*%
%TO.N,Net-(J2-Pin_1)*%
X90630000Y-112100000D03*
D21*
%TO.P,U4,4*%
%TO.N,N/C*%
X96930000Y-109800000D03*
%TD*%
D26*
%TO.P,Q1,1,E*%
%TO.N,/U0DTR*%
X104607500Y-93850000D03*
%TO.P,Q1,2,B*%
%TO.N,Net-(Q1-B)*%
X104607500Y-91950000D03*
%TO.P,Q1,3,C*%
%TO.N,/BOOT*%
X102732500Y-92900000D03*
%TD*%
D14*
%TO.P,C14,1*%
%TO.N,/BZ*%
X100090000Y-112975000D03*
%TO.P,C14,2*%
%TO.N,GND*%
X100090000Y-111425000D03*
%TD*%
D15*
%TO.P,R4,1*%
%TO.N,Net-(C2-Pad1)*%
X52915000Y-98060000D03*
%TO.P,R4,2*%
%TO.N,Net-(U2B--)*%
X54565000Y-98060000D03*
%TD*%
D20*
%TO.P,U6,1,GND*%
%TO.N,GND*%
X105380000Y-108757500D03*
%TO.P,U6,2,VO*%
%TO.N,VDD*%
X105380000Y-111057500D03*
%TO.P,U6,3,VI*%
%TO.N,/BZ*%
X105380000Y-113357500D03*
D21*
%TO.P,U6,4*%
%TO.N,N/C*%
X111680000Y-111057500D03*
%TD*%
D11*
%TO.P,C23,1*%
%TO.N,/CLK*%
X117790000Y-108295000D03*
%TO.P,C23,2*%
%TO.N,GND*%
X117790000Y-109845000D03*
%TD*%
D14*
%TO.P,C9,1*%
%TO.N,VDD*%
X77420000Y-87915000D03*
%TO.P,C9,2*%
%TO.N,GND*%
X77420000Y-86365000D03*
%TD*%
D31*
%TO.P,C8,1*%
%TO.N,Net-(J2-Pin_1)*%
X75010000Y-108020000D03*
%TO.P,C8,2*%
%TO.N,GND*%
X73110000Y-108020000D03*
%TD*%
D14*
%TO.P,C16,1*%
%TO.N,/BZ*%
X103320000Y-112975000D03*
%TO.P,C16,2*%
%TO.N,GND*%
X103320000Y-111425000D03*
%TD*%
D32*
%TO.P,U5,1,GND*%
%TO.N,GND*%
X82140000Y-86640000D03*
%TO.P,U5,2,VDD*%
%TO.N,VDD*%
X82140000Y-87910000D03*
%TO.P,U5,3,EN*%
%TO.N,/EN*%
X82140000Y-89180000D03*
%TO.P,U5,4,SENSOR_VP*%
%TO.N,unconnected-(U5-SENSOR_VP-Pad4)*%
X82140000Y-90450000D03*
%TO.P,U5,5,SENSOR_VN*%
%TO.N,/SENSOR_VN*%
X82140000Y-91720000D03*
%TO.P,U5,6,IO34*%
%TO.N,unconnected-(U5-IO34-Pad6)*%
X82140000Y-92990000D03*
%TO.P,U5,7,IO35*%
%TO.N,unconnected-(U5-IO35-Pad7)*%
X82140000Y-94260000D03*
%TO.P,U5,8,IO32*%
%TO.N,unconnected-(U5-IO32-Pad8)*%
X82140000Y-95530000D03*
%TO.P,U5,9,IO33*%
%TO.N,unconnected-(U5-IO33-Pad9)*%
X82140000Y-96800000D03*
%TO.P,U5,10,IO25*%
%TO.N,unconnected-(U5-IO25-Pad10)*%
X82140000Y-98070000D03*
%TO.P,U5,11,IO26*%
%TO.N,unconnected-(U5-IO26-Pad11)*%
X82140000Y-99340000D03*
%TO.P,U5,12,IO27*%
%TO.N,unconnected-(U5-IO27-Pad12)*%
X82140000Y-100610000D03*
%TO.P,U5,13,IO14*%
%TO.N,unconnected-(U5-IO14-Pad13)*%
X82140000Y-101880000D03*
%TO.P,U5,14,IO12*%
%TO.N,unconnected-(U5-IO12-Pad14)*%
X82140000Y-103150000D03*
D33*
%TO.P,U5,15,GND*%
%TO.N,GND*%
X85180000Y-104400000D03*
%TO.P,U5,16,IO13*%
%TO.N,unconnected-(U5-IO13-Pad16)*%
X86450000Y-104400000D03*
%TO.P,U5,17,NC*%
%TO.N,unconnected-(U5-NC-Pad17)*%
X87720000Y-104400000D03*
%TO.P,U5,18,NC*%
%TO.N,unconnected-(U5-NC-Pad18)*%
X88990000Y-104400000D03*
%TO.P,U5,19,NC*%
%TO.N,unconnected-(U5-NC-Pad19)*%
X90260000Y-104400000D03*
%TO.P,U5,20,NC*%
%TO.N,unconnected-(U5-NC-Pad20)*%
X91530000Y-104400000D03*
%TO.P,U5,21,NC*%
%TO.N,unconnected-(U5-NC-Pad21)*%
X92800000Y-104400000D03*
%TO.P,U5,22,NC*%
%TO.N,unconnected-(U5-NC-Pad22)*%
X94070000Y-104400000D03*
%TO.P,U5,23,IO15*%
%TO.N,unconnected-(U5-IO15-Pad23)*%
X95340000Y-104400000D03*
%TO.P,U5,24,IO2*%
%TO.N,unconnected-(U5-IO2-Pad24)*%
X96610000Y-104400000D03*
D32*
%TO.P,U5,25,IO0*%
%TO.N,/BOOT*%
X99640000Y-103150000D03*
%TO.P,U5,26,IO4*%
%TO.N,/DIN*%
X99640000Y-101880000D03*
%TO.P,U5,27,IO16*%
%TO.N,/CLK*%
X99640000Y-100610000D03*
%TO.P,U5,28,IO17*%
%TO.N,unconnected-(U5-IO17-Pad28)*%
X99640000Y-99340000D03*
%TO.P,U5,29,IO5*%
%TO.N,/STB*%
X99640000Y-98070000D03*
%TO.P,U5,30,IO18*%
%TO.N,/GATEQ3*%
X99640000Y-96800000D03*
%TO.P,U5,31,IO19*%
%TO.N,unconnected-(U5-IO19-Pad31)*%
X99640000Y-95530000D03*
%TO.P,U5,32,NC*%
%TO.N,unconnected-(U5-NC-Pad32)*%
X99640000Y-94260000D03*
%TO.P,U5,33,IO21*%
%TO.N,unconnected-(U5-IO21-Pad33)*%
X99640000Y-92990000D03*
%TO.P,U5,34,RXD0/IO3*%
%TO.N,/ESPRX2FTDI*%
X99640000Y-91720000D03*
%TO.P,U5,35,TXD0/IO1*%
%TO.N,/ESPTX2FTDI*%
X99640000Y-90450000D03*
%TO.P,U5,36,IO22*%
%TO.N,unconnected-(U5-IO22-Pad36)*%
X99640000Y-89180000D03*
%TO.P,U5,37,IO23*%
%TO.N,unconnected-(U5-IO23-Pad37)*%
X99640000Y-87910000D03*
%TO.P,U5,38,GND*%
%TO.N,GND*%
X99640000Y-86640000D03*
D34*
%TO.P,U5,39,GND*%
X87990000Y-92960000D03*
D35*
X87990000Y-93660000D03*
D34*
X87990000Y-94360000D03*
D35*
X87990000Y-95060000D03*
D34*
X87990000Y-95760000D03*
D35*
X88690000Y-92960000D03*
X88690000Y-94360000D03*
X88690000Y-95760000D03*
X89365000Y-93660000D03*
X89365000Y-95060000D03*
D34*
X89390000Y-92960000D03*
X89390000Y-94360000D03*
D36*
X89390000Y-94360000D03*
D34*
X89390000Y-95760000D03*
D35*
X90090000Y-92960000D03*
X90090000Y-94360000D03*
X90090000Y-95760000D03*
D34*
X90790000Y-92960000D03*
D35*
X90790000Y-93660000D03*
D34*
X90790000Y-94360000D03*
D35*
X90790000Y-95060000D03*
D34*
X90790000Y-95760000D03*
%TD*%
D16*
%TO.P,C1,1*%
%TO.N,Net-(C1-Pad1)*%
X42030000Y-101450000D03*
%TO.P,C1,2*%
%TO.N,GND*%
X42030000Y-103350000D03*
%TD*%
D15*
%TO.P,R2,1*%
%TO.N,Net-(C1-Pad1)*%
X45575000Y-101680000D03*
%TO.P,R2,2*%
%TO.N,Net-(U2A--)*%
X47225000Y-101680000D03*
%TD*%
D14*
%TO.P,C22,1*%
%TO.N,/STB*%
X122200000Y-104375000D03*
%TO.P,C22,2*%
%TO.N,GND*%
X122200000Y-102825000D03*
%TD*%
%TO.P,C18,1*%
%TO.N,VDD*%
X114750000Y-113095000D03*
%TO.P,C18,2*%
%TO.N,GND*%
X114750000Y-111545000D03*
%TD*%
D10*
%TO.P,R13,1*%
%TO.N,/DIN*%
X113740000Y-108195000D03*
%TO.P,R13,2*%
%TO.N,VDD*%
X113740000Y-109845000D03*
%TD*%
D11*
%TO.P,C2,1*%
%TO.N,Net-(C2-Pad1)*%
X48950000Y-99985000D03*
%TO.P,C2,2*%
%TO.N,Net-(U2A--)*%
X48950000Y-101535000D03*
%TD*%
D14*
%TO.P,C11,1*%
%TO.N,VDD*%
X79420000Y-87915000D03*
%TO.P,C11,2*%
%TO.N,GND*%
X79420000Y-86365000D03*
%TD*%
D11*
%TO.P,C27,1*%
%TO.N,VDD*%
X121650000Y-97065000D03*
%TO.P,C27,2*%
%TO.N,GND*%
X121650000Y-98615000D03*
%TD*%
D13*
%TO.P,R3,1*%
%TO.N,Net-(C1-Pad1)*%
X44070000Y-101685000D03*
%TO.P,R3,2*%
%TO.N,Net-(C2-Pad1)*%
X44070000Y-100035000D03*
%TD*%
D37*
%TO.P,BZ1,1,+*%
%TO.N,Net-(BZ1-+)*%
X105940000Y-103600000D03*
D38*
%TO.P,BZ1,2,-*%
%TO.N,GND*%
X105940000Y-96000000D03*
%TD*%
D39*
%TO.N,GND*%
X70990000Y-100340000D03*
X89000000Y-106800000D03*
X75710000Y-109680000D03*
X75870000Y-92280000D03*
X120875000Y-103050000D03*
X84400000Y-105600000D03*
X98930000Y-110450000D03*
X40520000Y-103610000D03*
X101070000Y-92660000D03*
X103970000Y-89550000D03*
X127760000Y-98615000D03*
X77750000Y-98750000D03*
X116650000Y-109700000D03*
X76070000Y-86490000D03*
X56570000Y-104160000D03*
X110180000Y-104770000D03*
X72520000Y-109200000D03*
X101269426Y-86215021D03*
X106180000Y-106820000D03*
X61960000Y-97440000D03*
X115510000Y-110700000D03*
X53420000Y-103450000D03*
X112260000Y-107930000D03*
%TO.N,+5V*%
X37180000Y-98180000D03*
X62010000Y-99030000D03*
X66110000Y-102830000D03*
X66480000Y-104120000D03*
%TO.N,VDD*%
X124500000Y-106850000D03*
X102490000Y-109600000D03*
X74973423Y-92201550D03*
X75570000Y-87915000D03*
X109050000Y-93730000D03*
X113320000Y-110820000D03*
X125450000Y-102800000D03*
X107210000Y-111010000D03*
X111080000Y-90040000D03*
X127600000Y-96350000D03*
X113400000Y-113820000D03*
%TO.N,/EN*%
X79290000Y-95860000D03*
X103800000Y-87240000D03*
%TO.N,/BOOT*%
X101250000Y-103010000D03*
X101670000Y-95550000D03*
%TO.N,/U0DTR*%
X107590000Y-93840000D03*
X109320000Y-90190000D03*
%TO.N,/U0RTS*%
X111860000Y-91400000D03*
%TO.N,/GATEQ3*%
X103350000Y-104400000D03*
X103460000Y-97160000D03*
%TO.N,/SENSOR_VN*%
X78130000Y-92540000D03*
X76870000Y-96020000D03*
%TO.N,/ESPTX2FTDI*%
X104230000Y-90450000D03*
%TO.N,/ESPRX2FTDI*%
X101270000Y-91700000D03*
X101970000Y-86780000D03*
%TO.N,Net-(U7-DIG1)*%
X118280000Y-111410000D03*
X114930000Y-104550000D03*
%TO.N,Net-(U7-F)*%
X114025000Y-98475000D03*
X117190000Y-100675000D03*
%TO.N,Net-(U7-DIG2)*%
X112580000Y-104510000D03*
%TO.N,Net-(U7-B)*%
X117230000Y-98220000D03*
%TO.N,Net-(U7-A)*%
X119100000Y-98530000D03*
%TO.N,Net-(U7-G)*%
X110870000Y-98470000D03*
X120770000Y-111870000D03*
%TD*%
D40*
%TO.N,/U0DTR*%
X109320000Y-90190000D02*
X109320000Y-87565000D01*
X109320000Y-87565000D02*
X109395000Y-87490000D01*
%TO.N,Net-(U7-F)*%
X127425000Y-106779014D02*
X124781014Y-109423000D01*
X127425000Y-101850000D02*
X127425000Y-106779014D01*
X126550000Y-100975000D02*
X127425000Y-101850000D01*
X117735000Y-100675000D02*
X118035000Y-100975000D01*
X118035000Y-100975000D02*
X126550000Y-100975000D01*
X117190000Y-100675000D02*
X117735000Y-100675000D01*
%TO.N,/CLK*%
X108300000Y-100660000D02*
X99690000Y-100660000D01*
X109590000Y-101950000D02*
X108300000Y-100660000D01*
X99690000Y-100660000D02*
X99640000Y-100610000D01*
X115520000Y-101950000D02*
X109590000Y-101950000D01*
X118480000Y-104910000D02*
X115520000Y-101950000D01*
X118480000Y-106150000D02*
X118480000Y-104910000D01*
D41*
%TO.N,VDD*%
X74710000Y-91938127D02*
X74710000Y-91100000D01*
X74973423Y-92201550D02*
X74710000Y-91938127D01*
X111150000Y-89970000D02*
X111150000Y-89095000D01*
X111080000Y-90040000D02*
X111150000Y-89970000D01*
%TO.N,GND*%
X60585000Y-97440000D02*
X60520000Y-97505000D01*
X60735000Y-97440000D02*
X60670000Y-97505000D01*
X56565000Y-103435000D02*
X56565000Y-104155000D01*
X61895000Y-97505000D02*
X61960000Y-97440000D01*
X75870000Y-91430000D02*
X76315000Y-90985000D01*
X73110000Y-108020000D02*
X73110000Y-108610000D01*
D40*
X101269426Y-86215021D02*
X100734979Y-86215021D01*
D41*
X53405000Y-103435000D02*
X53420000Y-103450000D01*
D40*
X118940000Y-88290000D02*
X118610000Y-88290000D01*
D41*
X122200000Y-102825000D02*
X121100000Y-102825000D01*
X89000000Y-106800000D02*
X89700000Y-107500000D01*
X85180000Y-104400000D02*
X85180000Y-104820000D01*
X79420000Y-86365000D02*
X77420000Y-86365000D01*
X112260000Y-107930000D02*
X113400000Y-106790000D01*
X80200000Y-90925000D02*
X77935000Y-90925000D01*
X42030000Y-103350000D02*
X40780000Y-103350000D01*
X99905000Y-111425000D02*
X98930000Y-110450000D01*
X86550000Y-114012500D02*
X88375000Y-114012500D01*
X109590000Y-105360000D02*
X110180000Y-104770000D01*
X61960000Y-97440000D02*
X60735000Y-97440000D01*
X101680000Y-111405000D02*
X100090000Y-111405000D01*
X100090000Y-111425000D02*
X99905000Y-111425000D01*
X103290000Y-111445000D02*
X101720000Y-111445000D01*
X60510000Y-97495000D02*
X60520000Y-97505000D01*
X51615000Y-103435000D02*
X53405000Y-103435000D01*
X58970000Y-97505000D02*
X58960000Y-97495000D01*
D40*
X100734979Y-86215021D02*
X100310000Y-86640000D01*
D41*
X84332500Y-114012500D02*
X83510000Y-113190000D01*
X77935000Y-90925000D02*
X77905000Y-90955000D01*
X75710000Y-109680000D02*
X76345000Y-109680000D01*
X51615000Y-102165000D02*
X51615000Y-103435000D01*
X73110000Y-108610000D02*
X72520000Y-109200000D01*
X79325000Y-86490000D02*
X79280000Y-86535000D01*
X72535000Y-101615000D02*
X73050000Y-101100000D01*
D42*
X117880000Y-109785000D02*
X117890000Y-109795000D01*
D41*
X76195000Y-86365000D02*
X77420000Y-86365000D01*
X121100000Y-102825000D02*
X120875000Y-103050000D01*
X124100000Y-98615000D02*
X121650000Y-98615000D01*
X76345000Y-109680000D02*
X76730000Y-109295000D01*
X60670000Y-97505000D02*
X58970000Y-97505000D01*
X85180000Y-104820000D02*
X84400000Y-105600000D01*
X86550000Y-114012500D02*
X84332500Y-114012500D01*
X89700000Y-107500000D02*
X90630000Y-107500000D01*
X109590000Y-106150000D02*
X109590000Y-105360000D01*
X56565000Y-104155000D02*
X56570000Y-104160000D01*
X88375000Y-114012500D02*
X88550000Y-113837500D01*
X79695000Y-86640000D02*
X79420000Y-86365000D01*
X76315000Y-90985000D02*
X77670000Y-90985000D01*
X113400000Y-106790000D02*
X113400000Y-106150000D01*
X126580000Y-98615000D02*
X124100000Y-98615000D01*
X82140000Y-86640000D02*
X79695000Y-86640000D01*
X105380000Y-108757500D02*
X105380000Y-107620000D01*
X75870000Y-92280000D02*
X75870000Y-91430000D01*
X105380000Y-107620000D02*
X106180000Y-106820000D01*
X40780000Y-103350000D02*
X40520000Y-103610000D01*
X127760000Y-98615000D02*
X126580000Y-98615000D01*
D42*
X114760000Y-111535000D02*
X114750000Y-111545000D01*
D41*
X76070000Y-86490000D02*
X76195000Y-86365000D01*
D40*
X100310000Y-86640000D02*
X99640000Y-86640000D01*
%TO.N,Net-(BZ1-+)*%
X102500000Y-107500000D02*
X105940000Y-104060000D01*
X105940000Y-104060000D02*
X105940000Y-103600000D01*
X101917500Y-107500000D02*
X102500000Y-107500000D01*
%TO.N,Net-(C1-Pad1)*%
X42030000Y-101450000D02*
X43835000Y-101450000D01*
X41880000Y-101300000D02*
X42030000Y-101450000D01*
X43835000Y-101450000D02*
X44070000Y-101685000D01*
X45570000Y-101685000D02*
X45575000Y-101680000D01*
X40155000Y-101300000D02*
X41880000Y-101300000D01*
X44070000Y-101685000D02*
X45570000Y-101685000D01*
%TO.N,Net-(U2A--)*%
X47225000Y-101680000D02*
X48805000Y-101680000D01*
X50115000Y-101535000D02*
X48950000Y-101535000D01*
X51615000Y-100895000D02*
X50755000Y-100895000D01*
X50755000Y-100895000D02*
X50115000Y-101535000D01*
X48805000Y-101680000D02*
X48950000Y-101535000D01*
%TO.N,Net-(C2-Pad1)*%
X51615000Y-99625000D02*
X52400000Y-99625000D01*
X44325000Y-99780000D02*
X48745000Y-99780000D01*
X51615000Y-99625000D02*
X51895000Y-99625000D01*
X51615000Y-99625000D02*
X49310000Y-99625000D01*
X49310000Y-99625000D02*
X48950000Y-99985000D01*
X52915000Y-98060000D02*
X52915000Y-98325000D01*
X48745000Y-99780000D02*
X48950000Y-99985000D01*
X44070000Y-100035000D02*
X44325000Y-99780000D01*
X52915000Y-98325000D02*
X51615000Y-99625000D01*
D41*
%TO.N,+5V*%
X61985000Y-99055000D02*
X60520000Y-99055000D01*
X69190000Y-103085000D02*
X69270000Y-103165000D01*
X66110000Y-102830000D02*
X66445000Y-103165000D01*
X62010000Y-99030000D02*
X61985000Y-99055000D01*
X66755000Y-104120000D02*
X67750000Y-103125000D01*
X66480000Y-104120000D02*
X66755000Y-104120000D01*
X37180000Y-98180000D02*
X36355000Y-99005000D01*
X73050000Y-103400000D02*
X71275000Y-103400000D01*
D42*
X34500000Y-99000000D02*
X34505000Y-99005000D01*
D41*
X36355000Y-99005000D02*
X34505000Y-99005000D01*
X71275000Y-103400000D02*
X71040000Y-103165000D01*
X60510000Y-99045000D02*
X60520000Y-99055000D01*
X58960000Y-99045000D02*
X60510000Y-99045000D01*
X71040000Y-103165000D02*
X69270000Y-103165000D01*
X66445000Y-103165000D02*
X69270000Y-103165000D01*
X57145000Y-99045000D02*
X56565000Y-99625000D01*
X58960000Y-99045000D02*
X57145000Y-99045000D01*
%TO.N,VDD*%
X127600000Y-96350000D02*
X126885000Y-97065000D01*
X126580000Y-97065000D02*
X124100000Y-97065000D01*
X114125000Y-113095000D02*
X113400000Y-113820000D01*
X77420000Y-87915000D02*
X79420000Y-87915000D01*
X110250000Y-93070000D02*
X110170000Y-93150000D01*
X105380000Y-111057500D02*
X107162500Y-111057500D01*
X107162500Y-111057500D02*
X107210000Y-111010000D01*
X126885000Y-97065000D02*
X126580000Y-97065000D01*
X121650000Y-97065000D02*
X119965000Y-97065000D01*
X82135000Y-87915000D02*
X82140000Y-87910000D01*
X113740000Y-110400000D02*
X113320000Y-110820000D01*
X79420000Y-87915000D02*
X82135000Y-87915000D01*
X103922500Y-109600000D02*
X105380000Y-111057500D01*
X114750000Y-113095000D02*
X114125000Y-113095000D01*
X109415000Y-93730000D02*
X110060000Y-93085000D01*
X124100000Y-97065000D02*
X121650000Y-97065000D01*
X116380000Y-113085000D02*
X114760000Y-113085000D01*
X109050000Y-93730000D02*
X109415000Y-93730000D01*
X125450000Y-102800000D02*
X125400000Y-102750000D01*
X125400000Y-102750000D02*
X124325000Y-102750000D01*
X114760000Y-113085000D02*
X114750000Y-113095000D01*
X102490000Y-109600000D02*
X103922500Y-109600000D01*
X123200000Y-107075000D02*
X124275000Y-107075000D01*
X113740000Y-109845000D02*
X113740000Y-110400000D01*
X75570000Y-87915000D02*
X77420000Y-87915000D01*
X124275000Y-107075000D02*
X124500000Y-106850000D01*
X119965000Y-97065000D02*
X119750000Y-96850000D01*
%TO.N,/BZ*%
X104997500Y-112975000D02*
X105380000Y-113357500D01*
X93785000Y-112955000D02*
X90630000Y-109800000D01*
X98867500Y-107275000D02*
X100042500Y-108450000D01*
X105282500Y-113455000D02*
X105380000Y-113357500D01*
X90630000Y-109800000D02*
X93160000Y-107270000D01*
X90630000Y-109800000D02*
X91060000Y-109800000D01*
X103320000Y-112975000D02*
X104997500Y-112975000D01*
X98645000Y-107270000D02*
X98650000Y-107275000D01*
X98650000Y-107275000D02*
X98867500Y-107275000D01*
X103250000Y-112955000D02*
X93785000Y-112955000D01*
X93160000Y-107270000D02*
X98645000Y-107270000D01*
D40*
%TO.N,/EN*%
X74340000Y-89450000D02*
X72050000Y-91740000D01*
X82140000Y-89180000D02*
X81885000Y-89435000D01*
X103800000Y-88297500D02*
X103942500Y-88440000D01*
X74710000Y-89450000D02*
X74340000Y-89450000D01*
X80010000Y-94110000D02*
X72050000Y-94110000D01*
X81885000Y-89435000D02*
X74725000Y-89435000D01*
X72050000Y-91740000D02*
X72050000Y-94110000D01*
X72170000Y-94230000D02*
X72050000Y-94110000D01*
X103800000Y-87240000D02*
X103800000Y-88297500D01*
X79290000Y-95860000D02*
X80010000Y-95140000D01*
X80010000Y-95140000D02*
X80010000Y-94110000D01*
X74725000Y-89435000D02*
X74710000Y-89450000D01*
%TO.N,/STB*%
X115865000Y-100555000D02*
X119750000Y-104440000D01*
X122200000Y-104375000D02*
X121525000Y-104375000D01*
X119750000Y-104440000D02*
X119750000Y-106150000D01*
X121525000Y-104375000D02*
X119750000Y-106150000D01*
X112545000Y-100555000D02*
X115865000Y-100555000D01*
X124325000Y-104400000D02*
X122225000Y-104400000D01*
X122225000Y-104400000D02*
X122200000Y-104375000D01*
X99640000Y-98070000D02*
X103120000Y-98070000D01*
X111420000Y-99430000D02*
X112545000Y-100555000D01*
X104480000Y-99430000D02*
X111420000Y-99430000D01*
X103120000Y-98070000D02*
X104480000Y-99430000D01*
%TO.N,/CLK*%
X121550000Y-107075000D02*
X121100000Y-107525000D01*
X118480000Y-106960000D02*
X118480000Y-106150000D01*
X121100000Y-107525000D02*
X119045000Y-107525000D01*
X118480000Y-107425000D02*
X117600000Y-108305000D01*
X118480000Y-106150000D02*
X118480000Y-107425000D01*
X119045000Y-107525000D02*
X118480000Y-106960000D01*
X99680000Y-100650000D02*
X99640000Y-100610000D01*
%TO.N,/DIN*%
X107460000Y-101880000D02*
X99640000Y-101880000D01*
X115570000Y-108235000D02*
X115965000Y-108235000D01*
X115435000Y-108370000D02*
X115570000Y-108235000D01*
X99670000Y-101850000D02*
X99640000Y-101880000D01*
X115965000Y-108235000D02*
X117210000Y-106990000D01*
X115180000Y-103300000D02*
X108880000Y-103300000D01*
X117210000Y-106150000D02*
X117210000Y-105330000D01*
X117210000Y-105330000D02*
X115180000Y-103300000D01*
X115570000Y-108235000D02*
X113780000Y-108235000D01*
X108880000Y-103300000D02*
X107460000Y-101880000D01*
X113780000Y-108235000D02*
X113740000Y-108195000D01*
X117210000Y-106990000D02*
X117210000Y-106150000D01*
%TO.N,Net-(Q1-B)*%
X106335000Y-91950000D02*
X106945000Y-91340000D01*
X104607500Y-91950000D02*
X106335000Y-91950000D01*
%TO.N,/BOOT*%
X101110000Y-103150000D02*
X101250000Y-103010000D01*
X101670000Y-95550000D02*
X101670000Y-93962500D01*
X101670000Y-93962500D02*
X102732500Y-92900000D01*
X99640000Y-103150000D02*
X101110000Y-103150000D01*
%TO.N,/U0DTR*%
X107550000Y-93850000D02*
X107580000Y-93850000D01*
X111150000Y-87445000D02*
X109440000Y-87445000D01*
X109440000Y-87445000D02*
X109395000Y-87490000D01*
X107580000Y-93850000D02*
X107590000Y-93840000D01*
X107550000Y-93850000D02*
X104607500Y-93850000D01*
%TO.N,/U0RTS*%
X108595000Y-90615000D02*
X108595000Y-91340000D01*
X111860000Y-91420000D02*
X110930000Y-91420000D01*
X105817500Y-89390000D02*
X107370000Y-89390000D01*
X107370000Y-89390000D02*
X108595000Y-90615000D01*
X108675000Y-91420000D02*
X108595000Y-91340000D01*
X110930000Y-91420000D02*
X108675000Y-91420000D01*
%TO.N,Net-(Q2-B)*%
X107745000Y-87490000D02*
X105817500Y-87490000D01*
%TO.N,/GATEQ3*%
X99740000Y-96900000D02*
X99640000Y-96800000D01*
X103350000Y-104400000D02*
X102192500Y-104400000D01*
X103200000Y-96900000D02*
X99740000Y-96900000D01*
X103460000Y-97160000D02*
X103200000Y-96900000D01*
X102192500Y-104400000D02*
X100042500Y-106550000D01*
%TO.N,Net-(U1-V_{OUT})*%
X38505000Y-101300000D02*
X37475000Y-100270000D01*
X37475000Y-100270000D02*
X34500000Y-100270000D01*
%TO.N,Net-(U2B--)*%
X59690000Y-102165000D02*
X59930000Y-102405000D01*
X56565000Y-102165000D02*
X59690000Y-102165000D01*
X54565000Y-98060000D02*
X54565000Y-101139999D01*
X55590001Y-102165000D02*
X56565000Y-102165000D01*
X54565000Y-101139999D02*
X55590001Y-102165000D01*
%TO.N,/SENSOR_VN*%
X56685000Y-100775000D02*
X56565000Y-100895000D01*
X69730000Y-96320000D02*
X65275000Y-100775000D01*
X56685000Y-101015000D02*
X56565000Y-100895000D01*
X80250000Y-92540000D02*
X81070000Y-91720000D01*
X76870000Y-96020000D02*
X76570000Y-96320000D01*
X81070000Y-91720000D02*
X82140000Y-91720000D01*
X76570000Y-96320000D02*
X69730000Y-96320000D01*
X65275000Y-100775000D02*
X56685000Y-100775000D01*
X78130000Y-92540000D02*
X80250000Y-92540000D01*
%TO.N,/ESPTX2FTDI*%
X104230000Y-90450000D02*
X99640000Y-90450000D01*
%TO.N,/ESPRX2FTDI*%
X101260000Y-91720000D02*
X99640000Y-91720000D01*
X102570000Y-86190000D02*
X102000000Y-86760000D01*
X112240000Y-86190000D02*
X102570000Y-86190000D01*
X114190000Y-88140000D02*
X112240000Y-86190000D01*
%TO.N,Net-(U7-E)*%
X116140000Y-91460000D02*
X122057551Y-91460000D01*
X113400000Y-94200000D02*
X116140000Y-91460000D01*
X113400000Y-96850000D02*
X113400000Y-94200000D01*
X122057551Y-91460000D02*
X124781014Y-94183463D01*
%TO.N,Net-(U7-DP)*%
X123317551Y-90180000D02*
X114940000Y-90180000D01*
X114940000Y-90180000D02*
X109590000Y-95530000D01*
X127321014Y-94183463D02*
X123317551Y-90180000D01*
X109590000Y-95530000D02*
X109590000Y-96850000D01*
%TO.N,Net-(U7-C)*%
X120827551Y-92770000D02*
X122241014Y-94183463D01*
X115940000Y-94470000D02*
X117640000Y-92770000D01*
X115940000Y-96850000D02*
X115940000Y-94470000D01*
X117640000Y-92770000D02*
X120827551Y-92770000D01*
%TO.N,Net-(U7-DIG1)*%
X115940000Y-105560000D02*
X115940000Y-106150000D01*
X127770000Y-113790000D02*
X129870000Y-111690000D01*
X129870000Y-111690000D02*
X129870000Y-109431986D01*
X118280000Y-111410000D02*
X118280000Y-113350000D01*
X118280000Y-111410000D02*
X118260000Y-111430000D01*
X129870000Y-109431986D02*
X129861014Y-109423000D01*
X114930000Y-104550000D02*
X115940000Y-105560000D01*
X118280000Y-113350000D02*
X118720000Y-113790000D01*
X118720000Y-113790000D02*
X127770000Y-113790000D01*
%TO.N,Net-(U7-F)*%
X112730001Y-98475000D02*
X112130000Y-97874999D01*
X114025000Y-98475000D02*
X112730001Y-98475000D01*
X112130000Y-97874999D02*
X112130000Y-96850000D01*
%TO.N,Net-(U7-DIG2)*%
X114670000Y-106880000D02*
X114670000Y-106150000D01*
X114670000Y-105683738D02*
X114670000Y-106150000D01*
X112580000Y-104510000D02*
X113496262Y-104510000D01*
X112609873Y-104539873D02*
X112759873Y-104539873D01*
X112580000Y-104510000D02*
X112609873Y-104539873D01*
X113496262Y-104510000D02*
X114670000Y-105683738D01*
%TO.N,Net-(U7-D)*%
X114670000Y-96850000D02*
X115290000Y-97470000D01*
X129480000Y-99620000D02*
X129960000Y-99140000D01*
X116973738Y-99620000D02*
X129480000Y-99620000D01*
X115290000Y-97936262D02*
X116973738Y-99620000D01*
X129960000Y-94282449D02*
X129861014Y-94183463D01*
X129960000Y-99140000D02*
X129960000Y-94282449D01*
X115290000Y-97470000D02*
X115290000Y-97936262D01*
%TO.N,Net-(U7-B)*%
X117230000Y-98220000D02*
X117210000Y-98200000D01*
X117210000Y-98200000D02*
X117210000Y-96850000D01*
%TO.N,Net-(U7-A)*%
X119100000Y-98530000D02*
X118480000Y-97910000D01*
X118480000Y-97910000D02*
X118480000Y-96850000D01*
%TO.N,Net-(U7-G)*%
X127321014Y-110338986D02*
X127321014Y-109423000D01*
X110860000Y-96850000D02*
X110860000Y-98460000D01*
X120770000Y-111870000D02*
X125790000Y-111870000D01*
X125790000Y-111870000D02*
X127321014Y-110338986D01*
X110860000Y-98460000D02*
X110870000Y-98470000D01*
D41*
%TO.N,Net-(J2-Pin_1)*%
X79590000Y-113170000D02*
X81640000Y-111120000D01*
X81640000Y-111120000D02*
X85520000Y-111120000D01*
X79590000Y-113170000D02*
X75910000Y-113170000D01*
X88375000Y-112112500D02*
X88550000Y-112287500D01*
X75285000Y-107745000D02*
X75010000Y-108020000D01*
X85520000Y-111120000D02*
X86512500Y-112112500D01*
X86550000Y-112112500D02*
X88375000Y-112112500D01*
X78080000Y-111660000D02*
X78080000Y-108320000D01*
X75010000Y-108020000D02*
X75010000Y-106540000D01*
X76730000Y-107745000D02*
X75285000Y-107745000D01*
X78080000Y-108320000D02*
X77505000Y-107745000D01*
X75010000Y-106540000D02*
X74170000Y-105700000D01*
X79590000Y-113170000D02*
X78080000Y-111660000D01*
X75910000Y-113170000D02*
X75140000Y-112400000D01*
X88550000Y-112287500D02*
X90442500Y-112287500D01*
X77505000Y-107745000D02*
X76730000Y-107745000D01*
X86512500Y-112112500D02*
X86550000Y-112112500D01*
X74170000Y-105700000D02*
X73050000Y-105700000D01*
X90442500Y-112287500D02*
X90630000Y-112100000D01*
%TD*%
%TA.AperFunction,Conductor*%
%TO.N,GND*%
G36*
X80969274Y-97667220D02*
G01*
X81042398Y-97710235D01*
X81090201Y-97761192D01*
X81103038Y-97828120D01*
X80939848Y-99659477D01*
X80914291Y-99724505D01*
X80857634Y-99765392D01*
X80819066Y-99772441D01*
X74570000Y-99910000D01*
X74417861Y-102125519D01*
X74393630Y-102191052D01*
X74337815Y-102233082D01*
X74295253Y-102241019D01*
X66655743Y-102308882D01*
X66588532Y-102289794D01*
X66542310Y-102237398D01*
X66530644Y-102184254D01*
X66539408Y-100475247D01*
X66559436Y-100408313D01*
X66612474Y-100362830D01*
X66654982Y-100352173D01*
X70360000Y-100100000D01*
X70820250Y-97779571D01*
X70852602Y-97717643D01*
X70913299Y-97683036D01*
X70941508Y-97679698D01*
X80906038Y-97650100D01*
X80969274Y-97667220D01*
G37*
%TD.AperFunction*%
%TD*%
%TA.AperFunction,Conductor*%
%TO.N,GND*%
G36*
X118450294Y-109030334D02*
G01*
X118496620Y-109082638D01*
X118508382Y-109136951D01*
X118491536Y-110459366D01*
X118470999Y-110526150D01*
X118417617Y-110571228D01*
X118369369Y-110581773D01*
X117130000Y-110600000D01*
X117130000Y-112133996D01*
X117110315Y-112201035D01*
X117057511Y-112246790D01*
X117004013Y-112257980D01*
X114131282Y-112211943D01*
X114064567Y-112191187D01*
X114019664Y-112137656D01*
X114009272Y-112088851D01*
X114000855Y-110918877D01*
X114020057Y-110851698D01*
X114072530Y-110805564D01*
X114118733Y-110794136D01*
X114810000Y-110760000D01*
X114828582Y-109171224D01*
X114849050Y-109104420D01*
X114902385Y-109059286D01*
X114951224Y-109048682D01*
X118383047Y-109011379D01*
X118450294Y-109030334D01*
G37*
%TD.AperFunction*%
%TD*%
M02*
