  0
SECTION
  2
BLOCKS
  0
ENDSEC
  0
SECTION
  2
ENTITIES
  0
LINE
  8
0
 10
38.1421
 20
8.75655
 11
37.9481
 21
8.15936
  0
LINE
  8
0
 10
37.9481
 20
8.15936
 11
37.6807
 21
7.59122
  0
LINE
  8
0
 10
37.6807
 20
7.59122
 11
37.3443
 21
7.06107
  0
LINE
  8
0
 10
37.3443
 20
7.06107
 11
36.944
 21
6.57726
  0
LINE
  8
0
 10
36.944
 20
6.57726
 11
36.4863
 21
6.14743
  0
LINE
  8
0
 10
36.4863
 20
6.14743
 11
35.9783
 21
5.77835
  0
LINE
  8
0
 10
35.9783
 20
5.77835
 11
35.4281
 21
5.47586
  0
LINE
  8
0
 10
35.4281
 20
5.47586
 11
34.8443
 21
5.24471
  0
LINE
  8
0
 10
34.8443
 20
5.24471
 11
34.2361
 21
5.08856
  0
LINE
  8
0
 10
34.2361
 20
5.08856
 11
33.6131
 21
5.00986
  0
LINE
  8
0
 10
33.6131
 20
5.00986
 11
33.2992
 21
5.00986
  0
LINE
  8
0
 10
33.2992
 20
5.00986
 11
33.2992
 21
5
  0
LINE
  8
0
 10
33.2992
 20
5
 11
2.5
 21
5
  0
LINE
  8
0
 10
2.5
 20
5
 11
2.5
 21
4.99506
  0
LINE
  8
0
 10
2.5
 20
4.99506
 11
2.34302
 21
4.99506
  0
LINE
  8
0
 10
2.34302
 20
4.99506
 11
2.03154
 21
4.9557
  0
LINE
  8
0
 10
2.03154
 20
4.9557
 11
1.72745
 21
4.87764
  0
LINE
  8
0
 10
1.72745
 20
4.87764
 11
1.43555
 21
4.76205
  0
LINE
  8
0
 10
1.43555
 20
4.76205
 11
1.16043
 21
4.61081
  0
LINE
  8
0
 10
1.16043
 20
4.61081
 11
0.906433
 21
4.42627
  0
LINE
  8
0
 10
0.906433
 20
4.42627
 11
0.677567
 21
4.21136
  0
LINE
  8
0
 10
0.677567
 20
4.21136
 11
0.477448
 21
3.96945
  0
LINE
  8
0
 10
0.477448
 20
3.96945
 11
0.309219
 21
3.70438
  0
LINE
  8
0
 10
0.309219
 20
3.70438
 11
0.175552
 21
3.4203
  0
LINE
  8
0
 10
0.175552
 20
3.4203
 11
0.078537
 21
3.12172
  0
LINE
  8
0
 10
0.078537
 20
3.12172
 11
0.0196991
 21
2.81332
  0
LINE
  8
0
 10
0.0196991
 20
2.81332
 11
0
 21
2.5
  0
LINE
  8
0
 10
0
 20
2.5
 11
0
 21
-2.5
  0
LINE
  8
0
 10
0
 20
-2.5
 11
0.0196991
 21
-2.81332
  0
LINE
  8
0
 10
0.0196991
 20
-2.81332
 11
0.078537
 21
-3.12172
  0
LINE
  8
0
 10
0.078537
 20
-3.12172
 11
0.175552
 21
-3.4203
  0
LINE
  8
0
 10
0.175552
 20
-3.4203
 11
0.309219
 21
-3.70438
  0
LINE
  8
0
 10
0.309219
 20
-3.70438
 11
0.477448
 21
-3.96945
  0
LINE
  8
0
 10
0.477448
 20
-3.96945
 11
0.677567
 21
-4.21136
  0
LINE
  8
0
 10
0.677567
 20
-4.21136
 11
0.906433
 21
-4.42627
  0
LINE
  8
0
 10
0.906433
 20
-4.42627
 11
1.16043
 21
-4.61081
  0
LINE
  8
0
 10
1.16043
 20
-4.61081
 11
1.43555
 21
-4.76205
  0
LINE
  8
0
 10
1.43555
 20
-4.76205
 11
1.72745
 21
-4.87764
  0
LINE
  8
0
 10
1.72745
 20
-4.87764
 11
2.03154
 21
-4.9557
  0
LINE
  8
0
 10
2.03154
 20
-4.9557
 11
2.34302
 21
-4.99506
  0
LINE
  8
0
 10
2.34302
 20
-4.99506
 11
2.5
 21
-4.99506
  0
LINE
  8
0
 10
2.5
 20
-4.99506
 11
2.5
 21
-5
  0
LINE
  8
0
 10
2.5
 20
-5
 11
33.2992
 21
-5
  0
LINE
  8
0
 10
33.2992
 20
-5
 11
33.2992
 21
-5.00986
  0
LINE
  8
0
 10
33.2992
 20
-5.00986
 11
33.6131
 21
-5.00986
  0
LINE
  8
0
 10
33.6131
 20
-5.00986
 11
34.2361
 21
-5.08856
  0
LINE
  8
0
 10
34.2361
 20
-5.08856
 11
34.8443
 21
-5.24471
  0
LINE
  8
0
 10
34.8443
 20
-5.24471
 11
35.4281
 21
-5.47586
  0
LINE
  8
0
 10
35.4281
 20
-5.47586
 11
35.9783
 21
-5.77835
  0
LINE
  8
0
 10
35.9783
 20
-5.77835
 11
36.4863
 21
-6.14743
  0
LINE
  8
0
 10
36.4863
 20
-6.14743
 11
36.944
 21
-6.57726
  0
LINE
  8
0
 10
36.944
 20
-6.57726
 11
37.3443
 21
-7.06107
  0
LINE
  8
0
 10
37.3443
 20
-7.06107
 11
37.6807
 21
-7.59122
  0
LINE
  8
0
 10
37.6807
 20
-7.59122
 11
37.9481
 21
-8.15936
  0
LINE
  8
0
 10
37.9481
 20
-8.15936
 11
38.1421
 21
-8.75655
  0
LINE
  8
0
 10
38.1421
 20
-8.75655
 11
38.2598
 21
-9.37332
  0
LINE
  8
0
 10
38.2598
 20
-9.37332
 11
38.3386
 21
-10.6267
  0
LINE
  8
0
 10
38.3386
 20
-10.6267
 11
38.4563
 21
-11.2434
  0
LINE
  8
0
 10
38.4563
 20
-11.2434
 11
38.6503
 21
-11.8406
  0
LINE
  8
0
 10
38.6503
 20
-11.8406
 11
38.9177
 21
-12.4088
  0
LINE
  8
0
 10
38.9177
 20
-12.4088
 11
39.2541
 21
-12.9389
  0
LINE
  8
0
 10
39.2541
 20
-12.9389
 11
39.6543
 21
-13.4227
  0
LINE
  8
0
 10
39.6543
 20
-13.4227
 11
40.1121
 21
-13.8526
  0
LINE
  8
0
 10
40.1121
 20
-13.8526
 11
40.6201
 21
-14.2216
  0
LINE
  8
0
 10
40.6201
 20
-14.2216
 11
41.1703
 21
-14.5241
  0
LINE
  8
0
 10
41.1703
 20
-14.5241
 11
41.7541
 21
-14.7553
  0
LINE
  8
0
 10
41.7541
 20
-14.7553
 11
42.3623
 21
-14.9114
  0
LINE
  8
0
 10
42.3623
 20
-14.9114
 11
42.9852
 21
-14.9901
  0
LINE
  8
0
 10
42.9852
 20
-14.9901
 11
43.2992
 21
-14.9901
  0
LINE
  8
0
 10
43.2992
 20
-14.9901
 11
43.2992
 21
-15
  0
LINE
  8
0
 10
43.2992
 20
-15
 11
95.7992
 21
-15
  0
LINE
  8
0
 10
95.7992
 20
-15
 11
95.7992
 21
-14.9951
  0
LINE
  8
0
 10
95.7992
 20
-14.9951
 11
95.9578
 21
-14.9951
  0
LINE
  8
0
 10
95.9578
 20
-14.9951
 11
96.2692
 21
-14.9557
  0
LINE
  8
0
 10
96.2692
 20
-14.9557
 11
96.5733
 21
-14.8776
  0
LINE
  8
0
 10
96.5733
 20
-14.8776
 11
96.8652
 21
-14.7621
  0
LINE
  8
0
 10
96.8652
 20
-14.7621
 11
97.1404
 21
-14.6108
  0
LINE
  8
0
 10
97.1404
 20
-14.6108
 11
97.3943
 21
-14.4263
  0
LINE
  8
0
 10
97.3943
 20
-14.4263
 11
97.6232
 21
-14.2114
  0
LINE
  8
0
 10
97.6232
 20
-14.2114
 11
97.8233
 21
-13.9695
  0
LINE
  8
0
 10
97.8233
 20
-13.9695
 11
97.9916
 21
-13.7044
  0
LINE
  8
0
 10
97.9916
 20
-13.7044
 11
98.1252
 21
-13.4203
  0
LINE
  8
0
 10
98.1252
 20
-13.4203
 11
98.2222
 21
-13.1217
  0
LINE
  8
0
 10
98.2222
 20
-13.1217
 11
98.2811
 21
-12.8133
  0
LINE
  8
0
 10
98.2811
 20
-12.8133
 11
98.3008
 21
-12.5
  0
LINE
  8
0
 10
98.3008
 20
-12.5
 11
98.3008
 21
12.5
  0
LINE
  8
0
 10
98.3008
 20
12.5
 11
98.2811
 21
12.8133
  0
LINE
  8
0
 10
98.2811
 20
12.8133
 11
98.2222
 21
13.1217
  0
LINE
  8
0
 10
98.2222
 20
13.1217
 11
98.1252
 21
13.4203
  0
LINE
  8
0
 10
98.1252
 20
13.4203
 11
97.9916
 21
13.7044
  0
LINE
  8
0
 10
97.9916
 20
13.7044
 11
97.8233
 21
13.9695
  0
LINE
  8
0
 10
97.8233
 20
13.9695
 11
97.6232
 21
14.2114
  0
LINE
  8
0
 10
97.6232
 20
14.2114
 11
97.3943
 21
14.4263
  0
LINE
  8
0
 10
97.3943
 20
14.4263
 11
97.1404
 21
14.6108
  0
LINE
  8
0
 10
97.1404
 20
14.6108
 11
96.8652
 21
14.7621
  0
LINE
  8
0
 10
96.8652
 20
14.7621
 11
96.5733
 21
14.8776
  0
LINE
  8
0
 10
96.5733
 20
14.8776
 11
96.2692
 21
14.9557
  0
LINE
  8
0
 10
96.2692
 20
14.9557
 11
95.9578
 21
14.9951
  0
LINE
  8
0
 10
95.9578
 20
14.9951
 11
95.7992
 21
14.9951
  0
LINE
  8
0
 10
95.7992
 20
14.9951
 11
95.7992
 21
15
  0
LINE
  8
0
 10
95.7992
 20
15
 11
43.2992
 21
15
  0
LINE
  8
0
 10
43.2992
 20
15
 11
43.2992
 21
14.9901
  0
LINE
  8
0
 10
43.2992
 20
14.9901
 11
42.9852
 21
14.9901
  0
LINE
  8
0
 10
42.9852
 20
14.9901
 11
42.3623
 21
14.9114
  0
LINE
  8
0
 10
42.3623
 20
14.9114
 11
41.7541
 21
14.7553
  0
LINE
  8
0
 10
41.7541
 20
14.7553
 11
41.1703
 21
14.5241
  0
LINE
  8
0
 10
41.1703
 20
14.5241
 11
40.6201
 21
14.2216
  0
LINE
  8
0
 10
40.6201
 20
14.2216
 11
40.1121
 21
13.8526
  0
LINE
  8
0
 10
40.1121
 20
13.8526
 11
39.6543
 21
13.4227
  0
LINE
  8
0
 10
39.6543
 20
13.4227
 11
39.2541
 21
12.9389
  0
LINE
  8
0
 10
39.2541
 20
12.9389
 11
38.9177
 21
12.4088
  0
LINE
  8
0
 10
38.9177
 20
12.4088
 11
38.6503
 21
11.8406
  0
LINE
  8
0
 10
38.6503
 20
11.8406
 11
38.4563
 21
11.2434
  0
LINE
  8
0
 10
38.4563
 20
11.2434
 11
38.3386
 21
10.6267
  0
LINE
  8
0
 10
38.3386
 20
10.6267
 11
38.2598
 21
9.37332
  0
LINE
  8
0
 10
38.2598
 20
9.37332
 11
38.1421
 21
8.75655
  0
ENDSEC
  0
SECTION
  2
OBJECTS
  0
DICTIONARY
  0
ENDSEC
  0
EOF
